<svg xmlns="http://www.w3.org/2000/svg" xmlns:xlink="http://www.w3.org/1999/xlink" width="16" height="16.768" viewBox="0 0 14 16.768"><defs><clipPath id="a"><path d="M0,6.348H14V-10.42H0Z" transform="translate(0 10.42)" fill="none"/></clipPath></defs><g transform="translate(0 10.42)"><g transform="translate(0 -10.42)" clip-path="url(#a)"><g transform="translate(0)"><path d="M2.65,6.348a.274.274,0,0,1-.161,0C-3.69,3.773-4.35-.234-4.35-1.843v-6.6a.37.37,0,0,1,.274-.37c1.448-.338,6.163-1.5,6.582-1.609h.274c.37.113,5.133,1.271,6.582,1.609a.384.384,0,0,1,.29.354v6.6c0,1.609-.66,5.616-6.759,8.046a.561.561,0,0,1-.241.161m0-16.092L-3.465-8.231h-.113v6.389c0,4.345,4.345,6.63,6.211,7.4,1.931-.772,6.292-3.106,6.292-7.4V-8.151H8.813L2.682-9.7Z" transform="translate(4.35 10.42)" fill="#221f1f"/></g><g transform="translate(2.382 2.366)"><path d="M1.748,4.484C-.006,3.647-2.87,1.812-2.87-1.132V-6.2c2.446-.611,3.878-.949,4.651-1.159.708.209,2.076.547,4.57,1.159v5.069c0,2.945-2.848,4.779-4.6,5.616M1.716-6.507l-3.749.853h-.113v4.522c0,2.3,2.076,3.878,3.83,4.828,1.867-.9,3.943-2.478,3.943-4.828v-4.49H5.514L1.781-6.507Z" transform="translate(2.87 7.36)" fill="#221f1f"/></g></g></g></svg>
