<?xml version="1.0" standalone="no"?>
<!DOCTYPE svg PUBLIC "-//W3C//DTD SVG 1.1//EN" "http://www.w3.org/Graphics/SVG/1.1/DTD/svg11.dtd" >
<svg xmlns="http://www.w3.org/2000/svg">
<metadata></metadata>
<defs>
<font id="freightdisp_problack" horiz-adv-x="1021" >
<font-face units-per-em="2048" ascent="1638" descent="-410" />
<missing-glyph horiz-adv-x="368" />
<glyph unicode="&#xfb01;" horiz-adv-x="1222" d="M8 776l41 117l119 -2l8 117q7 109 91.5 199t210.5 138t261 48q117 0 185.5 -48.5t68.5 -123.5q0 -61 -42 -103.5t-101 -42.5q-73 0 -123.5 63t-73.5 167l-69 18q-33 -15 -56.5 -41t-42 -92t-18.5 -166v-131h471l125 35v-858q0 -14 13.5 -19t61.5 -11q5 -1 7.5 -1t7 -0.5 t8.5 -1.5l21 -2l6 -35h-531l2 35l37 2q45 3 58.5 9.5t13.5 25.5v702h-301v-704q0 -15 14 -22t62 -11l37 -2l6 -35h-541l6 35l39 2q45 3 62.5 10t17.5 25v694z" />
<glyph unicode="&#xfb02;" horiz-adv-x="1214" d="M8 774l41 119l119 -2l8 117q7 109 88.5 199t202.5 138t252 48t199 -62l145 60v-1321q0 -13 16 -18.5t82 -14.5l19 -2l8 -35h-531l7 35l22 2q65 9 75 18q7 6 7 17v702h-301v-704q0 -15 14 -22t62 -11l37 -2l6 -35h-541l6 35l39 2q45 3 62.5 10t17.5 25v694zM467 893h301 v237q-49 21 -81.5 68.5t-43.5 106.5l-72 18q-50 -21 -77 -86t-27 -213v-131z" />
<glyph unicode="&#xfb03;" horiz-adv-x="1826" d="M8 776l41 119l119 -4l4 88q3 77 34 140.5t80.5 107t114 73.5t133.5 44t142 14q94 0 149 -38t58 -101q81 81 205 127.5t255 46.5q116 0 185 -48.5t69 -123.5q0 -61 -43 -103.5t-102 -42.5q-73 0 -121.5 62.5t-73.5 167.5l-67 18q-26 -11 -45.5 -28.5t-37.5 -50t-28 -88.5 t-10 -132v-129h471l127 33v-858q0 -14 13.5 -19t59.5 -11q5 -1 7.5 -1t7 -0.5t8.5 -1.5l23 -2l6 -35h-532l6 37l37 2q42 3 54.5 9.5t12.5 25.5v700h-301v-704q0 -15 14 -22t62 -11l41 -2l4 -35h-528l4 35l36 2q49 3 60.5 9t11.5 26v702h-307v-704q0 -15 14 -22t62 -11l37 -2 l6 -35h-541l6 35l39 2q45 3 62.5 10t17.5 25v696zM467 895l303 -4l8 117q2 36 21 90q-26 -11 -51 -11q-62 0 -104.5 58t-61.5 147l-35 8q-26 -10 -41.5 -30.5t-27 -76.5t-11.5 -149v-149z" />
<glyph unicode="&#xfb04;" horiz-adv-x="1820" d="M8 776l41 119l119 -4l4 88q3 77 34 140.5t80.5 107t114 73.5t133.5 44t142 14q92 0 147 -37.5t60 -97.5q78 79 198 124.5t248 45.5q126 0 191 -62l147 60v-1321q0 -13 16 -18.5t80 -14.5l21 -2l6 -35h-530l6 35l34 2q49 3 59.5 9t10.5 26v702h-301v-704q0 -15 14 -22 t62 -11l41 -2l4 -35h-528l4 35l36 2q49 3 60.5 9t11.5 26v702h-307v-704q0 -15 14 -22t62 -11l37 -2l6 -35h-541l6 35l39 2q45 3 62.5 10t17.5 25v696zM467 895l303 -4l8 117q2 36 21 90q-29 -11 -51 -11q-63 0 -103 48.5t-63 156.5l-35 8q-26 -10 -41.5 -30.5t-27 -76.5 t-11.5 -149v-149zM1069 895h301v235q-48 23 -81.5 69.5t-45.5 105.5l-67 18q-50 -21 -78.5 -90.5t-28.5 -218.5v-119z" />
<glyph horiz-adv-x="2048" />
<glyph horiz-adv-x="2048" />
<glyph unicode="&#xd;" horiz-adv-x="2048" />
<glyph unicode=" "  horiz-adv-x="368" />
<glyph unicode="&#x09;" horiz-adv-x="368" />
<glyph unicode="&#xa0;" horiz-adv-x="368" />
<glyph unicode="!" horiz-adv-x="600" d="M141 1155q-15 66 22 110t136 44h6q98 0 133.5 -43.5t22.5 -110.5l-144 -731q-3 -13 -16 -13.5t-16 13.5zM147 129q0 63 45.5 107.5t108.5 44.5q64 0 110 -45.5t46 -106.5q0 -63 -46 -109.5t-110 -46.5q-63 0 -108.5 45.5t-45.5 110.5z" />
<glyph unicode="&#x22;" horiz-adv-x="765" d="M-2 825l219 494h4l178 -70l-362 -424h-39zM369 825l219 494h2l178 -70l-358 -424h-41z" />
<glyph unicode="#" horiz-adv-x="1075" d="M-14 385v45h284l111 416h-275v45h285l109 403h51l-107 -403h322l106 403h52l-107 -403h273v-45h-285l-109 -416h273v-45h-285l-104 -395h-52l105 395h-322l-106 -395h-51l104 395h-272zM322 430h323l109 416h-322z" />
<glyph unicode="$" horiz-adv-x="1083" d="M84 412h66l106 -232q52 -63 119 -104q1 0 30.5 112.5t58.5 224.5t28 111l-17 6q-72 25 -119 44.5t-102 52t-87 68t-53.5 88t-21.5 116.5q0 117 63.5 210t173.5 144.5t244 51.5q27 0 119 -9l56 215h51l-58 -223q71 -16 127 -33l99 31l6 -397h-60l-182 330l-6 4l-100 -385 l14 -7q75 -25 127 -46.5t110 -57t92.5 -76t57.5 -101t23 -134.5q0 -183 -147 -313t-365 -130q-62 0 -134 7l-77 -302h-54l80 306q-126 13 -239 57zM336 1073q0 -44 17.5 -78t54 -60t74.5 -43.5t96 -37.5l100 385q-56 12 -117 12q-100 0 -162.5 -50.5t-62.5 -127.5zM422 51 q62 -24 125 -24q125 0 190.5 59.5t65.5 161.5q0 53 -19.5 94.5t-58.5 71.5t-80.5 50.5t-103.5 43.5z" />
<glyph unicode="%" horiz-adv-x="1216" d="M23 1030q0 120 76.5 203.5t201.5 83.5q128 0 205.5 -83.5t77.5 -203.5q0 -118 -77.5 -200t-205.5 -82q-125 0 -201.5 82t-76.5 200zM70 1030q0 -101 63.5 -170t167.5 -69q106 0 171 69t65 170q0 103 -65 173.5t-171 70.5q-104 0 -167.5 -70.5t-63.5 -173.5zM119 -29 l925 1340h50l-924 -1340h-51zM635 248q0 120 76 203.5t202 83.5q127 0 204 -83.5t77 -203.5q0 -118 -77 -200.5t-204 -82.5q-126 0 -202 82t-76 201zM682 250q0 -104 63 -173t168 -69t169.5 69t64.5 173q0 100 -65 171t-169 71t-167.5 -70.5t-63.5 -171.5z" />
<glyph unicode="&#x26;" horiz-adv-x="1509" d="M35 317q0 143 100.5 242.5t255.5 136.5q-93 40 -153 118t-60 175q0 87 63.5 159.5t161 111t201.5 38.5q157 0 266 -63t109 -172q0 -53 -27 -98.5t-69.5 -73t-90 -44t-92.5 -18.5q91 -42 190.5 -140.5t160.5 -196.5q118 168 118 225q16 47 -18 73.5t-107 36.5l-34 9l-6 34 h522l-6 -34l-43 -9q-70 -4 -114 -37t-120 -133l-170 -208q88 -184 150.5 -255t152.5 -71q75 0 144 65l20 -18q-88 -86 -139 -121q-112 -76 -227 -76q-120 0 -197 58.5t-131 183.5q-111 -119 -212.5 -180.5t-223.5 -61.5q-166 0 -270.5 98.5t-104.5 245.5zM309 434 q0 -117 80.5 -197.5t198.5 -80.5q142 0 243 98q-59 147 -162.5 258.5t-240.5 167.5q-119 -82 -119 -246zM442 1083q0 -69 57 -133.5t167 -105.5q57 60 57 198q0 90 -39 152.5t-106 62.5q-62 0 -99 -48.5t-37 -125.5z" />
<glyph unicode="'" horiz-adv-x="399" d="M-2 825l219 494h4l178 -70l-362 -424h-39z" />
<glyph unicode="(" horiz-adv-x="696" d="M129 408q0 143 35.5 278t91 238t128.5 191.5t143.5 146t140.5 94.5l24 -37q-67 -37 -135 -95t-136.5 -143.5t-120.5 -185t-85 -227t-33 -260.5q0 -134 33 -262t85 -227t120.5 -184.5t136.5 -142.5t135 -94l-24 -39q-70 38 -140.5 96.5t-143.5 147t-128.5 191.5t-91 237.5 t-35.5 276.5z" />
<glyph unicode=")" horiz-adv-x="696" d="M4 -504q67 38 135 95.5t136.5 143t120.5 184.5t85 227t33 262q0 133 -33 260.5t-85 227t-120.5 185t-136.5 143.5t-135 95l25 37q70 -37 140.5 -94.5t143 -146t128.5 -191.5t91 -238t35 -278q0 -142 -35 -276.5t-91 -237.5t-128.5 -191.5t-143 -147t-140.5 -96.5z" />
<glyph unicode="*" horiz-adv-x="679" d="M33 750l2 137l268 74q1 3 1 12t-1 12l-268 74l-2 139q1 3 8 6.5t10 3.5l133 25l127 -238q1 -4 9 -2t8 4l-17 281l131 45q4 2 7 0.5t6 -4t4 -2.5l67 -109l-184 -213q-2 -2 -0.5 -5.5t5 -7.5t5.5 -3l254 108l88 -104q3 -3 3 -12t-3 -10l-88 -101l-254 109q-3 0 -8 -8.5 t-2 -12.5l184 -209l-67 -108q-1 -1 -5.5 -3.5t-9 -4t-4.5 -0.5l-125 45l15 278q0 6 -12 9q-5 1 -5 -1l-129 -241l-133 22q-3 0 -9.5 6t-8.5 9z" />
<glyph unicode="+" horiz-adv-x="917" d="M27 457l6 53h399v405h53v-405h400l6 -53h-406v-406h-53v406h-405z" />
<glyph unicode="," horiz-adv-x="456" d="M45 117q-20 62 29.5 129t136.5 67q96 0 153.5 -64.5t57.5 -152.5q0 -114 -88 -227t-246 -182l-25 28q189 106 189 256q0 46 -23.5 81.5t-56.5 50t-68 20.5t-59 -6z" />
<glyph unicode="-" horiz-adv-x="608" d="M47 442l6 99h510l-4 -99h-512z" />
<glyph unicode="." horiz-adv-x="468" d="M74 137q0 65 47.5 111.5t114.5 46.5q64 0 111.5 -48t47.5 -110q0 -67 -47 -115.5t-112 -48.5q-67 0 -114.5 48t-47.5 116z" />
<glyph unicode="/" horiz-adv-x="528" d="M25 -463l434 1796h49l-434 -1796h-49z" />
<glyph unicode="0" horiz-adv-x="1218" d="M66 494q0 149 76 271.5t204 190.5t279 68q231 0 379.5 -147t148.5 -373q0 -150 -75 -272.5t-203 -190.5t-281 -68q-230 0 -379 147t-149 374zM381 516q0 -263 57 -380.5t168 -117.5q99 0 165.5 133t66.5 330q0 500 -228 500q-100 0 -164.5 -131t-64.5 -334z" />
<glyph unicode="1" horiz-adv-x="757" d="M51 889l6 35l492 96v-940q0 -27 94 -33l55 -8l7 -39h-619l6 39l60 8q45 3 64.5 10t19.5 25v788z" />
<glyph unicode="2" horiz-adv-x="1024" d="M43 117q240 171 298 217q127 103 162 190q19 47 19 103q0 92 -59.5 150.5t-149.5 58.5q-160 0 -241 -154l-25 12q56 158 178.5 243t278.5 85q143 0 234 -74.5t91 -191.5q0 -32 -7 -61t-25 -58.5t-35.5 -53.5t-54 -55t-62.5 -52.5t-79.5 -57.5t-87 -58.5t-102.5 -67 t-110 -71.5v-8l428 -2q91 0 136 42t100 165l24 45l39 -4l-90 -459h-846z" />
<glyph unicode="3" horiz-adv-x="940" d="M18 -215q0 55 37 91t92 36q60 0 103.5 -41.5t61.5 -100.5t14 -122q12 -8 32 -8q108 0 176 90t68 233q0 136 -74.5 220.5t-195.5 84.5q-81 0 -176 -45l-15 39q75 39 120 64t94 55.5t75 54.5t49 54t32 61.5t9 69.5q0 96 -62 156.5t-157 60.5q-75 0 -136.5 -39.5 t-96.5 -114.5l-25 10q50 156 167 242t273 86q149 0 239.5 -74.5t90.5 -185.5q0 -59 -23 -108.5t-69 -89.5t-94 -69t-117 -61v-4q178 -10 281.5 -111.5t103.5 -252.5q0 -127 -72.5 -236.5t-200.5 -175.5t-280 -66q-145 0 -234.5 54.5t-89.5 142.5z" />
<glyph unicode="4" horiz-adv-x="1110" d="M29 53l651 948h174v-819h244l-45 -176h-199v-383h-289v383h-530zM174 184h391v559h-6z" />
<glyph unicode="5" horiz-adv-x="905" d="M-25 -211q0 56 39.5 94.5t96.5 38.5q83 0 123 -76.5t16 -171.5q21 -11 32.5 -16t31.5 -8.5t46 -3.5q93 0 156.5 79t63.5 201q0 168 -128 258.5t-389 110.5l177 692h606l-37 -256h-582l-47 -188q649 -49 649 -455q0 -99 -49.5 -192.5t-127 -159t-174 -105t-189.5 -39.5 q-164 0 -239 50t-75 147z" />
<glyph unicode="6" horiz-adv-x="1146" d="M61 506q0 168 76 322t206 269t312.5 188.5t388.5 86.5l17 -35q-110 -15 -207.5 -60.5t-170 -107t-129.5 -137.5t-92 -152.5t-52 -152.5l4 -4q146 111 299 111q166 0 270 -105.5t104 -288.5q0 -94 -39.5 -180t-107 -149.5t-163.5 -101.5t-204 -38q-221 0 -366.5 151.5 t-145.5 383.5zM399 487q0 -217 51 -342t148 -125q170 0 170 355q0 178 -61 260t-168 82q-70 0 -121 -47q-19 -66 -19 -183z" />
<glyph unicode="7" horiz-adv-x="1003" d="M49 555l53 436h871l4 -39l-571 -1329h-248l669 1125l2 4h-350q-148 0 -222 -14.5t-102.5 -43.5t-43.5 -90l-21 -49h-41z" />
<glyph unicode="8" horiz-adv-x="1091" d="M66 309q1 93 83.5 167t206.5 104v2q-277 120 -274 333q0 80 30 151t85.5 126t142 87t192.5 32q211 0 342 -84t130 -226q0 -94 -80.5 -161.5t-208.5 -100.5v-2q314 -123 311 -356q0 -172 -132.5 -292t-342.5 -120q-215 0 -350 92.5t-135 247.5zM336 1061q0 -101 76.5 -168 t249.5 -135q69 53 69 209q2 129 -56 216t-151 87q-87 0 -137.5 -60.5t-50.5 -148.5zM342 336q0 -125 63 -221.5t160 -96.5q89 0 149 61t60 148q1 107 -89.5 183.5t-272.5 148.5q-67 -54 -70 -223z" />
<glyph unicode="9" horiz-adv-x="1146" d="M53 553q0 129 70.5 237t189.5 169t258 61q226 0 368 -152t142 -385q0 -166 -76 -319.5t-206.5 -268.5t-313 -189.5t-387.5 -88.5l-16 37q110 15 207.5 60t169.5 106.5t129.5 138t92.5 153t52 152.5l-8 4q-139 -110 -295 -110q-167 0 -272 104t-105 291zM375 621 q0 -168 60 -256.5t169 -88.5q63 0 121 43q16 59 16 187q0 87 -9.5 164t-30.5 147t-60.5 111t-93.5 41q-76 0 -124 -88t-48 -260z" />
<glyph unicode=":" horiz-adv-x="464" d="M74 135q0 65 47.5 111.5t114.5 46.5q65 0 112 -47t47 -111q0 -65 -47.5 -112.5t-111.5 -47.5q-67 0 -114.5 47t-47.5 113zM74 735q0 65 47.5 111.5t114.5 46.5q65 0 112 -47t47 -111q0 -65 -47.5 -113.5t-111.5 -48.5q-68 0 -115 47.5t-47 114.5z" />
<glyph unicode=";" horiz-adv-x="456" d="M45 117q-13 38 3.5 83t60.5 79t102 34q95 0 153 -65t58 -150q0 -116 -87 -226.5t-247 -180.5l-25 26q189 106 189 254q0 46 -23.5 81t-56.5 49t-68 20t-59 -4zM66 735q0 65 46.5 111.5t110.5 46.5q67 0 114.5 -47.5t47.5 -110.5q0 -67 -47.5 -114.5t-114.5 -47.5 q-65 0 -111 47.5t-46 114.5z" />
<glyph unicode="&#x3c;" horiz-adv-x="897" d="M23 463v37l819 397l20 -49l-758 -363l2 -2q137 -66 396 -192.5t360 -175.5l-20 -49z" />
<glyph unicode="=" horiz-adv-x="917" d="M49 279l6 53h807l6 -53h-819zM49 686h819l-6 -53h-807z" />
<glyph unicode="&#x3e;" horiz-adv-x="897" d="M35 115l756 366v2q-122 60 -378 182.5t-378 182.5l20 49l819 -397v-37l-819 -397z" />
<glyph unicode="?" horiz-adv-x="751" d="M53 1151q-5 72 40 115t138 43q120 0 224.5 -65.5t164.5 -172t60 -225.5q0 -79 -19.5 -128.5t-55.5 -76.5t-99 -49q-141 -49 -168 -66q-27 -18 -27 -41q0 -26 16 -47t56 -57l-37 -8q-79 49 -131.5 116.5t-52.5 126.5q0 76 72 123t192 78q105 28 147.5 51.5t42.5 55.5 q0 56 -89.5 93.5t-215.5 37.5q-26 0 -55 -3t-45.5 -5.5t-46.5 -8t-37 -6.5q-31 18 -52 50t-22 69zM203 129q0 63 45.5 107.5t107.5 44.5q64 0 110 -45t46 -107q0 -63 -46 -109.5t-110 -46.5q-62 0 -107.5 46.5t-45.5 109.5z" />
<glyph unicode="@" horiz-adv-x="1656" d="M59 489q0 171 65 327t174.5 270t262.5 181.5t322 67.5q205 0 367 -82t254.5 -233t92.5 -344q0 -113 -39 -219.5t-104 -185t-156 -126t-190 -47.5q-100 0 -169 50t-69 131q0 14 3.5 32.5t12 46t13 41.5t16.5 47.5t13 36.5h-8q-49 -82 -78.5 -128t-69 -99.5t-71 -80 t-70.5 -44.5t-80 -18q-90 0 -152 60.5t-65 156.5q0 116 68 248t184 245q74 77 149.5 113.5t136.5 36.5q72 0 108 -59.5t28 -149.5h8l92 240l246 -7l-137 -354l-97 -274q-20 -64 13.5 -107t119.5 -43q109 0 205 133t96 320q0 184 -86.5 326.5t-240 220t-348.5 77.5 q-157 0 -301 -64.5t-247.5 -173t-165 -256.5t-61.5 -308q0 -205 93 -365t259.5 -249t379.5 -89q169 0 316.5 81.5t225.5 205.5l21 -31q-82 -129 -235.5 -212t-332.5 -83q-166 0 -309.5 55.5t-245 152.5t-159.5 234t-58 295zM588 381q0 -49 21 -80t55 -31q54 0 113 64 t134 203q16 34 38 89t22 70q-10 64 -58 122.5t-86 58.5q-12 0 -22 -5t-15.5 -9.5t-17.5 -16.5q-57 -55 -120.5 -207t-63.5 -258z" />
<glyph unicode="A" horiz-adv-x="1392" d="M-35 0l6 37l37 6q31 5 49.5 10.5t37.5 13.5t34 27t29.5 39.5t32.5 63.5t35 86.5t46 119.5l240 660l-18 76q66 16 136.5 67t96.5 111h49l375 -1051q47 -127 87 -171t101 -50l54 -8l4 -37h-697l7 37l47 6q72 5 81 43q2 7 2 18q0 40 -30 121l-92 271h-355l-47 -136 q-58 -174 -63 -219q-1 -6 -1 -12q0 -47 36 -65q28 -13 92 -21l43 -6l6 -37h-461zM379 545h319l-153 448h-8z" />
<glyph unicode="B" horiz-adv-x="1308" d="M33 0l6 35l74 8q88 13 88 37v1124q0 12 -19 18t-88 13l-53 6l-6 39h594q302 0 436.5 -68.5t134.5 -224.5q0 -112 -97.5 -182t-264.5 -98v-7q191 -18 304 -103.5t113 -229.5q0 -367 -596 -367h-626zM537 68l90 -29l12 4q114 9 191 95t77 218q0 142 -94.5 224t-234.5 82 q-35 0 -41 -3v-591zM537 700h30h11q120 0 200 66q84 68 84 203q0 127 -81 195.5t-210 68.5l-34 -2v-531z" />
<glyph unicode="C" horiz-adv-x="1437" d="M63 623q0 142 51.5 266t147 217t242 147t325.5 54q91 0 176 -19t140 -47l162 39l14 -444h-66l-190 370q-36 20 -97.5 34.5t-125.5 14.5q-197 0 -306.5 -168t-109.5 -448q0 -283 110.5 -448.5t288.5 -165.5q249 0 371 223l90 209h70l-58 -412l-96 2q-67 -27 -180 -49.5 t-211 -22.5q-170 0 -311.5 49t-236.5 135t-147.5 205.5t-52.5 258.5z" />
<glyph unicode="D" horiz-adv-x="1476" d="M33 0l6 35l74 8q88 13 88 37v1124q0 13 -20 19.5t-87 13.5l-53 8l-6 35q43 0 113 0.5t218 0.5h242q87 0 87 0.5t-1 0.5q347 0 535 -166t188 -467q0 -173 -95.5 -322t-264.5 -238t-371 -89h-653zM537 72l139 -31q116 1 202.5 79t129.5 205t43 285q0 306 -105 464.5 t-317 158.5h-92v-1161z" />
<glyph unicode="E" horiz-adv-x="1320" d="M33 0l6 35l74 8q88 13 88 37v1124q0 13 -19.5 19.5t-87.5 13.5l-53 8l-6 35h1141l8 -444h-66l-16 57q-21 85 -53.5 146t-72 99t-92.5 60q-52 20 -108 28q-49 7 -112 7h-17l-110 -4v-555h71q194 13 244 170l25 71h51l-60 -544l-49 2l-8 69q-11 95 -56 136t-165 47l-53 4 v-578l147 -6q185 2 302.5 84.5t176.5 259.5l17 47h65l-41 -436h-1171z" />
<glyph unicode="F" horiz-adv-x="1232" d="M33 0l6 35l74 8q88 13 88 37v1124q0 13 -19.5 19.5t-87.5 13.5l-53 8l-6 35h1128l6 -412h-65l-19 58q-28 77 -61.5 131t-71 88.5t-87 54t-102 26.5t-124.5 7l-102 -6v-568l69 3q195 6 244 163l27 76h49l-60 -545h-49l-8 68q-5 49 -16.5 81t-35.5 57q-23 26 -65 38 q-38 11 -94 10h-10h-51v-534q0 -9 6 -14t28 -10t66 -9l84 -8l6 -35h-694z" />
<glyph unicode="G" horiz-adv-x="1509" d="M63 625q0 143 50 266.5t144 216.5t240.5 146t327.5 53q93 0 186 -19.5t146 -46.5l164 39l4 -440h-70l-186 362q-39 26 -106 40.5t-136 14.5q-128 0 -219 -80t-135.5 -217.5t-44.5 -318.5q0 -159 32.5 -282.5t88 -197t122 -110.5t140.5 -37q51 0 104.5 16.5t73.5 30.5v431 q0 23 -131 32l-61 6l-6 37h682l-7 -37l-88 -8q-43 -3 -56 -9.5t-13 -18.5v-363l135 21l4 -25q-119 -69 -304.5 -115.5t-346.5 -46.5q-173 0 -314 52.5t-232 143.5t-139.5 210t-48.5 254z" />
<glyph unicode="H" horiz-adv-x="1566" d="M33 0l6 35l74 8q88 14 88 37v1124q0 13 -19.5 19.5t-87.5 13.5l-53 8l-6 35h665l-6 -35l-71 -8q-88 -13 -88 -37v-524h497v528q0 13 -19 19.5t-85 13.5l-51 8l-7 35h664l-6 -35l-74 -8q-86 -14 -86 -37v-1124q0 -13 19 -19.5t86 -13.5l55 -8l6 -35h-666l6 35l72 8 q86 11 86 37v547h-497v-551q0 -13 19 -19.5t85 -13.5l53 -8l6 -35h-665z" />
<glyph unicode="I" horiz-adv-x="788" d="M51 1280h684l-6 -35l-80 -8q-88 -8 -88 -37v-1124q0 -12 20 -19t85 -14l63 -8l6 -35h-682l6 35l80 8q88 9 88 37v1124q0 13 -19.5 19.5t-86.5 13.5l-64 8z" />
<glyph unicode="J" horiz-adv-x="786" d="M-233 -186q0 62 43.5 104.5t109.5 42.5q64 0 107.5 -42.5t48.5 -102.5q1 -8 1 -16q0 -53 -30 -111q178 19 178 436v1079q0 9 -6.5 14t-29 10t-66.5 9l-68 8l-6 35h680l-6 -35l-72 -8q-88 -13 -88 -37v-995q0 -90 -50 -192t-127 -184t-178.5 -136.5t-197.5 -54.5 q-107 0 -175 49t-68 127z" />
<glyph unicode="K" horiz-adv-x="1474" d="M33 0l6 35l74 8q88 14 88 37v1124q0 13 -19.5 19.5t-87.5 13.5l-53 8l-6 35h670l-7 -35l-75 -8q-44 -4 -66 -14.5t-22 -22.5v-594l305 322q164 170 164 237v5q-5 46 -99 62q-10 1 -22 3l-47 10l-7 35h584l-6 -35l-74 -12q-91 -11 -160.5 -63.5t-224.5 -209.5l-7 -7l-6 -6 l-7 -7l-58 -55l394 -658q63 -112 102 -146t102 -40l27 -6l6 -35h-663l6 35l20 8q71 7 71 46q0 40 -79 181l-215 381l-106 -106v-469q0 -13 20 -19.5t86 -13.5l55 -8l6 -35h-669z" />
<glyph unicode="L" horiz-adv-x="1212" d="M33 0l6 35l74 10q88 11 88 37v1120q0 9 -7 14.5t-30.5 10.5t-69.5 10l-53 8l-6 35h680l-6 -35l-86 -10q-88 -7 -88 -37v-1145l71 -10q158 0 263.5 83t205.5 302l23 49h63l-57 -477h-1071z" />
<glyph unicode="M" horiz-adv-x="1812" d="M23 0l6 35l55 6q82 6 108 43t31 145l27 918q-54 75 -141 88l-72 8l-6 37h573l289 -842h8l293 842h575l-6 -37l-106 -8q-40 -3 -61 -16.5t-21 -28.5l22 -1014q1 -81 19.5 -103t81.5 -28l71 -10l7 -35h-703l6 35l99 10q44 5 58 32q14 25 13 93v10l-26 994h-9l-417 -1162 h-95l-395 1116h-8l-20 -917q-1 -15 -1 -29q0 -74 24 -102q28 -33 120 -39l59 -6l6 -35h-464z" />
<glyph unicode="N" horiz-adv-x="1474" d="M-2 1280h545l657 -803h8l-2 582q0 101 -32 136.5t-125 41.5l-62 8l-6 35h477l-6 -35l-57 -8q-77 -6 -104 -48t-27 -149l-7 -1052h-100l-860 1032h-6v-803q0 -99 33 -133.5t127 -40.5l63 -8l6 -35h-481l6 35l57 8q80 6 105.5 46t25.5 147l7 849q-41 62 -93.5 99t-103.5 45 l-39 16z" />
<glyph unicode="O" horiz-adv-x="1548" d="M63 637q0 140 59 265t157.5 213.5t231 140t275.5 51.5q314 0 507.5 -184.5t193.5 -483.5q0 -186 -99.5 -340t-265 -240t-358.5 -86q-207 0 -366.5 82.5t-247 233.5t-87.5 348zM426 645q0 -311 91.5 -465.5t266.5 -154.5q172 0 254 144t82 464q0 309 -90 464.5t-260 155.5 q-176 0 -260 -144t-84 -464z" />
<glyph unicode="P" horiz-adv-x="1277" d="M33 0l6 35l74 8q88 13 88 37v1124q0 13 -19.5 19.5t-87.5 13.5l-53 8l-6 35h606q588 0 588 -328q0 -175 -164.5 -272.5t-439.5 -97.5q-51 0 -88 6v-512q0 -9 6 -14t28 -10t66 -9l76 -8l6 -35h-686zM537 635q7 -1 33.5 -5.5t43.5 -4.5q111 0 182.5 84t71.5 215 q0 151 -66.5 230.5t-195.5 82.5l-69 -4v-598z" />
<glyph unicode="Q" horiz-adv-x="1544" d="M63 637q0 137 59 261t157.5 212.5t231.5 140.5t275 52q161 0 294 -51.5t221.5 -141.5t137 -211t48.5 -260q0 -202 -126 -365.5t-327 -238.5q63 -140 129.5 -213t165.5 -100q55 -14 127 -14q56 0 123 9l8 -34q-202 -56 -389 -56q-203 0 -324.5 79.5t-226.5 275.5 q-269 35 -426.5 216.5t-157.5 438.5zM426 639q0 -310 91.5 -464.5t266.5 -154.5q171 0 253.5 147t82.5 466q0 308 -90.5 464t-259.5 156q-175 0 -259.5 -147t-84.5 -467z" />
<glyph unicode="R" horiz-adv-x="1435" d="M33 0l6 35l74 8q88 11 88 37v1124q0 13 -19.5 19.5t-87.5 13.5l-53 8l-6 35l672 2q540 0 540 -315q0 -118 -80.5 -204.5t-226.5 -119.5l254 -416q65 -110 99.5 -143.5t97.5 -42.5l28 -6l8 -35h-489l-41 82l-276 532q-6 1 -25.5 4t-35 6t-23.5 7v-555q0 -9 5.5 -14.5 t28 -10.5t66.5 -8l63 -8l7 -35h-674zM537 674q3 0 27 -3t32 -3q140 5 217.5 77.5t77.5 208.5q0 131 -79 206t-212 77h-63v-563z" />
<glyph unicode="S" horiz-adv-x="1122" d="M82 416h63l105 -238q62 -76 131 -113.5t166 -37.5q126 0 190 58t64 161q0 28 -6 53t-14.5 44.5t-26.5 38.5t-32 32t-41.5 28.5t-44.5 24.5t-52 22.5t-53.5 20t-57.5 20.5q-57 20 -97.5 36.5t-86.5 40.5t-76.5 51t-57 62t-39 80t-12.5 99q0 179 132 293.5t335 114.5 q112 0 297 -50l97 31l6 -399h-58l-180 332q-74 34 -170 34q-101 0 -163 -52t-62 -130q0 -29 9 -54.5t21 -44t37.5 -37.5t44.5 -30.5t57.5 -27.5t61.5 -24t70 -24q74 -24 126 -46.5t106 -57.5t86.5 -76t53.5 -100.5t21 -132.5q0 -187 -140 -316t-357 -129q-241 0 -422 68z " />
<glyph unicode="T" horiz-adv-x="1394" d="M51 866l43 414h1225l16 -410h-59l-23 64q-19 52 -52 103t-77 97t-100.5 74.5t-114.5 28.5h-41v-1161q0 -13 19.5 -19.5t85.5 -13.5l63 -8l6 -35h-686l6 35l82 8q88 9 88 37v1157h-36q-123 -7 -217 -98t-140 -209l-20 -64h-68z" />
<glyph unicode="U" horiz-adv-x="1449" d="M27 1280h667l-6 -35l-74 -8q-86 -8 -86 -35v-747q0 -175 83.5 -268t242.5 -93q179 0 262.5 94.5t83.5 303.5l-2 567q0 100 -32.5 136t-125.5 42l-63 8l-6 35h479l-6 -35l-55 -8q-79 -6 -106.5 -48t-27.5 -149l-2 -565q-2 -253 -128.5 -384.5t-379.5 -131.5 q-271 0 -411.5 104t-140.5 312v831q0 9 -6 14t-29 9.5t-68 7.5l-57 8z" />
<glyph unicode="V" horiz-adv-x="1392" d="M-14 1280h676l-3 -37l-57 -4q-30 -2 -48.5 -5t-29.5 -13t-14 -20.5t2.5 -34t14.5 -46t26 -63.5l289 -686h12l207 549q33 91 46 132t21 84t-6.5 58t-39.5 26t-76 17l-48 6l-6 37h465l-6 -37l-39 -6q-35 -5 -55.5 -10t-43.5 -21.5t-37.5 -35.5t-36.5 -63.5t-42 -93.5 t-53 -136l-346 -883h-111l-428 1036q-39 90 -64 130.5t-49 56t-65 18.5l-53 8z" />
<glyph unicode="W" horiz-adv-x="2043" d="M-25 1280h684l-6 -37l-67 -4q-70 -5 -82 -35q-4 -10 -4 -23q0 -28 18 -73l281 -750h10l209 578l-31 96q-41 110 -75 154.5t-85 48.5l-59 8l-6 37h702l-6 -37l-61 -4q-73 -5 -89 -33q-6 -10 -5 -28q0 -31 18 -84l235 -719h11l172 506q28 81 39.5 118t21.5 85q7 34 8 53 q0 7 -2 13q-4 18 -18.5 41t-43.5 31.5t-75 14.5l-47 6l-8 37h479l-4 -37l-37 -8q-28 -4 -47 -9t-37.5 -14.5t-30.5 -18.5t-26 -29.5t-23.5 -39t-24 -54.5t-26.5 -69t-32 -89q-2 -6 -3.5 -10t-3.5 -10t-4 -11l-326 -904h-106l-309 885h-9l-329 -885h-111l-407 1053 q-50 124 -81 161.5t-89 43.5l-45 8z" />
<glyph unicode="X" horiz-adv-x="1361" d="M-8 1280h700l-6 -35l-51 -6q-61 -6 -72 -39q-2 -7 -2 -15q0 -33 35 -95l164 -273h4l84 117q120 171 135 223q3 12 3 21q0 30 -32 43q-26 10 -90 16l-47 8l-6 35h494l-7 -35l-65 -12q-55 -8 -101.5 -41.5t-95.5 -93t-151 -199.5l-92 -119l327 -526q77 -124 111.5 -164.5 t77.5 -44.5l49 -10l6 -35h-678l4 35l51 6q65 6 77 40q2 7 2 16q0 33 -34 87l-206 342h-5q1 -1 -27 -41l-56 -80l-29 -40q-46 -65 -75 -111.5t-43.5 -82t-15.5 -57.5t13 -37t38 -22.5t64 -11.5l48 -8l6 -35h-504l6 35l80 12q68 10 122.5 67t181.5 233q3 3 4 5t3 5t4 5 l156 199l-285 449q-88 140 -108 165q-42 52 -90 56l-70 14z" />
<glyph unicode="Y" horiz-adv-x="1333" d="M2 1280h678l-6 -37l-35 -6q-83 -10 -101 -39q-5 -10 -5 -24q0 -26 22 -68l242 -442h10l131 241q41 74 63.5 119.5t35.5 84.5t11 59t-19 35.5t-44 21.5t-74 10l-49 8l-6 37h492l-7 -37l-55 -10q-45 -7 -70 -17.5t-60 -50t-70 -99.5t-101 -181l-149 -269v-540 q0 -13 18.5 -19.5t83.5 -13.5l61 -8l7 -35h-682l6 35l82 8q86 8 86 37v489l-273 482q-66 111 -90 137q-34 37 -92 47l-35 8z" />
<glyph unicode="Z" horiz-adv-x="1286" d="M63 0v41l744 1182v6l-172 2q-156 0 -262 -77t-166 -257l-19 -59h-65l12 442h1063v-41l-770 -1180v-6l180 -6q20 -1 40 -1q174 0 278 81q116 90 217 330l22 53h66l-62 -510h-1106z" />
<glyph unicode="[" horiz-adv-x="665" d="M131 -475v1786h512v-45h-459v-1694h459v-47h-512z" />
<glyph unicode="\" horiz-adv-x="503" d="M-6 1333h49l434 -1796h-49z" />
<glyph unicode="]" horiz-adv-x="665" d="M23 -428h458v1694h-458v45h512v-1786h-512v47z" />
<glyph unicode="^" horiz-adv-x="776" d="M80 1008l285 409h47l284 -409h-37l-268 180h-4l-270 -180h-37z" />
<glyph unicode="_" horiz-adv-x="927" d="M23 -74l6 74h872l6 -74h-884z" />
<glyph unicode="`" horiz-adv-x="862" d="M72 1399h295l217 -377h-49z" />
<glyph unicode="a" d="M49 184q0 120 119.5 201t406.5 158l3 57v17q0 95 -51 161q-56 70 -156 70q-53 0 -81 -12t-28 -29q0 -5 16.5 -24.5t33 -48t16.5 -54.5q0 -49 -39.5 -85t-98.5 -36q-58 0 -96.5 29.5t-38.5 81.5q0 72 80.5 133.5t192.5 94t217 32.5q177 0 256 -80q73 -74 73 -230v-24 l-16 -360v-15q0 -96 72 -96q33 0 88 63l20 -22q-150 -193 -274 -193q-77 0 -128 51t-61 144l-6 2q-83 -98 -150.5 -146.5t-146.5 -48.5q-93 0 -158 61t-65 148zM332 283q0 -62 32 -97.5t87 -35.5q59 0 114 63l13 289q-136 -37 -191 -89.5t-55 -129.5z" />
<glyph unicode="b" horiz-adv-x="1146" d="M-18 1253l2 27l419 113v-648l11 -4q59 79 140.5 130t170.5 51q155 0 264 -127.5t109 -315.5q0 -118 -45 -216t-118.5 -161t-166 -97t-190.5 -34q-122 0 -289 62h-2l-160 -78h-18v1139q0 75 -13.5 100t-60.5 39zM403 182q51 -77 104.5 -122.5t98.5 -45.5q77 0 123.5 108 t46.5 275q0 160 -61.5 259.5t-163.5 99.5q-70 0 -148 -58v-516z" />
<glyph unicode="c" horiz-adv-x="952" d="M49 420q0 221 145 365.5t371 144.5q152 0 248 -60t96 -155q0 -64 -40 -104t-101 -40q-67 0 -108 50q-36 44 -36 101q0 8 1 17q0 24 21.5 59t21.5 36q-1 19 -28 32t-62 13q-94 0 -150.5 -94t-56.5 -265q0 -181 72 -280t208 -99q165 0 250 158l23 -12q-56 -155 -166 -237.5 t-266 -82.5q-190 0 -316.5 127.5t-126.5 325.5z" />
<glyph unicode="d" horiz-adv-x="1167" d="M49 418q0 118 44 215.5t118 159.5t167 95.5t193 33.5q96 0 166 -25q2 -4 2 0v217q0 75 -13.5 101.5t-55.5 37.5l-78 23l4 24l440 86v-1167q0 -75 13.5 -101t58.5 -38l57 -14l-4 -27l-422 -70v183l-4 4q-60 -79 -144.5 -132t-170.5 -53q-157 0 -264 129t-107 318zM371 496 q0 -159 60.5 -260t158.5 -101q70 0 149 68v508q-45 74 -98.5 120t-93.5 46q-83 0 -129.5 -105.5t-46.5 -275.5z" />
<glyph unicode="e" horiz-adv-x="978" d="M49 428q0 216 146 361t362 145q88 0 159 -26t115.5 -70t68.5 -98t24 -113q0 -35 -6 -62q-473 6 -553 10q-3 -27 -3 -69q2 -163 81 -264t212 -101q167 0 252 158l25 -12q-112 -320 -440 -320q-189 0 -316 130.5t-127 330.5zM365 612l284 2v13q0 65 -9 117 q-10 58 -38.5 98.5t-73.5 40.5q-62 0 -107.5 -71.5t-55.5 -199.5z" />
<glyph unicode="f" horiz-adv-x="731" d="M6 766l43 127l119 -2l6 137q5 96 74 177.5t176 127t223 45.5q115 0 172.5 -40t57.5 -105q0 -54 -40 -91.5t-96 -37.5q-61 0 -96.5 42.5t-58.5 143.5l-4 15l-47 12q-39 -16 -54.5 -68.5t-15.5 -191.5v-164h268l-26 -127h-242v-696q0 -15 18 -22.5t76 -10.5l68 -2l6 -35 h-590l6 35l39 2q45 3 62.5 10t17.5 25v688z" />
<glyph unicode="g" horiz-adv-x="1038" d="M27 -289q0 32 14 59.5t35 48t56 40.5t65 33t73 30q-91 11 -155 69.5t-64 131.5q0 79 67 139t165 88v2q-197 69 -197 260q0 128 115 223t291 95q151 0 253 -60l299 33l-16 -131l-205 31l-2 -6q72 -62 72 -160q0 -137 -115.5 -224t-300.5 -87q-77 0 -141 12 q-39 -10 -64.5 -36.5t-25.5 -55.5q0 -37 37 -54.5t118 -17.5q30 0 140 3t151 3q138 0 223.5 -72t85.5 -194q0 -109 -72.5 -202t-206 -149.5t-298.5 -56.5q-397 0 -397 205zM246 -238q0 -85 76.5 -139.5t207.5 -54.5q123 0 201 58t78 147q0 75 -50.5 107t-164.5 40 q-17 2 -60 2q-71 0 -212 -6q-42 -19 -59 -57t-17 -97zM371 623q0 -256 118 -256q66 0 95.5 58.5t29.5 195.5q0 130 -33 197t-92 67q-64 0 -91 -59.5t-27 -202.5z" />
<glyph unicode="h" horiz-adv-x="1169" d="M12 1251l4 25l424 115v-639h2q99 82 184.5 130t170.5 48q96 0 170 -74q67 -70 67 -244v-540q0 -8 6 -13t28.5 -10.5t66.5 -11.5l22 -2l6 -35h-530l6 35l35 2q32 2 47 8t16.5 11t1.5 16v481q0 107 -40.5 148.5t-118.5 41.5q-72 0 -144 -41v-632q0 -15 15 -22t65 -11l33 -2 l6 -35h-532l6 35l28 2q48 3 65 10t17 25v1020q0 74 -13 98.5t-56 38.5z" />
<glyph unicode="i" horiz-adv-x="618" d="M35 782l2 27l422 119v-858q0 -14 17 -20t81 -13l18 -2l7 -35h-537l6 35l29 2q47 3 64.5 10t17.5 25v536q0 65 -7.5 95.5t-24 44t-54.5 24.5zM123 1208q0 69 49.5 120.5t126.5 51.5q80 0 129 -51.5t49 -120.5q0 -70 -49 -122t-129 -52q-77 0 -126.5 52.5t-49.5 121.5z" />
<glyph unicode="j" horiz-adv-x="593" d="M-217 -377q0 54 38.5 91.5t94.5 37.5q43 0 74.5 -21.5t44.5 -53.5q10 -24 10 -52q0 -9 -1 -18q-4 -38 -26 -70h3q37 0 63 27q27 28 42 82t21.5 123t6.5 161v678q0 65 -7.5 95.5t-24 44t-54.5 24.5l-43 10l2 27l424 119v-961q-2 -70 -46.5 -157t-111 -161t-153 -124.5 t-165.5 -50.5q-88 0 -140 41t-52 108zM115 1208q0 69 49.5 120.5t128.5 51.5q77 0 126.5 -51.5t49.5 -120.5t-49.5 -121.5t-126.5 -52.5q-79 0 -128.5 52.5t-49.5 121.5z" />
<glyph unicode="k" horiz-adv-x="1138" d="M12 1251l4 25l422 115v-945l92 78q120 110 167.5 167.5t47.5 94.5q0 34 -25.5 52t-101.5 24l-22 2l-6 37h516l-6 -37l-37 -6q-81 -15 -150 -54.5t-184 -150.5l-10 -14l256 -471q40 -74 65.5 -98.5t69.5 -30.5l27 -4l6 -35h-422l-39 82l-182 364l-62 -53v-323 q0 -14 16.5 -20.5t73.5 -12.5l33 -2l2 -35h-534l6 35l26 2q62 9 72 18q6 6 6 17v1020q0 74 -13 98.5t-56 38.5z" />
<glyph unicode="l" horiz-adv-x="600" d="M25 1251l4 25l420 115v-1321q0 -14 17 -21.5t66 -11.5l25 -2l6 -35h-522l8 35l29 2q44 3 58 9.5t14 25.5v1020q0 73 -14 98t-58 39z" />
<glyph unicode="m" horiz-adv-x="1763" d="M31 782l2 27l426 119l-4 -178h4q196 180 346 180q96 0 168 -72q43 -46 57 -110l10 -3q193 185 355 185q94 0 168 -74q69 -69 69 -299v-485q0 -8 4.5 -13t27 -10.5t67.5 -11.5l22 -2l6 -35h-530l6 35l35 2q32 2 47 8t16.5 11t1.5 16v477q0 109 -41.5 151.5t-122.5 42.5 q-43 0 -79 -14.5t-48 -38.5v-622q0 -12 14.5 -18t69.5 -13l27 -2l6 -35h-522l6 35l35 2q68 5 68 35v477q0 109 -42 151.5t-124 42.5q-57 0 -127 -36v-637q0 -15 14.5 -22t67.5 -11l28 -2l6 -35h-530l6 35l29 2q47 3 64.5 10t17.5 25v536q0 65 -7.5 95.5t-24 44t-54.5 24.5z " />
<glyph unicode="n" horiz-adv-x="1185" d="M31 782l2 27l426 119l-4 -176h4q100 82 184.5 130t171.5 48q94 0 168 -74q70 -70 70 -244v-540q0 -8 6 -13t28.5 -10.5t65.5 -11.5l23 -2l6 -35h-533l6 35l33 2q33 2 49 8t18.5 11t2.5 16v477q0 110 -41.5 152t-120.5 42q-73 0 -141 -41v-632q0 -15 15 -22t65 -11l32 -2 l4 -35h-530l6 35l29 2q47 3 64.5 10t17.5 25v536q0 65 -7.5 95.5t-24 44t-54.5 24.5z" />
<glyph unicode="o" horiz-adv-x="1122" d="M49 449q0 99 38.5 187.5t106.5 153t166.5 102.5t212.5 38q153 0 268.5 -65.5t173.5 -172t58 -235.5q0 -206 -146.5 -346t-377.5 -140q-116 0 -211.5 38t-158 103.5t-96.5 152t-34 184.5zM369 471q0 -323 92 -422q35 -35 96 -35q92 0 142.5 114t50.5 304q0 321 -95 416 q-35 35 -92 35q-94 0 -144 -110t-50 -302z" />
<glyph unicode="p" horiz-adv-x="1169" d="M2 -514l6 35l43 4q46 3 63 9t17 24v1050q0 93 -15 121t-69 43l-43 10l2 27l424 119l-4 -183l8 -4q63 79 144.5 130t169.5 51q156 0 263 -127.5t107 -315.5q0 -118 -44 -216t-116.5 -160.5t-163 -97t-186.5 -34.5q-107 0 -174 29h-6v-446q0 -9 6 -14.5t28 -9.5t62 -5 l70 -4l6 -35h-598zM428 180q49 -76 103.5 -121t97.5 -45q78 0 124 107.5t46 275.5q0 158 -62 256.5t-164 98.5q-72 0 -145 -54v-518z" />
<glyph unicode="q" horiz-adv-x="1155" d="M49 418q0 97 29 180t79 142t116.5 101t142 62.5t155.5 20.5q135 0 283 -64h2l166 76h14v-1380q0 -15 18.5 -21.5t65.5 -9.5l39 -4l4 -35h-596l6 35l74 4q38 1 59 5t27 9.5t6 14.5v598l-4 4q-60 -79 -144.5 -132t-170.5 -53q-157 0 -264 129t-107 318zM371 498 q0 -158 61 -260.5t158 -102.5q70 0 149 68v510q-45 74 -98.5 119t-93.5 45q-83 0 -129.5 -105t-46.5 -274z" />
<glyph unicode="r" horiz-adv-x="903" d="M31 782l2 27l426 119l-4 -303h6q52 151 118 228t158 77q73 0 118.5 -43.5t45.5 -120.5q0 -54 -40 -98.5t-97 -44.5q-114 0 -158 127q-86 -21 -151 -232v-446q0 -15 20.5 -23t81.5 -12l37 -2l6 -35h-557l6 35l27 2q47 3 64.5 10t17.5 25v536q0 65 -7.5 95.5t-24 44 t-54.5 24.5z" />
<glyph unicode="s" horiz-adv-x="847" d="M55 289l58 -4l55 -115q57 -83 106.5 -119.5t124.5 -36.5q76 0 119 39.5t43 106.5q0 43 -33.5 78t-66 50.5t-107.5 44.5q-2 1 -3.5 1.5t-4 1.5t-4.5 2q-54 20 -90.5 37t-76 42.5t-62.5 53.5t-38.5 68.5t-15.5 89.5q0 136 101.5 217.5t267.5 81.5q112 0 213 -33l100 18 l11 -290l-54 -2l-155 229q-60 33 -117 33q-66 0 -104.5 -36t-38.5 -99q0 -27 12 -49.5t27.5 -38t49.5 -33t57 -27t71 -27.5q42 -17 61.5 -25.5t57 -26.5t57 -32.5t46 -38t39 -47.5t22.5 -56.5t10 -70.5q0 -129 -102.5 -217t-297.5 -88q-196 0 -332 56z" />
<glyph unicode="t" horiz-adv-x="778" d="M2 766l53 102l183 138l168 129l45 -2l-2 -240h313l-27 -127h-289l-6 -430v-6q0 -114 37 -160q38 -48 123 -47q96 0 166 55l8 -26q-163 -177 -342 -177q-141 1 -208 75q-64 71 -64 213v13l8 484z" />
<glyph unicode="u" horiz-adv-x="1148" d="M0 899h438l-6 -549v-14q0 -96 38 -136q42 -42 124 -42q56 0 131 41v630q0 15 -18.5 22t-79.5 11l-31 2l-8 35h432v-651q0 -73 14 -100t58 -39l57 -15l-4 -24l-422 -103l4 185h-6q-98 -84 -183.5 -132.5t-172.5 -48.5q-49 0 -84.5 18t-77.5 58q-68 71 -68 221v25l4 541 q0 6 -5.5 9.5t-28.5 8.5t-68 10l-31 2z" />
<glyph unicode="v" d="M-25 901h580l-4 -35l-45 -10q-53 -6 -68 -24q-8 -9 -8 -24.5t8 -37.5l193 -494l133 353q34 85 36 131q0 5 1 10q1 39 -19 56q-22 19 -73 28l-47 12l-7 35h379l-6 -35l-39 -8q-61 -10 -87.5 -47.5t-84.5 -183.5l-250 -647h-118l-326 782q-22 52 -43 71t-64 25l-34 8z" />
<glyph unicode="w" horiz-adv-x="1576" d="M-23 899h549l-4 -35l-47 -8q-37 -5 -47 -25q-4 -8 -5 -19q0 -18 11 -44l180 -498l148 408l-29 82q-20 50 -45 70.5t-57 25.5l-39 8l-4 35h557l-4 -35l-45 -8q-49 -7 -56.5 -26.5t9.5 -61.5l165 -481l111 336q33 93 33 142q0 15 -3 27q-13 48 -95 60l-41 12l-7 35h377 l-6 -35l-43 -10q-58 -7 -83.5 -44.5t-76.5 -182.5l-225 -647h-123l-244 632l-237 -632h-121l-309 778q-24 57 -43 75.5t-62 22.5l-34 8z" />
<glyph unicode="x" horiz-adv-x="1046" d="M-2 0l6 35l41 10q30 6 54.5 17t41 21t45.5 41.5t46 52t65 79.5l113 133l-217 336q-44 66 -80 96t-74 35l-35 8l-6 35h586l-6 -35l-31 -4q-47 -7 -51 -35v-6q0 -26 26 -61l113 -185h4l63 80q40 53 60 84.5t29.5 56t-1 36.5t-31.5 19t-63 11l-22 4l-6 35h385l-6 -35 l-46 -12q-67 -14 -109 -51t-140 -156l-88 -106l235 -365q72 -116 141 -131l33 -8l8 -35h-573l4 35l31 4q34 3 46 17.5t5.5 34t-25.5 48.5l-131 215h-4l-86 -108q-66 -84 -83.5 -125t3 -58.5t88.5 -23.5l21 -4l4 -35h-383z" />
<glyph unicode="y" d="M-29 899h576l-6 -35l-45 -8q-53 -8 -65.5 -26.5t7.5 -59.5l201 -483l125 346q31 87 34 129v11q0 34 -18 51q-22 18 -80 28l-43 12l-6 35h379l-6 -35l-45 -8q-57 -6 -82.5 -43t-81.5 -184l-225 -600l-101 -289q-47 -139 -112.5 -203.5t-157.5 -64.5q-63 0 -111.5 38 t-48.5 105q0 53 37.5 93t96.5 40q62 0 100 -38t45 -89q37 9 60.5 42.5t52.5 113.5l65 178h-35l-358 805q-25 52 -46 70t-65 26l-35 8z" />
<glyph unicode="z" horiz-adv-x="972" d="M43 0v31l514 823l-86 -4q-122 -6 -188.5 -50.5t-104.5 -135.5l-57 -129h-47v364h829v-31l-532 -821l98 2q141 6 232 71t139 165l45 88h47l-68 -373h-821z" />
<glyph unicode="{" horiz-adv-x="708" d="M37 420l10 31q145 18 200.5 51t55.5 108q0 35 -30.5 105.5t-60.5 149.5t-30 134q0 133 139.5 235.5t356.5 119.5l4 -33q-118 -15 -185 -65t-67 -117q0 -39 19 -97.5t41.5 -109.5t41.5 -113.5t19 -109.5q0 -125 -96 -193.5t-334 -89.5v-10q162 -15 258 -52.5t134 -93 t38 -137.5q0 -47 -19 -109.5t-41.5 -113.5t-41.5 -110t-19 -99q0 -66 66.5 -115.5t185.5 -64.5l-4 -33q-218 17 -357 119t-139 235q0 55 30 134t60.5 149.5t30.5 105.5q0 75 -54 110t-202 50z" />
<glyph unicode="|" horiz-adv-x="389" d="M172 -424v1796h45v-1796h-45z" />
<glyph unicode="}" horiz-adv-x="708" d="M27 -479q120 15 187 64.5t67 115.5q0 40 -19 99t-41.5 110t-41.5 113.5t-19 109.5q0 82 38 137.5t133.5 93t256.5 52.5v10q-236 21 -332 89.5t-96 193.5q0 47 19 109.5t41.5 113.5t41.5 109.5t19 97.5q0 67 -67 117t-187 65l6 33q216 -17 355.5 -119.5t139.5 -235.5 q0 -55 -30.5 -134t-61 -149.5t-30.5 -105.5q0 -75 56 -108t202 -51l8 -31l-8 -29q-148 -15 -203 -50t-55 -110q0 -35 30.5 -105.5t61 -149.5t30.5 -134q0 -133 -139.5 -235t-355.5 -119z" />
<glyph unicode="~" horiz-adv-x="833" d="M66 332q12 166 54 229.5t136 63.5q54 0 130.5 -33.5t146.5 -66.5t106 -33q33 0 54.5 22.5t31.5 89.5h41q-10 -165 -52 -228t-136 -63q-43 0 -101.5 21t-106.5 45.5t-99 45.5t-81 21q-31 0 -51 -23t-28 -91h-45z" />
<glyph unicode="&#xa1;" horiz-adv-x="600" d="M139 127l146 729q3 14 16 14.5t16 -14.5l144 -729q12 -69 -24 -111.5t-134 -42.5h-4q-100 0 -136 43t-24 111zM147 1153q0 63 45.5 108.5t108.5 45.5q64 0 110 -45.5t46 -108.5t-46 -108.5t-110 -45.5q-63 0 -108.5 46t-45.5 108z" />
<glyph unicode="&#xa2;" horiz-adv-x="940" d="M49 426q0 220 146.5 364t369.5 144q21 0 103 -10l86 331h49l-92 -340q91 -23 144.5 -77t53.5 -123q0 -60 -38.5 -101t-96.5 -41q-45 0 -78.5 24t-48.5 65l-127 -484q60 -37 133 -37q164 0 250 156l27 -8q-55 -150 -168.5 -236t-267.5 -86q-17 0 -27 2l-76 -295h-47 l76 299q-163 25 -267 150t-104 303zM371 520q0 -221 108 -315l172 651q-42 25 -73 25q-94 0 -150.5 -95t-56.5 -266z" />
<glyph unicode="&#xa3;" horiz-adv-x="1193" d="M0 137q0 98 79 159.5t202 61.5q76 0 192 -34q0 12 -2 25t-4 24t-6.5 27t-7 25.5t-10 28t-10.5 26t-12.5 29.5t-12 27.5t-13 29.5t-12.5 28h-244l6 47h215q-67 157 -67 231q0 128 74 224.5t195 145t269 48.5q145 0 220 -53.5t75 -153.5q0 -58 -41.5 -100.5t-103.5 -42.5 q-49 0 -85.5 27.5t-51.5 68t-9.5 89t33.5 89.5q-9 11 -36 22t-56 11q-77 0 -122.5 -61.5t-45.5 -190.5q0 -34 18.5 -155.5t22.5 -198.5h264l7 -47h-269v-21q0 -131 -73 -286q79 -29 118.5 -42t103.5 -27.5t113 -14.5q99 0 146 48.5t67 182.5l31 -6q3 -120 -37 -224.5 t-119.5 -170.5t-181.5 -66q-169 0 -368 133q-126 -133 -273 -133q-78 0 -128 47.5t-50 122.5zM45 127q0 -53 38 -86t97 -33t120.5 33t105.5 88q-112 74 -155 92q-42 17 -77 17q-62 0 -95.5 -28.5t-33.5 -82.5z" />
<glyph unicode="&#xa4;" horiz-adv-x="917" d="M127 436l117 117q-68 77 -68 182q0 106 68 183l-117 116l33 33l116 -117q81 68 183 68q101 0 182 -68l117 117l33 -33l-117 -116q67 -80 67 -183q0 -102 -67 -182l117 -117l-33 -33l-117 117q-76 -67 -182 -67q-107 0 -183 67l-116 -117zM225 735q0 -97 68.5 -165 t165.5 -68t165 68t68 165t-68 165.5t-165 68.5t-165.5 -68.5t-68.5 -165.5z" />
<glyph unicode="&#xa5;" horiz-adv-x="1300" d="M-39 1280h711l-6 -37l-52 -6q-66 -3 -80.5 -44t25.5 -116l232 -446h4l65 125q39 77 65 131t46 104t29.5 82.5t11 61t-6.5 45t-26 29.5t-43.5 19.5t-63.5 10.5l-43 6l-8 35h516l-6 -35l-39 -8q-72 -14 -137.5 -79t-140.5 -208q-176 -332 -178 -332h372l-2 -47h-381v-219 h379l6 -45h-383v-225q0 -14 18.5 -21.5t78.5 -13.5l75 -10l7 -37h-697l6 37l91 12q81 8 81 37v221h-374l6 45h370v219h-372l-2 47h350q2 0 -62 110t-129 220l-65 109q-61 102 -97.5 136t-99.5 40l-43 10z" />
<glyph unicode="&#xa6;" horiz-adv-x="389" d="M172 -315v686h45v-686h-45zM172 598v686h45v-686h-45z" />
<glyph unicode="&#xa7;" horiz-adv-x="921" d="M25 584q0 143 186 252q-80 70 -80 172q0 88 58 159t140.5 106.5t166.5 35.5q137 0 216 -45t79 -129q0 -53 -35 -90t-88 -37q-85 0 -121.5 68.5t-14.5 168.5l-15 6t-15.5 6t-14.5 4.5t-18 3.5t-20 1q-58 0 -96 -38t-38 -87q0 -29 15 -55t36 -45.5t59 -40.5t68 -34.5 t80 -33.5q149 -65 206 -104q121 -85 122 -203q0 -76 -54 -140.5t-134 -109.5q82 -72 82 -172q0 -66 -36 -125t-91.5 -97t-121 -60.5t-126.5 -22.5q-137 0 -219 46t-82 130q0 52 34.5 89.5t86.5 37.5q89 0 129 -68t4 -170q58 -20 94 -20q57 0 100 39.5t43 87.5 q0 24 -8.5 45.5t-30 41t-39.5 33.5t-55.5 32.5t-59 28t-67.5 28.5q-45 19 -67.5 29t-63 30.5t-63 36t-51.5 40t-43.5 48.5t-25.5 55t-11 66zM184 729q0 -23 7.5 -44t17.5 -37t32 -33t39 -28t51 -27t55 -25l63 -27q170 -67 239 -115q53 39 53 90q0 31 -14 58t-34.5 46.5 t-59 40.5t-72 35.5t-88.5 36.5q-13 6 -47 20.5t-52 22.5t-45.5 21t-49.5 26t-41 27q-27 -22 -40.5 -41.5t-13.5 -46.5z" />
<glyph unicode="&#xa8;" horiz-adv-x="839" d="M59 1180q0 56 40 98.5t102 42.5q64 0 101.5 -41.5t37.5 -99.5q0 -56 -37.5 -97t-101.5 -41q-62 0 -102 41.5t-40 96.5zM502 1180q0 57 37.5 99t99.5 42q64 0 101.5 -41.5t37.5 -99.5q0 -56 -37.5 -97t-101.5 -41q-62 0 -99.5 41t-37.5 97z" />
<glyph unicode="&#xa9;" horiz-adv-x="1501" d="M55 639q0 143 55 272.5t148 223t222 149t272 55.5q142 0 271 -55.5t222 -149t148 -223t55 -272.5q0 -142 -55 -271t-148 -222t-222 -148t-271 -55q-190 0 -350.5 93t-253.5 253t-93 350zM96 639q0 -177 88 -328.5t239 -240t329 -88.5q132 0 253 52.5t208.5 140.5 t139.5 209.5t52 254.5t-52 255.5t-139.5 211t-208.5 141.5t-253 53q-178 0 -329 -89t-239 -241.5t-88 -330.5zM330 635q0 173 124 290t332 117q119 0 189 -41l96 25l8 -268h-39l-114 213q-53 43 -138 43q-115 0 -180 -100t-65 -271q0 -169 68 -275t175 -106q145 0 218 139 l55 125h41l-33 -245h-57q-42 -17 -110.5 -32.5t-119.5 -15.5q-107 0 -194 33t-142 89t-84.5 128t-29.5 152z" />
<glyph unicode="&#xaa;" horiz-adv-x="788" d="M39 1108q0 56 72 103t164 70.5t169 23.5q135 0 194.5 -62t53.5 -194l-12 -265q-1 -51 11.5 -73.5t41.5 -22.5q39 0 76 33l6 -21q-98 -129 -209 -129q-123 0 -149 142h-4q-119 -142 -232 -142q-69 0 -118.5 45t-49.5 111q0 91 93 151.5t315 114.5v62q2 81 -40.5 132.5 t-119.5 51.5q-30 0 -50 -7.5t-26 -14t-6 -11.5q0 -3 18.5 -36t18.5 -58q0 -40 -30 -67t-76 -27q-47 0 -79 24t-32 66zM276 803q0 -45 23.5 -74t56.5 -29q48 0 97 45l8 216q-185 -45 -185 -158z" />
<glyph unicode="&#xab;" horiz-adv-x="974" d="M29 420v72l463 331l12 -14l-215 -356l215 -355l-12 -14zM455 420v72l485 354l12 -17l-250 -376l248 -375l-12 -15z" />
<glyph unicode="&#xac;" horiz-adv-x="917" d="M25 590l6 53h829v-377h-53v324h-782z" />
<glyph unicode="&#xad;" horiz-adv-x="608" d="M47 442l6 99h510l-4 -99h-512z" />
<glyph unicode="&#xae;" horiz-adv-x="1501" d="M55 641q0 190 93 351t253.5 254t350.5 93q142 0 271 -55t222 -148.5t148 -222.5t55 -272q0 -142 -55 -271t-148 -222t-222 -148t-271 -55q-190 0 -350.5 93t-253.5 253t-93 350zM96 641q0 -178 88 -329.5t239 -239.5t329 -88q133 0 254.5 52t209 140t139.5 210t52 255 q0 178 -87.5 330.5t-238.5 242t-329 89.5t-329 -89.5t-239 -242t-88 -330.5zM334 252l6 33l47 4q51 8 51 22v656q0 8 -11.5 13t-47.5 9l-39 8l-4 31h387q367 0 367 -197q0 -71 -52 -124.5t-141 -77.5l147 -234q24 -41 47.5 -63t40 -29t50.5 -14l14 -4l6 -33h-311l-23 45 l-172 321q-5 2 -28 8.5t-31 10.5v-330q0 -6 9 -9t46 -7l43 -6l6 -33h-407zM637 672q32 -14 84 -19q74 0 117 46t43 128q0 84 -55.5 127.5t-139.5 40.5h-49v-323z" />
<glyph unicode="&#xaf;" horiz-adv-x="774" d="M90 1085l33 134h557l-23 -134h-567z" />
<glyph unicode="&#xb0;" horiz-adv-x="659" d="M49 1032q0 120 77 202.5t204 82.5t203.5 -82.5t76.5 -202.5q0 -119 -76.5 -200.5t-203.5 -81.5q-126 0 -203.5 81.5t-77.5 200.5zM96 1032q0 -102 64.5 -171.5t169.5 -69.5t170 69.5t65 171.5q0 103 -65 173.5t-170 70.5t-169.5 -70.5t-64.5 -173.5z" />
<glyph unicode="&#xb1;" horiz-adv-x="917" d="M27 500l6 53h399v344h53v-344h400l6 -53h-406v-332h-53v332h-405zM53 51l6 53h799l6 -53h-811z" />
<glyph unicode="&#xb2;" horiz-adv-x="704" d="M39 1081q34 123 116.5 190.5t202.5 67.5q122 0 192.5 -59.5t70.5 -155.5q0 -42 -19.5 -82.5t-47 -71.5t-76 -67.5t-87.5 -61t-102.5 -63t-100.5 -63.5v-4h295q55 0 86 29t66 102l16 32l23 -2l-76 -325h-547l-10 80q35 32 92 83t83.5 75.5t62.5 62.5t52 63.5t28 59.5 t12 69q0 60 -36.5 101t-109.5 41q-62 0 -106.5 -30.5t-65.5 -80.5z" />
<glyph unicode="&#xb3;" horiz-adv-x="665" d="M23 653q0 42 27.5 68.5t72.5 26.5q70 0 97 -62t-3 -139q18 -8 41 -8q55 0 91 53.5t36 130.5q0 73 -41.5 125.5t-110.5 52.5q-63 0 -110 -24l-12 26q124 45 178.5 84.5t54.5 93.5q0 55 -32.5 82t-90.5 27q-62 0 -108.5 -34.5t-63.5 -78.5l-18 15q35 107 120 177t207 70 q103 0 167.5 -46t64.5 -117q0 -70 -58.5 -115.5t-162.5 -63.5v-4q120 12 193 -42t73 -150q0 -117 -111 -205t-266 -88q-105 0 -170 39t-65 106z" />
<glyph unicode="&#xb4;" horiz-adv-x="862" d="M279 1022l217 377h292l-460 -377h-49z" />
<glyph unicode="&#xb6;" horiz-adv-x="913" d="M49 870q0 204 143 307t457 103h156v-1346h-62v560q-68 -11 -147 -11q-248 0 -397.5 103t-149.5 284z" />
<glyph unicode="&#xb7;" horiz-adv-x="473" d="M74 502q0 65 47.5 111t114.5 46q64 0 111.5 -47.5t47.5 -109.5q0 -67 -47 -115.5t-112 -48.5q-67 0 -114.5 48t-47.5 116z" />
<glyph unicode="&#xb8;" horiz-adv-x="827" d="M176 -258l252 264h49l-129 -133q137 19 234.5 -33t97.5 -141q0 -222 -477 -266l-10 24q163 22 242 64t79 112q0 53 -50.5 81t-125.5 28q-85 0 -162 -25v25z" />
<glyph unicode="&#xb9;" horiz-adv-x="544" d="M51 1235l2 22l359 82v-737q0 -17 65 -22l29 -5l6 -28h-453l4 28l37 5q70 4 70 22v625z" />
<glyph unicode="&#xba;" horiz-adv-x="860" d="M37 926q0 160 111 268.5t288 108.5q175 0 280 -106t105 -259q0 -162 -109.5 -270.5t-287.5 -108.5q-177 0 -282 106t-105 261zM283 946q0 -246 75 -325q25 -25 70 -25q68 0 104.5 88t36.5 234q0 244 -69 317q-31 31 -72 31q-71 0 -108 -87t-37 -233z" />
<glyph unicode="&#xbb;" horiz-adv-x="970" d="M31 78l245 375l-243 376l10 17l487 -354v-72l-487 -357zM479 98l213 355l-211 354l8 16l463 -331v-72l-463 -336z" />
<glyph unicode="&#xbc;" horiz-adv-x="1435" d="M51 1235l2 22l359 82v-737q0 -17 65 -22l29 -5l6 -28h-453l4 28l37 5q70 4 70 22v625zM90 -248l1188 1538h59l-1187 -1538h-60zM700 -70l422 580h148v-496h143l-27 -123h-116v-170h-234v170h-329zM797 14h243v326h-6z" />
<glyph unicode="&#xbd;" horiz-adv-x="1503" d="M51 1235l2 22l359 82v-737q0 -17 65 -22l29 -5l6 -28h-453l4 28l37 5q70 4 70 22v625zM90 -248l1188 1538h59l-1187 -1538h-60zM825 254q34 123 117 190.5t203 67.5q122 0 192 -59.5t70 -155.5q0 -42 -19.5 -83t-46.5 -71.5t-76 -67.5t-87.5 -61t-102 -63.5t-100.5 -63.5 v-4h295q55 0 85.5 29t65.5 102l17 33l22 -2l-76 -326h-546l-11 80q34 32 92 83.5t83.5 75.5t62.5 62t52.5 64t27.5 60t12 69q0 60 -36 100.5t-109 40.5q-62 0 -106.5 -30t-65.5 -80z" />
<glyph unicode="&#xbe;" horiz-adv-x="1474" d="M23 653q0 42 27.5 68.5t72.5 26.5q70 0 97 -62t-3 -139q18 -8 41 -8q55 0 91 53.5t36 130.5q0 73 -41.5 125.5t-110.5 52.5q-63 0 -110 -24l-12 26q124 45 178.5 84.5t54.5 93.5q0 55 -32.5 82t-90.5 27q-62 0 -108.5 -34.5t-63.5 -78.5l-18 15q35 107 120 177t207 70 q103 0 167.5 -46t64.5 -117q0 -70 -58.5 -115.5t-162.5 -63.5v-4q120 12 193 -42t73 -150q0 -117 -111 -205t-266 -88q-105 0 -170 39t-65 106zM129 -248l1188 1538h59l-1188 -1538h-59zM739 -70l422 580h148v-496h143l-27 -123h-116v-170h-234v170h-330zM836 14h243v326h-6 z" />
<glyph unicode="&#xbf;" horiz-adv-x="751" d="M72 438q0 112 39.5 164.5t132.5 85.5q116 38 156 58.5t40 48.5t-15.5 49.5t-55.5 54.5l34 12q80 -52 133.5 -120t53.5 -127q0 -40 -21 -72t-60.5 -55.5t-82.5 -39t-100 -30.5q-103 -28 -147 -53t-44 -56q0 -59 88.5 -96t216.5 -37q68 0 185 25q67 -43 73 -121 q5 -70 -41.5 -114t-138.5 -44q-93 0 -177 39t-142.5 103.5t-92.5 149.5t-34 175zM240 1151q0 62 45.5 109t109.5 47q62 0 108 -46t46 -110q0 -63 -46 -108.5t-108 -45.5q-64 0 -109.5 46.5t-45.5 107.5z" />
<glyph unicode="&#xc0;" horiz-adv-x="1392" d="M-35 0l6 37l37 6q31 5 49.5 10.5t37.5 13.5t34 27t29.5 39.5t32.5 63.5t35 86.5t46 119.5l240 660l-18 76q66 16 136.5 67t96.5 111h49l375 -1051q47 -127 87 -171t101 -50l54 -8l4 -37h-697l7 37l47 6q72 6 81 43.5t-28 138.5l-92 271h-355l-47 -136q-58 -174 -63 -219 q-5 -57 35 -77q28 -13 92 -21l43 -6l6 -37h-461zM256 1741h295l217 -377h-49zM379 545h319l-153 448h-8z" />
<glyph unicode="&#xc1;" horiz-adv-x="1392" d="M-35 0l6 37l37 6q31 5 49.5 10.5t37.5 13.5t34 27t29.5 39.5t32.5 63.5t35 86.5t46 119.5l240 660l-18 76q66 16 136.5 67t96.5 111h49l375 -1051q47 -127 87 -171t101 -50l54 -8l4 -37h-697l7 37l47 6q72 6 81 43.5t-28 138.5l-92 271h-355l-47 -136q-58 -174 -63 -219 q-5 -57 35 -77q28 -13 92 -21l43 -6l6 -37h-461zM379 545h319l-153 448h-8zM557 1364l217 377h293l-461 -377h-49z" />
<glyph unicode="&#xc2;" horiz-adv-x="1392" d="M-35 0l6 37l37 6q31 5 49.5 10.5t37.5 13.5t34 27t29.5 39.5t32.5 63.5t35 86.5t46 119.5l240 660l-18 76q66 16 136.5 67t96.5 111h49l375 -1051q47 -127 87 -171t101 -50l54 -8l4 -37h-697l7 37l47 6q72 6 81 43.5t-28 138.5l-92 271h-355l-47 -136q-58 -174 -63 -219 q-5 -57 35 -77q28 -13 92 -21l43 -6l6 -37h-461zM379 545h319l-153 448h-8zM387 1350l285 409h47l285 -409h-37l-269 180h-4l-270 -180h-37z" />
<glyph unicode="&#xc3;" horiz-adv-x="1392" d="M-35 0l6 37l37 6q31 5 49.5 10.5t37.5 13.5t34 27t29.5 39.5t32.5 63.5t35 86.5t46 119.5l240 660l-18 76q66 16 136.5 67t96.5 111h49l375 -1051q47 -127 87 -171t101 -50l54 -8l4 -37h-697l7 37l47 6q72 6 81 43.5t-28 138.5l-92 271h-355l-47 -136q-58 -174 -63 -219 q-5 -57 35 -77q28 -13 92 -21l43 -6l6 -37h-461zM346 1397q12 166 54.5 229.5t136.5 63.5q54 0 130.5 -33.5t146.5 -67t106 -33.5q33 0 54.5 23t31.5 90h41q-10 -165 -52.5 -228t-136.5 -63q-43 0 -101.5 21t-106 45.5t-98.5 45.5t-81 21q-31 0 -51.5 -23t-28.5 -91h-45z M379 545h319l-153 448h-8z" />
<glyph unicode="&#xc4;" horiz-adv-x="1392" d="M-35 0l6 37l37 6q31 5 49.5 10.5t37.5 13.5t34 27t29.5 39.5t32.5 63.5t35 86.5t46 119.5l240 660l-18 76q66 16 136.5 67t96.5 111h49l375 -1051q47 -127 87 -171t101 -50l54 -8l4 -37h-697l7 37l47 6q72 6 81 43.5t-28 138.5l-92 271h-355l-47 -136q-58 -174 -63 -219 q-5 -57 35 -77q28 -13 92 -21l43 -6l6 -37h-461zM334 1522q0 57 39.5 99t101.5 42q64 0 101.5 -41.5t37.5 -99.5q0 -56 -37.5 -97t-101.5 -41q-62 0 -101.5 41.5t-39.5 96.5zM379 545h319l-153 448h-8zM776 1522q0 57 37.5 99t99.5 42q64 0 102 -42t38 -99q0 -56 -38 -97 t-102 -41q-62 0 -99.5 41t-37.5 97z" />
<glyph unicode="&#xc5;" horiz-adv-x="1392" d="M-35 0l6 37l37 6q36 6 56.5 11t43.5 21t37 35.5t35.5 62.5t41 93t50.5 137l314 863q-45 24 -69.5 68.5t-24.5 99.5q0 82 53 139t141 57q87 0 140 -57t53 -139q0 -51 -22 -94t-62 -68l356 -1006q47 -127 87 -171t101 -50l54 -8l4 -37h-697l7 37l47 6q72 6 81 43.5 t-28 138.5l-92 271h-355l-47 -136q-58 -174 -63 -219q-5 -57 35 -77q28 -13 92 -21l43 -6l6 -37h-461zM379 545h319l-153 448h-8zM530 1434q0 -66 42.5 -113t113.5 -47q70 0 113 47t43 113q0 67 -43 114t-113 47q-71 0 -113.5 -47t-42.5 -114z" />
<glyph unicode="&#xc6;" horiz-adv-x="1867" d="M-88 0l6 37l68 8q34 6 61.5 20.5t63 51.5t78 106.5t96.5 177.5l364 717q31 55 11 84.5t-109 36.5l-82 8l-6 33h1255l11 -444h-66l-16 57q-21 85 -54 146t-72 99t-92.5 59.5t-109 29t-127.5 6.5l-96 -4v-555h57q194 13 244 170l24 71h52l-62 -544l-47 2l-8 69 q-11 95 -56 136t-165 47l-39 4v-578l133 -6q185 2 302.5 84.5t176.5 259.5l16 47h66l-41 -436h-1171l6 35l98 12q82 11 82 39v422h-369l-78 -158q-56 -107 -67 -172.5t15 -96t89 -38.5l54 -6l6 -37h-502zM422 555h342v662h-6z" />
<glyph unicode="&#xc7;" horiz-adv-x="1437" d="M63 623q0 142 51.5 266t147 217t242 147t325.5 54q91 0 176 -19t140 -47l162 39l14 -444h-66l-190 370q-36 20 -97.5 34.5t-125.5 14.5q-197 0 -306.5 -168t-109.5 -448q0 -283 110.5 -448.5t288.5 -165.5q249 0 371 223l90 209h70l-58 -412l-96 2q-60 -24 -160.5 -46 t-193.5 -26l-100 -102q137 19 234 -33t97 -141q0 -222 -477 -266l-10 24q163 22 242 64t79 112q0 53 -50.5 81t-125.5 28q-85 0 -162 -25v25l224 233q-167 1 -306 51t-233 136t-145.5 204.5t-51.5 256.5z" />
<glyph unicode="&#xc8;" horiz-adv-x="1320" d="M33 0l6 35l74 8q88 13 88 37v1124q0 13 -19.5 19.5t-87.5 13.5l-53 8l-6 35h1141l8 -444h-66l-16 57q-21 85 -53.5 146t-72 99t-92.5 59.5t-108.5 29t-128.5 6.5l-110 -4v-555h71q194 13 244 170l25 71h51l-60 -544l-49 2l-8 69q-11 95 -56 136t-165 47l-53 4v-578 l147 -6q185 2 302.5 84.5t176.5 259.5l17 47h65l-41 -436h-1171zM293 1741h295l217 -377h-49z" />
<glyph unicode="&#xc9;" horiz-adv-x="1320" d="M33 0l6 35l74 8q88 13 88 37v1124q0 13 -19.5 19.5t-87.5 13.5l-53 8l-6 35h1141l8 -444h-66l-16 57q-21 85 -53.5 146t-72 99t-92.5 59.5t-108.5 29t-128.5 6.5l-110 -4v-555h71q194 13 244 170l25 71h51l-60 -544l-49 2l-8 69q-11 95 -56 136t-165 47l-53 4v-578 l147 -6q185 2 302.5 84.5t176.5 259.5l17 47h65l-41 -436h-1171zM508 1364l217 377h293l-461 -377h-49z" />
<glyph unicode="&#xca;" horiz-adv-x="1320" d="M33 0l6 35l74 8q88 13 88 37v1124q0 13 -19.5 19.5t-87.5 13.5l-53 8l-6 35h1141l8 -444h-66l-16 57q-21 85 -53.5 146t-72 99t-92.5 59.5t-108.5 29t-128.5 6.5l-110 -4v-555h71q194 13 244 170l25 71h51l-60 -544l-49 2l-8 69q-11 95 -56 136t-165 47l-53 4v-578 l147 -6q185 2 302.5 84.5t176.5 259.5l17 47h65l-41 -436h-1171zM367 1350l284 409h47l285 -409h-37l-268 180h-4l-271 -180h-36z" />
<glyph unicode="&#xcb;" horiz-adv-x="1320" d="M33 0l6 35l74 8q88 13 88 37v1124q0 13 -19.5 19.5t-87.5 13.5l-53 8l-6 35h1141l8 -444h-66l-16 57q-21 85 -53.5 146t-72 99t-92.5 59.5t-108.5 29t-128.5 6.5l-110 -4v-555h71q194 13 244 170l25 71h51l-60 -544l-49 2l-8 69q-11 95 -56 136t-165 47l-53 4v-578 l147 -6q185 2 302.5 84.5t176.5 259.5l17 47h65l-41 -436h-1171zM315 1522q0 56 40 98.5t102 42.5q64 0 101.5 -41.5t37.5 -99.5q0 -56 -37.5 -97t-101.5 -41q-62 0 -102 41.5t-40 96.5zM758 1522q0 57 37.5 99t99.5 42q64 0 101.5 -41.5t37.5 -99.5q0 -56 -37.5 -97 t-101.5 -41q-62 0 -99.5 41t-37.5 97z" />
<glyph unicode="&#xcc;" horiz-adv-x="788" d="M4 1741h295l217 -377h-49zM51 1280h684l-6 -35l-80 -8q-88 -8 -88 -37v-1124q0 -12 20 -19t85 -14l63 -8l6 -35h-682l6 35l80 8q88 9 88 37v1124q0 13 -19.5 19.5t-86.5 13.5l-64 8z" />
<glyph unicode="&#xcd;" horiz-adv-x="788" d="M51 1280h684l-6 -35l-80 -8q-88 -8 -88 -37v-1124q0 -12 20 -19t85 -14l63 -8l6 -35h-682l6 35l80 8q88 9 88 37v1124q0 13 -19.5 19.5t-86.5 13.5l-64 8zM291 1364l217 377h293l-461 -377h-49z" />
<glyph unicode="&#xce;" horiz-adv-x="788" d="M51 1280h684l-6 -35l-80 -8q-88 -8 -88 -37v-1124q0 -12 20 -19t85 -14l63 -8l6 -35h-682l6 35l80 8q88 9 88 37v1124q0 13 -19.5 19.5t-86.5 13.5l-64 8zM86 1350l285 409h47l284 -409h-36l-269 180h-4l-270 -180h-37z" />
<glyph unicode="&#xcf;" horiz-adv-x="788" d="M33 1522q0 57 39.5 99t101.5 42q64 0 101.5 -41.5t37.5 -99.5q0 -56 -37.5 -97t-101.5 -41q-62 0 -101.5 41.5t-39.5 96.5zM51 1280h684l-6 -35l-80 -8q-88 -8 -88 -37v-1124q0 -12 20 -19t85 -14l63 -8l6 -35h-682l6 35l80 8q88 9 88 37v1124q0 13 -19.5 19.5 t-86.5 13.5l-64 8zM475 1522q0 57 37.5 99t99.5 42q64 0 102 -42t38 -99q0 -56 -38 -97t-102 -41q-62 0 -99.5 41t-37.5 97z" />
<glyph unicode="&#xd0;" horiz-adv-x="1472" d="M33 0l6 35l82 14q80 11 80 39v528h-160l6 52h154v528q0 14 -18.5 22t-76.5 15l-65 12l-6 35q43 0 113 0.5t218 0.5t242 0.5t86 0.5q347 0 535 -166t188 -467q0 -173 -95.5 -322t-264.5 -238t-371 -89h-653zM537 78l139 -31q116 -1 202.5 75.5t129.5 203t43 284.5 q0 305 -105 463t-317 158h-92v-563h215l6 -52h-221v-538z" />
<glyph unicode="&#xd1;" horiz-adv-x="1474" d="M-2 1280h545l657 -803h8l-2 582q0 101 -32 136.5t-125 41.5l-62 8l-6 35h477l-6 -35l-57 -8q-77 -6 -104 -48t-27 -149l-7 -1052h-100l-860 1032h-6v-803q0 -99 33 -133.5t127 -40.5l63 -8l6 -35h-481l6 35l57 8q80 6 105.5 46t25.5 147l7 849q-41 62 -93.5 99t-103.5 45 l-39 16zM412 1397q12 166 54 229.5t136 63.5q54 0 130.5 -33.5t146.5 -67t106 -33.5q33 0 54.5 23t31.5 90h41q-10 -165 -52 -228t-136 -63q-43 0 -101.5 21t-106 45.5t-98.5 45.5t-81 21q-31 0 -51.5 -23t-28.5 -91h-45z" />
<glyph unicode="&#xd2;" horiz-adv-x="1548" d="M63 637q0 140 59 265t157.5 213.5t231 140t275.5 51.5q314 0 507.5 -184.5t193.5 -483.5q0 -186 -99.5 -340t-265 -240t-358.5 -86q-207 0 -366.5 82.5t-247 233.5t-87.5 348zM373 1741h295l217 -377h-49zM426 645q0 -311 91.5 -465.5t266.5 -154.5q172 0 254 144t82 464 q0 309 -90 464.5t-260 155.5q-176 0 -260 -144t-84 -464z" />
<glyph unicode="&#xd3;" horiz-adv-x="1548" d="M63 637q0 140 59 265t157.5 213.5t231 140t275.5 51.5q314 0 507.5 -184.5t193.5 -483.5q0 -186 -99.5 -340t-265 -240t-358.5 -86q-207 0 -366.5 82.5t-247 233.5t-87.5 348zM426 645q0 -311 91.5 -465.5t266.5 -154.5q172 0 254 144t82 464q0 309 -90 464.5t-260 155.5 q-176 0 -260 -144t-84 -464zM684 1364l217 377h293l-461 -377h-49z" />
<glyph unicode="&#xd4;" horiz-adv-x="1548" d="M63 637q0 140 59 265t157.5 213.5t231 140t275.5 51.5q314 0 507.5 -184.5t193.5 -483.5q0 -186 -99.5 -340t-265 -240t-358.5 -86q-207 0 -366.5 82.5t-247 233.5t-87.5 348zM426 645q0 -311 91.5 -465.5t266.5 -154.5q172 0 254 144t82 464q0 309 -90 464.5t-260 155.5 q-176 0 -260 -144t-84 -464zM465 1350l285 409h47l284 -409h-37l-268 180h-4l-270 -180h-37z" />
<glyph unicode="&#xd5;" horiz-adv-x="1548" d="M63 637q0 140 59 265t157.5 213.5t231 140t275.5 51.5q314 0 507.5 -184.5t193.5 -483.5q0 -186 -99.5 -340t-265 -240t-358.5 -86q-207 0 -366.5 82.5t-247 233.5t-87.5 348zM426 645q0 -311 91.5 -465.5t266.5 -154.5q172 0 254 144t82 464q0 309 -90 464.5t-260 155.5 q-176 0 -260 -144t-84 -464zM438 1397q12 166 54.5 229.5t136.5 63.5q54 0 130.5 -33.5t146.5 -67t106 -33.5q33 0 54.5 23t31.5 90h41q-10 -165 -52.5 -228t-136.5 -63q-43 0 -101.5 21t-106 45.5t-98.5 45.5t-81 21q-31 0 -51.5 -23t-28.5 -91h-45z" />
<glyph unicode="&#xd6;" horiz-adv-x="1548" d="M63 637q0 140 59 265t157.5 213.5t231 140t275.5 51.5q314 0 507.5 -184.5t193.5 -483.5q0 -186 -99.5 -340t-265 -240t-358.5 -86q-207 0 -366.5 82.5t-247 233.5t-87.5 348zM403 1522q0 56 40 98.5t102 42.5q64 0 101.5 -41.5t37.5 -99.5q0 -56 -37.5 -97t-101.5 -41 q-62 0 -102 41.5t-40 96.5zM426 645q0 -311 91.5 -465.5t266.5 -154.5q172 0 254 144t82 464q0 309 -90 464.5t-260 155.5q-176 0 -260 -144t-84 -464zM846 1522q0 57 37.5 99t99.5 42q64 0 101.5 -41.5t37.5 -99.5q0 -56 -37.5 -97t-101.5 -41q-62 0 -99.5 41t-37.5 97z " />
<glyph unicode="&#xd7;" horiz-adv-x="917" d="M63 125l359 358q-27 26 -100.5 99.5t-159.5 160t-99 99.5l37 37l359 -359l358 359l37 -37l-358 -359q26 -27 99 -100t159.5 -159t99.5 -99l-37 -37l-358 358l-359 -358z" />
<glyph unicode="&#xd8;" horiz-adv-x="1548" d="M63 637q0 140 59 265t157.5 213.5t231 140t275.5 51.5q173 0 322 -62l94 164h51l-106 -182q160 -84 250 -237t90 -351q0 -186 -99.5 -340t-265 -240t-358.5 -86q-165 0 -309 58l-105 -183h-51l115 199q-165 79 -258 233t-93 357zM426 645q0 -286 78 -442l522 901 q-88 149 -256 149q-176 0 -260 -144t-84 -464zM530 160q88 -135 254 -135q172 0 254 144t82 464q0 270 -69 426z" />
<glyph unicode="&#xd9;" horiz-adv-x="1449" d="M27 1280h667l-6 -35l-74 -8q-86 -8 -86 -35v-747q0 -175 83.5 -268t242.5 -93q179 0 262.5 94.5t83.5 303.5l-2 567q0 100 -32.5 136t-125.5 42l-63 8l-6 35h479l-6 -35l-55 -8q-79 -6 -106.5 -48t-27.5 -149l-2 -565q-2 -253 -128.5 -384.5t-379.5 -131.5 q-271 0 -411.5 104t-140.5 312v831q0 9 -6 14t-29 9.5t-68 7.5l-57 8zM367 1741h295l217 -377h-50z" />
<glyph unicode="&#xda;" horiz-adv-x="1449" d="M27 1280h667l-6 -35l-74 -8q-86 -8 -86 -35v-747q0 -175 83.5 -268t242.5 -93q179 0 262.5 94.5t83.5 303.5l-2 567q0 100 -32.5 136t-125.5 42l-63 8l-6 35h479l-6 -35l-55 -8q-79 -6 -106.5 -48t-27.5 -149l-2 -565q-2 -253 -128.5 -384.5t-379.5 -131.5 q-271 0 -411.5 104t-140.5 312v831q0 9 -6 14t-29 9.5t-68 7.5l-57 8zM723 1364l217 377h293l-461 -377h-49z" />
<glyph unicode="&#xdb;" horiz-adv-x="1449" d="M27 1280h667l-6 -35l-74 -8q-86 -8 -86 -35v-747q0 -175 83.5 -268t242.5 -93q179 0 262.5 94.5t83.5 303.5l-2 567q0 100 -32.5 136t-125.5 42l-63 8l-6 35h479l-6 -35l-55 -8q-79 -6 -106.5 -48t-27.5 -149l-2 -565q-2 -253 -128.5 -384.5t-379.5 -131.5 q-271 0 -411.5 104t-140.5 312v831q0 9 -6 14t-29 9.5t-68 7.5l-57 8zM500 1350l284 409h47l285 -409h-37l-268 180h-4l-270 -180h-37z" />
<glyph unicode="&#xdc;" horiz-adv-x="1449" d="M27 1280h667l-6 -35l-74 -8q-86 -8 -86 -35v-747q0 -175 83.5 -268t242.5 -93q179 0 262.5 94.5t83.5 303.5l-2 567q0 100 -32.5 136t-125.5 42l-63 8l-6 35h479l-6 -35l-55 -8q-79 -6 -106.5 -48t-27.5 -149l-2 -565q-2 -253 -128.5 -384.5t-379.5 -131.5 q-271 0 -411.5 104t-140.5 312v831q0 9 -6 14t-29 9.5t-68 7.5l-57 8zM440 1522q0 56 40 98.5t102 42.5q64 0 101.5 -41.5t37.5 -99.5q0 -56 -37.5 -97t-101.5 -41q-62 0 -102 41.5t-40 96.5zM883 1522q0 57 37.5 99t99.5 42q64 0 101.5 -41.5t37.5 -99.5q0 -56 -37.5 -97 t-101.5 -41q-62 0 -99.5 41t-37.5 97z" />
<glyph unicode="&#xdd;" horiz-adv-x="1333" d="M2 1280h678l-6 -37l-35 -6q-83 -10 -100.5 -39t16.5 -92l242 -442h10l131 241q41 74 63.5 119.5t35.5 84.5t11 59t-19 35.5t-44 21.5t-74 10l-49 8l-6 37h492l-7 -37l-55 -10q-45 -7 -70 -17.5t-60 -50t-70 -99.5t-101 -181l-149 -269v-540q0 -13 18.5 -19.5t83.5 -13.5 l61 -8l7 -35h-682l6 35l82 8q86 8 86 37v489l-273 482q-66 111 -90 137q-34 37 -92 47l-35 8zM582 1364l217 377h293l-461 -377h-49z" />
<glyph unicode="&#xde;" horiz-adv-x="1300" d="M47 0l6 41l74 8q88 9 88 33v1120q0 12 -18.5 18t-87.5 13l-54 6l-6 41h666l-6 -41l-72 -8q-86 -8 -86 -33v-190h90q588 0 588 -330q0 -172 -164 -270.5t-434 -98.5q-64 0 -80 4v-235q0 -9 6.5 -14t29.5 -9t68 -6l74 -8l6 -41h-688zM551 362q1 0 25 -3t45 -3q107 0 177 83 t70 216q0 148 -66.5 228t-195.5 84l-55 -4v-601z" />
<glyph unicode="&#xdf;" horiz-adv-x="1245" d="M8 766l41 129l119 -4l8 137q6 151 142.5 250.5t318.5 99.5q209 0 322.5 -73.5t113.5 -204.5q0 -179 -258 -217q167 -75 272 -210t105 -284q0 -109 -53.5 -205.5t-143.5 -153.5t-192 -57q-126 0 -195 49t-69 132q0 57 39 96t96 39q65 0 98 -41t29 -95t-35 -96 q4 -14 20 -25.5t43 -11.5q54 0 88.5 45t34.5 128q0 78 -21.5 154t-66 152t-122.5 146t-183 125v84q90 28 137.5 56.5t73 78t25.5 129.5q0 96 -43.5 153.5t-116.5 57.5q-93 0 -130.5 -58t-37.5 -210v-1061h-422l6 41l39 2q46 3 63 9t17 24v684z" />
<glyph unicode="&#xe0;" d="M49 184q0 120 119.5 201t406.5 158l3 57q5 107 -51 177.5t-156 70.5q-53 0 -81 -12t-28 -29q0 -5 16.5 -24.5t33 -48t16.5 -54.5q0 -49 -39.5 -85t-98.5 -36q-58 0 -96.5 29.5t-38.5 81.5q0 72 80.5 133.5t192.5 94t217 32.5q177 0 256 -80t73 -254l-16 -360 q-6 -111 72 -111q33 0 88 63l20 -22q-150 -193 -274 -193q-77 0 -128 51t-61 144l-6 2q-83 -98 -150.5 -146.5t-146.5 -48.5q-93 0 -158 61t-65 148zM100 1399h295l217 -377h-49zM332 283q0 -62 32 -97.5t87 -35.5q59 0 114 63l13 289q-136 -37 -191 -89.5t-55 -129.5z" />
<glyph unicode="&#xe1;" d="M49 184q0 120 119.5 201t406.5 158l3 57q5 107 -51 177.5t-156 70.5q-53 0 -81 -12t-28 -29q0 -5 16.5 -24.5t33 -48t16.5 -54.5q0 -49 -39.5 -85t-98.5 -36q-58 0 -96.5 29.5t-38.5 81.5q0 72 80.5 133.5t192.5 94t217 32.5q177 0 256 -80t73 -254l-16 -360 q-6 -111 72 -111q33 0 88 63l20 -22q-150 -193 -274 -193q-77 0 -128 51t-61 144l-6 2q-83 -98 -150.5 -146.5t-146.5 -48.5q-93 0 -158 61t-65 148zM332 283q0 -62 32 -97.5t87 -35.5q59 0 114 63l13 289q-136 -37 -191 -89.5t-55 -129.5zM373 1022l217 377h293l-461 -377 h-49z" />
<glyph unicode="&#xe2;" d="M49 184q0 120 119.5 201t406.5 158l3 57q5 107 -51 177.5t-156 70.5q-53 0 -81 -12t-28 -29q0 -5 16.5 -24.5t33 -48t16.5 -54.5q0 -49 -39.5 -85t-98.5 -36q-58 0 -96.5 29.5t-38.5 81.5q0 72 80.5 133.5t192.5 94t217 32.5q177 0 256 -80t73 -254l-16 -360 q-6 -111 72 -111q33 0 88 63l20 -22q-150 -193 -274 -193q-77 0 -128 51t-61 144l-6 2q-83 -98 -150.5 -146.5t-146.5 -48.5q-93 0 -158 61t-65 148zM180 1008l285 409h47l285 -409h-37l-268 180h-5l-270 -180h-37zM332 283q0 -62 32 -97.5t87 -35.5q59 0 114 63l13 289 q-136 -37 -191 -89.5t-55 -129.5z" />
<glyph unicode="&#xe3;" d="M49 184q0 120 119.5 201t406.5 158l3 57q5 107 -51 177.5t-156 70.5q-53 0 -81 -12t-28 -29q0 -5 16.5 -24.5t33 -48t16.5 -54.5q0 -49 -39.5 -85t-98.5 -36q-58 0 -96.5 29.5t-38.5 81.5q0 72 80.5 133.5t192.5 94t217 32.5q177 0 256 -80t73 -254l-16 -360 q-6 -111 72 -111q33 0 88 63l20 -22q-150 -193 -274 -193q-77 0 -128 51t-61 144l-6 2q-83 -98 -150.5 -146.5t-146.5 -48.5q-93 0 -158 61t-65 148zM139 1055q12 166 54.5 229.5t136.5 63.5q54 0 130.5 -33.5t146.5 -67t106 -33.5q33 0 54.5 23t31.5 90h41 q-10 -165 -52.5 -228t-136.5 -63q-43 0 -101.5 21t-106 45.5t-98.5 45.5t-81 21q-31 0 -51.5 -23t-28.5 -91h-45zM332 283q0 -62 32 -97.5t87 -35.5q59 0 114 63l13 289q-136 -37 -191 -89.5t-55 -129.5z" />
<glyph unicode="&#xe4;" d="M49 184q0 120 119.5 201t406.5 158l3 57q5 107 -51 177.5t-156 70.5q-53 0 -81 -12t-28 -29q0 -5 16.5 -24.5t33 -48t16.5 -54.5q0 -49 -39.5 -85t-98.5 -36q-58 0 -96.5 29.5t-38.5 81.5q0 72 80.5 133.5t192.5 94t217 32.5q177 0 256 -80t73 -254l-16 -360 q-6 -111 72 -111q33 0 88 63l20 -22q-150 -193 -274 -193q-77 0 -128 51t-61 144l-6 2q-83 -98 -150.5 -146.5t-146.5 -48.5q-93 0 -158 61t-65 148zM129 1180q0 57 39.5 99t101.5 42q64 0 102 -42t38 -99q0 -56 -38 -97t-102 -41q-62 0 -101.5 41.5t-39.5 96.5zM332 283 q0 -62 32 -97.5t87 -35.5q59 0 114 63l13 289q-136 -37 -191 -89.5t-55 -129.5zM571 1180q0 57 38 99t100 42q64 0 101.5 -41.5t37.5 -99.5q0 -56 -37.5 -97t-101.5 -41q-62 0 -100 41.5t-38 96.5z" />
<glyph unicode="&#xe5;" d="M49 184q0 120 119.5 201t406.5 158l3 57q5 107 -51 177.5t-156 70.5q-53 0 -81 -12t-28 -29q0 -5 16.5 -24.5t33 -48t16.5 -54.5q0 -49 -39.5 -85t-98.5 -36q-58 0 -96.5 29.5t-38.5 81.5q0 72 80.5 133.5t192.5 94t217 32.5q177 0 256 -80t73 -254l-16 -360 q-6 -111 72 -111q33 0 88 63l20 -22q-150 -193 -274 -193q-77 0 -128 51t-61 144l-6 2q-83 -98 -150.5 -146.5t-146.5 -48.5q-93 0 -158 61t-65 148zM266 1223q0 82 53.5 139t141.5 57q87 0 139.5 -57t52.5 -139t-52.5 -138.5t-139.5 -56.5q-88 0 -141.5 56.5t-53.5 138.5z M305 1223q0 -67 42.5 -113.5t113.5 -46.5q70 0 112.5 46.5t42.5 113.5t-42.5 114t-112.5 47q-71 0 -113.5 -47t-42.5 -114zM332 283q0 -62 32 -97.5t87 -35.5q59 0 114 63l13 289q-136 -37 -191 -89.5t-55 -129.5z" />
<glyph unicode="&#xe6;" horiz-adv-x="1490" d="M49 184q0 120 118.5 200.5t407.5 160.5l3 55q5 107 -51 177.5t-156 70.5q-53 0 -81 -12t-28 -29q0 -5 16.5 -24.5t33 -48t16.5 -54.5q0 -49 -39.5 -85t-98.5 -36q-58 0 -96.5 29.5t-38.5 81.5q0 72 78 133.5t188.5 94t217.5 32.5q159 0 229 -90q132 94 299 94 q89 0 161 -26t117 -70t69 -98t24 -113q0 -26 -8 -62q-474 6 -556 10q-2 -8 -2 -20.5t1 -28t1 -20.5q2 -162 80.5 -259t212.5 -97q170 0 254 155l23 -12q-54 -153 -169.5 -235.5t-275.5 -82.5q-136 0 -236.5 61.5t-146.5 170.5q-72 -107 -165 -169.5t-181 -62.5 q-91 0 -156 61.5t-65 147.5zM332 279q0 -56 32.5 -92.5t75.5 -36.5q83 0 160 86q-27 65 -27 237q0 23 2 27q-131 -35 -187 -89.5t-56 -131.5zM877 612l284 2q1 73 -9 130.5t-39 98t-75 40.5q-61 0 -106 -71.5t-55 -199.5z" />
<glyph unicode="&#xe7;" horiz-adv-x="952" d="M49 420q0 221 145 365.5t371 144.5q152 0 248 -60t96 -155q0 -64 -40 -104t-101 -40q-67 0 -108 50t-35 118q0 24 21.5 59t21.5 36q-1 19 -28 32t-62 13q-94 0 -150.5 -94t-56.5 -265q0 -181 72 -280t208 -99q165 0 250 158l23 -12q-51 -143 -150.5 -225.5t-238.5 -92.5 l-93 -96q137 19 234.5 -33t97.5 -141q0 -222 -477 -266l-10 24q163 22 242 64t79 112q0 53 -50.5 81t-125.5 28q-85 0 -162 -25v25l215 225q-189 3 -312.5 129.5t-123.5 323.5z" />
<glyph unicode="&#xe8;" horiz-adv-x="978" d="M49 428q0 216 146 361t362 145q88 0 159 -26t115.5 -70t68.5 -98t24 -113q0 -35 -6 -62q-473 6 -553 10q-3 -27 -3 -69q2 -163 81 -264t212 -101q167 0 252 158l25 -12q-112 -320 -440 -320q-189 0 -316 130.5t-127 330.5zM131 1399h295l217 -377h-49zM365 612l284 2 q1 73 -9 130.5t-38.5 98t-73.5 40.5q-62 0 -107.5 -71.5t-55.5 -199.5z" />
<glyph unicode="&#xe9;" horiz-adv-x="978" d="M49 428q0 216 146 361t362 145q88 0 159 -26t115.5 -70t68.5 -98t24 -113q0 -35 -6 -62q-473 6 -553 10q-3 -27 -3 -69q2 -163 81 -264t212 -101q167 0 252 158l25 -12q-112 -320 -440 -320q-189 0 -316 130.5t-127 330.5zM365 612l284 2q1 73 -9 130.5t-38.5 98 t-73.5 40.5q-62 0 -107.5 -71.5t-55.5 -199.5zM403 1022l218 377h292l-460 -377h-50z" />
<glyph unicode="&#xea;" horiz-adv-x="978" d="M49 428q0 216 146 361t362 145q88 0 159 -26t115.5 -70t68.5 -98t24 -113q0 -35 -6 -62q-473 6 -553 10q-3 -27 -3 -69q2 -163 81 -264t212 -101q167 0 252 158l25 -12q-112 -320 -440 -320q-189 0 -316 130.5t-127 330.5zM209 1008l285 409h47l284 -409h-37l-268 180h-4 l-270 -180h-37zM365 612l284 2q1 73 -9 130.5t-38.5 98t-73.5 40.5q-62 0 -107.5 -71.5t-55.5 -199.5z" />
<glyph unicode="&#xeb;" horiz-adv-x="978" d="M49 428q0 216 146 361t362 145q88 0 159 -26t115.5 -70t68.5 -98t24 -113q0 -35 -6 -62q-473 6 -553 10q-3 -27 -3 -69q2 -163 81 -264t212 -101q167 0 252 158l25 -12q-112 -320 -440 -320q-189 0 -316 130.5t-127 330.5zM158 1180q0 57 39.5 99t101.5 42 q64 0 101.5 -41.5t37.5 -99.5q0 -56 -37.5 -97t-101.5 -41q-62 0 -101.5 41.5t-39.5 96.5zM365 612l284 2q1 73 -9 130.5t-38.5 98t-73.5 40.5q-62 0 -107.5 -71.5t-55.5 -199.5zM600 1180q0 57 37.5 99t99.5 42q64 0 102 -42t38 -99q0 -56 -38 -97t-102 -41q-62 0 -99.5 41 t-37.5 97z" />
<glyph unicode="&#xec;" horiz-adv-x="618" d="M-49 1399h295l217 -377h-49zM35 782l2 27l422 119v-858q0 -14 17 -20t81 -13l18 -2l7 -35h-537l6 35l29 2q47 3 64.5 10t17.5 25v536q0 65 -7.5 95.5t-24 44t-54.5 24.5z" />
<glyph unicode="&#xed;" horiz-adv-x="618" d="M35 782l2 27l422 119v-858q0 -14 17 -20t81 -13l18 -2l7 -35h-537l6 35l29 2q47 3 64.5 10t17.5 25v536q0 65 -7.5 95.5t-24 44t-54.5 24.5zM158 1022l217 377h293l-461 -377h-49z" />
<glyph unicode="&#xee;" horiz-adv-x="618" d="M0 1008l285 409h45l286 -409h-38l-269 178h-4l-268 -178h-37zM35 782l2 27l422 119v-858q0 -14 17 -20t81 -13l18 -2l7 -35h-537l6 35l29 2q47 3 64.5 10t17.5 25v536q0 65 -7.5 95.5t-24 44t-54.5 24.5z" />
<glyph unicode="&#xef;" horiz-adv-x="618" d="M-51 1180q0 57 39.5 99t101.5 42q64 0 101.5 -41.5t37.5 -99.5q0 -56 -37.5 -97t-101.5 -41q-62 0 -101.5 41.5t-39.5 96.5zM35 782l2 27l422 119v-858q0 -14 17 -20t81 -13l18 -2l7 -35h-537l6 35l29 2q47 3 64.5 10t17.5 25v536q0 65 -7.5 95.5t-24 44t-54.5 24.5z M391 1180q0 57 37.5 99t99.5 42q64 0 102 -42t38 -99q0 -56 -38 -97t-102 -41q-62 0 -99.5 41t-37.5 97z" />
<glyph unicode="&#xf0;" horiz-adv-x="1112" d="M49 453q0 204 138 344.5t350 140.5q55 0 108 -12q-68 120 -166 200q1 0 -65 -21.5t-132 -42.5l-67 -22l4 52l213 69q-111 74 -254 103l15 34q198 -17 372 -92l232 76l4 -51q-170 -55 -172 -55q205 -106 316.5 -279t111.5 -375q0 -247 -142.5 -397t-363.5 -150 q-154 0 -269.5 65.5t-174 173.5t-58.5 239zM367 477q0 -242 45 -349.5t147 -107.5q96 0 141 104t45 314t-53.5 333.5t-146.5 123.5q-85 0 -131.5 -115t-46.5 -303z" />
<glyph unicode="&#xf1;" horiz-adv-x="1185" d="M31 782l2 27l426 119l-4 -176h4q100 82 184.5 130t171.5 48q94 0 168 -74q70 -70 70 -244v-540q0 -8 6 -13t28.5 -10.5t65.5 -11.5l23 -2l6 -35h-533l6 35l33 2q33 2 49 8t18.5 11t2.5 16v477q0 110 -41.5 152t-120.5 42q-73 0 -141 -41v-632q0 -15 15 -22t65 -11l32 -2 l4 -35h-530l6 35l29 2q47 3 64.5 10t17.5 25v536q0 65 -7.5 95.5t-24 44t-54.5 24.5zM242 1055q12 166 54 229.5t136 63.5q54 0 130.5 -33.5t146.5 -67t106 -33.5q33 0 54.5 23t31.5 90h41q-10 -165 -52 -228t-136 -63q-43 0 -101.5 21t-106 45.5t-98.5 45.5t-81 21 q-31 0 -51.5 -23t-28.5 -91h-45z" />
<glyph unicode="&#xf2;" horiz-adv-x="1122" d="M49 449q0 99 38.5 187.5t106.5 153t166.5 102.5t212.5 38q153 0 268.5 -65.5t173.5 -172t58 -235.5q0 -206 -146.5 -346t-377.5 -140q-116 0 -211.5 38t-158 103.5t-96.5 152t-34 184.5zM150 1399h294l218 -377h-50zM369 471q0 -323 92 -422q35 -35 96 -35 q92 0 142.5 114t50.5 304q0 321 -95 416q-35 35 -92 35q-94 0 -144 -110t-50 -302z" />
<glyph unicode="&#xf3;" horiz-adv-x="1122" d="M49 449q0 99 38.5 187.5t106.5 153t166.5 102.5t212.5 38q153 0 268.5 -65.5t173.5 -172t58 -235.5q0 -206 -146.5 -346t-377.5 -140q-116 0 -211.5 38t-158 103.5t-96.5 152t-34 184.5zM369 471q0 -323 92 -422q35 -35 96 -35q92 0 142.5 114t50.5 304q0 321 -95 416 q-35 35 -92 35q-94 0 -144 -110t-50 -302zM449 1022l217 377h292l-460 -377h-49z" />
<glyph unicode="&#xf4;" horiz-adv-x="1122" d="M49 449q0 99 38.5 187.5t106.5 153t166.5 102.5t212.5 38q153 0 268.5 -65.5t173.5 -172t58 -235.5q0 -206 -146.5 -346t-377.5 -140q-116 0 -211.5 38t-158 103.5t-96.5 152t-34 184.5zM250 1008l285 409h47l284 -409h-37l-268 180h-4l-270 -180h-37zM369 471 q0 -323 92 -422q35 -35 96 -35q92 0 142.5 114t50.5 304q0 321 -95 416q-35 35 -92 35q-94 0 -144 -110t-50 -302z" />
<glyph unicode="&#xf5;" horiz-adv-x="1122" d="M49 449q0 99 38.5 187.5t106.5 153t166.5 102.5t212.5 38q153 0 268.5 -65.5t173.5 -172t58 -235.5q0 -206 -146.5 -346t-377.5 -140q-116 0 -211.5 38t-158 103.5t-96.5 152t-34 184.5zM209 1055q12 166 54 229.5t136 63.5q54 0 130.5 -33.5t146.5 -67t106 -33.5 q33 0 54.5 23t31.5 90h41q-10 -165 -52 -228t-136 -63q-43 0 -101.5 21t-106 45.5t-98.5 45.5t-81 21q-31 0 -51.5 -23t-28.5 -91h-45zM369 471q0 -323 92 -422q35 -35 96 -35q92 0 142.5 114t50.5 304q0 321 -95 416q-35 35 -92 35q-94 0 -144 -110t-50 -302z" />
<glyph unicode="&#xf6;" horiz-adv-x="1122" d="M49 449q0 99 38.5 187.5t106.5 153t166.5 102.5t212.5 38q153 0 268.5 -65.5t173.5 -172t58 -235.5q0 -206 -146.5 -346t-377.5 -140q-116 0 -211.5 38t-158 103.5t-96.5 152t-34 184.5zM197 1180q0 57 39.5 99t101.5 42q64 0 101.5 -41.5t37.5 -99.5q0 -56 -37.5 -97 t-101.5 -41q-62 0 -101.5 41.5t-39.5 96.5zM369 471q0 -323 92 -422q35 -35 96 -35q92 0 142.5 114t50.5 304q0 321 -95 416q-35 35 -92 35q-94 0 -144 -110t-50 -302zM639 1180q0 57 37.5 99t99.5 42q64 0 101.5 -41.5t37.5 -99.5q0 -56 -37.5 -97t-101.5 -41 q-62 0 -99.5 41t-37.5 97z" />
<glyph unicode="&#xf7;" horiz-adv-x="917" d="M45 457l6 53h815l6 -53h-827zM352 201q0 40 31 70t76 30q44 0 74 -30t30 -70q0 -42 -30.5 -74.5t-73.5 -32.5q-45 0 -76 32.5t-31 74.5zM352 772q0 40 31 71t74 31q45 0 75.5 -30.5t30.5 -71.5q0 -42 -30.5 -74t-75.5 -32q-43 0 -74 32t-31 74z" />
<glyph unicode="&#xf8;" horiz-adv-x="1122" d="M49 449q0 99 38.5 187.5t106.5 153t166.5 102.5t212.5 38q113 0 203 -35l168 289h49q-176 -305 -178 -305q122 -59 190 -172.5t68 -249.5q0 -206 -146.5 -346t-377.5 -140q-128 0 -230 45l-161 -280h-49l172 299q-111 62 -171.5 172t-60.5 242zM369 471q0 -153 18 -252 l318 549q-20 50 -50 80q-39 39 -92 39q-94 0 -144 -111.5t-50 -304.5zM401 160q22 -69 60 -111q33 -33 96 -33q92 0 142.5 113t50.5 303q0 171 -29 281z" />
<glyph unicode="&#xf9;" horiz-adv-x="1148" d="M0 899h438l-6 -549q-3 -107 38.5 -149.5t123.5 -42.5q56 0 131 41v630q0 15 -18.5 22t-79.5 11l-31 2l-8 35h432v-651q0 -73 14 -100t58 -39l57 -15l-4 -24l-422 -103l4 185h-6q-98 -84 -183.5 -132.5t-172.5 -48.5q-49 0 -84.5 18t-77.5 58q-74 77 -68 246l4 541 q0 6 -5.5 9.5t-28.5 8.5t-68 10l-31 2zM154 1399h295l217 -377h-50z" />
<glyph unicode="&#xfa;" horiz-adv-x="1148" d="M0 899h438l-6 -549q-3 -107 38.5 -149.5t123.5 -42.5q56 0 131 41v630q0 15 -18.5 22t-79.5 11l-31 2l-8 35h432v-651q0 -73 14 -100t58 -39l57 -15l-4 -24l-422 -103l4 185h-6q-98 -84 -183.5 -132.5t-172.5 -48.5q-49 0 -84.5 18t-77.5 58q-74 77 -68 246l4 541 q0 6 -5.5 9.5t-28.5 8.5t-68 10l-31 2zM465 1022l217 377h293l-461 -377h-49z" />
<glyph unicode="&#xfb;" horiz-adv-x="1148" d="M0 899h438l-6 -549q-3 -107 38.5 -149.5t123.5 -42.5q56 0 131 41v630q0 15 -18.5 22t-79.5 11l-31 2l-8 35h432v-651q0 -73 14 -100t58 -39l57 -15l-4 -24l-422 -103l4 185h-6q-98 -84 -183.5 -132.5t-172.5 -48.5q-49 0 -84.5 18t-77.5 58q-74 77 -68 246l4 541 q0 6 -5.5 9.5t-28.5 8.5t-68 10l-31 2zM256 1008l285 409h47l284 -409h-36l-269 180h-4l-270 -180h-37z" />
<glyph unicode="&#xfc;" horiz-adv-x="1148" d="M0 899h438l-6 -549q-3 -107 38.5 -149.5t123.5 -42.5q56 0 131 41v630q0 15 -18.5 22t-79.5 11l-31 2l-8 35h432v-651q0 -73 14 -100t58 -39l57 -15l-4 -24l-422 -103l4 185h-6q-98 -84 -183.5 -132.5t-172.5 -48.5q-49 0 -84.5 18t-77.5 58q-74 77 -68 246l4 541 q0 6 -5.5 9.5t-28.5 8.5t-68 10l-31 2zM229 1180q0 56 40 98.5t102 42.5q64 0 101.5 -41.5t37.5 -99.5q0 -56 -37.5 -97t-101.5 -41q-62 0 -102 41.5t-40 96.5zM672 1180q0 57 37.5 99t99.5 42q64 0 101.5 -41.5t37.5 -99.5q0 -56 -37.5 -97t-101.5 -41q-62 0 -99.5 41 t-37.5 97z" />
<glyph unicode="&#xfd;" d="M-29 899h576l-6 -35l-45 -8q-53 -8 -65.5 -26.5t7.5 -59.5l201 -483l125 346q31 87 34 129.5t-18.5 61t-79.5 28.5l-43 12l-6 35h379l-6 -35l-45 -8q-57 -6 -82.5 -43t-81.5 -184l-225 -600l-101 -289q-47 -139 -112.5 -203.5t-157.5 -64.5q-63 0 -111.5 38t-48.5 105 q0 53 37.5 93t96.5 40q62 0 100 -38t45 -89q37 9 60.5 42.5t52.5 113.5l65 178h-35l-358 805q-25 52 -46 70t-65 26l-35 8zM426 1022l217 377h293l-461 -377h-49z" />
<glyph unicode="&#xfe;" horiz-adv-x="1144" d="M-23 -514l7 41l43 2q48 3 65 9.5t17 25.5v1530q0 74 -14 98.5t-60 38.5l-53 20l2 25l419 115v-646l11 -4q60 79 141 131t170 52q155 0 264 -129t109 -318q0 -94 -29 -176.5t-79 -142t-116 -102.5t-140 -64t-150 -21q-105 0 -172 29h-9v-444q0 -24 97 -27l69 -2l6 -41 h-598zM403 180q50 -77 104 -121.5t99 -44.5q77 0 123.5 108t46.5 275q0 159 -61.5 258t-163.5 99q-73 0 -148 -56v-518z" />
<glyph unicode="&#xff;" d="M-29 899h576l-6 -35l-45 -8q-53 -8 -65.5 -26.5t7.5 -59.5l201 -483l125 346q31 87 34 129.5t-18.5 61t-79.5 28.5l-43 12l-6 35h379l-6 -35l-45 -8q-57 -6 -82.5 -43t-81.5 -184l-225 -600l-101 -289q-47 -139 -112.5 -203.5t-157.5 -64.5q-63 0 -111.5 38t-48.5 105 q0 53 37.5 93t96.5 40q62 0 100 -38t45 -89q37 9 60.5 42.5t52.5 113.5l65 178h-35l-358 805q-25 52 -46 70t-65 26l-35 8zM156 1180q0 57 39.5 99t101.5 42q64 0 101.5 -41.5t37.5 -99.5q0 -56 -37.5 -97t-101.5 -41q-62 0 -101.5 41.5t-39.5 96.5zM598 1180q0 57 37.5 99 t99.5 42q64 0 101.5 -41.5t37.5 -99.5q0 -56 -37.5 -97t-101.5 -41q-62 0 -99.5 41t-37.5 97z" />
<glyph unicode="&#x152;" horiz-adv-x="2039" d="M63 629q0 130 56.5 249.5t153 207.5t233 141t289.5 53h1097l9 -440h-60l-18 59q-21 83 -54.5 144t-74.5 98t-96.5 58.5t-113 28.5t-130.5 5l-80 -4v-555h57q195 12 244 168l24 71h50l-60 -538h-47l-8 69q-9 95 -54.5 136t-166.5 47l-39 2v-578l129 -6q189 2 306 83 t175 255l19 51h61l-41 -434h-1155q-337 2 -521 166t-184 463zM422 668q0 -306 108 -463.5t322 -157.5h90v1161l-139 27q-118 0 -206 -77.5t-131.5 -204.5t-43.5 -285z" />
<glyph unicode="&#x153;" horiz-adv-x="1675" d="M49 442q0 100 38.5 190t106.5 156.5t167 106t214 39.5q204 0 343 -125q141 125 337 125q172 0 270.5 -91.5t98.5 -215.5q0 -26 -8 -62q-479 6 -559 10q-2 -18 -2 -69q2 -163 83.5 -264t215.5 -101q166 0 254 158l22 -12q-112 -320 -440 -320q-171 0 -299 115 q-143 -117 -342 -117q-154 0 -269.5 66t-173 173t-57.5 238zM371 465q0 -332 88 -420q37 -37 96 -37q92 0 141 115t49 309q0 328 -92 420q-35 35 -92 35q-92 0 -141 -113.5t-49 -308.5zM1057 612l291 2q1 73 -9 130.5t-38.5 98t-73.5 40.5q-63 0 -111.5 -72t-58.5 -199z" />
<glyph unicode="&#x178;" horiz-adv-x="1333" d="M2 1280h678l-6 -37l-35 -6q-83 -10 -100.5 -39t16.5 -92l242 -442h10l131 241q41 74 63.5 119.5t35.5 84.5t11 59t-19 35.5t-44 21.5t-74 10l-49 8l-6 37h492l-7 -37l-55 -10q-45 -7 -70 -17.5t-60 -50t-70 -99.5t-101 -181l-149 -269v-540q0 -13 18.5 -19.5t83.5 -13.5 l61 -8l7 -35h-682l6 35l82 8q86 8 86 37v489l-273 482q-66 111 -90 137q-34 37 -92 47l-35 8zM340 1522q0 57 39.5 99t101.5 42q64 0 102 -42t38 -99q0 -56 -38 -97t-102 -41q-62 0 -101.5 41.5t-39.5 96.5zM782 1522q0 57 38 99t100 42q64 0 101.5 -41.5t37.5 -99.5 q0 -56 -37.5 -97t-101.5 -41q-62 0 -100 41.5t-38 96.5z" />
<glyph unicode="&#x2c6;" horiz-adv-x="776" d="M80 1008l285 409h47l284 -409h-37l-268 180h-4l-270 -180h-37z" />
<glyph unicode="&#x2dc;" horiz-adv-x="833" d="M66 1055q12 166 54 229.5t136 63.5q54 0 130.5 -33.5t146.5 -67t106 -33.5q33 0 54.5 23t31.5 90h41q-10 -165 -52 -228t-136 -63q-43 0 -101.5 21t-106.5 45.5t-99 45.5t-81 21q-31 0 -51 -23t-28 -91h-45z" />
<glyph unicode="&#x2000;" horiz-adv-x="879" />
<glyph unicode="&#x2001;" horiz-adv-x="1759" />
<glyph unicode="&#x2002;" horiz-adv-x="879" />
<glyph unicode="&#x2003;" horiz-adv-x="1759" />
<glyph unicode="&#x2004;" horiz-adv-x="586" />
<glyph unicode="&#x2005;" horiz-adv-x="439" />
<glyph unicode="&#x2006;" horiz-adv-x="293" />
<glyph unicode="&#x2007;" horiz-adv-x="293" />
<glyph unicode="&#x2008;" horiz-adv-x="219" />
<glyph unicode="&#x2009;" horiz-adv-x="351" />
<glyph unicode="&#x200a;" horiz-adv-x="97" />
<glyph unicode="&#x2010;" horiz-adv-x="608" d="M47 442l6 99h510l-4 -99h-512z" />
<glyph unicode="&#x2011;" horiz-adv-x="608" d="M47 442l6 99h510l-4 -99h-512z" />
<glyph unicode="&#x2012;" horiz-adv-x="608" d="M47 442l6 99h510l-4 -99h-512z" />
<glyph unicode="&#x2013;" horiz-adv-x="901" d="M27 451l6 81h835l6 -81h-847z" />
<glyph unicode="&#x2014;" horiz-adv-x="1861" d="M27 451l6 81h1796l10 -81h-1812z" />
<glyph unicode="&#x2018;" horiz-adv-x="454" d="M31 936q0 113 93 222.5t255 182.5l27 -28q-191 -108 -191 -254q0 -38 14.5 -68t36 -47.5t47 -30.5t47 -18.5t36 -9.5t14.5 -6q0 -58 -43.5 -111t-118.5 -53q-103 0 -160 66.5t-57 154.5z" />
<glyph unicode="&#x2019;" horiz-adv-x="454" d="M45 1171q0 58 43.5 111t118.5 53q102 0 159.5 -67t57.5 -154q0 -115 -93 -224t-255 -181l-27 28q191 108 191 254q0 37 -14.5 67t-36 47.5t-47 30.5t-47 19t-36 10t-14.5 6z" />
<glyph unicode="&#x201a;" horiz-adv-x="454" d="M45 150q0 58 43.5 110.5t118.5 52.5q102 0 159.5 -67t57.5 -154q0 -115 -93 -224t-255 -181l-27 28q191 108 191 254q0 44 -20 78t-48.5 51.5t-57.5 28.5t-49 16t-20 7z" />
<glyph unicode="&#x201c;" horiz-adv-x="880" d="M31 936q0 113 93 222.5t255 182.5l27 -28q-191 -108 -191 -254q0 -38 14.5 -68t36 -47.5t47 -30.5t47 -18.5t36 -9.5t14.5 -6q0 -58 -43.5 -111t-118.5 -53q-103 0 -160 66.5t-57 154.5zM459 936q0 114 92.5 223t255.5 182l24 -28q-190 -109 -190 -254q0 -45 20.5 -79 t49.5 -51t57.5 -28t49 -15.5t20.5 -6.5q0 -58 -44.5 -111t-119.5 -53q-101 0 -158 67t-57 154z" />
<glyph unicode="&#x201d;" horiz-adv-x="880" d="M45 1171q0 58 43.5 111t118.5 53q102 0 159.5 -67t57.5 -154q0 -115 -93 -224t-255 -181l-27 28q191 108 191 254q0 37 -14.5 67t-36 47.5t-47 30.5t-47 19t-36 10t-14.5 6zM471 1171q0 57 44.5 110.5t117.5 53.5q103 0 160 -66.5t57 -154.5q0 -115 -92.5 -224.5 t-255.5 -180.5l-27 28q191 108 191 254q0 44 -20 78t-49 51.5t-57.5 28t-48.5 15.5t-20 7z" />
<glyph unicode="&#x201e;" horiz-adv-x="874" d="M45 150q0 58 43.5 110.5t118.5 52.5q102 0 159.5 -67t57.5 -154q0 -115 -93 -224t-255 -181l-27 28q191 108 191 254q0 44 -20 78t-48.5 51.5t-57.5 28.5t-49 16t-20 7zM471 150q0 57 44.5 110t117.5 53q103 0 160 -66.5t57 -154.5q0 -115 -92.5 -224.5t-255.5 -180.5 l-27 28q191 108 191 254q0 44 -20 78t-49 51.5t-57.5 28.5t-48.5 16t-20 7z" />
<glyph unicode="&#x2022;" horiz-adv-x="888" d="M51 475q0 44 43 146t74 133t133 72.5t145 41.5q44 0 146 -41.5t133 -72.5t73 -133t42 -146q0 -45 -41.5 -146.5t-73.5 -133.5q-31 -31 -134 -73t-147 -42q-43 0 -145 42t-131 73q-31 33 -74 134.5t-43 145.5z" />
<glyph unicode="&#x2026;" horiz-adv-x="1400" d="M76 137q0 65 47 111.5t113 46.5q65 0 112 -48t47 -110q0 -67 -46 -115.5t-111 -48.5q-67 0 -114.5 48t-47.5 116zM541 137q0 65 47.5 111.5t113.5 46.5q64 0 112 -48t48 -110q0 -67 -47.5 -115.5t-112.5 -48.5q-66 0 -113.5 48.5t-47.5 115.5zM1010 137q0 65 46.5 111.5 t110.5 46.5q66 0 113 -47.5t47 -110.5q0 -68 -46.5 -116t-113.5 -48q-65 0 -111 48.5t-46 115.5z" />
<glyph unicode="&#x202f;" horiz-adv-x="351" />
<glyph unicode="&#x2039;" horiz-adv-x="600" d="M35 420v72l516 354l10 -17l-250 -376l252 -375l-12 -15z" />
<glyph unicode="&#x203a;" horiz-adv-x="602" d="M43 80l254 373l-254 376l12 17l516 -354v-72l-516 -357z" />
<glyph unicode="&#x205f;" horiz-adv-x="439" />
<glyph unicode="&#x20ac;" horiz-adv-x="1087" d="M6 469l6 47h119q-4 29 -4 92q0 76 10 125h-131l6 47h133q51 227 211 367.5t365 140.5q155 0 242.5 -53.5t87.5 -149.5q0 -56 -44 -97.5t-106 -41.5q-48 0 -84 27t-51.5 67t-9 89.5t38.5 91.5q-40 20 -82 20q-77 0 -135.5 -61.5t-91 -163t-44.5 -236.5h377l6 -47h-387 q-2 -20 -2 -65q0 -76 13 -152h370l6 -47h-364q41 -153 121 -236t215 -83q175 0 266 155l20 -12q-56 -150 -170.5 -235t-267.5 -85q-199 0 -334.5 132t-173.5 364h-131z" />
<glyph unicode="&#x2122;" horiz-adv-x="1185" d="M41 1108l12 172h441l6 -174h-35l-6 16q-20 67 -44 100t-71 33h-12v-387q0 -8 28 -12l29 -6l2 -25h-244v25l37 6q23 3 23 14v385h-6q-45 0 -71.5 -34.5t-47.5 -96.5l-6 -16h-35zM530 825l2 25l27 4q26 2 32 14.5t9 75.5l8 275q-13 26 -39 32l-32 4l-2 25h217l77 -303h9 l96 303h215l-2 -25l-37 -4q-27 -6 -27 -16l11 -340q0 -24 5 -30t25 -9l31 -6l4 -25h-254v25l39 6q14 2 18 9.5t3 31.5l-7 338h-6l-133 -401h-59l-113 383h-6l-8 -277q-1 -57 6.5 -71.5t34.5 -14.5l26 -4l2 -25h-172z" />
<glyph unicode="&#x25fc;" horiz-adv-x="901" d="M0 0v901h901v-901h-901z" />
</font>
</defs>
</svg>
