<?xml version="1.0" standalone="no"?>
<!DOCTYPE svg PUBLIC "-//W3C//DTD SVG 1.1//EN" "http://www.w3.org/Graphics/SVG/1.1/DTD/svg11.dtd" >
<svg xmlns="http://www.w3.org/2000/svg">
<metadata></metadata>
<defs>
<font id="freightdisp_probook" horiz-adv-x="917" >
<font-face units-per-em="2048" ascent="1638" descent="-410" />
<missing-glyph horiz-adv-x="368" />
<glyph unicode="&#xfb01;" horiz-adv-x="1028" d="M20 803l25 76h129l4 51q17 213 139.5 330.5t292.5 117.5q80 0 130.5 -34t50.5 -91q0 -35 -24.5 -59.5t-61.5 -24.5q-52 0 -85.5 41.5t-31.5 104.5l-80 20q-189 -55 -189 -372v-84h375l164 24v-844q0 -12 15 -17t71 -9l51 -2l4 -31h-415l6 31l57 2q43 3 57.5 8.5 t14.5 21.5v738h-400v-742q0 -13 13 -18t65 -8l92 -2l7 -31h-451l6 31l55 2q42 3 57 8.5t15 21.5v736z" />
<glyph unicode="&#xfb02;" horiz-adv-x="1026" d="M20 803l25 76h129l4 51q17 214 138.5 331t291.5 117q77 0 127 -32l123 47v-1334q0 -12 15 -17t71 -9l51 -2l4 -31h-415l6 31l55 2q44 3 59 8.5t15 21.5v738h-400v-742q0 -13 13 -18t65 -8l92 -2l7 -31h-451l6 31l55 2q42 3 57 8.5t15 21.5v736zM319 879h400v297 q-6 -2 -17 -2q-54 0 -88 39.5t-32 99.5l-76 22q-98 -29 -142.5 -121t-44.5 -251v-84z" />
<glyph unicode="&#xfb03;" horiz-adv-x="1562" d="M20 803l25 76h129l4 32q24 216 140 331.5t278 115.5q76 0 120 -30.5t44 -80.5q0 -34 -24 -59t-60 -25q-47 0 -81.5 41t-33.5 96l-57 17q-97 -29 -141 -122t-44 -253v-63h396l2 51q12 143 75 246t155.5 152.5t203.5 49.5q78 0 129 -34t51 -91q0 -34 -25.5 -59t-60.5 -25 q-54 0 -87.5 41.5t-31.5 104.5l-77 20q-99 -29 -145 -121t-46 -251v-84h375l164 24v-844q0 -12 15.5 -17t70.5 -9l51 -2l6 -31h-416l6 29l58 4q41 3 55 8.5t14 21.5v738h-399v-742q0 -13 13 -18t67 -8l90 -2l6 -31h-450l6 31l57 2q42 3 57 8.5t15 21.5v738h-400v-738 q0 -14 12.5 -19.5t61.5 -6.5l99 -6l6 -31h-453l6 31l60 6q38 2 52.5 7.5t14.5 21.5v733z" />
<glyph unicode="&#xfb04;" horiz-adv-x="1564" d="M20 803l25 76h129l4 32q24 216 140 331.5t278 115.5q76 0 120 -30.5t44 -80.5q0 -34 -24 -59t-60 -25q-48 0 -82 40.5t-33 96.5l-57 17q-97 -29 -141 -122t-44 -253v-63h396l2 51q12 143 75 246t155 152.5t202 49.5q79 0 129 -30l119 45v-1334q0 -12 15.5 -17t70.5 -9 l51 -2l6 -31h-416l6 31l56 2q43 3 57 8.5t14 21.5v738h-399v-742q0 -13 13 -18t67 -8l90 -2l6 -31h-450l6 31l57 2q42 3 57 8.5t15 21.5v738h-400v-738q0 -14 12.5 -19.5t61.5 -6.5l99 -6l6 -31h-453l6 31l60 6q38 2 52.5 7.5t14.5 21.5v733zM858 879h399v295h-8 q-54 0 -87.5 39.5t-33.5 99.5l-81 22q-189 -55 -189 -372v-84z" />
<glyph horiz-adv-x="2048" />
<glyph horiz-adv-x="2048" />
<glyph unicode="&#xd;" horiz-adv-x="2048" />
<glyph unicode=" "  horiz-adv-x="368" />
<glyph unicode="&#x09;" horiz-adv-x="368" />
<glyph unicode="&#xa0;" horiz-adv-x="368" />
<glyph unicode="!" horiz-adv-x="507" d="M143 78q0 42 33 73t82 31q45 0 76 -31t31 -73t-31 -75.5t-76 -33.5q-48 0 -81.5 33t-33.5 76zM167.5 1256.5q1.5 22.5 22.5 38.5t60 16h16q30 0 48.5 -9t24.5 -24t8 -33.5t-1 -36.5l-76 -831q-2 -9 -12 -9t-12 9l-78 831q-2 26 -0.5 48.5z" />
<glyph unicode="&#x22;" horiz-adv-x="641" d="M8 825l232 498h4l108 -45l-319 -453h-25zM309 825l232 498h2l106 -45l-319 -453h-21z" />
<glyph unicode="#" horiz-adv-x="1052" d="M-23 387v33h287l115 434h-279v35h289l107 405h36l-108 -405h342l108 405h37l-106 -405h278v-35h-288l-113 -434h276v-33h-286l-105 -397h-37l105 397h-342l-105 -397h-36l104 397h-279zM301 420h342l115 434h-340z" />
<glyph unicode="$" horiz-adv-x="940" d="M49 348h33l84 -207q49 -64 129 -100l147 559q-4 2 -6 2q-79 27 -134.5 55.5t-105.5 70t-75 98.5t-25 130q0 144 109 247.5t289 103.5q60 0 135 -11l57 217h35l-59 -223q53 -14 77 -22l90 26l13 -338h-33l-109 246q-24 18 -53 31q0 1 -32.5 -120t-64.5 -242.5t-32 -122.5 h2q70 -24 121.5 -47.5t102.5 -57.5t83 -73t52 -93.5t20 -120.5q0 -157 -127 -271t-323 -114q-67 0 -134 9l-84 -318h-34l84 322q-101 14 -209 49zM223 1030q0 -53 18 -94.5t55.5 -73.5t81 -55t107.5 -47l129 487q-64 23 -131 23q-116 0 -188 -69.5t-72 -170.5zM328 29 q62 -19 129 -19q133 0 219 78.5t86 198.5q0 111 -70.5 179.5t-216.5 121.5q0 1 -36.5 -139t-73.5 -280z" />
<glyph unicode="%" horiz-adv-x="1216" d="M23 1030q0 120 76.5 203.5t201.5 83.5q128 0 205.5 -83.5t77.5 -203.5q0 -118 -77.5 -200t-205.5 -82q-125 0 -201.5 82t-76.5 200zM68 1030q0 -103 64 -172.5t169 -69.5q106 0 172 70t66 172q0 103 -66 174.5t-172 71.5q-104 0 -168.5 -71.5t-64.5 -174.5zM119 -29 l928 1340h47l-926 -1340h-49zM635 248q0 120 76 203.5t202 83.5q127 0 204 -83.5t77 -203.5q0 -118 -77 -200.5t-204 -82.5q-126 0 -202 82t-76 201zM680 250q0 -104 63.5 -174t169.5 -70t171 70t65 174q0 102 -65 173t-171 71q-105 0 -169 -71t-64 -173z" />
<glyph unicode="&#x26;" horiz-adv-x="1425" d="M27 328q0 140 97.5 255t262.5 171q-190 101 -190 260q0 111 99 204t230 93q143 0 227.5 -72.5t84.5 -165.5q0 -83 -64.5 -154t-191.5 -114q100 -51 204 -157.5t164 -213.5q78 98 134 184t57 117q0 55 -137 68l-41 4l-7 29h471l-6 -29l-41 -4q-68 -6 -109 -36t-106 -114 l-196 -250q99 -195 155 -263t131 -68q85 0 175 94l20 -23q-31 -35 -54.5 -59t-60.5 -54t-76.5 -45.5t-80.5 -15.5q-94 0 -165.5 70.5t-150.5 241.5q-58 -72 -104.5 -121t-105.5 -96.5t-123 -71t-132 -23.5q-165 0 -267.5 105.5t-102.5 253.5zM176 395q0 -131 85 -218 t218 -87q98 0 182 55t183 168q-74 151 -183 260t-243 164q-122 -61 -182 -150t-60 -192zM330 1073q0 -88 50.5 -145.5t166.5 -110.5q86 40 120.5 100.5t34.5 143.5t-51.5 149t-134.5 66q-81 0 -133.5 -60.5t-52.5 -142.5z" />
<glyph unicode="'" horiz-adv-x="329" d="M8 825l232 498h4l108 -45l-319 -453h-25z" />
<glyph unicode="(" horiz-adv-x="696" d="M131 393q0 143 35.5 278t91 237.5t128 190.5t143 145.5t139.5 94.5l20 -32q-66 -36 -134 -94t-136.5 -144t-121 -186t-85.5 -228t-33 -262q0 -135 33 -264t85.5 -228.5t121 -185t136 -143t134.5 -94.5l-20 -33q-69 38 -139.5 96t-143 146.5t-128 191t-91 237.5t-35.5 277 z" />
<glyph unicode=")" horiz-adv-x="696" d="M8 -522q67 37 134.5 94.5t136 143t121 185t85.5 228.5t33 264q0 134 -33 262t-85.5 228t-121 186t-136.5 144t-134 94l21 32q69 -37 139.5 -94.5t143 -145.5t128 -190.5t90.5 -237.5t35 -278q0 -142 -35 -277t-90.5 -237.5t-128 -191t-143 -146.5t-139.5 -96z" />
<glyph unicode="*" horiz-adv-x="647" d="M41 1174q-1 3 3 9.5t7 6.5l131 -14l117 -172q1 -3 9.5 0t8.5 6l9 211l88 84q3 2 16 -5l27 -122l-127 -172q-1 -2 1 -6.5t5 -8t4 -2.5l203 64l106 -64q2 1 3 -2q2 -11 -3 -14l-106 -60l-203 64q-1 1 -4 -2t-5 -7t-1 -7l121 -173l-23 -118q0 -1 -8 -3.5t-10 -2.5l-93 90 l-2 204q0 3 -6.5 6.5t-7.5 0.5l-119 -162l-127 -21q-1 0 -6.5 6.5t-5.5 8.5l57 116l191 62q3 3 3 10t-3 10l-191 68z" />
<glyph unicode="+" d="M31 461l6 45h399v405h45v-405h400l6 -45h-406v-406h-45v406h-405z" />
<glyph unicode="," horiz-adv-x="370" d="M51 -244q68 38 115 98t47 132q0 71 -54.5 104t-92.5 8q-16 45 13 86t91 41q66 0 111 -45.5t45 -120.5q0 -92 -75.5 -181t-180.5 -138z" />
<glyph unicode="-" horiz-adv-x="602" d="M47 449l6 75h502l-2 -75h-506z" />
<glyph unicode="." horiz-adv-x="403" d="M88 84q0 44 33 76.5t82 32.5q48 0 79 -32.5t31 -76.5q0 -46 -31 -78.5t-79 -32.5q-49 0 -82 33t-33 78z" />
<glyph unicode="/" horiz-adv-x="528" d="M29 -483l432 1794h43l-432 -1794h-43z" />
<glyph unicode="0" horiz-adv-x="1103" d="M68 479q0 222 139.5 367t347.5 145q205 0 342 -144t137 -364q0 -223 -136.5 -365.5t-346.5 -142.5q-208 0 -345.5 142t-137.5 362zM221 502q0 -221 88.5 -353.5t247.5 -132.5q95 0 170 61t115.5 164.5t40.5 229.5q0 206 -91.5 339.5t-242.5 133.5q-95 0 -170.5 -60 t-116.5 -160.5t-41 -221.5z" />
<glyph unicode="1" horiz-adv-x="681" d="M70 905l6 25l348 51v-913q0 -13 17 -19.5t69 -9.5l90 -8l6 -31h-487l6 31l94 8q39 2 54.5 9t15.5 24v811z" />
<glyph unicode="2" horiz-adv-x="894" d="M43 41q130 105 210 173t148.5 134.5t102.5 115.5t52.5 97.5t18.5 100.5q0 95 -58 156t-152 61q-165 0 -269 -177l-22 13q139 274 366 274q116 0 196.5 -74t80.5 -182q0 -69 -25 -128.5t-107 -142.5t-139 -131.5t-216 -176.5l-33 -27v-4h387q100 0 148 42.5t91 156.5 l17 45l28 -2l-67 -365h-752z" />
<glyph unicode="3" horiz-adv-x="819" d="M14 -270q0 39 27.5 65.5t67.5 26.5q58 0 92 -51t26 -121q2 0 16.5 -4t34 -7.5t33.5 -3.5q125 0 220.5 91t95.5 241q0 136 -79.5 220.5t-217.5 84.5q-75 0 -174 -39l-13 25q23 15 67.5 43.5t64 41.5t55.5 37.5t52.5 37.5t43 35.5t38.5 38t28 37.5t23 42t12 43.5t5 49.5 q0 94 -60 155.5t-157 61.5q-169 0 -264 -176l-22 14q61 129 154.5 199.5t211.5 70.5q119 0 199 -75t80 -183q0 -57 -21.5 -106.5t-66 -93.5t-88 -76t-111.5 -74v-4q172 4 273.5 -89.5t101.5 -244.5q0 -116 -68 -220.5t-188.5 -169.5t-261.5 -65q-109 0 -169.5 42.5 t-60.5 99.5z" />
<glyph unicode="4" horiz-adv-x="942" d="M18 55l633 918h39v-830l240 -2l-33 -110h-207v-408h-131v408h-539zM121 143h438v631h-4z" />
<glyph unicode="5" horiz-adv-x="796" d="M-29 -279q0 37 27 63t68 26q52 0 85.5 -47.5t41.5 -112.5q46 -12 79 -12q122 0 217 100.5t95 241.5q0 157 -132 265t-362 152l143 564h510l-26 -144h-479l-76 -295q264 -54 405.5 -176.5t141.5 -292.5q0 -89 -40.5 -174.5t-109 -149t-163.5 -102.5t-199 -39 q-108 0 -167 35t-59 98z" />
<glyph unicode="6" horiz-adv-x="989" d="M63 475q0 163 67 314t182.5 265.5t276.5 190t343 92.5l6 -26q-147 -24 -270.5 -89.5t-209 -158.5t-142 -201.5t-83.5 -228.5l3 -4q66 71 154.5 115t180.5 44q157 0 258 -108t101 -272q0 -128 -60 -229t-156.5 -153.5t-209.5 -52.5q-200 0 -320.5 142.5t-120.5 359.5z M215 467q0 -195 82.5 -326t222.5 -131q120 0 191 94.5t71 251.5q0 151 -82.5 252t-205.5 101q-74 0 -143 -32t-120 -89q-6 -12 -11 -51t-5 -70z" />
<glyph unicode="7" horiz-adv-x="868" d="M49 643l39 318h752l4 -31l-559 -1307h-115l592 1194l-2 10h-412q-92 0 -138 -11t-70.5 -38t-41.5 -86q-16 -47 -18 -51z" />
<glyph unicode="8" horiz-adv-x="952" d="M66 307q0 111 85 199.5t224 130.5v2q-63 34 -106.5 63.5t-83 68.5t-59.5 86.5t-20 103.5q0 85 46 165t134 133.5t197 53.5q154 0 259.5 -93.5t105.5 -232.5q0 -90 -71.5 -168t-190.5 -125v-2q57 -29 97 -53t81.5 -57.5t67 -68t41.5 -80.5t16 -99q0 -151 -119.5 -257 t-298.5 -106q-171 0 -288 96t-117 240zM203 311q0 -129 81 -217t214 -88q125 0 197.5 71t72.5 181q0 54 -22 102t-53 82.5t-84.5 70t-96.5 58t-109 52.5q-91 -48 -145.5 -129t-54.5 -183zM229 1038q0 -49 18 -91.5t45.5 -74t74 -63t88 -53t102.5 -49.5q156 102 156 276 q0 117 -71 207t-183 90q-100 0 -165 -72.5t-65 -169.5z" />
<glyph unicode="9" horiz-adv-x="989" d="M49 -338q147 24 270 89t208.5 158t142 201t84.5 228h-4q-65 -70 -153 -114t-179 -44q-158 0 -258.5 109.5t-100.5 275.5q0 127 60 227t156.5 152.5t209.5 52.5q196 0 317.5 -143.5t121.5 -359.5q0 -163 -67 -313.5t-182.5 -264.5t-276.5 -189t-343 -92zM203 618 q0 -152 83.5 -255t205.5 -103q159 0 264 121q18 54 18 123q0 193 -83.5 325t-223.5 132q-118 0 -191 -94.5t-73 -248.5z" />
<glyph unicode=":" horiz-adv-x="399" d="M88 84q0 42 33 73t82 31q48 0 79 -30.5t31 -73.5q0 -46 -31 -78.5t-79 -32.5q-49 0 -82 33t-33 78zM88 715q0 42 33 73t82 31q48 0 79 -30.5t31 -73.5q0 -45 -31 -79t-79 -34t-81.5 34.5t-33.5 78.5z" />
<glyph unicode=";" horiz-adv-x="370" d="M51 -244q69 41 115.5 99.5t46.5 130.5q0 70 -54 102.5t-93 9.5q-16 45 13 85t91 40q66 0 111 -45.5t45 -118.5q0 -93 -75.5 -180.5t-180.5 -136.5zM78 713q0 43 33 74.5t82 31.5q47 0 78.5 -31.5t31.5 -74.5q0 -44 -32 -77.5t-78 -33.5q-48 0 -81.5 33.5t-33.5 77.5z" />
<glyph unicode="&#x3c;" horiz-adv-x="897" d="M27 467v29l813 395l16 -41l-754 -363v-8l754 -366l-16 -41z" />
<glyph unicode="=" d="M53 283l6 45h799l6 -45h-811zM53 682h811l-6 -45h-799z" />
<glyph unicode="&#x3e;" horiz-adv-x="897" d="M41 113l754 366v8l-754 363l16 41l813 -395v-29l-813 -395z" />
<glyph unicode="?" horiz-adv-x="645" d="M70 1231q0 80 139 80q107 0 194.5 -53.5t134 -136.5t46.5 -175q0 -56 -10.5 -93t-39 -65.5t-60 -46.5t-91.5 -45q-9 -4 -30.5 -13.5t-30.5 -13.5t-26 -12.5t-24.5 -13.5t-20 -14t-18 -17t-11.5 -18t-8.5 -22t-2.5 -25q0 -73 111 -180h-31q-61 51 -110.5 117t-49.5 120 q0 83 46.5 126t168.5 95q111 48 155 79t44 75q0 74 -80.5 133t-235.5 59q-65 0 -139 -18q-20 27 -20 78zM186 80q0 41 32.5 71.5t78.5 30.5q48 0 78.5 -30.5t30.5 -71.5q0 -44 -30.5 -76.5t-78.5 -32.5q-46 0 -78.5 32.5t-32.5 76.5z" />
<glyph unicode="@" horiz-adv-x="1609" d="M63 502q1 164 65.5 314.5t171.5 259.5t255 173.5t309 63.5q196 -1 354 -84.5t248 -233.5t88 -336q-2 -146 -68.5 -274t-172.5 -202t-221 -74q-106 0 -158.5 46t-50.5 113q0 29 20.5 118.5t38.5 125.5h-10q-121 -193 -206.5 -289t-160.5 -96q-72 0 -124 53.5t-52 128.5 q0 127 90.5 280t204.5 259q103 100 205 100q55 0 91 -49.5t42 -128.5h8l72 211l117 -6l-134 -357l-61 -239q-39 -114 -11.5 -160.5t122.5 -46.5q94 0 181.5 64t143.5 177.5t58 245.5q2 176 -83.5 317.5t-236 221t-336.5 80.5q-153 1 -293.5 -61t-242.5 -166.5t-163.5 -248.5 t-62.5 -300q-2 -199 88 -357t252 -246.5t367 -88.5q170 0 315.5 80t223.5 204l18 -26q-81 -129 -232 -211t-329 -82q-160 0 -298.5 54t-236 149t-152.5 231t-53 293zM524 354q0 -61 31 -99t72 -38q53 0 140 107.5t179 277.5q43 88 43 119q-7 50 -58.5 100.5t-109.5 50.5 q-53 0 -98 -45q-72 -68 -135.5 -215.5t-63.5 -257.5z" />
<glyph unicode="A" horiz-adv-x="1261" d="M-16 0l6 31l51 6q29 4 45.5 8.5t36.5 20t32.5 34t33 62.5t39.5 93t51 136l272 762l-16 59q28 9 65 39.5t49 55.5h23l379 -1121q32 -92 54.5 -118.5t78.5 -30.5l78 -6l6 -31h-529l6 31l84 6q54 3 69 31q6 12 6 31q0 27 -13 69l-119 362h-403l-97 -270q-15 -44 -23 -69.5 t-14 -51.5t-3 -39.5t8.5 -26t21.5 -18.5t36 -10.5t52 -7.5l66 -6l6 -31h-438zM381 571h377l-178 543h-7q-190 -543 -192 -543z" />
<glyph unicode="B" horiz-adv-x="1159" d="M59 0l7 31l88 8q82 8 82 31v1144q0 8 -6 12.5t-27.5 8.5t-63.5 8l-71 6l-7 31h496q234 0 347.5 -76.5t113.5 -199.5q0 -114 -89 -195t-274 -109v-6q206 -13 316 -108t110 -234q0 -163 -137 -257.5t-385 -94.5h-500zM397 68l152 -33h2.5t6 0.5t8.5 1t9 0.5t9.5 0.5t8.5 1 t5 0.5h2q148 7 227.5 92t79.5 211q0 147 -104.5 238.5t-272.5 91.5q-87 0 -133 -4v-600zM397 709h123q154 3 238 78.5t84 187.5q0 266 -328 266h-117v-532z" />
<glyph unicode="C" horiz-adv-x="1363" d="M68 629q0 198 90.5 353.5t253 242t370.5 86.5q176 0 332 -74l121 47l12 -387h-33l-133 297q-46 35 -125.5 57.5t-179.5 22.5q-162 0 -284 -83.5t-185 -224.5t-63 -317q0 -286 148.5 -463.5t387.5 -177.5q98 0 174.5 29t128.5 76.5t105 124.5l59 143h35l-68 -334l-73 -2 q-66 -29 -170.5 -52.5t-200.5 -23.5q-202 0 -361.5 80.5t-250 231.5t-90.5 348z" />
<glyph unicode="D" horiz-adv-x="1347" d="M59 0l7 31l88 8q82 8 82 31v1147q0 11 -17 15.5t-80 10.5l-71 6l-7 31l488 6h8q169 0 305 -44q140 -44 232 -126t141 -196t49 -252q0 -141 -51.5 -262.5t-147.5 -212t-244.5 -142t-332.5 -51.5h-449zM397 70l160 -33q107 2 198 34t155.5 86.5t110 127.5t67.5 158t22 178 q0 134 -36.5 246t-107.5 197t-186.5 133t-263.5 48h-119v-1175z" />
<glyph unicode="E" horiz-adv-x="1181" d="M57 0l6 31l89 8q84 9 84 31v1147q0 11 -16.5 15.5t-78.5 10.5l-75 6l-7 31h955l26 -365h-32l-21 84q-20 57 -37 91.5t-45 67.5t-66 50t-96 27t-139 10h-207v-563l142 2q138 3 183.5 26t68.5 101l20 59l29 -2l-41 -413l-29 2l-4 57q-3 36 -9.5 57t-19.5 36t-42.5 22 t-65.5 10.5t-101 5.5l-131 2v-604l224 -6q75 0 133.5 8.5t100.5 27t72 38.5t53.5 53.5t38 62t32.5 72.5l24 80l35 -2l-70 -377h-983z" />
<glyph unicode="F" horiz-adv-x="1118" d="M57 0l6 31l93 8q80 8 80 31v1147q0 11 -16 15.5t-77 10.5l-77 6l-7 31h959l29 -371h-35l-19 80q-17 49 -29 78t-33.5 62.5t-48 51.5t-66 34.5t-95 23t-129.5 6.5h-195v-575l131 2q97 2 142.5 12.5t69 35t40.5 79.5l21 57h28l-41 -414l-28 2l-4 58q-3 36 -9.5 56.5t-19 36 t-42 22.5t-65.5 10.5t-102 5.5l-121 2v-567q0 -9 6 -14t27 -9.5t62 -7.5l118 -6l6 -31h-559z" />
<glyph unicode="G" horiz-adv-x="1417" d="M68 625q0 198 91 354.5t255 244t372 87.5q92 0 179.5 -21t146.5 -51l119 45l6 -385h-33l-125 295q-102 80 -303 80q-159 0 -281.5 -84.5t-186.5 -227t-64 -317.5q0 -283 151.5 -460t388.5 -177q77 0 153.5 19t121.5 49v420q0 19 -101 26l-98 8l-6 29h535l-7 -29l-88 -10 q-80 -8 -80 -31v-385l115 5l2 -23q-134 -47 -290 -81t-273 -34q-201 0 -359.5 79.5t-249.5 229t-91 345.5z" />
<glyph unicode="H" horiz-adv-x="1480" d="M59 0l7 31l88 8q82 8 82 31v1147q0 11 -17 15.5t-80 10.5l-71 6l-7 31h517l-7 -31l-94 -8q-80 -8 -80 -31v-538h686v545q0 11 -17 15.5t-79 10.5l-78 6l-6 31h516l-6 -31l-88 -8q-82 -8 -82 -31v-1147q0 -11 17 -15.5t79 -10.5l72 -6l6 -31h-514l6 31l92 8q82 8 82 31 v563h-686v-570q0 -11 16.5 -15.5t78.5 -10.5l77 -6l6 -31h-516z" />
<glyph unicode="I" horiz-adv-x="673" d="M70 0l6 31l100 8q80 8 80 31v1147q0 11 -16 15.5t-78 10.5l-84 6l-6 31h532l-6 -31l-98 -8q-82 -8 -82 -31v-1147q0 -11 17 -15.5t79 -10.5l82 -6l6 -31h-532z" />
<glyph unicode="J" horiz-adv-x="665" d="M-94 -131q0 42 28.5 70t73.5 28q66 0 93 -59q12 -27 12 -52q0 -31 -19 -61q185 0 185 381v1041q0 8 -6 12t-27 7.5t-64 6.5l-86 6l-6 31h533l-7 -31l-96 -8q-82 -8 -82 -31v-1050q0 -46 -18.5 -101.5t-53.5 -109t-79.5 -98t-101.5 -72t-115 -27.5q-72 0 -118 33t-46 84z " />
<glyph unicode="K" horiz-adv-x="1331" d="M59 0l7 31l90 8q80 8 80 31v1147q0 11 -16 15.5t-79 10.5l-73 6l-7 31h523l-6 -31l-101 -8q-80 -8 -80 -31v-651l379 387q176 176 200 231q6 12 6 22q0 24 -32 34q-22 6 -65 10l-90 6l-4 31h489l-6 -31l-45 -4q-81 -7 -123.5 -37t-200.5 -191q-47 -48 -74 -75l-137 -139 l416 -641q52 -84 74.5 -102.5t77.5 -24.5l57 -4l6 -31h-496l7 31l65 6q36 2 48.5 17t5 41.5t-32.5 70.5l-334 530l-191 -190v-443q0 -11 16.5 -15.5t78.5 -10.5l83 -6l7 -31h-523z" />
<glyph unicode="L" horiz-adv-x="1120" d="M59 0l7 31l92 8q78 8 78 31v1147q0 11 -16 15.5t-77 10.5l-75 6l-7 31h551l-6 -31l-129 -8q-80 -8 -80 -31v-1167l183 -6q63 0 114 7t87.5 16.5t67 30t50 38.5t39 51t30.5 57.5t29 67.5l27 94h37l-70 -399h-932z" />
<glyph unicode="M" horiz-adv-x="1683" d="M37 0l6 31l78 6q67 3 92.5 25.5t28.5 84.5l30 1041q-22 43 -104 53l-86 8l-6 31h377l397 -1042h4l406 1042h370l-6 -31l-119 -6q-66 -8 -71 -35l22 -1087q2 -47 18.5 -63.5t73.5 -20.5l84 -6l6 -31h-524l6 31l111 8q41 3 55 22q13 17 12 53v11l-24 1061h-6l-463 -1174 h-33l-428 1127q-5 11 -18.5 28t-14.5 19l-24 -1041v-10q1 -51 29 -72q32 -23 114 -26l68 -6l6 -31h-467z" />
<glyph unicode="N" horiz-adv-x="1427" d="M41 1282h344l784 -1034h5l-3 887q0 57 -27.5 78t-105.5 30l-69 6l-6 31h442l-6 -31l-70 -6q-62 -6 -89.5 -29.5t-27.5 -83.5l-2 -1140h-39l-878 1151h-4l2 -994q0 -57 28 -79.5t105 -30.5l70 -6l6 -31h-445l6 31l72 6q61 7 89 30.5t28 84.5l2 991q-39 80 -148 100l-57 8z " />
<glyph unicode="O" horiz-adv-x="1476" d="M68 635q0 131 54 255t144 216t215 147.5t260 55.5q189 0 341.5 -84t240.5 -237t88 -347q0 -131 -54 -254.5t-144.5 -214.5t-216 -146t-261.5 -55q-190 0 -342 83.5t-238.5 235.5t-86.5 345zM244 641q0 -282 141.5 -457.5t357.5 -175.5q219 0 354.5 169.5t135.5 457.5 q0 284 -142.5 461.5t-357.5 177.5q-218 0 -353.5 -171.5t-135.5 -461.5z" />
<glyph unicode="P" horiz-adv-x="1112" d="M39 0l6 31l109 8q82 8 82 31v1147q0 11 -16.5 15.5t-78.5 10.5l-94 6l-6 31h543q234 0 355.5 -84.5t121.5 -232.5q0 -167 -136.5 -269t-349.5 -102q-84 0 -178 12v-541q0 -8 6 -12t26.5 -7.5t62.5 -6.5l118 -6l6 -31h-577zM397 649q83 -22 176 -22q150 0 233 80.5 t83 226.5q0 309 -329 309h-17h-146v-594z" />
<glyph unicode="Q" horiz-adv-x="1476" d="M68 635q0 131 54 255t144 216t215 147.5t260 55.5q189 0 342 -84.5t240.5 -237.5t87.5 -346q0 -147 -65 -281t-179 -229t-256 -135q66 -143 152 -216t195 -88q49 -6 107 -6q67 0 144 9l4 -29q-43 -12 -117 -22.5t-126 -10.5q-90 0 -163 14t-146.5 49t-133.5 104t-102 171 q-187 3 -336.5 87t-235 235t-85.5 342zM244 641q0 -282 141.5 -457.5t357.5 -175.5q219 0 354.5 169.5t135.5 457.5q0 282 -142.5 460.5t-357.5 178.5q-218 0 -353.5 -172t-135.5 -461z" />
<glyph unicode="R" horiz-adv-x="1253" d="M39 0l6 31l109 8q30 3 56 12t26 19v1147q0 11 -17 15.5t-80 10.5l-92 6l-6 31h526q234 0 357 -85t123 -239q0 -121 -88 -210.5t-230 -124.5l295 -453q55 -78 88.5 -103t91.5 -28l47 -6l9 -31h-320l-35 61l-340 551q-128 14 -168 29v-578q0 -13 95 -26l94 -6l6 -31h-553z M397 680q32 -12 91 -20.5t96 -8.5q134 5 212 83t78 214q0 144 -93 223q-85 73 -243 73q-14 0 -28 -1l-113 -4v-559z" />
<glyph unicode="S" horiz-adv-x="999" d="M80 348h33l55 -155q99 -185 319 -185q137 0 221.5 80.5t84.5 202.5q0 119 -77 188.5t-243 126.5q-62 22 -109.5 43t-94 52.5t-76 67t-48 84.5t-18.5 108q0 145 107.5 246.5t287.5 101.5q125 0 248 -39l90 24l12 -338h-30l-111 250q-102 66 -217 66q-117 0 -188.5 -67.5 t-71.5 -168.5q0 -57 21.5 -101t66.5 -77.5t92.5 -56t122.5 -49.5q70 -24 121 -47.5t101.5 -57t82 -72t51 -92t19.5 -118.5q0 -160 -129.5 -277t-325.5 -117h-14q-166 0 -361 66z" />
<glyph unicode="T" horiz-adv-x="1280" d="M59 926l70 354h1038l43 -354h-32l-21 86q-53 127 -123 178t-217 55h-96v-1182q0 -11 16 -15.5t78 -10.5l103 -6l6 -31h-568l6 31l115 8q82 8 82 31v1175h-96q-72 -3 -127.5 -21.5t-95 -52t-65.5 -70t-52 -87.5l-27 -88h-37z" />
<glyph unicode="U" horiz-adv-x="1390" d="M29 1282h549l-7 -31l-106 -8q-41 -4 -61.5 -13.5t-20.5 -19.5v-747q0 -218 98 -317t295 -99q183 0 279 111.5t96 326.5l-2 650q0 56 -32.5 79t-110.5 29l-70 8l-6 31h452l-6 -31l-71 -8q-61 -6 -88 -29.5t-27 -83.5l-2 -649q0 -247 -118.5 -378.5t-352.5 -131.5 q-256 0 -375 110.5t-119 360.5v775q0 7 -6.5 10.5t-27.5 7.5t-62 8l-92 8z" />
<glyph unicode="V" horiz-adv-x="1275" d="M-18 1282h526l-6 -31l-90 -6q-40 -2 -56 -11q-16 -8 -20 -34q-1 -4 -1 -9q0 -25 17 -65l348 -948h7l290 815q20 58 30 90.5t14.5 63.5t0 45t-20.5 27t-39.5 17.5t-63.5 8.5l-60 6l-6 31h442l-6 -31l-53 -8q-40 -5 -60.5 -13.5t-46 -42.5t-48 -89t-62.5 -164l-344 -957 h-56l-417 1119q-35 96 -55 119.5t-78 27.5l-80 8z" />
<glyph unicode="W" horiz-adv-x="1980" d="M-16 1280h524l-6 -31l-84 -4q-38 -2 -54 -11q-18 -8 -22 -34q-1 -5 0 -11q0 -24 16 -63l328 -942h4l293 770l-51 142q-33 91 -56 116t-83 31l-78 6l-6 31h522l-6 -31l-84 -4q-57 -3 -69 -25q-5 -8 -4 -24q0 -25 13 -70l336 -938h4l271 797q24 67 34 105.5t12 69 t-13.5 45.5t-40.5 23.5t-72 12.5l-66 8l-6 31h442l-6 -31l-49 -6q-27 -4 -42.5 -8t-33.5 -18.5t-28.5 -30t-28 -54.5t-32.5 -80t-42 -118l-331 -957h-48l-335 924h-2l-353 -924h-49l-399 1119q-34 93 -55 117t-80 30l-78 6z" />
<glyph unicode="X" horiz-adv-x="1284" d="M-10 0l6 31l55 4q76 6 121 44t137 169l262 379l-317 467q-59 90 -85.5 117.5t-70.5 31.5l-73 6l-9 31h525l-4 -29l-91 -4q-62 -3 -62 -36q0 -32 58 -124l230 -346h2l203 303q32 49 47.5 82t19.5 54t-8.5 33.5t-31.5 18.5t-54 11l-74 6l-8 31h471l-6 -31l-57 -4 q-75 -6 -120 -42t-132 -163l-228 -329l383 -566q46 -68 60 -81q26 -23 69 -27l72 -6l6 -31h-522l6 31l88 4q60 3 66 30q1 4 0 8q0 27 -35 79l-293 442h-2q0 1 -59.5 -86.5t-118.5 -175.5l-60 -88q-53 -81 -64.5 -123.5t9.5 -59.5t80 -22l72 -8l6 -31h-469z" />
<glyph unicode="Y" horiz-adv-x="1243" d="M-10 1280h524l-6 -31l-78 -4q-63 -3 -69 -33q-1 -3 -1 -7q0 -31 39 -95l277 -483h6l221 401q28 52 41.5 84.5t18 57.5t-6.5 39t-32.5 22.5t-59.5 13.5l-65 4l-6 31h440l-6 -31l-58 -4q-47 -5 -74.5 -20t-60 -57t-80.5 -132l-252 -446v-527q0 -11 17.5 -15.5t81.5 -10.5 l100 -6l6 -31h-569l6 31l117 8q82 8 82 31v493l-328 559q-37 66 -66.5 91.5t-82.5 29.5l-70 6z" />
<glyph unicode="Z" horiz-adv-x="1150" d="M66 0v25l813 1214v6h-304q-87 0 -152 -12.5t-107 -32.5t-73.5 -55t-50 -70t-36.5 -88l-19 -76h-33l29 369h936v-27l-809 -1210v-6l322 -2q81 0 142.5 8t106.5 26.5t76 40t55 58t39 69.5t33 85l25 84h39l-60 -406h-972z" />
<glyph unicode="[" horiz-adv-x="665" d="M135 -487v1783h504v-39h-459v-1706h459v-38h-504z" />
<glyph unicode="\" horiz-adv-x="503" d="M-2 1311h43l432 -1794h-43z" />
<glyph unicode="]" horiz-adv-x="665" d="M27 -449h456v1706h-456v39h503v-1783h-503v38z" />
<glyph unicode="^" horiz-adv-x="776" d="M113 1001l262 390h26l263 -390h-23l-250 240h-4l-252 -240h-22z" />
<glyph unicode="_" horiz-adv-x="927" d="M23 -72l6 74h870l6 -74h-882z" />
<glyph unicode="`" horiz-adv-x="776" d="M94 1397h170l215 -379h-18z" />
<glyph unicode="a" horiz-adv-x="843" d="M53 682q0 48 63 102t154.5 89.5t169.5 35.5q96 0 153 -28q57 -27 85 -99q23 -59 23 -154q0 -20 -1 -42l-20 -436v-7q0 -77 61 -77q36 0 97 57l16 -19q-31 -38 -50.5 -59.5t-57 -45.5t-72.5 -24q-55 0 -90.5 39t-38.5 109l-4 2q-144 -148 -260 -148q-92 0 -156 59.5 t-64 145.5q0 75 44.5 131.5t154.5 106.5t297 96l2 70v19q0 247 -203 247q-58 0 -114 -25.5t-56 -44.5q0 -5 12 -19t23.5 -35.5t11.5 -43.5q0 -34 -25 -58t-65 -24q-39 0 -64.5 22t-25.5 58zM205 221q0 -69 41 -110t104 -41q97 0 195 92l10 321q-105 -26 -175 -55t-107.5 -62 t-52.5 -67t-15 -78z" />
<glyph unicode="b" horiz-adv-x="989" d="M-31 1305l2 22l281 68v-662l6 -4q148 170 315 170q157 0 262 -121.5t105 -310.5q0 -109 -38.5 -203t-102 -157.5t-145 -99.5t-167.5 -36q-67 0 -138.5 19.5t-121.5 46.5h-4l-94 -78h-16v1239q0 46 -13 64.5t-51 25.5zM252 176q42 -71 111 -117.5t147 -46.5 q123 0 197.5 114.5t74.5 291.5q0 165 -79.5 274t-206.5 109q-132 0 -244 -121v-504z" />
<glyph unicode="c" horiz-adv-x="849" d="M49 418q0 207 131.5 349t329.5 142q126 0 209.5 -53t83.5 -135q0 -43 -27.5 -70.5t-64.5 -27.5q-45 1 -73 33q-22 26 -21 61q0 9 1 18q0 27 14.5 49.5t14.5 24.5q-7 21 -50 43t-93 22q-127 0 -215 -111t-88 -282q0 -177 92 -289t231 -112q90 0 154.5 36t118.5 120l24 -13 q-135 -250 -364 -250q-173 0 -290.5 128t-117.5 317z" />
<glyph unicode="d" horiz-adv-x="1015" d="M49 412q0 109 39 202.5t103.5 154.5t147.5 95.5t173 34.5q119 0 219 -49h4v358q0 47 -12 65.5t-51 22.5l-99 17l5 22l296 60v-1280q0 -30 8.5 -42.5t32.5 -15.5l103 -16l-2 -23l-281 -51v170l-6 2q-144 -166 -311 -166q-157 0 -263 124t-106 315zM207 461 q0 -167 80.5 -279t210.5 -112q73 0 128.5 30.5t108.5 85.5v510q-40 71 -109 117.5t-145 46.5q-125 0 -199.5 -112t-74.5 -287z" />
<glyph unicode="e" horiz-adv-x="872" d="M49 418q0 206 126 348.5t317 142.5q148 0 233.5 -80t85.5 -202q0 -18 -4 -54l-598 5q-8 -50 -8 -99q0 -177 91.5 -288t231.5 -111q90 0 156.5 36t122.5 120l22 -13q-138 -250 -366 -250q-175 0 -292.5 128t-117.5 317zM213 608l442 2v9q0 107 -46 179q-48 76 -138 76 q-84 0 -158 -76.5t-100 -189.5z" />
<glyph unicode="f" horiz-adv-x="585" d="M20 803l25 76h129l4 53q7 106 43.5 192.5t91 141t120 83.5t134.5 29q64 0 103 -28.5t39 -71.5q0 -34 -25 -59t-63 -25q-40 0 -74 33.5t-43 83.5l-4 12l-33 4q-80 -28 -114 -119.5t-34 -246.5v-82h242l-24 -80h-218v-740q0 -13 13.5 -18t66.5 -8l93 -2l6 -31h-453l6 31 l55 2q44 3 58 7.5t14 20.5v738z" />
<glyph unicode="g" horiz-adv-x="913" d="M18 -283q0 83 69.5 149t160.5 103v4q-89 9 -144 48.5t-55 97.5q0 69 65.5 124.5t149.5 78.5q2 2 2 4q-79 29 -132.5 100t-53.5 164q0 135 99.5 226t244.5 91q124 0 223 -69l252 32l-12 -96l-199 25l-2 -8q36 -34 58 -83t22 -104q0 -129 -101 -218t-249 -89q-44 0 -113 12 q-51 -11 -88 -42.5t-37 -71.5q0 -91 160 -91q25 0 112.5 3.5t118.5 3.5q141 0 221 -64t80 -170q0 -167 -144 -277t-368 -110q-157 0 -248.5 61.5t-91.5 165.5zM135 -242q0 -99 88 -160t223 -61q132 0 228 74t96 178q0 176 -250 184h-8q-52 0 -223 -10q-55 -22 -104.5 -80 t-49.5 -125zM227 612q0 -128 54 -206t141 -78q90 0 145.5 71.5t55.5 190.5q0 132 -51.5 209.5t-149.5 77.5q-85 0 -140 -75t-55 -190z" />
<glyph unicode="h" horiz-adv-x="1013" d="M8 1305l2 20l279 68v-656l4 -2q51 42 75 60t74.5 50.5t97.5 47t95 14.5q98 0 160 -59q67 -70 67 -205v-582q0 -8 3.5 -12.5t23 -8.5t59.5 -7l49 -2l7 -31h-416l6 31l55 2q43 3 57.5 10t14.5 20v533q0 106 -46.5 155.5t-137.5 49.5q-130 0 -248 -107v-635q0 -12 15 -17 t71 -9l53 -2l6 -31h-416l7 31l51 2q42 3 56.5 8.5t14.5 21.5v1131q0 50 -12 68.5t-51 25.5z" />
<glyph unicode="i" horiz-adv-x="475" d="M31 815l4 21l276 69v-846q0 -12 14.5 -17t69.5 -9l51 -2l7 -31h-418l6 31l57 2q42 3 57 8.5t15 21.5v601q0 82 -14.5 107.5t-61.5 33.5zM119 1194q0 40 26.5 73t75.5 33q48 0 74.5 -32.5t26.5 -71.5q0 -38 -27 -71t-74 -33q-48 0 -75 32.5t-27 69.5z" />
<glyph unicode="j" horiz-adv-x="446" d="M-160 -412q0 37 27 61.5t63 24.5q44 0 78 -36t47 -97q105 25 105 277v846q0 82 -14 107.5t-62 33.5l-64 10l5 21l276 69v-968q-2 -117 -47.5 -223t-118.5 -169t-153 -63q-65 0 -103.5 29.5t-38.5 76.5zM109 1194q0 40 26.5 73t75.5 33q48 0 74 -32.5t26 -71.5 t-26.5 -71.5t-73.5 -32.5q-48 0 -75 32.5t-27 69.5z" />
<glyph unicode="k" horiz-adv-x="950" d="M8 1305l2 20l279 68v-977l221 215q127 120 127 166q0 43 -88 49l-45 4l-4 29h395l-6 -29l-51 -6q-17 -1 -31 -5t-31 -14t-28.5 -18t-34 -29t-35.5 -34t-45.5 -46t-52.5 -53q-6 -5 -16 -14t-30.5 -27.5t-34 -30.5t-12.5 -12l273 -420q40 -64 63 -83t72 -23l41 -4l6 -31 h-272l-39 68l-246 395l-96 -92v-312q0 -12 14.5 -17t69.5 -9l51 -2l6 -31h-412l7 31l51 2q42 3 56.5 8.5t14.5 21.5v1131q0 50 -12 68.5t-51 25.5z" />
<glyph unicode="l" horiz-adv-x="468" d="M18 1305l2 20l283 68v-1334q0 -12 14 -17t70 -9l51 -2l6 -31h-413l4 31l55 2q43 3 57.5 8.5t14.5 21.5v1100q0 71 -13 94t-53 31z" />
<glyph unicode="m" horiz-adv-x="1548" d="M31 815l2 21l278 69l-6 -166l6 -2q40 38 66 60t69 52t88 45t91 15q97 0 161 -61q45 -48 56 -115l2 -2q80 80 156.5 129t164.5 49q101 0 164 -63q66 -69 66 -207v-578q0 -8 3.5 -12t22.5 -8t60 -8l47 -2l6 -31h-412l6 31l54 2q42 3 56.5 10t14.5 20v535q0 106 -44 154.5 t-134 48.5q-64 0 -128 -31.5t-93 -73.5q0 -2 -1 -28t-1 -27v-580q0 -8 3.5 -12t22.5 -8t60 -8l51 -2l6 -31h-413l6 31l53 2q42 3 56 10t14 20v535q0 106 -43 154.5t-131 48.5q-113 0 -228 -99v-643q0 -12 15.5 -17t70.5 -9l56 -2l4 -31h-418l6 31l53 2q44 3 59 8.5t15 21.5 v599q0 83 -14.5 109t-61.5 34z" />
<glyph unicode="n" horiz-adv-x="1036" d="M31 815l2 21l278 69l-4 -170l6 -2q47 40 74 60.5t76 52t96.5 46.5t95.5 15q104 0 160 -59q68 -68 68 -207v-580q0 -8 4 -12t23 -8t59 -8l51 -2l6 -31h-414l6 31l54 2q43 3 57 10t14 20v533q0 107 -46.5 156t-139.5 49q-124 0 -248 -107v-635q0 -12 15.5 -17t70.5 -9 l54 -2l6 -31h-418l6 31l53 2q44 3 59 8.5t15 21.5v601q0 56 -6.5 84t-21.5 40t-46 17z" />
<glyph unicode="o" horiz-adv-x="1013" d="M49 436q0 199 133.5 336t329.5 137q195 0 324 -131t129 -327q0 -133 -60 -243t-165.5 -173.5t-233.5 -63.5q-197 0 -327 133t-130 332zM213 467q0 -268 117 -385q73 -76 182 -76q125 0 207 121t82 293q0 262 -113 375q-79 79 -184 79q-86 0 -153 -56t-102.5 -148.5 t-35.5 -202.5z" />
<glyph unicode="p" horiz-adv-x="1015" d="M2 815l2 21l279 69l-2 -172l6 -4q148 170 313 170q158 0 262.5 -121.5t104.5 -310.5q0 -109 -38.5 -203t-101.5 -157.5t-144.5 -99.5t-168.5 -36q-119 0 -229 52h-4v-480q0 -11 15.5 -16t68.5 -8l88 -2l6 -31h-453l6 31l56 2q42 3 57.5 8.5t15.5 19.5v1119 q0 80 -14 105.5t-59 33.5zM281 170q43 -68 111 -113t145 -45q124 0 198 114t74 292q0 165 -79 274t-208 109q-133 0 -241 -121v-510z" />
<glyph unicode="q" horiz-adv-x="1001" d="M49 412q0 109 39 202.5t103.5 154.5t147.5 95.5t173 34.5q139 0 254 -68h4l90 87h14v-1371q0 -14 14.5 -18.5t61.5 -9.5l56 -2l6 -31h-453l6 31l86 2q53 3 68.5 8t15.5 18v592l-6 2q-144 -166 -311 -166q-157 0 -263 124t-106 315zM207 465q0 -169 80.5 -282t210.5 -113 q73 0 128.5 30.5t108.5 85.5v506q-40 72 -109 120t-145 48q-125 0 -199.5 -110.5t-74.5 -284.5z" />
<glyph unicode="r" horiz-adv-x="718" d="M33 815l2 21l276 69l-4 -319h4q59 163 125 243t152 80q52 0 84.5 -30t32.5 -72q0 -40 -26.5 -70t-68.5 -30q-39 0 -68.5 27t-35.5 77q-61 -18 -108 -90t-89 -205v-457q0 -13 14.5 -18t65.5 -8l84 -2l6 -31h-442l6 31l53 2q44 3 59 8.5t15 21.5v601q0 56 -6.5 84t-21.5 40 t-46 17z" />
<glyph unicode="s" horiz-adv-x="743" d="M61 266h35l43 -119q38 -68 94.5 -104.5t122.5 -36.5q89 0 147 50t58 128q0 79 -56.5 125t-170.5 84q-55 19 -92.5 37.5t-77 48.5t-60 74t-20.5 100q0 109 84.5 182.5t212.5 73.5q91 0 184 -35l66 21l12 -246h-35l-84 172q-69 53 -149 53q-82 0 -129 -41.5t-47 -111.5 q0 -32 11 -57.5t27 -43.5t47 -35t58 -28t72 -27q50 -18 81.5 -31.5t71 -37.5t61.5 -50t38 -66.5t16 -90.5q0 -117 -93 -200t-247 -83q-139 0 -262 47z" />
<glyph unicode="t" horiz-adv-x="647" d="M14 801l6 35l275 229l24 -6l-2 -180h304l-25 -78h-279q-14 -592 -14 -594q-1 -72 35 -108t104 -36q79 0 174 72l13 -20q-69 -67 -131.5 -105.5t-130.5 -38.5q-94 0 -149 51t-54 164l10 611z" />
<glyph unicode="u" horiz-adv-x="991" d="M0 881h287l-4 -596q0 -108 47.5 -157.5t140.5 -49.5q125 0 240 104v586q0 46 -16 60.5t-70 17.5l-54 6l-6 29h289v-758q0 -29 8 -40.5t33 -14.5l100 -17l-2 -22l-280 -62l2 176h-4q-43 -37 -73 -60t-76 -53t-93.5 -44.5t-95.5 -14.5q-98 0 -166 62q-64 70 -64 207v579 q0 14 -13 18.5t-75 8.5l-49 6z" />
<glyph unicode="v" horiz-adv-x="931" d="M-18 879h413l-4 -29l-51 -4q-48 -3 -58 -23q-4 -7 -3 -18q0 -19 12 -49l231 -584l185 485q30 81 33.5 117t-16.5 51t-77 19l-47 6l-6 29h348l-6 -29l-39 -4q-23 -2 -38 -8t-27 -15.5t-25 -34.5t-24.5 -51.5t-33.5 -80.5q-1 -4 -2 -5.5t-2 -4.5t-2 -5l-256 -659h-45 l-305 759q-29 66 -44 82.5t-56 20.5l-49 6z" />
<glyph unicode="w" horiz-adv-x="1437" d="M-16 879h413l-6 -29l-47 -4q-50 -3 -62 -20q-5 -7 -6 -19q0 -17 11 -45l215 -592l198 481l-36 97q-24 59 -42.5 75.5t-64.5 22.5l-45 4l-6 29h412l-7 -29l-47 -4q-46 -3 -58 -22q-5 -8 -4 -20q0 -17 9 -42l240 -596l161 483q29 86 29 128q-1 13 -3 22q-12 38 -93 45 l-43 6l-6 29h346l-6 -29l-35 -4q-58 -6 -82 -40t-70 -169l-223 -655h-47l-258 622l-258 -622h-45l-277 743q-28 76 -45 96.5t-59 24.5l-49 4z" />
<glyph unicode="x" horiz-adv-x="927" d="M-2 0l6 29l57 8q43 6 79 34.5t91 104.5l172 234l-231 327q-40 59 -66 82t-61 27l-41 4l-6 29h410l-7 -29l-51 -6q-40 -5 -44 -27v-5q0 -22 28 -67l160 -225h2l139 205q36 52 36 80v6q-4 29 -53 33l-57 6l-6 29h346l-6 -29l-55 -6q-43 -5 -79.5 -35t-92.5 -111l-152 -204 l250 -353q44 -60 68 -81.5t57 -24.5l41 -4l6 -31h-410l7 29l49 8q40 5 44 27v6q0 22 -28 63l-174 252h-2l-160 -233q-26 -38 -33.5 -62t3.5 -38t42 -17l64 -6l6 -29h-348z" />
<glyph unicode="y" d="M-20 879h411l-4 -29l-47 -4q-47 -3 -58 -23q-3 -7 -3 -18q0 -19 12 -49l239 -580l177 486q28 78 30 113t-18 49.5t-78 19.5l-47 6l-6 29h350l-6 -29l-43 -4q-20 -2 -32.5 -5t-26 -14.5t-20.5 -20.5t-20 -38.5t-21 -51t-28 -75.5l-237 -635l-76 -242 q-48 -153 -104.5 -222.5t-145.5 -69.5q-51 0 -86 28t-35 68t27 67t68 27q42 0 69.5 -25.5t36.5 -68.5q44 11 74 63t69 168l60 183v2l-326 757q-29 66 -44 82.5t-56 20.5l-49 6z" />
<glyph unicode="z" horiz-adv-x="856" d="M43 0v25l565 821h-143q-84 0 -138.5 -10t-89.5 -36.5t-54.5 -58.5t-39.5 -88l-22 -84h-33l4 310h686v-25l-567 -819l160 -2q84 1 142.5 12.5t100 37t68 57t55.5 81.5l43 88h31l-72 -309h-696z" />
<glyph unicode="{" horiz-adv-x="622" d="M-23 406l11 22q288 20 288 168q0 65 -41.5 204t-41.5 230q0 134 107.5 215t285.5 90l4 -26q-148 -18 -213.5 -70.5t-65.5 -144.5q0 -67 44 -207.5t44 -227.5q0 -100 -86.5 -165.5t-226.5 -83.5v-9q141 -20 227 -85t86 -166q0 -86 -44 -225.5t-44 -205.5q0 -93 65.5 -146 t213.5 -71l-4 -26q-178 9 -285.5 90t-107.5 217q0 91 41.5 229t41.5 203q0 84 -73.5 121t-214.5 47z" />
<glyph unicode="|" horiz-adv-x="389" d="M176 -424v1796h37v-1796h-37z" />
<glyph unicode="}" horiz-adv-x="622" d="M10 -498q147 18 212 71t65 146q0 66 -43 205.5t-43 225.5q0 101 86 166t225 85v9q-138 18 -224.5 83.5t-86.5 165.5q0 87 43 227.5t43 207.5q0 93 -64.5 145t-212.5 70l2 26q180 -9 288 -90t108 -215q0 -91 -43 -230t-43 -204q0 -148 288 -168l11 -22l-11 -23 q-141 -10 -214.5 -47t-73.5 -121q0 -65 43 -203t43 -229q0 -136 -108 -217t-288 -90z" />
<glyph unicode="~" horiz-adv-x="776" d="M86 334q14 109 50.5 159t105.5 50q47 0 112 -32.5t123 -64.5t90 -32q40 0 64 23.5t37 90.5h22q-14 -109 -49.5 -160t-103.5 -51q-48 0 -113 33t-123 66t-90 33q-41 0 -65 -23.5t-35 -91.5h-25z" />
<glyph unicode="&#xa1;" horiz-adv-x="507" d="M143 1192q0 44 32.5 76t78.5 32t78.5 -32t32.5 -76q0 -42 -32.5 -73.5t-78.5 -31.5t-78.5 31.5t-32.5 73.5zM169 14q-1 22 1 47l72 836q2 7 12 7t12 -7l74 -836q3 -18 1 -35.5t-8 -32t-23.5 -23.5t-45.5 -9h-18q-37 0 -56.5 15.5t-20.5 37.5z" />
<glyph unicode="&#xa2;" horiz-adv-x="851" d="M47 424q0 204 132 344.5t331 140.5q64 0 113 -12l98 358h35l-101 -368q65 -22 102.5 -61.5t37.5 -88.5q0 -37 -26.5 -62.5t-59.5 -25.5q-37 0 -62 23t-31 61l-174 -643q54 -12 84 -12q89 0 153.5 37t119.5 121l22 -13q-139 -252 -362 -252q-15 0 -47 4l-82 -303h-35 l84 310q-146 31 -239 154.5t-93 287.5zM201 481q0 -136 57.5 -237t151.5 -142l200 744q-44 28 -108 28q-126 0 -213.5 -109.5t-87.5 -283.5z" />
<glyph unicode="&#xa3;" horiz-adv-x="1019" d="M8 86q0 61 48 99t139 38q67 0 165 -30q21 65 21 116q0 30 -5 67.5t-10.5 63t-16 72.5t-15.5 68h-223l6 36h209q-23 109 -23 179q0 134 55 246.5t160 181.5t238 69q98 0 157.5 -39t59.5 -106q0 -34 -27 -62t-63 -28q-58 0 -79.5 52t5.5 103q-42 37 -115 37 q-105 0 -177.5 -84.5t-72.5 -236.5q0 -42 5.5 -92t14.5 -115.5t13 -104.5h264l7 -36h-267q8 -57 8 -134q0 -135 -77 -270q18 -6 83 -26.5t94.5 -29t77 -17.5t83.5 -9q89 0 135.5 51t66.5 185l25 -4q-5 -156 -79.5 -255.5t-192.5 -99.5q-48 0 -94.5 10t-96 32.5t-76.5 37 t-80 45.5q-100 -125 -213 -125q-62 0 -99.5 31.5t-37.5 83.5zM37 86q0 -39 30.5 -62.5t77.5 -23.5q50 0 97 31.5t82 85.5q-106 61 -174 61q-51 0 -82 -25t-31 -67z" />
<glyph unicode="&#xa4;" d="M131 436l117 117q-68 77 -68 182q0 106 68 183l-117 116l29 29l116 -117q81 68 183 68q101 0 182 -68l117 117l28 -29l-116 -116q67 -80 67 -183q0 -102 -67 -182l116 -117l-28 -28l-117 116q-76 -67 -182 -67q-107 0 -183 67l-116 -116zM221 735q0 -98 70 -167.5 t168 -69.5t167.5 69.5t69.5 167.5t-69.5 168t-167.5 70t-168 -70t-70 -168z" />
<glyph unicode="&#xa5;" horiz-adv-x="1228" d="M2 1280h520l-6 -31l-78 -4q-65 -3 -70.5 -32.5t40.5 -102.5l268 -465h6l213 393q43 83 51 123t-14 58t-86 26l-66 4l-6 31h440l-6 -31l-55 -4q-48 -6 -73 -17.5t-56.5 -52.5t-79.5 -131q-231 -419 -233 -419h368l-2 -37h-379v-228h377l6 -36h-383v-256q0 -11 18 -17 t75 -12l106 -8l6 -31h-567l6 31l121 10q78 8 78 31v252h-387l6 36h381v228h-383l-2 37h366l-295 499q-40 66 -68.5 90.5t-80.5 28.5l-70 6z" />
<glyph unicode="&#xa6;" horiz-adv-x="389" d="M176 -315v686h37v-686h-37zM176 598v686h37v-686h-37z" />
<glyph unicode="&#xa7;" horiz-adv-x="821" d="M37 662q0 78 50 138.5t132 100.5q-53 65 -53 148q0 102 82 182t207 80q102 0 165.5 -41.5t63.5 -102.5q0 -33 -24 -58.5t-58 -25.5q-53 0 -74 49.5t0 96.5q-44 47 -106 47q-73 0 -118.5 -51t-45.5 -117q0 -38 15.5 -69.5t59 -65.5t67.5 -49t93 -54q5 -3 9 -5.5t8 -4.5 q50 -28 81.5 -47.5t72.5 -50.5t64 -59.5t39.5 -67t16.5 -80.5q0 -78 -50 -140.5t-132 -105.5q55 -64 55 -147q0 -102 -85.5 -183t-211.5 -81q-104 0 -173.5 41.5t-69.5 101.5q0 34 22 59t56 25q35 0 57.5 -23.5t25 -56t-9.5 -65.5q48 -48 127 -48q73 0 119.5 52.5 t46.5 119.5q0 31 -15 60t-34 50t-58.5 48.5t-65.5 43t-79 44.5q-49 28 -81 48.5t-72 52t-63 61t-39.5 69t-16.5 81.5zM131 729q0 -40 15.5 -74.5t47.5 -64.5t65.5 -53t84.5 -52q6 -3 27.5 -15.5t28 -16t26 -14.5t27 -16t24.5 -15t25 -15.5t22 -15t23 -16.5t19.5 -16 t19.5 -17q102 65 102 155q0 77 -53 130.5t-160 113.5q-19 12 -65.5 38.5t-68.5 40t-52.5 35.5t-50.5 42q-45 -23 -76 -65t-31 -89z" />
<glyph unicode="&#xa8;" horiz-adv-x="776" d="M115 1157q0 38 25.5 71.5t70.5 33.5q47 0 72.5 -33.5t25.5 -71.5q0 -37 -25.5 -67.5t-72.5 -30.5q-46 0 -71 30.5t-25 67.5zM467 1157q0 37 26.5 71t71.5 34t71 -33.5t26 -71.5q0 -37 -25.5 -67.5t-71.5 -30.5t-72 30.5t-26 67.5z" />
<glyph unicode="&#xa9;" horiz-adv-x="1460" d="M61 641q0 183 89.5 337.5t244 244.5t336.5 90t336.5 -90t244 -244.5t89.5 -337.5q0 -137 -53 -261t-142.5 -213.5t-213.5 -142.5t-261 -53t-261 53t-213.5 142.5t-142.5 213.5t-53 261zM96 641q0 -129 50.5 -247t135.5 -203.5t202.5 -136t246.5 -50.5q128 0 245.5 50.5 t202 136t135 203.5t50.5 247q0 128 -50.5 246t-135 203.5t-202 136.5t-245.5 51q-129 0 -246.5 -51t-202.5 -136.5t-135.5 -203.5t-50.5 -246zM336 633q0 174 116.5 287.5t299.5 113.5q116 0 200 -43l74 29l8 -236h-20l-86 174q-66 50 -180 50q-136 0 -220 -102.5 t-84 -258.5q0 -167 89 -273t227 -106q83 0 136 34.5t97 105.5l41 84h21l-39 -207l-45 -4q-37 -15 -100.5 -27t-118.5 -12q-184 0 -300 109t-116 282z" />
<glyph unicode="&#xaa;" horiz-adv-x="645" d="M41 1130q0 56 104.5 114.5t202.5 58.5q99 0 151 -54t48 -166l-15 -348q-3 -76 52 -76q30 0 75 41l7 -12q-72 -102 -144 -102q-45 0 -72.5 31.5t-31.5 89.5q-118 -121 -217 -121q-66 0 -112 43.5t-46 105.5q0 166 383 254l4 70q1 102 -45.5 147t-118.5 45 q-43 0 -78.5 -18.5t-35.5 -32.5q0 -1 16 -28t16 -48q0 -26 -20 -44.5t-51 -18.5t-51.5 19.5t-20.5 49.5zM166 776q0 -52 29 -82t81 -30q65 0 144 71l6 228q-146 -34 -203 -80.5t-57 -106.5z" />
<glyph unicode="&#xab;" horiz-adv-x="874" d="M35 436v35l414 311l10 -16l-266 -311l268 -314l-10 -16zM395 436v35l422 340l10 -16l-278 -340l278 -340l-10 -19z" />
<glyph unicode="&#xac;" d="M29 594l6 45h821v-369h-45v324h-782z" />
<glyph unicode="&#xad;" horiz-adv-x="602" d="M47 449l6 75h502l-2 -75h-506z" />
<glyph unicode="&#xae;" horiz-adv-x="1460" d="M61 641q0 183 89.5 337.5t244 244.5t336.5 90t336.5 -90t244 -244.5t89.5 -337.5q0 -137 -53 -261t-142.5 -213.5t-213.5 -142.5t-261 -53t-261 53t-213.5 142.5t-142.5 213.5t-53 261zM96 641q0 -129 50.5 -247t135.5 -203.5t202.5 -136t246.5 -50.5q128 0 245.5 50.5 t202 136t135 203.5t50.5 247q0 128 -50.5 246t-135 203.5t-202 136.5t-245.5 51q-129 0 -246.5 -51t-202.5 -136.5t-135.5 -203.5t-50.5 -246zM391 266l4 25l70 8q16 2 30.5 8t14.5 12v652q0 8 -9 11.5t-44 6.5l-60 6l-6 27h322q138 0 212 -52.5t74 -142.5q0 -71 -51.5 -125 t-134.5 -73l170 -260q29 -43 49.5 -56t57.5 -18l32 -4l6 -25h-198l-19 35l-200 322q-60 5 -101 16v-324q0 -6 18 -11t38 -7l63 -6l4 -25h-342zM610 670q51 -19 105 -19q82 3 130 47.5t48 124.5q0 84 -56.5 129t-162.5 39l-64 -2v-319z" />
<glyph unicode="&#xaf;" horiz-adv-x="774" d="M127 1079l12 60h508l-8 -60h-512z" />
<glyph unicode="&#xb0;" horiz-adv-x="659" d="M49 1032q0 120 77 202.5t204 82.5t203.5 -82.5t76.5 -202.5q0 -119 -76.5 -200.5t-203.5 -81.5q-126 0 -203.5 81.5t-77.5 200.5zM94 1032q0 -104 65 -174t171 -70q107 0 173 70t66 174t-66.5 175t-172.5 71t-171 -71t-65 -175z" />
<glyph unicode="&#xb1;" d="M31 504l6 45h399v344h45v-344h400l6 -45h-406v-332h-45v332h-405zM57 55l6 45h791l6 -45h-803z" />
<glyph unicode="&#xb2;" horiz-adv-x="581" d="M25 573q76 73 113.5 110t89.5 91t76 86.5t49.5 75t34.5 79.5t9 77q0 84 -45 127t-108 43q-60 0 -104 -30t-87 -95l-12 12q106 190 260 190q88 0 147.5 -55t59.5 -141q0 -27 -5 -52.5t-18 -52.5t-25 -49t-38 -53t-43.5 -51.5t-54.5 -57t-59 -58t-69 -65.5t-73 -69l4 -2 h250q66 0 94 22t57 97l11 24h22l-51 -229h-479z" />
<glyph unicode="&#xb3;" horiz-adv-x="548" d="M35 598q0 26 17.5 42.5t45.5 16.5q37 0 61 -32.5t19 -75.5q1 0 11.5 -2t24 -4t22.5 -2q78 0 132 52.5t54 133.5q0 89 -48.5 137.5t-133.5 48.5q-54 0 -111 -22l-10 14q23 14 59 35.5t54.5 33t44.5 29t39 30.5t26.5 30.5t19 36t5.5 39.5q0 56 -36.5 88.5t-97.5 32.5 q-110 0 -178 -107l-14 10q98 176 250 176q76 0 129 -44.5t53 -110.5q0 -34 -14 -63t-43 -52.5t-56 -40.5t-69 -40q-11 -6 -17 -9v-4q108 13 178 -44t70 -153q1 -107 -97.5 -188.5t-229.5 -81.5q-72 0 -116 25t-44 65z" />
<glyph unicode="&#xb4;" horiz-adv-x="776" d="M297 1018l215 379h170l-365 -379h-20z" />
<glyph unicode="&#xb6;" horiz-adv-x="894" d="M61 926q0 172 120 263t347 91h244v-1346h-43v641q-88 -16 -194 -16q-224 0 -349 98t-125 269z" />
<glyph unicode="&#xb7;" horiz-adv-x="403" d="M88 449q0 44 33 76t82 32q48 0 79 -32t31 -76q0 -46 -31 -78.5t-79 -32.5q-49 0 -82 33t-33 78z" />
<glyph unicode="&#xb8;" horiz-adv-x="776" d="M193 -510q309 46 309 182q0 54 -45 82.5t-121 28.5q-53 0 -131 -21v21l201 225h40l-129 -143q119 15 200 -28t81 -126q0 -53 -31 -95t-87 -70.5t-125.5 -46.5t-153.5 -27z" />
<glyph unicode="&#xb9;" horiz-adv-x="516" d="M76 1276l4 16l250 39v-735q0 -21 59 -21l62 -6l2 -22h-357l4 22l72 6q49 0 49 23v662z" />
<glyph unicode="&#xba;" horiz-adv-x="774" d="M31 938q0 151 102.5 258t253.5 107q154 0 254 -103.5t100 -253.5q0 -152 -101 -257t-253 -105q-153 0 -254.5 103t-101.5 251zM170 958q0 -207 88 -292q54 -54 133 -54q93 0 151 91.5t58 224.5q0 206 -80 286q-54 60 -137 60q-96 0 -154.5 -91.5t-58.5 -224.5z" />
<glyph unicode="&#xbb;" horiz-adv-x="880" d="M47 115l279 340l-277 340l10 16l420 -340v-35l-422 -340zM416 141l266 314l-266 311l10 16l416 -311v-35l-416 -311z" />
<glyph unicode="&#xbc;" horiz-adv-x="1378" d="M61 -248l1188 1538h60l-1188 -1538h-60zM76 1276l4 16l250 39v-735q0 -21 59 -21l62 -6l2 -22h-357l4 22l72 6q49 0 49 23v662zM774 -41l391 553h49v-498h144l-21 -71h-123v-222h-104v222h-334zM844 14h266v369h-4z" />
<glyph unicode="&#xbd;" horiz-adv-x="1351" d="M61 -248l1188 1538h60l-1188 -1538h-60zM76 1276l4 16l250 39v-735q0 -21 59 -21l62 -6l2 -22h-357l4 22l72 6q49 0 49 23v662zM782 -254q68 65 99 95t80.5 80t71 77t51 66.5t41.5 68t21 63t9 68.5q0 83 -45.5 126.5t-108.5 43.5q-60 0 -103.5 -30t-86.5 -95l-12 13 q106 190 260 190q88 0 147.5 -55.5t59.5 -141.5q0 -27 -5 -52.5t-18 -52.5t-25 -49t-38 -53t-43.5 -51.5t-54.5 -57t-59 -58t-69 -65.5t-73 -69l4 -2h250q66 0 94 22t57 97l10 25h23l-51 -230h-480z" />
<glyph unicode="&#xbe;" horiz-adv-x="1329" d="M12 -248l1188 1538h60l-1188 -1538h-60zM35 598q0 26 17.5 42.5t45.5 16.5q37 0 61 -32.5t19 -75.5q1 0 11.5 -2t24 -4t22.5 -2q78 0 132 52.5t54 133.5q0 89 -48.5 137.5t-133.5 48.5q-54 0 -111 -22l-10 14q23 14 59 35.5t54.5 33t44.5 29t39 30.5t26.5 30.5t19 36 t5.5 39.5q0 56 -36.5 88.5t-97.5 32.5q-110 0 -178 -107l-14 10q98 176 250 176q76 0 129 -44.5t53 -110.5q0 -34 -14 -63t-43 -52.5t-56 -40.5t-69 -40q-11 -6 -17 -9v-4q108 13 178 -44t70 -153q1 -107 -97.5 -188.5t-229.5 -81.5q-72 0 -116 25t-44 65zM725 -41l391 553 h49v-498h144l-21 -71h-123v-222h-104v222h-334zM795 14h266v369h-4z" />
<glyph unicode="&#xbf;" horiz-adv-x="645" d="M63 338q0 45 8 78t21 55.5t41 43.5t55 35t76 36q8 4 30 14t29.5 13.5t25.5 12.5t25 14t19.5 14t17.5 16.5l12 18t9 22t2 24.5q0 78 -108 178h30q59 -45 109.5 -112.5t50.5 -120.5q0 -45 -11.5 -76t-42.5 -57t-63.5 -43.5t-97.5 -46.5q-114 -48 -156.5 -78t-42.5 -76 q0 -73 80.5 -132.5t235.5 -59.5q67 0 141 18q19 -27 19 -78q0 -80 -140 -80q-161 0 -268 111.5t-107 255.5zM242 1202q0 44 30 76.5t78 32.5q46 0 78.5 -32.5t32.5 -76.5q0 -41 -32.5 -71.5t-78.5 -30.5q-48 0 -78 30.5t-30 71.5z" />
<glyph unicode="&#xc0;" horiz-adv-x="1261" d="M-16 0l6 31l51 6q29 4 45.5 8.5t36.5 20t32.5 34t33 62.5t39.5 93t51 136l272 762l-16 59q28 9 65 39.5t49 55.5h23l379 -1121q32 -92 54.5 -118.5t78.5 -30.5l78 -6l6 -31h-529l6 31l84 6q54 3 69 31.5t-7 99.5l-119 362h-403l-97 -270q-15 -44 -23 -69.5t-14 -51.5 t-3 -39.5t8.5 -26t21.5 -18.5t36 -10.5t52 -7.5l66 -6l6 -31h-438zM301 1741h170l215 -379h-18zM381 571h377l-178 543h-7q-190 -543 -192 -543z" />
<glyph unicode="&#xc1;" horiz-adv-x="1261" d="M-16 0l6 31l51 6q29 4 45.5 8.5t36.5 20t32.5 34t33 62.5t39.5 93t51 136l272 762l-16 59q28 9 65 39.5t49 55.5h23l379 -1121q32 -92 54.5 -118.5t78.5 -30.5l78 -6l6 -31h-529l6 31l84 6q54 3 69 31.5t-7 99.5l-119 362h-403l-97 -270q-15 -44 -23 -69.5t-14 -51.5 t-3 -39.5t8.5 -26t21.5 -18.5t36 -10.5t52 -7.5l66 -6l6 -31h-438zM381 571h377l-178 543h-7q-190 -543 -192 -543zM553 1362l215 379h170l-365 -379h-20z" />
<glyph unicode="&#xc2;" horiz-adv-x="1261" d="M-16 0l6 31l51 6q29 4 45.5 8.5t36.5 20t32.5 34t33 62.5t39.5 93t51 136l272 762l-16 59q28 9 65 39.5t49 55.5h23l379 -1121q32 -92 54.5 -118.5t78.5 -30.5l78 -6l6 -31h-529l6 31l84 6q54 3 69 31.5t-7 99.5l-119 362h-403l-97 -270q-15 -44 -23 -69.5t-14 -51.5 t-3 -39.5t8.5 -26t21.5 -18.5t36 -10.5t52 -7.5l66 -6l6 -31h-438zM365 1346l262 389h26l262 -389h-22l-250 239h-4l-252 -239h-22zM381 571h377l-178 543h-7q-190 -543 -192 -543z" />
<glyph unicode="&#xc3;" horiz-adv-x="1261" d="M-16 0l6 31l51 6q29 4 45.5 8.5t36.5 20t32.5 34t33 62.5t39.5 93t51 136l272 762l-16 59q28 9 65 39.5t49 55.5h23l379 -1121q32 -92 54.5 -118.5t78.5 -30.5l78 -6l6 -31h-529l6 31l84 6q54 3 69 31.5t-7 99.5l-119 362h-403l-97 -270q-15 -44 -23 -69.5t-14 -51.5 t-3 -39.5t8.5 -26t21.5 -18.5t36 -10.5t52 -7.5l66 -6l6 -31h-438zM326 1393q14 110 50 159.5t105 49.5q47 0 112 -32t123.5 -64.5t90.5 -32.5q39 0 63 23.5t37 90.5h23q-14 -109 -50 -160t-104 -51q-48 0 -113 33t-122.5 65.5t-89.5 32.5q-42 0 -66 -23t-35 -91h-24z M381 571h377l-178 543h-7q-190 -543 -192 -543z" />
<glyph unicode="&#xc4;" horiz-adv-x="1261" d="M-16 0l6 31l51 6q29 4 45.5 8.5t36.5 20t32.5 34t33 62.5t39.5 93t51 136l272 762l-16 59q28 9 65 39.5t49 55.5h23l379 -1121q32 -92 54.5 -118.5t78.5 -30.5l78 -6l6 -31h-529l6 31l84 6q54 3 69 31.5t-7 99.5l-119 362h-403l-97 -270q-15 -44 -23 -69.5t-14 -51.5 t-3 -39.5t8.5 -26t21.5 -18.5t36 -10.5t52 -7.5l66 -6l6 -31h-438zM354 1495q0 38 26 71t71 33q47 0 72.5 -33t25.5 -71q0 -37 -25.5 -67.5t-72.5 -30.5q-46 0 -71.5 30.5t-25.5 67.5zM381 571h377l-178 543h-7q-190 -543 -192 -543zM707 1495q0 37 26.5 70.5t71.5 33.5 t70.5 -33t25.5 -71q0 -37 -25 -67.5t-71 -30.5t-72 30.5t-26 67.5z" />
<glyph unicode="&#xc5;" horiz-adv-x="1261" d="M-16 0l6 31l51 6q29 4 45.5 8.5t36.5 20t32.5 34t33 62.5t39.5 93t51 136l309 864q-65 15 -102 64t-37 115q0 76 50 129t132 53t132 -53t50 -129q0 -62 -33.5 -109.5t-91.5 -64.5l363 -1074q32 -92 54.5 -118.5t78.5 -30.5l78 -6l6 -31h-529l6 31l84 6q54 3 69 31.5 t-7 99.5l-119 360h-405l-95 -268q-15 -44 -23 -69.5t-14 -51.5t-3 -39.5t8.5 -26t21.5 -18.5t36 -10.5t52 -7.5l66 -6l6 -31h-438zM381 571h377l-178 545h-7zM481 1432q0 -65 41 -109.5t109 -44.5q67 0 108 44.5t41 109.5q0 64 -41 109.5t-108 45.5q-68 0 -109 -45.5 t-41 -109.5z" />
<glyph unicode="&#xc6;" horiz-adv-x="1710" d="M-109 0l7 31l86 8q55 8 106.5 63t147.5 226l481 843q12 20 9 34.5t-30 23t-84 12.5l-88 6l-6 33h1026l27 -365h-31l-20 84q-15 43 -25 67.5t-26 54.5t-33 46t-43 33t-59 25t-78 13t-103 5h-201v-561l119 2q96 2 141.5 12.5t69.5 35t41 79.5l21 61l26 -4l-41 -413l-26 2 l-7 57q-3 36 -9.5 56.5t-18.5 36t-41 22.5t-65 10.5t-101 5.5l-109 2v-604l185 -6q90 1 159 15t113.5 34.5t79 56t54 70.5t40.5 86l23 80l34 -2l-69 -377h-971l6 31l111 12q78 8 78 33v452h-400l-135 -241q-28 -51 -44.5 -83.5t-27 -61.5t-10.5 -45.5t9 -30t27.5 -19.5 t49.5 -10l82 -8l6 -29h-463zM422 571h375v650h-9z" />
<glyph unicode="&#xc7;" horiz-adv-x="1363" d="M68 629q0 198 90.5 353.5t253 242t370.5 86.5q176 0 332 -74l121 47l12 -387h-33l-133 297q-46 35 -125.5 57.5t-179.5 22.5q-162 0 -284 -83.5t-185 -224.5t-63 -317q0 -286 148.5 -463.5t387.5 -177.5q98 0 174.5 29t128.5 76.5t105 124.5l59 143h35l-68 -334l-73 -2 q-59 -27 -154 -49.5t-186 -26.5l-94 -104q119 15 199.5 -27.5t80.5 -126.5q0 -53 -31 -95t-87 -70.5t-125.5 -46.5t-153.5 -27l-8 18q309 46 309 182q0 54 -45 82.5t-121 28.5q-53 0 -131 -21v21l166 186q-149 1 -276.5 49t-219.5 133t-144 208.5t-52 269.5z" />
<glyph unicode="&#xc8;" horiz-adv-x="1181" d="M57 0l6 31l89 8q84 9 84 31v1147q0 11 -16.5 15.5t-78.5 10.5l-75 6l-7 31h955l26 -365h-32l-21 84q-20 57 -37 91.5t-45 67.5t-66 50t-96 27t-139 10h-207v-563l142 2q138 3 183.5 26t68.5 101l20 59l29 -2l-41 -413l-29 2l-4 57q-3 36 -9.5 57t-19.5 36t-42.5 22 t-65.5 10.5t-101 5.5l-131 2v-604l224 -6q75 0 133.5 8.5t100.5 27t72 38.5t53.5 53.5t38 62t32.5 72.5l24 80l35 -2l-70 -377h-983zM293 1741h170l215 -379h-19z" />
<glyph unicode="&#xc9;" horiz-adv-x="1181" d="M57 0l6 31l89 8q84 9 84 31v1147q0 11 -16.5 15.5t-78.5 10.5l-75 6l-7 31h955l26 -365h-32l-21 84q-20 57 -37 91.5t-45 67.5t-66 50t-96 27t-139 10h-207v-563l142 2q138 3 183.5 26t68.5 101l20 59l29 -2l-41 -413l-29 2l-4 57q-3 36 -9.5 57t-19.5 36t-42.5 22 t-65.5 10.5t-101 5.5l-131 2v-604l224 -6q75 0 133.5 8.5t100.5 27t72 38.5t53.5 53.5t38 62t32.5 72.5l24 80l35 -2l-70 -377h-983zM532 1362l216 379h170l-365 -379h-21z" />
<glyph unicode="&#xca;" horiz-adv-x="1181" d="M57 0l6 31l89 8q84 9 84 31v1147q0 11 -16.5 15.5t-78.5 10.5l-75 6l-7 31h955l26 -365h-32l-21 84q-20 57 -37 91.5t-45 67.5t-66 50t-96 27t-139 10h-207v-563l142 2q138 3 183.5 26t68.5 101l20 59l29 -2l-41 -413l-29 2l-4 57q-3 36 -9.5 57t-19.5 36t-42.5 22 t-65.5 10.5t-101 5.5l-131 2v-604l224 -6q75 0 133.5 8.5t100.5 27t72 38.5t53.5 53.5t38 62t32.5 72.5l24 80l35 -2l-70 -377h-983zM313 1346l262 389h27l262 -389h-22l-250 239h-4l-252 -239h-23z" />
<glyph unicode="&#xcb;" horiz-adv-x="1181" d="M57 0l6 31l89 8q84 9 84 31v1147q0 11 -16.5 15.5t-78.5 10.5l-75 6l-7 31h955l26 -365h-32l-21 84q-20 57 -37 91.5t-45 67.5t-66 50t-96 27t-139 10h-207v-563l142 2q138 3 183.5 26t68.5 101l20 59l29 -2l-41 -413l-29 2l-4 57q-3 36 -9.5 57t-19.5 36t-42.5 22 t-65.5 10.5t-101 5.5l-131 2v-604l224 -6q75 0 133.5 8.5t100.5 27t72 38.5t53.5 53.5t38 62t32.5 72.5l24 80l35 -2l-70 -377h-983zM307 1495q0 38 25.5 71t70.5 33q47 0 73 -33t26 -71q0 -37 -26 -67.5t-73 -30.5q-46 0 -71 30.5t-25 67.5zM659 1495q0 37 26.5 70.5 t72.5 33.5q45 0 70.5 -33t25.5 -71q0 -37 -25 -67.5t-71 -30.5t-72.5 31t-26.5 67z" />
<glyph unicode="&#xcc;" horiz-adv-x="673" d="M23 1741h170l215 -379h-19zM70 0l6 31l100 8q80 8 80 31v1147q0 11 -16 15.5t-78 10.5l-84 6l-6 31h532l-6 -31l-98 -8q-82 -8 -82 -31v-1147q0 -11 17 -15.5t79 -10.5l82 -6l6 -31h-532z" />
<glyph unicode="&#xcd;" horiz-adv-x="673" d="M70 0l6 31l100 8q80 8 80 31v1147q0 11 -16 15.5t-78 10.5l-84 6l-6 31h532l-6 -31l-98 -8q-82 -8 -82 -31v-1147q0 -11 17 -15.5t79 -10.5l82 -6l6 -31h-532zM262 1362l215 379h170l-364 -379h-21z" />
<glyph unicode="&#xce;" horiz-adv-x="673" d="M61 1346l263 389h26l262 -389h-22l-250 239h-4l-252 -239h-23zM70 0l6 31l100 8q80 8 80 31v1147q0 11 -16 15.5t-78 10.5l-84 6l-6 31h532l-6 -31l-98 -8q-82 -8 -82 -31v-1147q0 -11 17 -15.5t79 -10.5l82 -6l6 -31h-532z" />
<glyph unicode="&#xcf;" horiz-adv-x="673" d="M66 1497q0 38 25.5 71.5t70.5 33.5q47 0 72.5 -33.5t25.5 -71.5q0 -37 -25.5 -67.5t-72.5 -30.5q-46 0 -71 30.5t-25 67.5zM70 0l6 31l100 8q80 8 80 31v1147q0 11 -16 15.5t-78 10.5l-84 6l-6 31h532l-6 -31l-98 -8q-82 -8 -82 -31v-1147q0 -11 17 -15.5t79 -10.5l82 -6 l6 -31h-532zM418 1497q0 37 26.5 71t71.5 34t70.5 -33.5t25.5 -71.5q0 -37 -25 -67.5t-71 -30.5t-72 30.5t-26 67.5z" />
<glyph unicode="&#xd0;" horiz-adv-x="1363" d="M49 0l6 31l103 10q78 8 78 31v555h-181l6 41h175v544q0 20 -93 29l-86 8l-6 31l494 6q174 1 314 -43.5t232.5 -126.5t141.5 -196t49 -252q0 -143 -51.5 -265t-148 -212t-245 -140.5t-331.5 -50.5h-457zM395 70l160 -33q134 1 241 49t174.5 128.5t103.5 183.5t36 220 q0 134 -36.5 246.5t-108 198.5t-187 134t-264.5 48h-119v-577h299l6 -41h-305v-557z" />
<glyph unicode="&#xd1;" horiz-adv-x="1427" d="M41 1282h344l784 -1034h5l-3 887q0 57 -27.5 78t-105.5 30l-69 6l-6 31h442l-6 -31l-70 -6q-62 -6 -89.5 -29.5t-27.5 -83.5l-2 -1140h-39l-878 1151h-4l2 -994q0 -57 28 -79.5t105 -30.5l70 -6l6 -31h-445l6 31l72 6q61 7 89 30.5t28 84.5l2 991q-39 80 -148 100l-57 8z M438 1393q14 109 50.5 159t105.5 50q47 0 112 -32t123.5 -64.5t90.5 -32.5q39 0 63 23.5t37 90.5h22q-14 -109 -49.5 -160t-103.5 -51q-48 0 -113 33t-123 65.5t-90 32.5q-41 0 -65 -23t-35 -91h-25z" />
<glyph unicode="&#xd2;" horiz-adv-x="1476" d="M68 635q0 131 54 255t144 216t215 147.5t260 55.5q189 0 341.5 -84t240.5 -237t88 -347q0 -131 -54 -254.5t-144.5 -214.5t-216 -146t-261.5 -55q-190 0 -342 83.5t-238.5 235.5t-86.5 345zM244 641q0 -282 141.5 -457.5t357.5 -175.5q219 0 354.5 169.5t135.5 457.5 q0 284 -142.5 461.5t-357.5 177.5q-218 0 -353.5 -171.5t-135.5 -461.5zM416 1741h170l215 -379h-19z" />
<glyph unicode="&#xd3;" horiz-adv-x="1476" d="M68 635q0 131 54 255t144 216t215 147.5t260 55.5q189 0 341.5 -84t240.5 -237t88 -347q0 -131 -54 -254.5t-144.5 -214.5t-216 -146t-261.5 -55q-190 0 -342 83.5t-238.5 235.5t-86.5 345zM244 641q0 -282 141.5 -457.5t357.5 -175.5q219 0 354.5 169.5t135.5 457.5 q0 284 -142.5 461.5t-357.5 177.5q-218 0 -353.5 -171.5t-135.5 -461.5zM666 1362l215 379h170l-365 -379h-20z" />
<glyph unicode="&#xd4;" horiz-adv-x="1476" d="M68 635q0 131 54 255t144 216t215 147.5t260 55.5q189 0 341.5 -84t240.5 -237t88 -347q0 -131 -54 -254.5t-144.5 -214.5t-216 -146t-261.5 -55q-190 0 -342 83.5t-238.5 235.5t-86.5 345zM244 641q0 -282 141.5 -457.5t357.5 -175.5q219 0 354.5 169.5t135.5 457.5 q0 284 -142.5 461.5t-357.5 177.5q-218 0 -353.5 -171.5t-135.5 -461.5zM465 1346l262 389h27l262 -389h-23l-250 239h-4l-252 -239h-22z" />
<glyph unicode="&#xd5;" horiz-adv-x="1476" d="M68 635q0 131 54 255t144 216t215 147.5t260 55.5q189 0 341.5 -84t240.5 -237t88 -347q0 -131 -54 -254.5t-144.5 -214.5t-216 -146t-261.5 -55q-190 0 -342 83.5t-238.5 235.5t-86.5 345zM244 641q0 -282 141.5 -457.5t357.5 -175.5q219 0 354.5 169.5t135.5 457.5 q0 284 -142.5 461.5t-357.5 177.5q-218 0 -353.5 -171.5t-135.5 -461.5zM440 1393q14 109 50.5 159t105.5 50q47 0 112 -32t123.5 -64.5t90.5 -32.5q39 0 63 23.5t37 90.5h22q-14 -109 -49.5 -160t-103.5 -51q-48 0 -113 33t-123 65.5t-90 32.5q-41 0 -65 -23t-35 -91h-25z " />
<glyph unicode="&#xd6;" horiz-adv-x="1476" d="M68 635q0 131 54 255t144 216t215 147.5t260 55.5q189 0 341.5 -84t240.5 -237t88 -347q0 -131 -54 -254.5t-144.5 -214.5t-216 -146t-261.5 -55q-190 0 -342 83.5t-238.5 235.5t-86.5 345zM244 641q0 -282 141.5 -457.5t357.5 -175.5q219 0 354.5 169.5t135.5 457.5 q0 284 -142.5 461.5t-357.5 177.5q-218 0 -353.5 -171.5t-135.5 -461.5zM469 1495q0 38 25.5 71t70.5 33q47 0 73 -33t26 -71q0 -37 -26 -67.5t-73 -30.5q-46 0 -71 30.5t-25 67.5zM821 1495q0 37 26.5 70.5t72.5 33.5q45 0 70.5 -33t25.5 -71q0 -37 -25 -67.5t-71 -30.5 t-72.5 31t-26.5 67z" />
<glyph unicode="&#xd7;" d="M68 125l358 358l-358 359l32 32l359 -358l358 358l33 -32l-358 -359l358 -358l-33 -33l-358 359l-359 -359z" />
<glyph unicode="&#xd8;" horiz-adv-x="1476" d="M68 635q0 131 54 255t144 216t215 147.5t260 55.5q178 0 324 -76l104 178h43l-114 -197q146 -87 229.5 -236t83.5 -337q0 -131 -54 -254.5t-144.5 -214.5t-216 -146t-261.5 -55q-172 0 -315 70l-111 -191h-43l121 209q-149 83 -234 233.5t-85 342.5zM244 641 q0 -161 49 -291t137 -215q38 65 99.5 171.5t192 331.5t217 375t85.5 150q-125 109 -291 109q-218 0 -353.5 -171.5t-135.5 -459.5zM459 109q122 -101 284 -101q219 0 354.5 169.5t135.5 457.5q0 158 -47.5 286.5t-132.5 215.5z" />
<glyph unicode="&#xd9;" horiz-adv-x="1390" d="M29 1282h549l-7 -31l-106 -8q-41 -4 -61.5 -13.5t-20.5 -19.5v-747q0 -218 98 -317t295 -99q183 0 279 111.5t96 326.5l-2 650q0 56 -32.5 79t-110.5 29l-70 8l-6 31h452l-6 -31l-71 -8q-61 -6 -88 -29.5t-27 -83.5l-2 -649q0 -247 -118.5 -378.5t-352.5 -131.5 q-256 0 -375 110.5t-119 360.5v775q0 7 -6.5 10.5t-27.5 7.5t-62 8l-92 8zM422 1741h170l215 -379h-19z" />
<glyph unicode="&#xda;" horiz-adv-x="1390" d="M29 1282h549l-7 -31l-106 -8q-41 -4 -61.5 -13.5t-20.5 -19.5v-747q0 -218 98 -317t295 -99q183 0 279 111.5t96 326.5l-2 650q0 56 -32.5 79t-110.5 29l-70 8l-6 31h452l-6 -31l-71 -8q-61 -6 -88 -29.5t-27 -83.5l-2 -649q0 -247 -118.5 -378.5t-352.5 -131.5 q-256 0 -375 110.5t-119 360.5v775q0 7 -6.5 10.5t-27.5 7.5t-62 8l-92 8zM649 1362l215 379h170l-364 -379h-21z" />
<glyph unicode="&#xdb;" horiz-adv-x="1390" d="M29 1282h549l-7 -31l-106 -8q-41 -4 -61.5 -13.5t-20.5 -19.5v-747q0 -218 98 -317t295 -99q183 0 279 111.5t96 326.5l-2 650q0 56 -32.5 79t-110.5 29l-70 8l-6 31h452l-6 -31l-71 -8q-61 -6 -88 -29.5t-27 -83.5l-2 -649q0 -247 -118.5 -378.5t-352.5 -131.5 q-256 0 -375 110.5t-119 360.5v775q0 7 -6.5 10.5t-27.5 7.5t-62 8l-92 8zM457 1346l262 389h26l263 -389h-23l-250 239h-4l-252 -239h-22z" />
<glyph unicode="&#xdc;" horiz-adv-x="1390" d="M29 1282h549l-7 -31l-106 -8q-41 -4 -61.5 -13.5t-20.5 -19.5v-747q0 -218 98 -317t295 -99q183 0 279 111.5t96 326.5l-2 650q0 56 -32.5 79t-110.5 29l-70 8l-6 31h452l-6 -31l-71 -8q-61 -6 -88 -29.5t-27 -83.5l-2 -649q0 -247 -118.5 -378.5t-352.5 -131.5 q-256 0 -375 110.5t-119 360.5v775q0 7 -6.5 10.5t-27.5 7.5t-62 8l-92 8zM473 1495q0 38 25.5 71t70.5 33q47 0 73 -33t26 -71q0 -37 -26 -67.5t-73 -30.5q-46 0 -71 30.5t-25 67.5zM825 1495q0 37 26.5 70.5t72.5 33.5q45 0 70.5 -33t25.5 -71q0 -37 -25 -67.5t-71 -30.5 t-72.5 31t-26.5 67z" />
<glyph unicode="&#xdd;" horiz-adv-x="1243" d="M-10 1280h524l-6 -31l-78 -4q-63 -3 -69 -32.5t38 -102.5l277 -483h6l221 401q28 52 41.5 84.5t18 57.5t-6.5 39t-32.5 22.5t-59.5 13.5l-65 4l-6 31h440l-6 -31l-58 -4q-47 -5 -74.5 -20t-60 -57t-80.5 -132l-252 -446v-527q0 -11 17.5 -15.5t81.5 -10.5l100 -6l6 -31 h-569l6 31l117 8q82 8 82 31v493l-328 559q-37 66 -66.5 91.5t-82.5 29.5l-70 6zM588 1364l215 379h170l-365 -379h-20z" />
<glyph unicode="&#xde;" horiz-adv-x="1122" d="M39 0l6 31l109 8q82 8 82 31v1147q0 11 -16.5 15.5t-78.5 10.5l-94 6l-6 31h551l-6 -31l-109 -8q-80 -9 -80 -31v-196l187 -2q233 0 355 -89t122 -241q0 -165 -137.5 -271t-348.5 -106q-45 0 -178 17v-259q0 -8 6 -12t26.5 -7.5t62.5 -6.5l118 -6l6 -31h-577zM397 367 q108 -23 178 -23q149 0 231.5 83t82.5 230q0 326 -357 320q2 0 -32 -0.5t-68 -0.5l-35 -1v-608z" />
<glyph unicode="&#xdf;" horiz-adv-x="1019" d="M20 803l25 71l131 7l2 53q19 206 116.5 325t250.5 119q148 0 234.5 -71.5t86.5 -190.5q0 -103 -69 -170.5t-179 -97.5q86 -48 165.5 -123t137.5 -179t58 -204q0 -149 -92 -258t-223 -109q-96 0 -162 45.5t-66 114.5q0 44 29 74.5t72 30.5q41 0 64.5 -25.5t23.5 -57 t-21.5 -58.5t-58.5 -29q15 -26 47 -44t76 -18q83 0 133.5 64.5t50.5 169.5q0 156 -100 308.5t-291 266.5v17q136 24 202 91t66 195q0 91 -56.5 157t-142.5 66q-108 0 -159.5 -81t-51.5 -252v-1008h-274l6 29l58 4q22 1 32 2t20.5 3.5t13.5 7t3 13.5v736z" />
<glyph unicode="&#xe0;" horiz-adv-x="843" d="M53 682q0 48 63 102t154.5 89.5t169.5 35.5q96 0 153 -28t85 -99.5t22 -195.5l-20 -436q-3 -84 61 -84q36 0 97 57l16 -19q-31 -38 -50.5 -59.5t-57 -45.5t-72.5 -24q-55 0 -90.5 39t-38.5 109l-4 2q-144 -148 -260 -148q-92 0 -156 59.5t-64 145.5q0 75 44.5 131.5 t154.5 106.5t297 96l2 70q8 266 -203 266q-58 0 -114 -25.5t-56 -44.5q0 -5 12 -19t23.5 -35.5t11.5 -43.5q0 -34 -25 -58t-65 -24q-39 0 -64.5 22t-25.5 58zM111 1397h170l215 -379h-19zM205 221q0 -69 41 -110t104 -41q97 0 195 92l10 321q-105 -26 -175 -55t-107.5 -62 t-52.5 -67t-15 -78z" />
<glyph unicode="&#xe1;" horiz-adv-x="843" d="M53 682q0 48 63 102t154.5 89.5t169.5 35.5q96 0 153 -28t85 -99.5t22 -195.5l-20 -436q-3 -84 61 -84q36 0 97 57l16 -19q-31 -38 -50.5 -59.5t-57 -45.5t-72.5 -24q-55 0 -90.5 39t-38.5 109l-4 2q-144 -148 -260 -148q-92 0 -156 59.5t-64 145.5q0 75 44.5 131.5 t154.5 106.5t297 96l2 70q8 266 -203 266q-58 0 -114 -25.5t-56 -44.5q0 -5 12 -19t23.5 -35.5t11.5 -43.5q0 -34 -25 -58t-65 -24q-39 0 -64.5 22t-25.5 58zM205 221q0 -69 41 -110t104 -41q97 0 195 92l10 321q-105 -26 -175 -55t-107.5 -62t-52.5 -67t-15 -78zM338 1018 l215 379h170l-365 -379h-20z" />
<glyph unicode="&#xe2;" horiz-adv-x="843" d="M53 682q0 48 63 102t154.5 89.5t169.5 35.5q96 0 153 -28t85 -99.5t22 -195.5l-20 -436q-3 -84 61 -84q36 0 97 57l16 -19q-31 -38 -50.5 -59.5t-57 -45.5t-72.5 -24q-55 0 -90.5 39t-38.5 109l-4 2q-144 -148 -260 -148q-92 0 -156 59.5t-64 145.5q0 75 44.5 131.5 t154.5 106.5t297 96l2 70q8 266 -203 266q-58 0 -114 -25.5t-56 -44.5q0 -5 12 -19t23.5 -35.5t11.5 -43.5q0 -34 -25 -58t-65 -24q-39 0 -64.5 22t-25.5 58zM123 1001l262 390h27l262 -390h-23l-250 240h-4l-252 -240h-22zM205 221q0 -69 41 -110t104 -41q97 0 195 92 l10 321q-105 -26 -175 -55t-107.5 -62t-52.5 -67t-15 -78z" />
<glyph unicode="&#xe3;" horiz-adv-x="843" d="M53 682q0 48 63 102t154.5 89.5t169.5 35.5q96 0 153 -28t85 -99.5t22 -195.5l-20 -436q-3 -84 61 -84q36 0 97 57l16 -19q-31 -38 -50.5 -59.5t-57 -45.5t-72.5 -24q-55 0 -90.5 39t-38.5 109l-4 2q-144 -148 -260 -148q-92 0 -156 59.5t-64 145.5q0 75 44.5 131.5 t154.5 106.5t297 96l2 70q8 266 -203 266q-58 0 -114 -25.5t-56 -44.5q0 -5 12 -19t23.5 -35.5t11.5 -43.5q0 -34 -25 -58t-65 -24q-39 0 -64.5 22t-25.5 58zM115 1049q14 109 50 158.5t105 49.5q47 0 112 -32.5t123.5 -64.5t90.5 -32q39 0 63 24t37 91h23 q-14 -109 -50 -160t-104 -51q-48 0 -113 33t-122.5 65.5t-89.5 32.5q-42 0 -66 -23t-35 -91h-24zM205 221q0 -69 41 -110t104 -41q97 0 195 92l10 321q-105 -26 -175 -55t-107.5 -62t-52.5 -67t-15 -78z" />
<glyph unicode="&#xe4;" horiz-adv-x="843" d="M53 682q0 48 63 102t154.5 89.5t169.5 35.5q96 0 153 -28t85 -99.5t22 -195.5l-20 -436q-3 -84 61 -84q36 0 97 57l16 -19q-31 -38 -50.5 -59.5t-57 -45.5t-72.5 -24q-55 0 -90.5 39t-38.5 109l-4 2q-144 -148 -260 -148q-92 0 -156 59.5t-64 145.5q0 75 44.5 131.5 t154.5 106.5t297 96l2 70q8 266 -203 266q-58 0 -114 -25.5t-56 -44.5q0 -5 12 -19t23.5 -35.5t11.5 -43.5q0 -34 -25 -58t-65 -24q-39 0 -64.5 22t-25.5 58zM123 1157q0 38 25.5 71.5t70.5 33.5q47 0 72.5 -33.5t25.5 -71.5q0 -37 -25.5 -67.5t-72.5 -30.5q-46 0 -71 30.5 t-25 67.5zM205 221q0 -69 41 -110t104 -41q97 0 195 92l10 321q-105 -26 -175 -55t-107.5 -62t-52.5 -67t-15 -78zM475 1157q0 37 26.5 71t71.5 34t71 -33.5t26 -71.5q0 -37 -25.5 -67.5t-71.5 -30.5t-72 30.5t-26 67.5z" />
<glyph unicode="&#xe5;" horiz-adv-x="841" d="M53 682q0 48 63 102t154.5 89.5t169.5 35.5q96 0 153 -28t85 -99.5t22 -195.5l-20 -436q-3 -84 61 -84q36 0 97 57l16 -19q-31 -38 -50.5 -59.5t-57 -45.5t-72.5 -24q-55 0 -90.5 39t-38.5 109l-4 2q-144 -148 -260 -148q-92 0 -156 59.5t-64 145.5q0 75 44.5 131.5 t154.5 106.5t297 96l2 70q8 266 -203 266q-58 0 -114 -25.5t-56 -44.5q0 -5 12 -19t23.5 -35.5t11.5 -43.5q0 -34 -25 -58t-65 -24q-39 0 -64.5 22t-25.5 58zM205 221q0 -69 41 -110t104 -41q97 0 195 92l10 321q-105 -26 -175 -55t-107.5 -62t-52.5 -67t-15 -78zM242 1214 q0 78 50 131.5t132 53.5t132 -53.5t50 -131.5t-50 -131t-132 -53t-132 53t-50 131zM274 1214q0 -65 41 -110t109 -45q67 0 107 45t40 110t-40 110.5t-107 45.5q-68 0 -109 -45t-41 -111z" />
<glyph unicode="&#xe6;" horiz-adv-x="1376" d="M53 682q0 48 62 102t154.5 89.5t174.5 35.5q98 0 154.5 -34t77.5 -109q124 143 317 143q147 0 233.5 -80t86.5 -202q0 -27 -6 -54q-596 5 -600 5q-7 -87 -7 -99q0 -176 92 -287.5t230 -111.5q92 0 159.5 36t123.5 120l22 -13q-138 -250 -371 -250q-114 0 -206.5 58 t-143.5 155q-92 -105 -168 -160t-153 -55q-93 0 -158.5 61t-65.5 148q0 75 43.5 131.5t154 108.5t296.5 96l6 72q7 141 -50 202.5t-155 61.5q-58 0 -114 -25.5t-56 -44.5q0 -5 12 -19t23.5 -35.5t11.5 -43.5q0 -34 -25 -58t-65 -24q-39 0 -64.5 22t-25.5 58zM205 219 q0 -69 42.5 -112.5t106.5 -43.5q63 0 116.5 36.5t121.5 115.5q-41 93 -41 207q0 43 2 59q-104 -26 -174 -55.5t-107.5 -63t-52 -67t-14.5 -76.5zM713 608q28 0 74 0.5t143 1.5t161.5 1.5t63.5 0.5q3 114 -44 188t-140 74q-84 0 -158 -76.5t-100 -189.5z" />
<glyph unicode="&#xe7;" horiz-adv-x="849" d="M49 418q0 207 131.5 349t329.5 142q126 0 209.5 -53t83.5 -135q0 -43 -27.5 -70.5t-64.5 -27.5q-45 0 -72.5 32.5t-20.5 79.5q0 27 14.5 49.5t14.5 24.5q-7 21 -50 43t-93 22q-127 0 -215 -111t-88 -282q0 -177 92 -289t231 -112q90 0 154.5 36t118.5 120l24 -13 q-122 -226 -317 -248l-101 -110q119 15 200 -28t81 -126q0 -53 -31 -95t-87 -70.5t-125.5 -46.5t-153.5 -27l-8 18q309 46 309 182q0 54 -45 82.5t-121 28.5q-53 0 -131 -21v21l170 190h-4q-173 0 -290.5 128t-117.5 317z" />
<glyph unicode="&#xe8;" horiz-adv-x="872" d="M49 418q0 206 126 348.5t317 142.5q148 0 233.5 -80t85.5 -202q0 -18 -4 -54l-598 5q-8 -50 -8 -99q0 -177 91.5 -288t231.5 -111q90 0 156.5 36t122.5 120l22 -13q-138 -250 -366 -250q-175 0 -292.5 128t-117.5 317zM160 1397h170l215 -379h-19zM213 608l442 2 q2 113 -46 188.5t-138 75.5q-84 0 -158 -76.5t-100 -189.5z" />
<glyph unicode="&#xe9;" horiz-adv-x="872" d="M49 418q0 206 126 348.5t317 142.5q148 0 233.5 -80t85.5 -202q0 -18 -4 -54l-598 5q-8 -50 -8 -99q0 -177 91.5 -288t231.5 -111q90 0 156.5 36t122.5 120l22 -13q-138 -250 -366 -250q-175 0 -292.5 128t-117.5 317zM213 608l442 2q2 113 -46 188.5t-138 75.5 q-84 0 -158 -76.5t-100 -189.5zM377 1018l215 379h170l-365 -379h-20z" />
<glyph unicode="&#xea;" horiz-adv-x="872" d="M49 418q0 206 126 348.5t317 142.5q148 0 233.5 -80t85.5 -202q0 -18 -4 -54l-598 5q-8 -50 -8 -99q0 -177 91.5 -288t231.5 -111q90 0 156.5 36t122.5 120l22 -13q-138 -250 -366 -250q-175 0 -292.5 128t-117.5 317zM186 1001l263 390h26l262 -390h-22l-250 240h-4 l-252 -240h-23zM213 608l442 2q2 113 -46 188.5t-138 75.5q-84 0 -158 -76.5t-100 -189.5z" />
<glyph unicode="&#xeb;" horiz-adv-x="872" d="M49 418q0 206 126 348.5t317 142.5q148 0 233.5 -80t85.5 -202q0 -18 -4 -54l-598 5q-8 -50 -8 -99q0 -177 91.5 -288t231.5 -111q90 0 156.5 36t122.5 120l22 -13q-138 -250 -366 -250q-175 0 -292.5 128t-117.5 317zM178 1157q0 38 25.5 71.5t70.5 33.5q47 0 73 -33.5 t26 -71.5q0 -37 -26 -67.5t-73 -30.5q-46 0 -71 30.5t-25 67.5zM213 608l442 2q2 113 -46 188.5t-138 75.5q-84 0 -158 -76.5t-100 -189.5zM530 1157q0 37 27 71t72 34t70.5 -33.5t25.5 -71.5q0 -37 -25 -67.5t-71 -30.5t-72.5 31t-26.5 67z" />
<glyph unicode="&#xec;" horiz-adv-x="475" d="M-68 1397h170l215 -379h-18zM31 815l4 21l276 69v-846q0 -12 14.5 -17t69.5 -9l51 -2l7 -31h-418l6 31l57 2q42 3 57 8.5t15 21.5v601q0 82 -14.5 107.5t-61.5 33.5z" />
<glyph unicode="&#xed;" horiz-adv-x="475" d="M31 815l4 21l276 69v-846q0 -12 14.5 -17t69.5 -9l51 -2l7 -31h-418l6 31l57 2q42 3 57 8.5t15 21.5v601q0 82 -14.5 107.5t-61.5 33.5zM152 1018l215 379h170l-365 -379h-20z" />
<glyph unicode="&#xee;" horiz-adv-x="475" d="M-12 1001l241 390h27l238 -390h-23l-227 240h-4l-230 -240h-22zM31 815l4 21l276 69v-846q0 -12 14.5 -17t69.5 -9l51 -2l7 -31h-418l6 31l57 2q42 3 57 8.5t15 21.5v601q0 82 -14.5 107.5t-61.5 33.5z" />
<glyph unicode="&#xef;" horiz-adv-x="475" d="M-33 1157q0 38 25.5 71.5t70.5 33.5q47 0 73 -33.5t26 -71.5q0 -37 -26 -67.5t-73 -30.5q-46 0 -71 30.5t-25 67.5zM31 815l4 21l276 69v-846q0 -12 14.5 -17t69.5 -9l51 -2l7 -31h-418l6 31l57 2q42 3 57 8.5t15 21.5v601q0 82 -14.5 107.5t-61.5 33.5zM319 1157 q0 37 27 71t72 34t70.5 -33.5t25.5 -71.5q0 -37 -25 -67.5t-71 -30.5t-72.5 31t-26.5 67z" />
<glyph unicode="&#xf0;" horiz-adv-x="989" d="M41 436q0 201 127 336t315 135q126 0 215 -59q-87 189 -241 297l-281 -92l4 43l234 78q-120 71 -273 100l13 26q187 -24 338 -102l249 84l4 -43l-204 -68q190 -114 294.5 -294t104.5 -373q0 -149 -56 -270t-160 -192t-237 -71q-195 0 -320.5 133.5t-125.5 331.5zM205 469 q0 -216 78.5 -339.5t214.5 -123.5q126 0 201 109t75 303q0 204 -80 329t-211 125q-126 0 -202 -109.5t-76 -293.5z" />
<glyph unicode="&#xf1;" horiz-adv-x="1036" d="M31 815l2 21l278 69l-4 -170l6 -2q47 40 74 60.5t76 52t96.5 46.5t95.5 15q104 0 160 -59q68 -68 68 -207v-580q0 -8 4 -12t23 -8t59 -8l51 -2l6 -31h-414l6 31l54 2q43 3 57 10t14 20v533q0 107 -46.5 156t-139.5 49q-124 0 -248 -107v-635q0 -12 15.5 -17t70.5 -9 l54 -2l6 -31h-418l6 31l53 2q44 3 59 8.5t15 21.5v601q0 56 -6.5 84t-21.5 40t-46 17zM221 1049q14 109 50.5 158.5t105.5 49.5q47 0 112 -32.5t123 -64.5t90 -32q39 0 63.5 24t37.5 91h22q-14 -109 -49.5 -160t-103.5 -51q-48 0 -113 33t-123 65.5t-90 32.5q-41 0 -65 -23 t-35 -91h-25z" />
<glyph unicode="&#xf2;" horiz-adv-x="1013" d="M49 436q0 199 133.5 336t329.5 137q195 0 324 -131t129 -327q0 -133 -60 -243t-165.5 -173.5t-233.5 -63.5q-197 0 -327 133t-130 332zM178 1397h170l215 -379h-18zM213 467q0 -268 117 -385q73 -76 182 -76q125 0 207 121t82 293q0 262 -113 375q-79 79 -184 79 q-86 0 -153 -56t-102.5 -148.5t-35.5 -202.5z" />
<glyph unicode="&#xf3;" horiz-adv-x="1013" d="M49 436q0 199 133.5 336t329.5 137q195 0 324 -131t129 -327q0 -133 -60 -243t-165.5 -173.5t-233.5 -63.5q-197 0 -327 133t-130 332zM213 467q0 -268 117 -385q73 -76 182 -76q125 0 207 121t82 293q0 262 -113 375q-79 79 -184 79q-86 0 -153 -56t-102.5 -148.5 t-35.5 -202.5zM442 1018l215 379h170l-364 -379h-21z" />
<glyph unicode="&#xf4;" horiz-adv-x="1013" d="M49 436q0 199 133.5 336t329.5 137q195 0 324 -131t129 -327q0 -133 -60 -243t-165.5 -173.5t-233.5 -63.5q-197 0 -327 133t-130 332zM213 467q0 -268 117 -385q73 -76 182 -76q125 0 207 121t82 293q0 262 -113 375q-79 79 -184 79q-86 0 -153 -56t-102.5 -148.5 t-35.5 -202.5zM231 1001l263 390h26l262 -390h-22l-250 240h-4l-252 -240h-23z" />
<glyph unicode="&#xf5;" horiz-adv-x="1013" d="M49 436q0 199 133.5 336t329.5 137q195 0 324 -131t129 -327q0 -133 -60 -243t-165.5 -173.5t-233.5 -63.5q-197 0 -327 133t-130 332zM205 1049q14 109 50 158.5t105 49.5q47 0 112 -32.5t123.5 -64.5t90.5 -32q39 0 63 24t37 91h23q-14 -109 -50 -160t-104 -51 q-48 0 -113 33t-122.5 65.5t-89.5 32.5q-42 0 -66 -23t-35 -91h-24zM213 467q0 -268 117 -385q73 -76 182 -76q125 0 207 121t82 293q0 262 -113 375q-79 79 -184 79q-86 0 -153 -56t-102.5 -148.5t-35.5 -202.5z" />
<glyph unicode="&#xf6;" horiz-adv-x="1013" d="M49 436q0 199 133.5 336t329.5 137q195 0 324 -131t129 -327q0 -133 -60 -243t-165.5 -173.5t-233.5 -63.5q-197 0 -327 133t-130 332zM213 467q0 -268 117 -385q73 -76 182 -76q125 0 207 121t82 293q0 262 -113 375q-79 79 -184 79q-86 0 -153 -56t-102.5 -148.5 t-35.5 -202.5zM233 1157q0 38 26 71.5t71 33.5q47 0 72.5 -33.5t25.5 -71.5q0 -37 -25.5 -67.5t-72.5 -30.5q-46 0 -71.5 30.5t-25.5 67.5zM586 1157q0 37 26.5 71t71.5 34t70.5 -33.5t25.5 -71.5q0 -37 -25 -67.5t-71 -30.5t-72 30.5t-26 67.5z" />
<glyph unicode="&#xf7;" d="M49 461l6 45h807l6 -45h-819zM356 201q0 39 29.5 67.5t73.5 28.5q42 0 71 -28.5t29 -67.5q0 -41 -29 -72t-71 -31q-43 0 -73 31t-30 72zM356 772q0 39 29.5 68.5t71.5 29.5q43 0 72.5 -29.5t29.5 -68.5q0 -41 -29.5 -71.5t-72.5 -30.5q-42 0 -71.5 30.5t-29.5 71.5z" />
<glyph unicode="&#xf8;" horiz-adv-x="1013" d="M49 436q0 199 133.5 336t329.5 137q115 0 211 -49l178 309h39l-188 -325q99 -59 156 -163t57 -230q0 -133 -60 -243t-165.5 -173.5t-233.5 -63.5q-124 0 -227 58l-160 -275h-37l168 291q-95 62 -148 164t-53 227zM213 467q0 -219 82 -344l391 674q-77 77 -182 77 q-86 0 -153 -56t-102.5 -148.5t-35.5 -202.5zM317 96l13 -14q73 -76 182 -76q125 0 207 121t82 293q0 233 -92 350z" />
<glyph unicode="&#xf9;" horiz-adv-x="991" d="M0 881h287l-4 -596q0 -108 47.5 -157.5t140.5 -49.5q125 0 240 104v586q0 46 -16 60.5t-70 17.5l-54 6l-6 29h289v-758q0 -29 8 -40.5t33 -14.5l100 -17l-2 -22l-280 -62l2 176h-4q-43 -37 -73 -60t-76 -53t-93.5 -44.5t-95.5 -14.5q-98 0 -166 62q-64 70 -64 207v579 q0 14 -13 18.5t-75 8.5l-49 6zM205 1397h170l215 -379h-19z" />
<glyph unicode="&#xfa;" horiz-adv-x="991" d="M0 881h287l-4 -596q0 -108 47.5 -157.5t140.5 -49.5q125 0 240 104v586q0 46 -16 60.5t-70 17.5l-54 6l-6 29h289v-758q0 -29 8 -40.5t33 -14.5l100 -17l-2 -22l-280 -62l2 176h-4q-43 -37 -73 -60t-76 -53t-93.5 -44.5t-95.5 -14.5q-98 0 -166 62q-64 70 -64 207v579 q0 14 -13 18.5t-75 8.5l-49 6zM422 1018l215 379h170l-365 -379h-20z" />
<glyph unicode="&#xfb;" horiz-adv-x="991" d="M0 881h287l-4 -596q0 -108 47.5 -157.5t140.5 -49.5q125 0 240 104v586q0 46 -16 60.5t-70 17.5l-54 6l-6 29h289v-758q0 -29 8 -40.5t33 -14.5l100 -17l-2 -22l-280 -62l2 176h-4q-43 -37 -73 -60t-76 -53t-93.5 -44.5t-95.5 -14.5q-98 0 -166 62q-64 70 -64 207v579 q0 14 -13 18.5t-75 8.5l-49 6zM211 1001l262 390h27l262 -390h-23l-250 240h-4l-252 -240h-22z" />
<glyph unicode="&#xfc;" horiz-adv-x="991" d="M0 881h287l-4 -596q0 -108 47.5 -157.5t140.5 -49.5q125 0 240 104v586q0 46 -16 60.5t-70 17.5l-54 6l-6 29h289v-758q0 -29 8 -40.5t33 -14.5l100 -17l-2 -22l-280 -62l2 176h-4q-43 -37 -73 -60t-76 -53t-93.5 -44.5t-95.5 -14.5q-98 0 -166 62q-64 70 -64 207v579 q0 14 -13 18.5t-75 8.5l-49 6zM219 1157q0 38 25.5 71.5t70.5 33.5q47 0 73 -33.5t26 -71.5q0 -37 -26 -67.5t-73 -30.5q-46 0 -71 30.5t-25 67.5zM571 1157q0 37 27 71t72 34t70.5 -33.5t25.5 -71.5q0 -37 -25 -67.5t-71 -30.5t-72.5 31t-26.5 67z" />
<glyph unicode="&#xfd;" d="M-20 879h411l-4 -29l-47 -4q-47 -3 -57.5 -23t8.5 -67l239 -580l177 486q28 78 30 113t-18 49.5t-78 19.5l-47 6l-6 29h350l-6 -29l-43 -4q-20 -2 -32.5 -5t-26 -14.5t-20.5 -20.5t-20 -38.5t-21 -51t-28 -75.5l-237 -635l-76 -242q-48 -153 -104.5 -222.5t-145.5 -69.5 q-51 0 -86 28t-35 68t27 67t68 27q42 0 69.5 -25.5t36.5 -68.5q44 11 74 63t69 168l60 183v2l-326 757q-29 66 -44 82.5t-56 20.5l-49 6zM397 1018l215 379h170l-364 -379h-21z" />
<glyph unicode="&#xfe;" horiz-adv-x="989" d="M-31 1303l2 22l281 68v-662l6 -4q154 172 315 172q158 0 262.5 -121.5t104.5 -308.5q0 -108 -38.5 -202.5t-102 -158.5t-146.5 -100.5t-172 -36.5q-111 0 -223 49h-6v-477q0 -8 5.5 -12t25 -7t57.5 -5l84 -2l6 -31h-450l6 31l55 2q42 3 57 8.5t15 21.5v1645q0 47 -13 66 t-53 26zM252 170q42 -68 111 -113t143 -45q124 0 199 113.5t75 288.5q0 166 -79 276.5t-207 110.5q-130 0 -242 -125v-506z" />
<glyph unicode="&#xff;" d="M-20 879h411l-4 -29l-47 -4q-47 -3 -57.5 -23t8.5 -67l239 -580l177 486q28 78 30 113t-18 49.5t-78 19.5l-47 6l-6 29h350l-6 -29l-43 -4q-20 -2 -32.5 -5t-26 -14.5t-20.5 -20.5t-20 -38.5t-21 -51t-28 -75.5l-237 -635l-76 -242q-48 -153 -104.5 -222.5t-145.5 -69.5 q-51 0 -86 28t-35 68t27 67t68 27q42 0 69.5 -25.5t36.5 -68.5q44 11 74 63t69 168l60 183v2l-326 757q-29 66 -44 82.5t-56 20.5l-49 6zM203 1157q0 38 25.5 71.5t70.5 33.5q47 0 72.5 -33.5t25.5 -71.5q0 -37 -25.5 -67.5t-72.5 -30.5q-46 0 -71 30.5t-25 67.5zM555 1157 q0 37 26.5 71t71.5 34t71 -33.5t26 -71.5q0 -37 -25.5 -67.5t-71.5 -30.5t-72 30.5t-26 67.5z" />
<glyph unicode="&#x152;" horiz-adv-x="1884" d="M68 618q0 141 51 261t147.5 209t245 139.5t334.5 50.5l870 2l27 -365h-29l-22 84q-20 56 -37.5 91t-46 67.5t-67.5 49.5t-97.5 26.5t-140.5 9.5h-191v-561l125 2q139 3 187 26.5t71 100.5l23 59l26 -2l-41 -413l-26 2l-7 57q-3 36 -10.5 57t-20.5 36t-44 22t-67.5 10.5 t-102.5 5.5l-113 2v-604l207 -6q90 1 157.5 15t110.5 34.5t76.5 56.5t52 70t39.5 86l25 80l35 -2l-72 -377h-940q-346 -3 -540.5 166t-194.5 452zM240 666q0 -134 36.5 -246.5t108 -197.5t187 -133t264.5 -48h118v1169l-157 31q-136 -2 -244 -49t-175.5 -126t-102.5 -181 t-35 -219z" />
<glyph unicode="&#x153;" horiz-adv-x="1624" d="M49 436q1 130 61.5 238.5t166.5 171.5t235 63q121 0 219 -55.5t156 -153.5q58 98 151 153.5t207 55.5q146 0 233 -80t87 -202q0 -27 -6 -54q-594 5 -598 5q-7 -44 -7 -99q0 -176 92 -287.5t230 -111.5q90 0 157 36t123 120l23 -13q-138 -250 -371 -250q-211 0 -331 201 q-61 -94 -158 -148.5t-213 -54.5q-197 0 -327 133t-130 332zM213 463q0 -120 30.5 -220.5t86.5 -158.5q75 -78 182 -78q126 0 207.5 120t81.5 294q0 120 -28 218t-83 155q-78 81 -186 81q-129 0 -210 -118.5t-81 -292.5zM967 608l442 4q2 113 -46.5 187.5t-139.5 74.5 q-84 0 -157.5 -76.5t-98.5 -189.5z" />
<glyph unicode="&#x178;" horiz-adv-x="1243" d="M-10 1280h524l-6 -31l-78 -4q-63 -3 -69 -32.5t38 -102.5l277 -483h6l221 401q28 52 41.5 84.5t18 57.5t-6.5 39t-32.5 22.5t-59.5 13.5l-65 4l-6 31h440l-6 -31l-58 -4q-47 -5 -74.5 -20t-60 -57t-80.5 -132l-252 -446v-527q0 -11 17.5 -15.5t81.5 -10.5l100 -6l6 -31 h-569l6 31l117 8q82 8 82 31v493l-328 559q-37 66 -66.5 91.5t-82.5 29.5l-70 6zM362 1499q0 38 26 71.5t71 33.5q47 0 72.5 -33.5t25.5 -71.5q0 -37 -25.5 -67.5t-72.5 -30.5q-46 0 -71.5 30.5t-25.5 67.5zM715 1499q0 37 26.5 71t71.5 34t70.5 -33.5t25.5 -71.5 q0 -37 -25 -67.5t-71 -30.5t-72 30.5t-26 67.5z" />
<glyph unicode="&#x2c6;" horiz-adv-x="776" d="M113 1001l262 390h26l263 -390h-23l-250 240h-4l-252 -240h-22z" />
<glyph unicode="&#x2dc;" horiz-adv-x="776" d="M86 1049q14 109 50.5 158.5t105.5 49.5q47 0 112 -32.5t123 -64.5t90 -32q39 0 63.5 24t37.5 91h22q-14 -109 -49.5 -160t-103.5 -51q-48 0 -113 33t-123 65.5t-90 32.5q-41 0 -65 -23t-35 -91h-25z" />
<glyph unicode="&#x2000;" horiz-adv-x="871" />
<glyph unicode="&#x2001;" horiz-adv-x="1743" />
<glyph unicode="&#x2002;" horiz-adv-x="871" />
<glyph unicode="&#x2003;" horiz-adv-x="1743" />
<glyph unicode="&#x2004;" horiz-adv-x="581" />
<glyph unicode="&#x2005;" horiz-adv-x="435" />
<glyph unicode="&#x2006;" horiz-adv-x="290" />
<glyph unicode="&#x2007;" horiz-adv-x="290" />
<glyph unicode="&#x2008;" horiz-adv-x="217" />
<glyph unicode="&#x2009;" horiz-adv-x="348" />
<glyph unicode="&#x200a;" horiz-adv-x="96" />
<glyph unicode="&#x2010;" horiz-adv-x="602" d="M47 449l6 75h502l-2 -75h-506z" />
<glyph unicode="&#x2011;" horiz-adv-x="602" d="M47 449l6 75h502l-2 -75h-506z" />
<glyph unicode="&#x2012;" horiz-adv-x="602" d="M47 449l6 75h502l-2 -75h-506z" />
<glyph unicode="&#x2013;" horiz-adv-x="899" d="M23 446l6 74h845l-2 -74h-849z" />
<glyph unicode="&#x2014;" horiz-adv-x="1859" d="M23 446l6 74h1808l-2 -74h-1812z" />
<glyph unicode="&#x2018;" horiz-adv-x="376" d="M53 1018q0 93 73.5 179t184.5 140l17 -14q-164 -109 -164 -236q0 -39 19 -66.5t46.5 -39t51 -16t38.5 -2.5q8 -39 -22 -75t-86 -36q-67 0 -112.5 46t-45.5 120z" />
<glyph unicode="&#x2019;" horiz-adv-x="374" d="M49 860q162 102 162 230q0 39 -19 67.5t-47 40.5t-50.5 17t-37.5 4q-7 40 23.5 76t87.5 36q64 0 109 -48.5t45 -123.5q0 -92 -72.5 -177.5t-181.5 -137.5z" />
<glyph unicode="&#x201a;" horiz-adv-x="374" d="M49 -244q162 102 162 230q0 39 -19 67.5t-47 40.5t-50.5 17t-37.5 4q-7 40 23.5 76t87.5 36q64 0 109 -48.5t45 -123.5q0 -92 -72.5 -177.5t-181.5 -137.5z" />
<glyph unicode="&#x201c;" horiz-adv-x="718" d="M53 1018q0 93 73.5 179t184.5 140l17 -14q-164 -109 -164 -236q0 -39 19 -66.5t46.5 -39t51 -16t38.5 -2.5q8 -39 -22 -75t-86 -36q-67 0 -112.5 46t-45.5 120zM401 1018q0 92 73.5 178.5t182.5 140.5l19 -14q-164 -109 -164 -236q0 -39 19 -66.5t46.5 -39t51 -16 t37.5 -2.5q8 -39 -22 -75t-87 -36q-65 0 -110.5 46t-45.5 120z" />
<glyph unicode="&#x201d;" horiz-adv-x="716" d="M49 860q162 102 162 230q0 39 -19 67.5t-47 40.5t-50.5 17t-37.5 4q-7 40 23.5 76t87.5 36q64 0 109 -48.5t45 -123.5q0 -92 -72.5 -177.5t-181.5 -137.5zM397 860q162 102 162 230q0 39 -19 67.5t-46.5 40.5t-50 17t-37.5 4q-7 40 22.5 76t85.5 36q66 0 111 -48.5 t45 -123.5q0 -93 -73 -178t-183 -137z" />
<glyph unicode="&#x201e;" horiz-adv-x="716" d="M49 -244q162 102 162 230q0 39 -19 67.5t-47 40.5t-50.5 17t-37.5 4q-7 40 23.5 76t87.5 36q64 0 109 -48.5t45 -123.5q0 -92 -72.5 -177.5t-181.5 -137.5zM397 -244q162 102 162 230q0 39 -19 67.5t-46.5 40.5t-50 17t-37.5 4q-7 40 22.5 76t85.5 36q66 0 111 -48.5 t45 -123.5q0 -93 -73 -178t-183 -137z" />
<glyph unicode="&#x2022;" horiz-adv-x="888" d="M51 475q0 44 43 146t74 133t133 72.5t145 41.5q44 0 146 -41.5t133 -72.5t73 -133t42 -146q0 -45 -41.5 -145.5t-73.5 -132.5q-30 -32 -133 -74.5t-148 -42.5q-44 0 -145.5 42.5t-130.5 74.5q-31 33 -74 133.5t-43 144.5z" />
<glyph unicode="&#x2026;" horiz-adv-x="1206" d="M82 84q0 44 32.5 76.5t82.5 32.5q48 0 78 -32.5t30 -76.5q0 -46 -30 -78.5t-78 -32.5q-50 0 -82.5 33t-32.5 78zM492 84q0 44 32 76.5t80 32.5t79.5 -32.5t31.5 -76.5q0 -45 -31.5 -78t-79.5 -33t-80 33t-32 78zM901 84q0 44 32.5 76.5t80.5 32.5t79 -32.5t31 -76.5 q0 -46 -31 -78.5t-79 -32.5t-80.5 33t-32.5 78z" />
<glyph unicode="&#x202f;" horiz-adv-x="348" />
<glyph unicode="&#x2039;" horiz-adv-x="524" d="M41 436v35l420 340l10 -16l-276 -340l276 -340l-8 -19z" />
<glyph unicode="&#x203a;" horiz-adv-x="524" d="M53 115l277 340l-277 340l13 16l419 -340v-35l-422 -340z" />
<glyph unicode="&#x205f;" horiz-adv-x="435" />
<glyph unicode="&#x20ac;" horiz-adv-x="999" d="M10 451l6 36h119q-6 61 -6 115q0 67 8 111h-127l6 39h127q39 244 189 393t346 149q126 0 205.5 -47t79.5 -121q0 -37 -27 -63.5t-64 -26.5q-43 0 -68.5 30t-24.5 66t16 66q-50 59 -136 59q-145 0 -248.5 -141t-125.5 -364h415l7 -39h-426q0 -11 -1 -35t-1 -35 q0 -77 12 -156h409l7 -36h-408q35 -175 136 -276t231 -101q191 0 299 178l22 -14q-145 -267 -381 -267q-171 0 -300 131t-165 349h-131z" />
<glyph unicode="&#x2122;" horiz-adv-x="1136" d="M47 1135l16 145h402l8 -145h-18l-9 34q-21 49 -45 68.5t-79 19.5h-23v-395q0 -5 27 -10l43 -4l2 -23h-224l5 23l49 4q22 3 22 12v393h-20q-53 -1 -79.5 -23t-47.5 -67l-10 -32h-19zM516 825l4 23l33 2q24 2 30.5 12t6.5 47l10 326q-9 15 -31 18l-39 7l-2 20h162l113 -344 h8l123 344h166l-4 -20l-45 -7q-21 -3 -21 -12l8 -364q2 -14 6.5 -18t22.5 -7l37 -4l2 -23h-209v23l43 4q12 3 15.5 8.5t2.5 18.5l-6 360h-6l-151 -405h-29l-135 397q-6 0 -8 2l-9 -326q0 -36 7 -45.5t32 -11.5l33 -2l2 -23h-172z" />
</font>
</defs>
</svg>
