<?xml version="1.0" standalone="no"?>
<!DOCTYPE svg PUBLIC "-//W3C//DTD SVG 1.1//EN" "http://www.w3.org/Graphics/SVG/1.1/DTD/svg11.dtd" >
<svg xmlns="http://www.w3.org/2000/svg" xmlns:xlink="http://www.w3.org/1999/xlink" version="1.1">
<metadata></metadata>
<defs>
<font id="freightdisp_problack" horiz-adv-x="448" >
<font-face units-per-em="1000" ascent="800" descent="-200" />
<missing-glyph horiz-adv-x="180" />
<glyph unicode="ff" horiz-adv-x="652" d="M431 600q72 70 182 70q55 0 82.5 -19.5t27.5 -51.5q0 -26 -19 -44.5t-45 -18.5q-31 0 -49 22t-29 70l-1 7l-23 5q-20 -8 -27.5 -33.5t-7.5 -92.5v-77h131l-13 -62h-118v-341q0 -14 47 -16l32 -1l3 -17h-281l2 17l18 1q24 1 29.5 4.5t5.5 12.5v343h-150v-344q0 -7 7 -10.5 t30 -5.5l18 -1l3 -17h-264l3 17l19 1q22 2 30.5 5t8.5 12v340l-79 4l20 58l58 -2l2 43q4 90 77 137.5t169 47.5q44 0 70.5 -17.5t30.5 -45.5zM387 534q-11 -3 -21 -3q-61 0 -82 100l-17 4q-19 -8 -29 -34t-10 -91v-73l148 -2l4 64q2 20 7 35z" />
<glyph unicode="fi" horiz-adv-x="597" d="M22 0l3 17l19 1q22 2 30.5 5t8.5 12v339l-79 5l20 57l58 -1l4 57q5 80 88.5 134t186.5 54q57 0 90.5 -23.5t33.5 -60.5q0 -30 -20.5 -50.5t-49.5 -20.5q-36 0 -60.5 30.5t-35.5 81.5l-34 9q-57 -24 -57 -146v-64h230l61 17v-419q0 -7 5.5 -9t30.5 -5q8 -1 12 -2l10 -1 l3 -17h-259l1 17l18 1q22 1 28.5 4.5t6.5 12.5v343h-147v-344q0 -7 7 -10.5t30 -5.5l18 -1l3 -17h-264z" />
<glyph unicode="fl" horiz-adv-x="593" d="M448 650l71 29v-645q0 -7 7.5 -9t40.5 -7l9 -1l4 -17h-259l3 17l11 1q36 5 39 12q1 2 1 5v343h-147v-344q0 -7 7 -10.5t30 -5.5l18 -1l3 -17h-264l3 17l19 1q22 2 30.5 5t8.5 12v339l-79 4l20 58l58 -1l4 57q5 80 85.5 134t179.5 54q64 0 97 -30zM375 436v116 q-49 21 -61 85l-35 9q-25 -10 -38 -42t-13 -104v-64h147z" />
<glyph unicode="ffi" horiz-adv-x="892" d="M431 595q39 39 100 62t125 23q57 0 90.5 -23.5t33.5 -60.5q0 -30 -21 -50.5t-50 -20.5q-69 0 -95 112l-33 9q-59 -24 -59 -146v-63h230l62 16v-419q0 -7 5.5 -9t29.5 -5q8 -1 12 -2l11 -1l3 -17h-260l3 18l18 1q21 1 27 4.5t6 12.5v342h-147v-344q0 -7 7 -10.5t30 -5.5 l20 -1l2 -17h-258l2 17l18 1q24 1 29.5 4.5t5.5 12.5v343h-150v-344q0 -7 7 -10.5t30 -5.5l18 -1l3 -17h-264l3 17l19 1q22 2 30.5 5t8.5 12v340l-79 4l20 58l58 -2l2 43q4 90 77 137.5t169 47.5q46 0 72.5 -18.5t28.5 -49.5zM390 536q-12 -5 -25 -5q-30 0 -51 28.5 t-30 71.5l-17 4q-19 -8 -29 -34t-10 -91v-73l148 -2l4 57q1 20 10 44z" />
<glyph unicode="ffl" horiz-adv-x="889" d="M742 650l72 29v-645q0 -7 7.5 -9t39.5 -7l10 -1l3 -17h-259l3 17l17 1q24 1 29 4t5 13v343h-147v-344q0 -7 7 -10.5t30 -5.5l20 -1l2 -17h-258l2 17l18 1q24 1 29.5 4.5t5.5 12.5v343h-150v-344q0 -7 7 -10.5t30 -5.5l18 -1l3 -17h-264l3 17l19 1q22 2 30.5 5t8.5 12v340 l-79 4l20 58l58 -2l2 43q4 90 77 137.5t169 47.5q45 0 72 -18.5t29 -47.5q38 39 96.5 61t121.5 22q61 0 93 -30zM669 437v115q-49 23 -62 85l-33 9q-52 -22 -52 -151v-58h147zM390 536q-13 -5 -25 -5q-31 0 -50.5 23.5t-30.5 76.5l-17 4q-19 -8 -29 -34t-10 -91v-73l148 -2 l4 57q1 20 10 44z" />
<glyph unicode="&#xd;" horiz-adv-x="333" />
<glyph unicode=" "  horiz-adv-x="180" />
<glyph unicode="&#x09;" horiz-adv-x="180" />
<glyph unicode="&#xa0;" horiz-adv-x="180" />
<glyph unicode="!" horiz-adv-x="293" d="M139 207l-70 357q-7 32 11 53.5t66 21.5h3q48 0 65.5 -21t10.5 -54l-70 -357q-2 -6 -8 -6.5t-8 6.5zM147 -13q-31 0 -53 22t-22 54q0 31 22 52.5t53 21.5t53.5 -22t22.5 -52q0 -31 -22.5 -53.5t-53.5 -22.5z" />
<glyph unicode="&#x22;" horiz-adv-x="374" d="M180 403l107 241h1l87 -34l-175 -207h-20zM-1 403l107 241h2l87 -34l-177 -207h-19z" />
<glyph unicode="#" horiz-adv-x="525" d="M75 -5l51 193h-133v22h139l54 203h-134v22h139l53 197h25l-52 -197h157l52 197h25l-52 -197h133v-22h-139l-53 -203h133v-22h-139l-51 -193h-25l51 193h-157l-52 -193h-25zM157 210h158l53 203h-157z" />
<glyph unicode="$" horiz-adv-x="529" d="M172 -8q-61 7 -117 28l-14 181h32l52 -113q26 -32 58 -51l3 12q4 12 9 31.5t11 43l12 47t11 42.5t8 31l3 12l-8 3q-44 15 -72 28t-57.5 33.5t-43.5 50t-14 68.5q0 86 67.5 142t167.5 56q18 0 58 -4l27 105h25l-28 -109q40 -9 62 -16l48 15l3 -194h-29l-89 161l-3 2 l-49 -188l7 -3q37 -12 62.5 -22.5t53.5 -28t45 -37.5t28 -49.5t11 -65.5q0 -89 -71.5 -152.5t-178.5 -63.5q-35 0 -65 3l-38 -147h-26zM206 25q30 -12 61 -12q61 0 93 29t32 79q0 49 -32.5 76.5t-95.5 50.5zM331 605q-27 6 -57 6q-49 0 -79.5 -24.5t-30.5 -62.5 q0 -40 30 -63.5t88 -43.5z" />
<glyph unicode="%" horiz-adv-x="594" d="M147 365q-61 0 -98.5 40t-37.5 98t37.5 99t98.5 41q62 0 100 -41t38 -99t-38 -98t-100 -40zM58 -14l452 654h24l-451 -654h-25zM446 -17q-62 0 -99 40t-37 98q0 59 37 99.5t99 40.5t99.5 -41t37.5 -99t-37.5 -98t-99.5 -40zM147 386q52 0 83.5 34t31.5 83 q0 50 -31.5 84.5t-83.5 34.5q-51 0 -82 -34.5t-31 -84.5t31 -83.5t82 -33.5zM446 4q51 0 82.5 33.5t31.5 84.5q0 49 -31.5 83.5t-82.5 34.5t-82 -34.5t-31 -83.5q0 -51 31 -84.5t82 -33.5z" />
<glyph unicode="&#x26;" horiz-adv-x="771" d="M661 409q43 -18 67.5 -52.5t24.5 -77.5q0 -124 -115 -209t-271 -85q-161 0 -247 69.5t-86 178.5q0 63 40.5 112t107.5 76q-14 28 -14 57q0 71 47.5 116t122.5 45q70 0 110 -49.5t30 -114.5l-18 4q3 38 -18.5 62.5t-63.5 24.5q-39 0 -61.5 -29t-22.5 -65q0 -17 1 -25 q10 1 31 1q46 0 74.5 -18.5t28.5 -46.5q0 -27 -23.5 -44.5t-60.5 -17.5q-43 0 -83.5 21.5t-65.5 56.5q-39 -30 -39 -91q0 -101 83 -161t225 -60q116 0 191.5 56t75.5 136q0 47 -31 79.5t-77 32.5q-24 0 -55 -32.5t-31 -58.5q0 -33 20.5 -52t52.5 -19q-24 11 -30.5 37.5 t8.5 49t46 22.5q24 0 39.5 -16.5t15.5 -42.5q0 -29 -22.5 -48t-59.5 -19q-56 0 -95 37.5t-39 94.5q0 43 25.5 74.5t62 51t72.5 38t61.5 44.5t25.5 61q0 20 -23.5 36.5t-57.5 16.5q25 -6 35 -34.5t-6 -55t-54 -26.5q-28 0 -46 17t-18 45q0 32 26 52t65 20q61 0 103.5 -41 t42.5 -100q0 -41 -29 -71.5t-98 -62.5zM297 430q12 -62 71 -62q13 0 23 8t10 17q0 16 -21.5 27t-53.5 11q-20 0 -29 -1z" />
<glyph unicode="'" horiz-adv-x="195" d="M-1 403l107 241h2l87 -34l-177 -207h-19z" />
<glyph unicode="(" horiz-adv-x="340" d="M326 -264q-43 24 -86.5 64t-84.5 97.5t-66.5 136.5t-25.5 165t25.5 165.5t66.5 137t84.5 97.5t86.5 63l12 -18q-93 -51 -171 -171t-78 -274q0 -81 24 -156.5t62 -130.5t79.5 -94.5t83.5 -62.5z" />
<glyph unicode=")" horiz-adv-x="340" d="M14 -264l-12 18q42 23 83.5 62.5t79.5 95t62 131t24 156.5q0 154 -78 274t-171 171l12 18q43 -23 86.5 -63t84.5 -97.5t66.5 -137t25.5 -165.5t-25.5 -165t-66.5 -136.5t-84.5 -97.5t-86.5 -64z" />
<glyph unicode="*" horiz-adv-x="332" d="M215 304l-61 22l7 136q-1 4 -8 4l-63 -118l-65 11q-5 0 -9 7l1 67l131 36q1 1 1 6t-1 6l-131 36l-1 68q2 5 9 5l65 12l62 -116q1 -2 4.5 -1t3.5 2l-8 137l64 22q2 1 6 -2l2 -1l33 -53l-90 -104q-1 -1 0 -3t2.5 -3.5t2.5 -1.5l124 53l43 -51q1 -2 1 -6t-1 -5l-43 -49 l-124 53q-2 0 -4 -4t-1 -6l90 -102l-33 -53q-1 -1 -3 -2l-4 -2h-2z" />
<glyph unicode="+" d="M211 25v198h-198l3 26h195v198h26v-198h195l3 -26h-198v-198h-26z" />
<glyph unicode="," horiz-adv-x="223" d="M43 -153l-12 14q92 51 92 125q0 44 -36.5 63t-64.5 8q-10 30 14.5 63t66.5 33q47 0 75 -31.5t28 -74.5q0 -56 -43 -111t-120 -89z" />
<glyph unicode="-" horiz-adv-x="297" d="M23 216l3 48h249l-2 -48h-250z" />
<glyph unicode="." horiz-adv-x="229" d="M115 -13q-33 0 -56 23.5t-23 56.5q0 32 23 54.5t56 22.5q31 0 54.5 -23.5t23.5 -53.5q0 -33 -23 -56.5t-55 -23.5z" />
<glyph unicode="/" horiz-adv-x="258" d="M12 -226l212 877h24l-212 -877h-24z" />
<glyph unicode="0" horiz-adv-x="595" d="M290 -13q-113 0 -185.5 71.5t-72.5 182.5q0 110 80 184.5t193 74.5t185.5 -71.5t72.5 -182.5t-79 -185t-194 -74zM296 9q49 0 81 65t32 161q0 244 -111 244q-49 0 -80.5 -64t-31.5 -163q0 -129 28 -186t82 -57z" />
<glyph unicode="1" horiz-adv-x="370" d="M42 0l3 19l29 4q41 3 41 17v385l-90 9l3 17l240 47v-459q0 -13 46 -16l27 -4l3 -19h-302z" />
<glyph unicode="2" horiz-adv-x="500" d="M28 0l-7 57q140 100 171 128q62 60 63 121q0 45 -29 73.5t-73 28.5q-78 0 -118 -75l-12 6q27 77 87 118.5t136 41.5q70 0 114.5 -36.5t44.5 -93.5q0 -15 -3.5 -29.5t-12.5 -29t-17 -26t-26 -26.5t-31 -25.5t-38.5 -28t-42.5 -28.5t-50.5 -33t-53.5 -35v-4l209 -1 q45 0 66.5 20.5t48.5 80.5l12 22l19 -2l-44 -224h-413z" />
<glyph unicode="3" horiz-adv-x="459" d="M167 -201q-70 0 -114 26.5t-44 69.5q0 27 18 44.5t45 17.5q44 0 67 -40t20 -89q6 -4 16 -4q53 0 86 44t33 114q0 66 -36.5 107.5t-95.5 41.5q-39 0 -86 -22l-7 19q107 56 146 89.5t39 85.5q0 47 -30.5 76.5t-76.5 29.5q-79 0 -114 -75l-12 5q24 76 81.5 118t133.5 42 q73 0 117 -36t44 -91t-38.5 -91t-109.5 -69v-2q87 -5 137.5 -54.5t50.5 -123.5q0 -95 -78.5 -164t-191.5 -69z" />
<glyph unicode="4" horiz-adv-x="542" d="M276 -184v187h-259l-3 23l318 463h85v-400h119l-22 -86h-97v-187h-141zM85 90h191v273h-3z" />
<glyph unicode="5" horiz-adv-x="442" d="M141 -199q-153 0 -153 96q0 27 19 46t47 19q40 0 60 -37.5t8 -83.5q26 -14 54 -14q45 0 76 39t31 98q0 161 -252 180l86 338h296l-18 -125h-284l-23 -92q317 -24 317 -222q0 -97 -84 -169.5t-180 -72.5z" />
<glyph unicode="6" horiz-adv-x="560" d="M280 -14q-108 0 -179 73.5t-71 187.5q0 167 138 288.5t342 134.5l8 -17q-87 -12 -157.5 -62.5t-108 -111t-52.5 -124.5l2 -2q72 54 146 54q81 0 132 -51.5t51 -140.5q0 -94 -72.5 -161.5t-178.5 -67.5zM292 10q83 0 83 173q0 167 -112 167q-34 0 -59 -23q-9 -31 -9 -89 q0 -106 24.5 -167t72.5 -61z" />
<glyph unicode="7" horiz-adv-x="490" d="M77 -184l327 549l1 2h-171q-72 0 -108.5 -7t-50.5 -21t-21 -44l-10 -24h-20l26 213h425l2 -19l-279 -649h-121z" />
<glyph unicode="8" horiz-adv-x="533" d="M269 -15q-105 0 -171 45t-66 121q1 45 41 81t101 51v1q-135 58 -134 163q0 81 59 137t161 56q103 0 167 -41t63 -110q0 -46 -39.5 -79t-101.5 -49v-1q153 -60 152 -174q0 -84 -64.5 -142.5t-167.5 -58.5zM323 370q34 26 34 102q1 63 -27.5 105.5t-73.5 42.5 q-42 0 -67 -29.5t-25 -72.5q0 -49 37.5 -82t121.5 -66zM276 9q43 0 72.5 30t29.5 72q1 52 -43.5 89.5t-133.5 72.5q-32 -26 -34 -109q0 -61 30.5 -108t78.5 -47z" />
<glyph unicode="9" horiz-adv-x="560" d="M48 -187l-8 18q66 9 123 40t95.5 74t63.5 90t36 94l-4 2q-69 -54 -144 -54q-81 0 -132.5 51t-51.5 142q0 96 74.5 162t178.5 66q111 0 180 -74t69 -188q0 -165 -138.5 -287t-341.5 -136zM295 135q32 0 59 21q8 29 8 91q0 42 -5 80t-15 72t-29.5 54t-45.5 20 q-37 0 -60.5 -43t-23.5 -127q0 -82 29.5 -125t82.5 -43z" />
<glyph unicode=":" horiz-adv-x="227" d="M115 280q-33 0 -56 23t-23 56q0 32 23 54.5t56 22.5q32 0 55 -23t23 -54q0 -32 -23.5 -55.5t-54.5 -23.5zM115 -12q-33 0 -56 23t-23 55t23 54.5t56 22.5q32 0 55 -23t23 -54q0 -32 -23.5 -55t-54.5 -23z" />
<glyph unicode=";" horiz-adv-x="223" d="M109 280q-32 0 -54.5 23t-22.5 56q0 31 23 54t54 23q33 0 56 -23t23 -54q0 -33 -23 -56t-56 -23zM43 -151l-12 13q92 51 92 124q0 43 -36 61.5t-65 9.5q-10 30 14.5 63t66.5 33q46 0 74.5 -31.5t28.5 -73.5q0 -57 -42.5 -111t-120.5 -88z" />
<glyph unicode="&#x3c;" horiz-adv-x="438" d="M411 32l-400 194v18l400 194l10 -24l-370 -177l1 -1q66 -32 191.5 -93.5t177.5 -86.5z" />
<glyph unicode="=" d="M27 309l-3 26h400l-3 -26h-394zM24 136l3 26h394l3 -26h-400z" />
<glyph unicode="&#x3e;" horiz-adv-x="438" d="M427 226l-400 -194l-10 24l369 179v1q-60 29 -185 89t-184 89l10 24l400 -194v-18z" />
<glyph unicode="?" horiz-adv-x="367" d="M169 182q-39 24 -64.5 57t-25.5 62q0 65 129 98q51 14 72 25.5t21 26.5q0 27 -43.5 45.5t-105.5 18.5q-27 0 -90 -11q-34 20 -36 58q-2 35 19.5 56t67.5 21q89 0 154 -68.5t65 -157.5q0 -56 -19.5 -82t-65.5 -42q-78 -27 -89 -38q-6 -7 -6 -14q0 -20 35 -51zM174 -13 q-30 0 -52.5 22.5t-22.5 53.5q0 30 22.5 52t52.5 22q31 0 53.5 -22t22.5 -52q0 -31 -22.5 -53.5t-53.5 -22.5z" />
<glyph unicode="@" horiz-adv-x="809" d="M406 -121q-164 0 -270.5 101.5t-106.5 258.5q0 170 117.5 291.5t284.5 121.5q152 0 250.5 -89.5t98.5 -232.5q0 -113 -70.5 -197.5t-168.5 -84.5q-49 0 -82.5 24.5t-33.5 63.5q0 22 28 100h-4q-59 -99 -96 -140t-84 -41q-44 0 -74.5 29.5t-31.5 76.5q0 57 33 121.5 t90 119.5q70 73 140 73q35 0 52.5 -29t13.5 -73h4l45 117l120 -3l-67 -173l-47 -134q-10 -31 6.5 -52t58.5 -21q53 0 100 64.5t47 156.5q0 136 -92.5 220.5t-237.5 84.5q-156 0 -267 -116t-111 -276q0 -151 99.5 -247t257.5 -96q83 0 155 39.5t110 100.5l10 -15 q-41 -63 -115.5 -103.5t-161.5 -40.5zM324 132q50 0 121 130q29 58 29 78q-5 31 -28 59.5t-42 28.5q-12 0 -27 -15q-28 -27 -59 -101t-31 -126q0 -24 10.5 -39t26.5 -15z" />
<glyph unicode="A" horiz-adv-x="680" d="M349 242h-173l-23 -66q-33 -99 -31 -120q3 -24 38 -31q9 -2 24 -4l21 -3l3 -18h-225l3 18l18 3q47 7 66 33.5t63 142.5l117 322l-9 37q32 8 66.5 33t47.5 54h24l183 -513q23 -62 42.5 -83.5t49.5 -24.5l26 -4l2 -18h-340l3 18l23 3q35 3 39.5 21.5t-13.5 67.5zM185 266 h156l-75 219h-4z" />
<glyph unicode="B" horiz-adv-x="639" d="M16 0l3 17l36 4q43 7 43 18v549q0 6 -9 8.5t-43 6.5l-26 3l-3 19h290q148 0 213.5 -33.5t65.5 -109.5q0 -55 -48 -89.5t-129 -47.5v-3q93 -9 148.5 -51t55.5 -112q0 -179 -291 -179h-306zM306 19l6 2q56 5 93.5 47t37.5 106q0 69 -46.5 109t-114.5 40q-18 0 -20 -1v-289z M262 342h15q62 -2 103 31.5t41 99.5q0 62 -39.5 95.5t-102.5 33.5l-17 -1v-259z" />
<glyph unicode="C" horiz-adv-x="702" d="M396 -12q-167 0 -266 88.5t-99 227.5q0 143 100 238.5t274 95.5q92 0 154 -32l79 19l7 -217h-32l-93 181q-44 24 -109 24q-96 0 -149.5 -82.5t-53.5 -218.5q0 -138 54 -219t141 -81q122 0 181 109l44 102h34l-28 -201l-47 1q-33 -13 -88 -24t-103 -11z" />
<glyph unicode="D" horiz-adv-x="721" d="M16 0l3 17l36 4q43 7 43 18v549q0 6 -9.5 9t-42.5 7l-26 4l-3 17h55.5t106.5 0.5t118 0.5t42 0q169 0 261 -81t92 -228q0 -130 -103.5 -223.5t-253.5 -93.5h-319zM330 20q85 1 134 80t49 198q0 304 -206 304h-45v-567z" />
<glyph unicode="E" horiz-adv-x="645" d="M16 0l3 17l36 4q43 7 43 18v549q0 6 -9.5 9t-42.5 7l-26 4l-3 17h557l4 -217h-32l-8 28q-25 99 -78 133.5t-144 32.5l-54 -2v-271h35q95 6 119 83l12 35h25l-29 -266l-24 1l-4 34q-6 46 -28 66t-80 23l-26 2v-282l72 -3q178 1 234 168l8 23h32l-20 -213h-572z" />
<glyph unicode="F" horiz-adv-x="602" d="M16 0l3 17l36 4q43 7 43 18v549q0 6 -9.5 9t-42.5 7l-26 4l-3 17h551l3 -201h-32l-9 28q-33 90 -81.5 120t-136.5 30l-50 -3v-277l34 1q95 3 119 80l13 37h24l-29 -266h-24l-4 33q-5 48 -27.5 70t-80.5 21h-25v-261q0 -12 49 -16l41 -4l3 -17h-339z" />
<glyph unicode="G" horiz-adv-x="737" d="M389 -17q-168 0 -263 92.5t-95 229.5q0 145 98.5 239t273.5 94q100 0 162 -32l80 19l2 -215h-34l-91 177q-40 27 -118 27q-93 0 -144 -83t-51 -218q0 -151 55 -228.5t132 -77.5q25 0 51 8t36 15v210q0 12 -64 16l-30 3l-3 18h333l-3 -18l-43 -4q-34 -2 -34 -14v-177 l66 10l2 -12q-58 -34 -148.5 -56.5t-169.5 -22.5z" />
<glyph unicode="H" horiz-adv-x="765" d="M16 0l3 17l36 4q43 7 43 18v549q0 6 -9.5 9t-42.5 7l-26 4l-3 17h325l-3 -17l-35 -4q-43 -7 -43 -18v-256h243v258q0 6 -9 9t-42 7l-25 4l-3 17h324l-3 -17l-36 -4q-42 -7 -42 -18v-549q0 -6 9 -9t42 -7l27 -4l3 -17h-325l3 17l35 4q42 5 42 18v267h-243v-269q0 -6 9 -9 t42 -7l26 -4l3 -17h-325z" />
<glyph unicode="I" horiz-adv-x="385" d="M26 0l3 17l39 4q43 4 43 18v549q0 6 -9.5 9t-42.5 7l-31 4l-3 17h334l-3 -17l-39 -4q-43 -4 -43 -18v-549q0 -6 9.5 -9t41.5 -7l31 -4l3 -17h-333z" />
<glyph unicode="J" horiz-adv-x="384" d="M5 -177q-53 0 -86 24t-33 62q0 30 21.5 51t53.5 21q48 0 68.5 -43.5t-6.5 -89.5q87 9 87 213v527q0 6 -9.5 9.5t-40.5 6.5l-33 4l-3 17h332l-3 -17l-35 -4q-43 -7 -43 -18v-486q0 -92 -87.5 -184.5t-182.5 -92.5z" />
<glyph unicode="K" horiz-adv-x="720" d="M16 0l3 17l36 4q43 7 43 18v549q0 6 -9.5 9t-42.5 7l-26 4l-3 17h327l-3 -17l-37 -4q-43 -4 -43 -18v-290l149 157q95 98 77 128q-10 16 -56 22l-23 5l-3 17h285l-3 -17l-36 -6q-46 -6 -80.5 -32.5t-117.5 -110.5l-28 -27l192 -321q31 -55 50 -71.5t50 -19.5l13 -3l3 -17 h-324l3 17l10 4q19 2 26.5 6.5t7.5 17t-9 32t-29 55.5l-105 186l-52 -52v-229q0 -6 9.5 -9t42.5 -7l27 -4l3 -17h-327z" />
<glyph unicode="L" horiz-adv-x="592" d="M16 0l3 17l36 5q43 5 43 18v547q0 6 -9.5 9.5t-42.5 7.5l-26 4l-3 17h332l-3 -17l-42 -5q-43 -3 -43 -18v-559l35 -5q77 0 128.5 40.5t100.5 147.5l11 24h31l-28 -233h-523z" />
<glyph unicode="M" horiz-adv-x="885" d="M11 0l3 17l27 3q40 3 53 21t15 71l13 448q-26 37 -69 43l-35 4l-3 18h280l141 -411h4l143 411h281l-3 -18l-52 -4q-40 -3 -40 -22l11 -495q1 -40 9.5 -50.5t39.5 -13.5l35 -5l3 -17h-343l3 17l48 5q21 2 28.5 15.5t6.5 50.5l-13 485h-4l-204 -567h-46l-193 545h-4 l-10 -448q-2 -48 11.5 -64t58.5 -19l29 -3l3 -17h-227z" />
<glyph unicode="N" horiz-adv-x="720" d="M565 -6l-420 504h-3v-392q0 -49 16 -65.5t62 -19.5l31 -4l3 -17h-235l3 17l28 4q39 3 51.5 22.5t12.5 71.5l3 415q-41 61 -96 70l-19 8l-3 17h266l321 -392h4l-1 284q0 49 -16 66.5t-61 20.5l-30 4l-3 17h233l-3 -17l-28 -4q-38 -3 -51 -23.5t-13 -72.5l-3 -514h-49z" />
<glyph unicode="O" horiz-adv-x="756" d="M373 -13q-153 0 -247.5 89t-94.5 235q0 137 105 232t248 95q153 0 247.5 -90t94.5 -236q0 -138 -104 -231.5t-249 -93.5zM383 12q84 0 124 70t40 227q0 151 -44 227t-127 76q-86 0 -127 -70.5t-41 -226.5q0 -303 175 -303z" />
<glyph unicode="P" horiz-adv-x="624" d="M16 0l3 17l36 4q43 7 43 18v549q0 6 -9.5 9t-42.5 7l-26 4l-3 17h296q287 0 287 -160q0 -86 -80.5 -133.5t-214.5 -47.5q-25 0 -43 3v-250q0 -12 49 -16l37 -4l3 -17h-335zM300 305q54 0 89 41t35 105q0 150 -128 153l-34 -2v-292q3 0 16.5 -2.5t21.5 -2.5z" />
<glyph unicode="Q" horiz-adv-x="754" d="M585 -182q-99 0 -158.5 38.5t-110.5 134.5q-131 17 -208 106t-77 214q0 135 105 230t248 95q157 0 249.5 -92t92.5 -232q0 -99 -61.5 -178.5t-159.5 -116.5q45 -101 101.5 -135.5t164.5 -19.5l4 -17q-94 -27 -190 -27zM383 10q83 0 123.5 71.5t40.5 227.5 q0 150 -44 226.5t-127 76.5q-86 0 -127 -71.5t-41 -228.5q0 -302 175 -302z" />
<glyph unicode="R" horiz-adv-x="701" d="M16 0l3 17l36 4q43 6 43 18v549q0 6 -9.5 9t-42.5 7l-26 4l-3 17l328 1q264 0 264 -154q0 -58 -39.5 -100t-110.5 -58l124 -203q32 -54 48.5 -70.5t47.5 -20.5l14 -3l4 -17h-239l-20 40l-135 260q-3 1 -12.5 2t-17 2.5t-11.5 3.5v-271q0 -13 49 -16l31 -4l3 -17h-329z M291 326q69 2 106.5 38t37.5 102q0 64 -38.5 100.5t-103.5 37.5h-31v-275q2 0 13.5 -1.5t15.5 -1.5z" />
<glyph unicode="S" horiz-adv-x="548" d="M261 -13q-119 0 -206 33l-15 183h31l51 -116q60 -74 145 -74q61 0 92.5 28.5t31.5 78.5q0 24 -9.5 43.5t-21.5 32t-37 25.5t-41.5 19.5t-50.5 18.5q-89 31 -134.5 69t-45.5 111q0 87 64.5 143t163.5 56q59 0 145 -24l47 15l3 -195h-28l-88 162q-36 17 -83 17 q-49 0 -79.5 -25.5t-30.5 -63.5q0 -24 10 -42t35 -32.5t43.5 -22t58.5 -21.5q45 -15 76 -29.5t59.5 -38t42.5 -57t14 -77.5q0 -91 -68.5 -154t-174.5 -63z" />
<glyph unicode="T" horiz-adv-x="681" d="M174 0l3 17l40 4q43 4 43 18v565h-18q-60 -3 -106 -47.5t-68 -102.5l-10 -31h-33l21 202h598l8 -200h-29l-11 31q-21 56 -67.5 102t-100.5 46h-20v-567q0 -6 9 -9t42 -7l31 -4l3 -17h-335z" />
<glyph unicode="U" horiz-adv-x="708" d="M364 -20q-270 0 -270 203v406q0 12 -50 15l-28 4l-3 17h326l-3 -17l-36 -4q-42 -4 -42 -17v-365q0 -86 40.5 -131t118.5 -45q87 0 128 46t41 148l-1 277q0 49 -16 66.5t-61 20.5l-31 4l-3 17h234l-3 -17l-27 -4q-38 -3 -51.5 -23t-13.5 -73l-1 -276q-2 -252 -248 -252z " />
<glyph unicode="V" horiz-adv-x="680" d="M316 -3l-209 506q-27 63 -42.5 80.5t-44.5 19.5l-26 4l-1 18h330l-1 -18l-28 -2q-41 -2 -44.5 -19t20.5 -70l141 -335h6l101 268q14 37 20 55t10.5 38.5t3 28.5t-8.5 16.5t-19 11.5t-33 5l-23 3l-3 18h227l-3 -18l-19 -3q-47 -7 -67 -33.5t-64 -142.5l-169 -431h-54z" />
<glyph unicode="W" horiz-adv-x="998" d="M295 -11l-199 514q-24 60 -39.5 78.5t-43.5 21.5l-22 4l-3 18h334l-3 -18l-33 -2q-34 -2 -40 -17t7 -47l137 -366h5l102 282l-15 47q-20 54 -36.5 75.5t-41.5 23.5l-29 4l-3 18h343l-3 -18l-30 -2q-35 -2 -43 -16t6 -55l115 -351h5l84 247q14 40 19.5 58t11 41.5t3 32.5 t-9.5 20t-21 15t-37 7l-23 3l-4 18h234l-2 -18l-18 -4q-51 -8 -68 -33.5t-58 -139.5l-159 -441h-52l-151 432h-4l-161 -432h-54z" />
<glyph unicode="X" horiz-adv-x="665" d="M-3 0l3 17l39 6q34 5 61 34t93 120l76 97l-139 219q-4 7 -12 19q-33 53 -48.5 70t-36.5 19l-34 7l-3 17h342l-3 -17l-25 -3q-60 -6 -19 -73l80 -133h2l41 57q67 95 68 118.5t-60 29.5l-23 4l-3 17h241l-3 -17l-32 -6q-38 -6 -68.5 -36t-101.5 -127l-45 -58l160 -257 q38 -61 54.5 -80.5t37.5 -21.5l24 -5l3 -17h-331l2 17l25 3q63 6 22 70l-101 167h-2l-55 -79q-34 -48 -49.5 -76.5t-15 -46t13.5 -24.5t42 -10l23 -4l3 -17h-246z" />
<glyph unicode="Y" horiz-adv-x="651" d="M158 0l3 17l40 4q42 4 42 18v239l-133 235q-32 54 -46 69.5t-43 20.5l-17 4l-3 18h331l-3 -18l-17 -3q-40 -5 -49 -19t8 -45l118 -216h5l64 118q39 71 48.5 101.5t-3.5 43t-58 16.5l-24 4l-3 18h240l-3 -18l-27 -5q-40 -6 -64 -33t-83 -137l-73 -131v-264q0 -6 9 -9 t41 -7l30 -4l3 -17h-333z" />
<glyph unicode="Z" horiz-adv-x="628" d="M31 0v20l363 577v3l-84 1q-76 0 -128 -37.5t-81 -125.5l-9 -29h-32l6 216h519v-20l-376 -576v-3l88 -3q99 -5 155.5 39t105.5 161l11 26h32l-30 -249h-540z" />
<glyph unicode="[" horiz-adv-x="325" d="M64 -232v872h250v-22h-224v-827h224v-23h-250z" />
<glyph unicode="\" horiz-adv-x="246" d="M209 -226l-212 877h24l212 -877h-24z" />
<glyph unicode="]" horiz-adv-x="325" d="M11 -232v23h224v827h-224v22h250v-872h-250z" />
<glyph unicode="^" horiz-adv-x="379" d="M39 492l139 200h23l139 -200h-18l-131 88h-2l-132 -88h-18z" />
<glyph unicode="_" horiz-adv-x="453" d="M11 -36l3 36h426l3 -36h-432z" />
<glyph unicode="`" horiz-adv-x="421" d="M261 499l-226 184h144l106 -184h-24z" />
<glyph unicode="a" horiz-adv-x="499" d="M373 -13q-37 0 -62 24.5t-30 70.5l-3 1q-41 -48 -73.5 -71.5t-71.5 -23.5q-45 0 -77 29.5t-32 72.5q0 58 58.5 97.5t198.5 77.5l1 28q2 53 -25 87t-76 34q-53 0 -53 -20q0 -1 16 -23t16 -39q0 -24 -19 -41.5t-48 -17.5q-28 0 -47 14.5t-19 39.5q0 52 78.5 89.5 t160.5 37.5q87 0 125.5 -39t35.5 -124l-8 -176q-3 -54 35 -54q16 0 43 31l10 -11q-74 -94 -134 -94zM220 73q29 0 56 31l6 141q-66 -18 -93 -43.5t-27 -63.5q0 -30 15.5 -47.5t42.5 -17.5z" />
<glyph unicode="b" horiz-adv-x="560" d="M53 -22v556q0 37 -6.5 49t-29.5 19l-26 10l1 13l205 55v-316l5 -2q66 88 152 88q76 0 129 -62t53 -154q0 -113 -76.5 -180.5t-177.5 -67.5q-60 0 -141 30h-1l-78 -38h-9zM296 7q38 0 60.5 52.5t22.5 134.5q0 78 -30 126.5t-80 48.5q-34 0 -72 -28v-252q54 -82 99 -82z " />
<glyph unicode="c" horiz-adv-x="465" d="M240 -16q-93 0 -154.5 62t-61.5 159q0 108 71 178.5t181 70.5q74 0 121 -29.5t47 -75.5q0 -31 -19.5 -50.5t-49.5 -19.5q-33 0 -53 24.5t-17 57.5q0 12 10.5 28.5t10.5 17.5q-1 9 -14 15.5t-30 6.5q-46 0 -73.5 -45.5t-27.5 -129.5q0 -88 35.5 -136.5t101.5 -48.5 q80 0 122 77l11 -6q-27 -76 -81 -116t-130 -40z" />
<glyph unicode="d" horiz-adv-x="570" d="M361 -15v89l-2 2q-29 -39 -70.5 -64.5t-83.5 -25.5q-77 0 -129 63t-52 155q0 113 76 179.5t179 66.5q48 0 81 -12q1 -2 1 0v106q0 37 -6.5 50t-27.5 18l-38 11l2 12l215 42v-570q0 -37 6.5 -49.5t28.5 -18.5l28 -7l-2 -13zM288 66q34 0 73 33v248q-22 36 -48 58.5 t-46 22.5q-40 0 -63 -51.5t-23 -134.5q0 -78 29.5 -127t77.5 -49z" />
<glyph unicode="e" horiz-adv-x="478" d="M240 -16q-92 0 -154 63.5t-62 161.5q0 105 71.5 176t176.5 71q84 0 131.5 -44.5t47.5 -105.5q0 -16 -3 -30q-231 3 -270 5q-1 -9 -1 -34q1 -80 39.5 -129t103.5 -49q81 0 123 77l12 -6q-55 -156 -215 -156zM178 299l139 1q1 56 -13 93.5t-46 37.5q-30 0 -52.5 -35 t-27.5 -97z" />
<glyph unicode="f" horiz-adv-x="357" d="M21 0l3 17l19 1q22 2 30.5 5t8.5 12v336l-79 3l21 62l58 -1l3 67q4 71 74 121t157 50q56 0 84 -19.5t28 -51.5q0 -26 -19.5 -44.5t-46.5 -18.5q-30 0 -47.5 21t-28.5 70l-2 7l-23 6q-19 -8 -26.5 -33.5t-7.5 -93.5v-80h131l-13 -62h-118v-340q0 -7 8.5 -11t37.5 -5l33 -1 l3 -17h-288z" />
<glyph unicode="g" horiz-adv-x="507" d="M132 -38q-44 5 -75.5 33.5t-31.5 64.5q0 38 32.5 67.5t80.5 43.5v1q-96 34 -96 127q0 62 56 108.5t142 46.5q74 0 124 -29l146 16l-8 -64l-100 15l-1 -3q35 -30 35 -78q0 -67 -56.5 -109.5t-146.5 -42.5q-37 0 -69 6q-19 -5 -31.5 -18t-12.5 -27q0 -35 76 -35 q15 0 68.5 1.5t73.5 1.5q67 0 109 -35.5t42 -94.5q0 -82 -80.5 -140.5t-201.5 -58.5q-194 0 -194 100q0 36 31 58.5t88 44.5zM259 -211q60 0 98 28.5t38 71.5q0 37 -24.5 52.5t-80.5 19.5q-23 3 -133 -2q-37 -17 -37 -75q0 -41 37.5 -68t101.5 -27zM239 179q32 0 46.5 28.5 t14.5 95.5q0 129 -61 129q-31 0 -44.5 -29t-13.5 -99q0 -125 58 -125z" />
<glyph unicode="h" horiz-adv-x="571" d="M11 0l3 17l14 1q23 2 31.5 5t8.5 12v498q0 36 -6.5 48t-27.5 19l-28 11l2 12l207 56v-312h1q106 87 173 87q47 0 83 -36q33 -34 33 -119v-264q0 -10 49 -17l11 -1l3 -17h-259l3 17l17 1q15 1 22.5 4t8.5 5.5t1 7.5v235q0 52 -20 72.5t-58 20.5q-36 0 -70 -20v-309 q0 -13 39 -16l16 -1l3 -17h-260z" />
<glyph unicode="i" horiz-adv-x="302" d="M146 505q-38 0 -62 25.5t-24 59.5t24 59t62 25q39 0 63 -25t24 -59t-24 -59.5t-63 -25.5zM22 0l3 17l14 1q23 2 31.5 5t8.5 12v262q0 45 -7.5 58.5t-34.5 21.5l-20 5l1 13l206 58v-419q0 -7 8 -9.5t40 -6.5l9 -1l3 -17h-262z" />
<glyph unicode="j" horiz-adv-x="290" d="M143 505q-38 0 -62.5 25.5t-24.5 59.5t24.5 59t62.5 25t62 -25t24 -59t-24 -59.5t-62 -25.5zM-12 -257q-43 0 -68.5 20t-25.5 53q0 26 19 44.5t46 18.5q42 0 58 -36.5t-8 -68.5q37 -1 51.5 49t14.5 143v331q0 45 -7.5 58.5t-34.5 21.5l-21 5l1 13l207 58v-469 q-2 -73 -78.5 -157t-153.5 -84z" />
<glyph unicode="k" horiz-adv-x="556" d="M14 0l3 17l13 1q24 3 31 6t7 11v498q0 36 -6.5 48t-27.5 19l-28 11l2 12l206 56v-461l45 38q59 54 82 82t23 46q0 17 -12.5 25.5t-49.5 11.5l-11 1l-3 18h252l-3 -18l-18 -3q-40 -7 -73.5 -26.5t-89.5 -73.5l-5 -7l125 -230q20 -36 32 -48t34 -15l13 -2l3 -17h-206 l-19 40l-89 178l-30 -26v-158q0 -7 8 -10t36 -6l16 -1l1 -17h-261z" />
<glyph unicode="l" horiz-adv-x="293" d="M20 0l4 17l14 1q22 1 28.5 4.5t6.5 12.5v498q0 36 -6.5 48t-28.5 19l-26 11l2 12l205 56v-645q0 -12 41 -16l12 -1l3 -17h-255z" />
<glyph unicode="m" horiz-adv-x="861" d="M20 0l3 17l14 1q23 2 31.5 5t8.5 12v262q0 45 -7.5 58.5t-34.5 21.5l-20 5l1 13l208 58l-2 -87h2q96 88 169 88q47 0 82 -35q21 -22 28 -54l5 -1q94 90 173 90q46 0 82 -36q34 -34 34 -146v-237q0 -4 2 -6.5t13 -5t33 -5.5l11 -1l3 -17h-259l3 17l17 1q15 1 22.5 4 t8.5 5.5t1 7.5v233q0 53 -20 74t-60 21q-49 0 -62 -26v-304q0 -6 7 -8.5t34 -6.5l13 -1l3 -17h-255l3 17l17 1q33 2 33 17v233q0 53 -20.5 74t-60.5 21q-28 0 -62 -18v-311q0 -7 7 -10.5t33 -5.5l14 -1l3 -17h-259z" />
<glyph unicode="n" horiz-adv-x="579" d="M20 0l3 17l14 1q23 2 31.5 5t8.5 12v262q0 45 -7.5 58.5t-34.5 21.5l-20 5l1 13l208 58l-2 -86h2q106 87 174 87q46 0 82 -36q34 -34 34 -119v-264q0 -10 49 -17l11 -1l3 -17h-260l3 17l16 1q23 1 28.5 5t5.5 12v233q0 54 -20 74.5t-59 20.5q-37 0 -69 -20v-309 q0 -13 39 -16l16 -1l2 -17h-259z" />
<glyph unicode="o" horiz-adv-x="548" d="M268 -14q-112 0 -178 67t-66 166t72 167t184 68t178 -66.5t66 -164.5q0 -101 -71.5 -169t-184.5 -68zM272 7q45 0 69.5 55.5t24.5 148.5q0 157 -46 203q-17 17 -45 17q-46 0 -70.5 -53.5t-24.5 -147.5q0 -158 45 -206q17 -17 47 -17z" />
<glyph unicode="p" horiz-adv-x="571" d="M1 -251l3 17l21 2q23 2 31 4.5t8 11.5v513q0 45 -7.5 58.5t-33.5 21.5l-21 5l1 13l207 58l-2 -89l4 -2q69 88 153 88q76 0 128.5 -62t52.5 -154q0 -113 -75 -180.5t-174 -67.5q-53 0 -85 14h-3v-218q0 -13 47 -14l34 -2l3 -17h-292zM307 7q38 0 60.5 52.5t22.5 134.5 q0 77 -30 125t-80 48q-36 0 -71 -26v-253q24 -37 50.5 -59t47.5 -22z" />
<glyph unicode="q" horiz-adv-x="564" d="M277 -251l3 17l36 2q45 1 45 14v292l-2 2q-29 -39 -70.5 -64.5t-83.5 -25.5q-77 0 -129 63t-52 155q0 115 75.5 181t179.5 66q66 0 138 -31h1l81 37h7v-674q0 -12 41 -15l19 -2l2 -17h-291zM288 66q34 0 73 33v249q-22 36 -48 58t-46 22q-40 0 -63 -51.5t-23 -133.5 q0 -77 29.5 -127t77.5 -50z" />
<glyph unicode="r" horiz-adv-x="441" d="M21 0l3 17l13 1q23 2 31.5 5t8.5 12v262q0 45 -7.5 58.5t-34.5 21.5l-20 5l1 13l208 58l-2 -148h3q51 149 135 149q36 0 58 -21t22 -59q0 -26 -19.5 -48t-47.5 -22q-56 0 -77 62q-43 -11 -74 -113v-218q0 -13 50 -17l18 -1l3 -17h-272z" />
<glyph unicode="s" horiz-adv-x="414" d="M192 -14q-96 0 -162 27l-3 128l28 -2l27 -56q28 -41 52 -58.5t61 -17.5t58 19t21 52q0 11 -3 20.5t-13 18.5t-15.5 13.5t-23.5 12.5t-23.5 10.5t-28.5 11.5q-69 26 -103.5 56t-34.5 86q0 67 49.5 106.5t130.5 39.5q56 0 104 -16l49 9l5 -142l-26 -1l-76 112 q-28 16 -57 16q-32 0 -51 -17.5t-19 -48.5q0 -16 7 -28.5t25 -23t31 -16.5t43 -17q36 -14 53.5 -23t42.5 -26.5t36 -41t11 -54.5q0 -63 -50 -106t-145 -43z" />
<glyph unicode="t" horiz-adv-x="380" d="M211 -12q-136 0 -133 147l4 236l-81 3l26 50l89 67l82 63l22 -1l-1 -117h153l-13 -62h-141l-3 -210q-1 -57 18 -80.5t60 -23.5q46 0 81 27l4 -13q-79 -86 -167 -86z" />
<glyph unicode="u" horiz-adv-x="561" d="M353 -16l2 90h-3q-101 -88 -174 -88q-40 0 -79 37q-36 38 -33 120l2 264q0 9 -50 14l-15 1l-3 17h214l-3 -268q-1 -52 19 -73t60 -21q28 0 64 20v308q0 8 -9 11t-39 5l-15 1l-4 17h211v-318q0 -36 6.5 -49t28.5 -19l28 -7l-2 -12z" />
<glyph unicode="v" horiz-adv-x="499" d="M219 -10l-159 382q-11 25 -21 34.5t-31 12.5l-17 4l-3 17h283l-2 -17l-22 -5q-26 -3 -33 -12t0 -30l94 -241l65 172q23 63 16.5 83.5t-43.5 26.5l-23 6l-3 17h185l-3 -17l-19 -4q-30 -5 -43 -23.5t-41 -89.5l-122 -316h-58z" />
<glyph unicode="w" horiz-adv-x="770" d="M210 -10l-151 380q-12 28 -21 37t-30 11l-17 4l-2 17h268l-2 -17l-23 -4q-35 -4 -20 -43l88 -243l72 199l-14 40q-16 41 -50 47l-19 4l-2 17h272l-2 -17l-22 -4q-24 -4 -27.5 -13t4.5 -30l81 -235l54 164q21 59 14.5 82t-46.5 30l-20 6l-3 17h184l-3 -17l-21 -5 q-29 -4 -41 -22t-37 -89l-110 -316h-60l-119 309l-116 -309h-59z" />
<glyph unicode="x" horiz-adv-x="511" d="M-1 0l3 17l20 5q34 7 54 24.5t69 78.5l55 65l-106 164q-40 60 -75 64l-17 4l-3 17h286l-3 -17l-15 -2q-41 -6 -12 -50l55 -90h2l31 39q32 42 40.5 61.5t-1 28t-42.5 11.5l-11 2l-3 17h188l-3 -17l-22 -6q-33 -7 -54 -25t-68 -76l-43 -52l115 -178q35 -56 69 -64l16 -4 l4 -17h-280l2 17l15 2q43 4 13 49l-64 105h-2l-42 -53q-47 -60 -45.5 -78t49.5 -23l10 -2l2 -17h-187z" />
<glyph unicode="y" horiz-adv-x="499" d="M107 -258q-31 0 -54.5 18.5t-23.5 51.5q0 26 18 45.5t47 19.5q30 0 49 -18.5t22 -43.5q18 4 29.5 20.5t25.5 55.5l32 87h-17l-175 393q-12 26 -22 34.5t-32 12.5l-17 4l-3 17h281l-3 -17l-22 -4q-26 -4 -32 -13t4 -29l98 -236l61 169q22 62 16 81t-47 26l-21 6l-3 17h185 l-3 -17l-22 -4q-28 -3 -40.5 -21t-39.5 -90l-110 -293l-49 -141q-44 -131 -132 -131z" />
<glyph unicode="z" horiz-adv-x="475" d="M21 0v15l251 402l-42 -2q-59 -3 -91.5 -24.5t-51.5 -66.5l-28 -63h-23v178h405v-15l-260 -401l48 1q128 5 181 115l22 43h23l-33 -182h-401z" />
<glyph unicode="{" horiz-adv-x="346" d="M331 -250q-106 8 -174 58t-68 115q0 34 29.5 103t29.5 87q0 37 -26.5 54t-98.5 24l-5 14l5 15q71 8 98 24.5t27 53.5q0 18 -29.5 87t-29.5 103q0 65 68 115t174 58l2 -16q-58 -7 -90.5 -32t-32.5 -57q0 -28 29.5 -101.5t29.5 -108.5q0 -61 -47 -94.5t-163 -43.5v-5 q116 -11 163 -44t47 -94q0 -35 -29.5 -109t-29.5 -102q0 -32 32.5 -56.5t90.5 -31.5z" />
<glyph unicode="|" horiz-adv-x="190" d="M84 -207v877h22v-877h-22z" />
<glyph unicode="}" horiz-adv-x="346" d="M16 -250l-3 16q59 7 91.5 31.5t32.5 56.5q0 28 -29.5 102t-29.5 109q0 61 46.5 94t162.5 44v5q-115 10 -162 43.5t-47 94.5q0 35 29.5 108.5t29.5 101.5q0 32 -33 57t-91 32l3 16q106 -8 174 -58t68 -115q0 -34 -30 -103t-30 -87q0 -37 27.5 -53.5t98.5 -24.5l4 -15 l-4 -14q-72 -7 -99 -24t-27 -54q0 -18 30 -87t30 -103q0 -65 -68 -115t-174 -58z" />
<glyph unicode="~" horiz-adv-x="407" d="M282 153q-33 0 -101 32.5t-88 32.5q-15 0 -25 -11.5t-14 -44.5h-22q6 81 26.5 112t66.5 31q33 0 100 -32.5t87 -32.5q16 0 26.5 11t15.5 44h20q-5 -81 -25.5 -111.5t-66.5 -30.5z" />
<glyph unicode="&#xa1;" horiz-adv-x="293" d="M147 488q-31 0 -53 22.5t-22 52.5q0 31 22 53t53 22t53.5 -22t22.5 -53t-22.5 -53t-53.5 -22zM146 -13q-49 0 -66.5 21t-11.5 54l71 356q2 7 8 7t8 -7l70 -356q6 -34 -11.5 -54.5t-65.5 -20.5h-2z" />
<glyph unicode="&#xa2;" horiz-adv-x="459" d="M168 -159l37 146q-80 12 -130.5 73t-50.5 148q0 107 71.5 177.5t180.5 70.5q10 0 50 -5l42 162h24l-45 -166q44 -11 70.5 -37.5t26.5 -60.5q0 -29 -19 -49t-47 -20q-45 0 -62 43l-62 -236q29 -18 65 -18q80 0 122 76l13 -4q-27 -73 -82.5 -115t-130.5 -42q-8 0 -13 1 l-37 -144h-23zM234 100l84 318q-20 12 -36 12q-46 0 -73.5 -46t-27.5 -130q0 -107 53 -154z" />
<glyph unicode="&#xa3;" horiz-adv-x="583" d="M187 290h-119l3 23h105q-33 78 -33 113q0 94 75.5 149t187.5 55q144 0 144 -101q0 -28 -20.5 -49t-50.5 -21q-49 0 -66.5 46.5t11.5 87.5q-13 16 -45 16q-38 0 -60 -30t-22 -93q0 -17 9 -76t11 -97h129l3 -23h-131v-10q0 -63 -36 -140q113 -41 164 -41q48 0 71 24t33 89 l15 -3q2 -91 -44 -158t-121 -67q-82 0 -180 65q-62 -65 -133 -65q-38 0 -62.5 23t-24.5 60q0 48 38.5 78t98.5 30q38 0 94 -17q-1 36 -44 132zM198 63q-29 20 -42 27.5t-34 16.5t-37 9q-63 0 -63 -54q0 -26 18.5 -42t47.5 -16q62 0 110 59z" />
<glyph unicode="&#xa4;" d="M78 197l-16 16l57 57q-33 38 -33 89t33 89l-57 57l16 16l57 -57q40 33 89 33t89 -33l57 57l16 -16l-57 -57q33 -40 33 -89t-33 -89l57 -57l-16 -16l-57 57q-38 -33 -89 -33t-89 33zM110 359q0 -47 33.5 -80.5t80.5 -33.5t80.5 33.5t33.5 80.5t-33.5 80.5t-80.5 33.5 t-80.5 -33.5t-33.5 -80.5z" />
<glyph unicode="&#xa5;" horiz-adv-x="635" d="M151 0l3 18l44 6q40 4 40 18v108h-183l3 22h181v107h-182l-1 23h171q1 0 -30.5 53.5t-62.5 106.5l-32 54q-30 50 -47.5 66.5t-48.5 19.5l-21 5l-4 18h347l-3 -18l-25 -3q-67 -3 -27 -78l113 -218h2l32 61q25 50 40 82.5t24.5 60t10 42.5t-7 26.5t-22 16.5t-39.5 8l-21 3 l-4 17h252l-3 -17l-19 -4q-35 -7 -67 -39t-69 -101q-86 -162 -87 -162h182l-1 -23h-186v-107h185l3 -22h-187v-110q0 -7 9 -10.5t38 -6.5l37 -5l3 -18h-340z" />
<glyph unicode="&#xa6;" horiz-adv-x="190" d="M84 292v335h22v-335h-22zM84 -154v335h22v-335h-22z" />
<glyph unicode="&#xa7;" horiz-adv-x="450" d="M205 -50q-67 0 -107 22.5t-40 63.5q0 25 17 43.5t42 18.5q44 0 63.5 -33t1.5 -83q28 -10 46 -10q28 0 49 19t21 43q0 14 -8 27t-17 21.5t-30 20t-33 16.5t-39 17q-38 16 -58 26.5t-48 29t-40.5 41.5t-12.5 52q0 70 91 123q-39 34 -39 84q0 64 56.5 105.5t121.5 41.5 q67 0 105.5 -22t38.5 -63q0 -26 -17 -44t-43 -18q-42 0 -59.5 33.5t-6.5 82.5q-26 10 -41 10q-28 0 -46.5 -18.5t-18.5 -42.5q0 -23 20 -43t42 -31t64 -28q40 -17 59 -26.5t47.5 -29t41 -42.5t12.5 -52q0 -70 -92 -122q40 -35 40 -84q0 -63 -59.5 -106t-123.5 -43zM336 192 q26 19 26 44q0 35 -31 57t-100 49q-91 40 -115 57q-26 -21 -26 -43q0 -19 8.5 -34.5t29.5 -29t38 -21.5t53 -23q84 -33 117 -56z" />
<glyph unicode="&#xa8;" horiz-adv-x="410" d="M312 509q-30 0 -48.5 20t-18.5 47q0 28 18.5 48.5t48.5 20.5q31 0 49.5 -20.5t18.5 -48.5q0 -27 -18.5 -47t-49.5 -20zM98 509q-30 0 -49.5 20t-19.5 47q0 28 19.5 48.5t49.5 20.5q31 0 49.5 -20.5t18.5 -48.5q0 -27 -18.5 -47t-49.5 -20z" />
<glyph unicode="&#xa9;" horiz-adv-x="733" d="M367 -28q-142 0 -241 99.5t-99 240.5q0 142 99 242t241 100q141 0 240.5 -100t99.5 -242q0 -141 -99.5 -240.5t-240.5 -99.5zM367 -9q132 0 225.5 94.5t93.5 226.5q0 133 -93.5 228t-225.5 95t-226 -95t-94 -228q0 -132 94 -226.5t226 -94.5zM381 114q-103 0 -161.5 57 t-58.5 139q0 84 61 141.5t162 57.5q57 0 92 -20l47 12l4 -131h-19l-56 104q-26 21 -67 21q-56 0 -88 -48.5t-32 -132.5q0 -82 33 -134t86 -52q70 0 106 68l27 61h20l-16 -120h-28q-55 -23 -112 -23z" />
<glyph unicode="&#xaa;" horiz-adv-x="385" d="M108 279q-34 0 -58 22t-24 54q0 44 45.5 74t153.5 56v30q1 40 -19.5 65t-58.5 25q-14 0 -24 -3.5t-13 -7t-3 -5.5t9 -18t9 -28q0 -20 -15 -33t-37 -13q-23 0 -38.5 11.5t-15.5 32.5q0 40 68 68t130 28q66 0 95 -30t26 -95l-6 -129q-1 -47 26 -47q19 0 37 16l3 -10 q-48 -63 -102 -63q-60 0 -73 69h-2q-58 -69 -113 -69zM174 342q23 0 47 22l4 105q-90 -22 -90 -77q0 -22 11.5 -36t27.5 -14z" />
<glyph unicode="&#xab;" horiz-adv-x="476" d="M458 31l-236 174v35l237 173l6 -8l-122 -184l121 -183zM240 41l-226 164v35l226 162l6 -7l-105 -174l105 -173z" />
<glyph unicode="&#xac;" d="M420 314v-184h-26v158h-382l3 26h405z" />
<glyph unicode="&#xad;" horiz-adv-x="297" d="M23 216l3 48h249l-2 -48h-250z" />
<glyph unicode="&#xae;" horiz-adv-x="733" d="M367 -27q-142 0 -241 99.5t-99 240.5q0 142 99 241.5t241 99.5q141 0 240.5 -99.5t99.5 -241.5q0 -141 -99.5 -240.5t-240.5 -99.5zM367 -8q133 0 226.5 94t93.5 227t-94 228t-226 95t-226 -95t-94 -228t93.5 -227t226.5 -94zM163 123l3 16l23 2q25 4 25 11v320 q0 8 -29 11l-19 4l-2 15h189q179 0 179 -96q0 -35 -25.5 -61.5t-68.5 -37.5l72 -114q17 -29 30 -38t37 -14l7 -2l3 -16h-152l-11 22l-84 157q-3 1 -14 4t-15 5v-161q0 -5 27 -8l21 -3l3 -16h-199zM352 319q36 0 57 22.5t21 62.5q0 41 -27 62.5t-68 19.5h-24v-158 q14 -6 41 -9z" />
<glyph unicode="&#xaf;" horiz-adv-x="378" d="M44 530l16 65h272l-11 -65h-277z" />
<glyph unicode="&#xb0;" horiz-adv-x="322" d="M161 366q-61 0 -99 40t-38 98t37.5 98.5t99.5 40.5t99.5 -40.5t37.5 -98.5t-37.5 -98t-99.5 -40zM161 386q51 0 83 34t32 84t-32 84.5t-83 34.5t-82.5 -34.5t-31.5 -84.5t31.5 -84t82.5 -34z" />
<glyph unicode="&#xb1;" d="M211 82v162h-198l3 26h195v168h26v-168h195l3 -26h-198v-162h-26zM422 25h-396l3 26h390z" />
<glyph unicode="&#xb2;" horiz-adv-x="344" d="M25 267l-5 39q17 15 52.5 47t47.5 44t30.5 34t24.5 39.5t6 37.5q0 29 -17.5 49t-53.5 20q-61 0 -84 -54l-7 5q17 60 57 93t99 33q60 0 94 -29t34 -76q0 -25 -11 -47t-36.5 -43t-45.5 -35t-59.5 -38.5t-58.5 -36.5v-2h144q27 0 42 14t32 50l8 16l11 -1l-37 -159h-267z" />
<glyph unicode="&#xb3;" horiz-adv-x="325" d="M126 248q-52 0 -83.5 19t-31.5 52q0 20 13.5 33t35.5 13q34 0 47 -30.5t-1 -67.5q9 -4 20 -4q27 0 44.5 26t17.5 64q0 36 -20 61.5t-54 25.5q-32 0 -54 -12l-6 13q60 22 87 41.5t27 45.5q0 53 -60 53q-30 0 -52.5 -17t-31.5 -38l-9 7q17 52 58.5 86.5t101.5 34.5 q50 0 81.5 -22.5t31.5 -57.5q0 -69 -108 -87v-2q59 6 94.5 -20.5t35.5 -73.5q0 -57 -54 -100t-130 -43z" />
<glyph unicode="&#xb4;" horiz-adv-x="421" d="M136 499l106 184h143l-225 -184h-24z" />
<glyph unicode="&#xb5;" horiz-adv-x="561" d="M274 -251h-271l3 17l21 2q23 2 31 4.5t8 11.5v623q0 9 -50 14l-15 1l-3 17h213v-303q-1 -38 14 -50t54 -12q52 0 75 13v318q0 8 -9 11t-39 5l-15 1l-4 17h211v-318q0 -36 6.5 -49t28.5 -19l28 -7l-2 -12l-206 -50l2 80h-3q-10 -24 -17.5 -38t-22.5 -27t-33 -13 q-39 0 -65 66h-3v-268q0 -9 8 -11.5t31 -4.5l21 -2z" />
<glyph unicode="&#xb6;" horiz-adv-x="446" d="M363 -32v273q-30 -5 -72 -5q-121 0 -194 50.5t-73 138.5q0 100 69.5 150t223.5 50h76v-657h-30z" />
<glyph unicode="&#xb7;" horiz-adv-x="231" d="M115 165q-33 0 -56 23.5t-23 56.5q0 32 23 54.5t56 22.5q31 0 54.5 -23.5t23.5 -53.5q0 -33 -23 -56.5t-55 -23.5z" />
<glyph unicode="&#xb8;" horiz-adv-x="404" d="M99 -277l-5 12q157 21 157 86q0 26 -24.5 39.5t-61.5 13.5q-43 0 -79 -12v12l123 129h24l-63 -65q67 9 114.5 -16.5t47.5 -68.5q0 -108 -233 -130z" />
<glyph unicode="&#xb9;" horiz-adv-x="266" d="M29 267l2 14l18 2q34 2 34 11v305l-58 4l1 11l175 40v-360q0 -9 32 -11l14 -2l3 -14h-221z" />
<glyph unicode="&#xba;" horiz-adv-x="420" d="M207 273q-86 0 -137.5 51.5t-51.5 127.5q0 78 54.5 131t140.5 53q85 0 136.5 -52t51.5 -126q0 -79 -53.5 -132t-140.5 -53zM209 291q34 0 51.5 43t17.5 114q0 119 -34 155q-15 15 -35 15q-35 0 -53 -42t-18 -114q0 -120 37 -159q12 -12 34 -12z" />
<glyph unicode="&#xbb;" horiz-adv-x="474" d="M239 41l-5 7l104 173l-103 173l4 8l226 -162v-35zM21 31l-6 7l120 183l-119 184l5 8l238 -173v-35z" />
<glyph unicode="&#xbc;" horiz-adv-x="701" d="M29 267l2 14l18 2q34 2 34 11v305l-58 4l1 11l175 40v-360q0 -9 32 -11l14 -2l3 -14h-221zM506 -136v83h-161l-3 19l206 283h72v-242h70l-13 -60h-57v-83h-114zM389 7h119v159h-3zM44 -121l580 751h29l-580 -751h-29z" />
<glyph unicode="&#xbd;" horiz-adv-x="734" d="M29 267l2 14l18 2q34 2 34 11v305l-58 4l1 11l175 40v-360q0 -9 32 -11l14 -2l3 -14h-221zM409 -137l-5 39q17 15 52.5 47t47.5 44t30.5 34t24.5 39.5t6 37.5q0 29 -17.5 49t-53.5 20q-61 0 -84 -54l-7 5q17 60 57 93t99 33q60 0 94 -29t34 -76q0 -25 -11 -47t-36.5 -43 t-45.5 -35t-59.5 -38.5t-58.5 -36.5v-2h144q27 0 42 14t32 50l8 16l11 -1l-37 -159h-267zM44 -121l580 751h29l-580 -751h-29z" />
<glyph unicode="&#xbe;" horiz-adv-x="720" d="M525 -136v83h-161l-3 19l206 283h72v-242h70l-13 -60h-57v-83h-114zM408 7h119v159h-3zM126 248q-52 0 -83.5 19t-31.5 52q0 20 13.5 33t35.5 13q34 0 47 -30.5t-1 -67.5q9 -4 20 -4q27 0 44.5 26t17.5 64q0 36 -20 61.5t-54 25.5q-32 0 -54 -12l-6 13q60 22 87 41.5 t27 45.5q0 53 -60 53q-30 0 -52.5 -17t-31.5 -38l-9 7q17 52 58.5 86.5t101.5 34.5q50 0 81.5 -22.5t31.5 -57.5q0 -69 -108 -87v-2q59 6 94.5 -20.5t35.5 -73.5q0 -57 -54 -100t-130 -43zM63 -121l580 751h29l-580 -751h-29z" />
<glyph unicode="&#xbf;" horiz-adv-x="367" d="M193 487q-31 0 -53.5 22.5t-22.5 52.5t22.5 53t53.5 23q30 0 52.5 -22.5t22.5 -53.5t-22.5 -53t-52.5 -22zM253 -14q-92 0 -155 68.5t-63 159.5q0 54 19.5 80t64.5 42q57 19 76.5 29t19.5 23q0 22 -35 51l17 6q39 -25 65 -58.5t26 -62.5q0 -37 -34.5 -59t-94.5 -37 q-93 -25 -93 -53q0 -29 43.5 -47t105.5 -18q35 0 90 12q33 -21 36 -59q2 -34 -20.5 -55.5t-67.5 -21.5z" />
<glyph unicode="&#xc0;" horiz-adv-x="680" d="M349 242h-173l-23 -66q-33 -99 -31 -120q3 -24 38 -31q9 -2 24 -4l21 -3l3 -18h-225l3 18l18 3q47 7 66 33.5t63 142.5l117 322l-9 37q32 8 66.5 33t47.5 54h24l183 -513q23 -62 42.5 -83.5t49.5 -24.5l26 -4l2 -18h-340l3 18l23 3q35 3 39.5 21.5t-13.5 67.5zM185 266 h156l-75 219h-4zM351 666l-226 184h144l106 -184h-24z" />
<glyph unicode="&#xc1;" horiz-adv-x="680" d="M349 242h-173l-23 -66q-33 -99 -31 -120q3 -24 38 -31q9 -2 24 -4l21 -3l3 -18h-225l3 18l18 3q47 7 66 33.5t63 142.5l117 322l-9 37q32 8 66.5 33t47.5 54h24l183 -513q23 -62 42.5 -83.5t49.5 -24.5l26 -4l2 -18h-340l3 18l23 3q35 3 39.5 21.5t-13.5 67.5zM185 266 h156l-75 219h-4zM272 666l106 184h143l-225 -184h-24z" />
<glyph unicode="&#xc2;" horiz-adv-x="680" d="M349 242h-173l-23 -66q-33 -99 -31 -120q3 -24 38 -31q9 -2 24 -4l21 -3l3 -18h-225l3 18l18 3q47 7 66 33.5t63 142.5l117 322l-9 37q32 8 66.5 33t47.5 54h24l183 -513q23 -62 42.5 -83.5t49.5 -24.5l26 -4l2 -18h-340l3 18l23 3q35 3 39.5 21.5t-13.5 67.5zM185 266 h156l-75 219h-4zM189 659l139 200h23l139 -200h-18l-131 88h-2l-132 -88h-18z" />
<glyph unicode="&#xc3;" horiz-adv-x="680" d="M349 242h-173l-23 -66q-33 -99 -31 -120q3 -24 38 -31q9 -2 24 -4l21 -3l3 -18h-225l3 18l18 3q47 7 66 33.5t63 142.5l117 322l-9 37q32 8 66.5 33t47.5 54h24l183 -513q23 -62 42.5 -83.5t49.5 -24.5l26 -4l2 -18h-340l3 18l23 3q35 3 39.5 21.5t-13.5 67.5zM185 266 h156l-75 219h-4zM419 673q-33 0 -101 32.5t-88 32.5q-15 0 -25 -11.5t-14 -44.5h-22q6 81 26.5 112t66.5 31q33 0 100 -32.5t87 -32.5q16 0 26.5 11t15.5 44h20q-5 -81 -25.5 -111.5t-66.5 -30.5z" />
<glyph unicode="&#xc4;" horiz-adv-x="680" d="M349 242h-173l-23 -66q-33 -99 -31 -120q3 -24 38 -31q9 -2 24 -4l21 -3l3 -18h-225l3 18l18 3q47 7 66 33.5t63 142.5l117 322l-9 37q32 8 66.5 33t47.5 54h24l183 -513q23 -62 42.5 -83.5t49.5 -24.5l26 -4l2 -18h-340l3 18l23 3q35 3 39.5 21.5t-13.5 67.5zM185 266 h156l-75 219h-4zM446 676q-30 0 -48.5 20t-18.5 47q0 28 18.5 48.5t48.5 20.5q31 0 49.5 -20.5t18.5 -48.5q0 -27 -18.5 -47t-49.5 -20zM232 676q-30 0 -49.5 20t-19.5 47q0 28 19.5 48.5t49.5 20.5q31 0 49.5 -20.5t18.5 -48.5q0 -27 -18.5 -47t-49.5 -20z" />
<glyph unicode="&#xc5;" horiz-adv-x="680" d="M349 242h-173l-23 -66q-33 -99 -31 -120q3 -24 38 -31q9 -2 24 -4l21 -3l3 -18h-225l3 18l18 3q34 5 50.5 17t33 44.5t45.5 114.5l153 421q-46 25 -46 82q0 40 26 68t69 28q42 0 68 -28t26 -68q0 -54 -41 -79l174 -491q23 -62 42.5 -83.5t49.5 -24.5l26 -4l2 -18h-340 l3 18l23 3q35 3 39.5 21.5t-13.5 67.5zM335 622q34 0 55 23t21 55q0 33 -21 56t-55 23q-35 0 -55.5 -23t-20.5 -56q0 -32 20.5 -55t55.5 -23zM185 266h156l-75 219h-4z" />
<glyph unicode="&#xc6;" horiz-adv-x="912" d="M-43 0l3 18l33 4q34 6 65 40t81 134l178 350q15 27 5.5 41t-53.5 18l-40 4l-3 16h613l5 -217h-32l-8 28q-25 98 -78 133t-144 33l-47 -2v-271h28q95 6 119 83l12 35h25l-30 -266l-23 1l-4 34q-6 46 -28 66t-80 23l-19 2v-282l65 -3q178 1 234 168l8 23h32l-20 -213h-572 l3 17l48 6q40 5 40 19v206h-180l-38 -77q-39 -80 -33.5 -112t51.5 -38l26 -3l3 -18h-245zM206 271h167v323h-3z" />
<glyph unicode="&#xc7;" horiz-adv-x="702" d="M390 -12q-164 1 -261.5 90t-97.5 226q0 143 100 238.5t274 95.5q92 0 154 -32l79 19l7 -217h-32l-93 181q-44 24 -109 24q-96 0 -149.5 -82.5t-53.5 -218.5q0 -138 54 -219t141 -81q122 0 181 109l44 102h34l-28 -201l-47 1q-76 -31 -173 -35l-49 -50q67 9 114.5 -16.5 t47.5 -68.5q0 -108 -233 -130l-5 12q157 21 157 86q0 26 -24.5 39.5t-61.5 13.5q-43 0 -79 -12v12z" />
<glyph unicode="&#xc8;" horiz-adv-x="645" d="M16 0l3 17l36 4q43 7 43 18v549q0 6 -9.5 9t-42.5 7l-26 4l-3 17h557l4 -217h-32l-8 28q-25 99 -78 133.5t-144 32.5l-54 -2v-271h35q95 6 119 83l12 35h25l-29 -266l-24 1l-4 34q-6 46 -28 66t-80 23l-26 2v-282l72 -3q178 1 234 168l8 23h32l-20 -213h-572zM369 666 l-226 184h144l106 -184h-24z" />
<glyph unicode="&#xc9;" horiz-adv-x="645" d="M16 0l3 17l36 4q43 7 43 18v549q0 6 -9.5 9t-42.5 7l-26 4l-3 17h557l4 -217h-32l-8 28q-25 99 -78 133.5t-144 32.5l-54 -2v-271h35q95 6 119 83l12 35h25l-29 -266l-24 1l-4 34q-6 46 -28 66t-80 23l-26 2v-282l72 -3q178 1 234 168l8 23h32l-20 -213h-572zM248 666 l106 184h143l-225 -184h-24z" />
<glyph unicode="&#xca;" horiz-adv-x="645" d="M16 0l3 17l36 4q43 7 43 18v549q0 6 -9.5 9t-42.5 7l-26 4l-3 17h557l4 -217h-32l-8 28q-25 99 -78 133.5t-144 32.5l-54 -2v-271h35q95 6 119 83l12 35h25l-29 -266l-24 1l-4 34q-6 46 -28 66t-80 23l-26 2v-282l72 -3q178 1 234 168l8 23h32l-20 -213h-572zM179 659 l139 200h23l139 -200h-18l-131 88h-2l-132 -88h-18z" />
<glyph unicode="&#xcb;" horiz-adv-x="645" d="M16 0l3 17l36 4q43 7 43 18v549q0 6 -9.5 9t-42.5 7l-26 4l-3 17h557l4 -217h-32l-8 28q-25 99 -78 133.5t-144 32.5l-54 -2v-271h35q95 6 119 83l12 35h25l-29 -266l-24 1l-4 34q-6 46 -28 66t-80 23l-26 2v-282l72 -3q178 1 234 168l8 23h32l-20 -213h-572zM437 676 q-30 0 -48.5 20t-18.5 47q0 28 18.5 48.5t48.5 20.5q31 0 49.5 -20.5t18.5 -48.5q0 -27 -18.5 -47t-49.5 -20zM223 676q-30 0 -49.5 20t-19.5 47q0 28 19.5 48.5t49.5 20.5q31 0 49.5 -20.5t18.5 -48.5q0 -27 -18.5 -47t-49.5 -20z" />
<glyph unicode="&#xcc;" horiz-adv-x="385" d="M26 0l3 17l39 4q43 4 43 18v549q0 6 -9.5 9t-42.5 7l-31 4l-3 17h334l-3 -17l-39 -4q-43 -4 -43 -18v-549q0 -6 9.5 -9t41.5 -7l31 -4l3 -17h-333zM228 666l-226 184h144l106 -184h-24z" />
<glyph unicode="&#xcd;" horiz-adv-x="385" d="M26 0l3 17l39 4q43 4 43 18v549q0 6 -9.5 9t-42.5 7l-31 4l-3 17h334l-3 -17l-39 -4q-43 -4 -43 -18v-549q0 -6 9.5 -9t41.5 -7l31 -4l3 -17h-333zM142 666l106 184h143l-225 -184h-24z" />
<glyph unicode="&#xce;" horiz-adv-x="385" d="M26 0l3 17l39 4q43 4 43 18v549q0 6 -9.5 9t-42.5 7l-31 4l-3 17h334l-3 -17l-39 -4q-43 -4 -43 -18v-549q0 -6 9.5 -9t41.5 -7l31 -4l3 -17h-333zM42 659l139 200h23l139 -200h-18l-131 88h-2l-132 -88h-18z" />
<glyph unicode="&#xcf;" horiz-adv-x="385" d="M26 0l3 17l39 4q43 4 43 18v549q0 6 -9.5 9t-42.5 7l-31 4l-3 17h334l-3 -17l-39 -4q-43 -4 -43 -18v-549q0 -6 9.5 -9t41.5 -7l31 -4l3 -17h-333zM299 676q-30 0 -48.5 20t-18.5 47q0 28 18.5 48.5t48.5 20.5q31 0 49.5 -20.5t18.5 -48.5q0 -27 -18.5 -47t-49.5 -20z M85 676q-30 0 -49.5 20t-19.5 47q0 28 19.5 48.5t49.5 20.5q31 0 49.5 -20.5t18.5 -48.5q0 -27 -18.5 -47t-49.5 -20z" />
<glyph unicode="&#xd0;" horiz-adv-x="719" d="M98 301h-78l3 25h75v258q0 7 -9 10.5t-37 7.5l-32 6l-3 17h55.5t106.5 0.5t118 0.5t42 0q169 0 261 -81t92 -228q0 -130 -103.5 -223.5t-253.5 -93.5h-319l3 17l40 7q39 5 39 19v258zM262 326h105l3 -25h-108v-263l68 -15q85 -1 134 77.5t49 197.5q0 303 -206 303h-45 v-275z" />
<glyph unicode="&#xd1;" horiz-adv-x="720" d="M565 -6l-420 504h-3v-392q0 -49 16 -65.5t62 -19.5l31 -4l3 -17h-235l3 17l28 4q39 3 51.5 22.5t12.5 71.5l3 415q-41 61 -96 70l-19 8l-3 17h266l321 -392h4l-1 284q0 49 -16 66.5t-61 20.5l-30 4l-3 17h233l-3 -17l-28 -4q-38 -3 -51 -23.5t-13 -72.5l-3 -514h-49z M451 673q-33 0 -101 32.5t-88 32.5q-15 0 -25 -11.5t-14 -44.5h-22q6 81 26.5 112t66.5 31q33 0 100 -32.5t87 -32.5q16 0 26.5 11t15.5 44h20q-5 -81 -25.5 -111.5t-66.5 -30.5z" />
<glyph unicode="&#xd2;" horiz-adv-x="756" d="M373 -13q-153 0 -247.5 89t-94.5 235q0 137 105 232t248 95q153 0 247.5 -90t94.5 -236q0 -138 -104 -231.5t-249 -93.5zM383 12q84 0 124 70t40 227q0 151 -44 227t-127 76q-86 0 -127 -70.5t-41 -226.5q0 -303 175 -303zM408 666l-226 184h144l106 -184h-24z" />
<glyph unicode="&#xd3;" horiz-adv-x="756" d="M373 -13q-153 0 -247.5 89t-94.5 235q0 137 105 232t248 95q153 0 247.5 -90t94.5 -236q0 -138 -104 -231.5t-249 -93.5zM383 12q84 0 124 70t40 227q0 151 -44 227t-127 76q-86 0 -127 -70.5t-41 -226.5q0 -303 175 -303zM334 666l106 184h143l-225 -184h-24z" />
<glyph unicode="&#xd4;" horiz-adv-x="756" d="M373 -13q-153 0 -247.5 89t-94.5 235q0 137 105 232t248 95q153 0 247.5 -90t94.5 -236q0 -138 -104 -231.5t-249 -93.5zM383 12q84 0 124 70t40 227q0 151 -44 227t-127 76q-86 0 -127 -70.5t-41 -226.5q0 -303 175 -303zM227 659l139 200h23l139 -200h-18l-131 88h-2 l-132 -88h-18z" />
<glyph unicode="&#xd5;" horiz-adv-x="756" d="M373 -13q-153 0 -247.5 89t-94.5 235q0 137 105 232t248 95q153 0 247.5 -90t94.5 -236q0 -138 -104 -231.5t-249 -93.5zM383 12q84 0 124 70t40 227q0 151 -44 227t-127 76q-86 0 -127 -70.5t-41 -226.5q0 -303 175 -303zM464 673q-33 0 -101 32.5t-88 32.5 q-15 0 -25 -11.5t-14 -44.5h-22q6 81 26.5 112t66.5 31q33 0 100 -32.5t87 -32.5q16 0 26.5 11t15.5 44h20q-5 -81 -25.5 -111.5t-66.5 -30.5z" />
<glyph unicode="&#xd6;" horiz-adv-x="756" d="M373 -13q-153 0 -247.5 89t-94.5 235q0 137 105 232t248 95q153 0 247.5 -90t94.5 -236q0 -138 -104 -231.5t-249 -93.5zM383 12q84 0 124 70t40 227q0 151 -44 227t-127 76q-86 0 -127 -70.5t-41 -226.5q0 -303 175 -303zM480 676q-30 0 -48.5 20t-18.5 47 q0 28 18.5 48.5t48.5 20.5q31 0 49.5 -20.5t18.5 -48.5q0 -27 -18.5 -47t-49.5 -20zM266 676q-30 0 -49.5 20t-19.5 47q0 28 19.5 48.5t49.5 20.5q31 0 49.5 -20.5t18.5 -48.5q0 -27 -18.5 -47t-49.5 -20z" />
<glyph unicode="&#xd7;" d="M31 61l175 175q-13 13 -49 48.5t-78 78t-48 48.5l18 18l175 -175l175 175l18 -18l-175 -175q13 -13 48.5 -49t78 -78t48.5 -48l-18 -18l-175 175l-175 -175z" />
<glyph unicode="&#xd8;" horiz-adv-x="756" d="M560 599q78 -41 122 -115.5t44 -171.5q0 -138 -104 -231.5t-249 -93.5q-81 0 -151 28l-51 -89h-25l56 97q-80 39 -125.5 114t-45.5 174q0 137 105 232t248 95q84 0 157 -30l46 80h25zM246 99l255 440q-43 73 -125 73q-86 0 -127 -70.5t-41 -226.5q0 -140 38 -216z M513 517l-254 -439q43 -66 124 -66q84 0 124 70t40 227q0 131 -34 208z" />
<glyph unicode="&#xd9;" horiz-adv-x="708" d="M364 -20q-270 0 -270 203v406q0 12 -50 15l-28 4l-3 17h326l-3 -17l-36 -4q-42 -4 -42 -17v-365q0 -86 40.5 -131t118.5 -45q87 0 128 46t41 148l-1 277q0 49 -16 66.5t-61 20.5l-31 4l-3 17h234l-3 -17l-27 -4q-38 -3 -51.5 -23t-13.5 -73l-1 -276q-2 -252 -248 -252z M405 666l-226 184h144l106 -184h-24z" />
<glyph unicode="&#xda;" horiz-adv-x="708" d="M364 -20q-270 0 -270 203v406q0 12 -50 15l-28 4l-3 17h326l-3 -17l-36 -4q-42 -4 -42 -17v-365q0 -86 40.5 -131t118.5 -45q87 0 128 46t41 148l-1 277q0 49 -16 66.5t-61 20.5l-31 4l-3 17h234l-3 -17l-27 -4q-38 -3 -51.5 -23t-13.5 -73l-1 -276q-2 -252 -248 -252z M353 666l106 184h143l-225 -184h-24z" />
<glyph unicode="&#xdb;" horiz-adv-x="708" d="M364 -20q-270 0 -270 203v406q0 12 -50 15l-28 4l-3 17h326l-3 -17l-36 -4q-42 -4 -42 -17v-365q0 -86 40.5 -131t118.5 -45q87 0 128 46t41 148l-1 277q0 49 -16 66.5t-61 20.5l-31 4l-3 17h234l-3 -17l-27 -4q-38 -3 -51.5 -23t-13.5 -73l-1 -276q-2 -252 -248 -252z M244 659l139 200h23l139 -200h-18l-131 88h-2l-132 -88h-18z" />
<glyph unicode="&#xdc;" horiz-adv-x="708" d="M364 -20q-270 0 -270 203v406q0 12 -50 15l-28 4l-3 17h326l-3 -17l-36 -4q-42 -4 -42 -17v-365q0 -86 40.5 -131t118.5 -45q87 0 128 46t41 148l-1 277q0 49 -16 66.5t-61 20.5l-31 4l-3 17h234l-3 -17l-27 -4q-38 -3 -51.5 -23t-13.5 -73l-1 -276q-2 -252 -248 -252z M284 676q-30 0 -49.5 20t-19.5 47q0 28 19.5 48.5t49.5 20.5q31 0 49.5 -20.5t18.5 -48.5q0 -27 -18.5 -47t-49.5 -20zM498 676q-30 0 -48.5 20t-18.5 47q0 28 18.5 48.5t48.5 20.5q31 0 49.5 -20.5t18.5 -48.5q0 -27 -18.5 -47t-49.5 -20z" />
<glyph unicode="&#xdd;" horiz-adv-x="651" d="M158 0l3 17l40 4q42 4 42 18v239l-133 235q-32 54 -46 69.5t-43 20.5l-17 4l-3 18h331l-3 -18l-17 -3q-40 -5 -49 -19t8 -45l118 -216h5l64 118q39 71 48.5 101.5t-3.5 43t-58 16.5l-24 4l-3 18h240l-3 -18l-27 -5q-40 -6 -64 -33t-83 -137l-73 -131v-264q0 -6 9 -9 t41 -7l30 -4l3 -17h-333zM284 666l106 184h143l-225 -184h-24z" />
<glyph unicode="&#xde;" horiz-adv-x="635" d="M23 0l3 20l36 4q43 4 43 16v547q0 6 -9 8.5t-43 6.5l-26 3l-3 20h325l-3 -20l-35 -4q-42 -4 -42 -16v-93h44q287 0 287 -161q0 -84 -80 -132t-212 -48q-31 0 -39 2v-115q0 -12 51 -14l36 -4l3 -20h-336zM303 174q52 0 86.5 40.5t34.5 105.5q0 147 -128 152l-27 -2v-293 l12 -1q12 -2 22 -2z" />
<glyph unicode="&#xdf;" horiz-adv-x="608" d="M398 431q81 -37 132.5 -103t51.5 -138q0 -82 -57 -142.5t-133 -60.5q-61 0 -95 24t-34 64q0 28 19 47t47 19q32 0 48 -20t14 -46.5t-17 -46.5q4 -18 31 -18q26 0 43 22t17 62q0 80 -46.5 155t-145.5 127v41q65 21 90 46.5t25 82.5q0 47 -21 75t-57 28q-46 0 -64 -28.5 t-18 -102.5v-518h-206l3 20l19 1q23 2 31 4.5t8 11.5v334l-79 3l20 63l58 -2l4 67q3 74 69.5 122.5t155.5 48.5q102 0 157.5 -36t55.5 -100q0 -88 -126 -106z" />
<glyph unicode="&#xe0;" horiz-adv-x="499" d="M373 -13q-37 0 -62 24.5t-30 70.5l-3 1q-41 -48 -73.5 -71.5t-71.5 -23.5q-45 0 -77 29.5t-32 72.5q0 58 58.5 97.5t198.5 77.5l1 28q2 53 -25 87t-76 34q-53 0 -53 -20q0 -1 16 -23t16 -39q0 -24 -19 -41.5t-48 -17.5q-28 0 -47 14.5t-19 39.5q0 52 78.5 89.5 t160.5 37.5q87 0 125.5 -39t35.5 -124l-8 -176q-3 -54 35 -54q16 0 43 31l10 -11q-74 -94 -134 -94zM220 73q29 0 56 31l6 141q-66 -18 -93 -43.5t-27 -63.5q0 -30 15.5 -47.5t42.5 -17.5zM275 499l-226 184h144l106 -184h-24z" />
<glyph unicode="&#xe1;" horiz-adv-x="499" d="M373 -13q-37 0 -62 24.5t-30 70.5l-3 1q-41 -48 -73.5 -71.5t-71.5 -23.5q-45 0 -77 29.5t-32 72.5q0 58 58.5 97.5t198.5 77.5l1 28q2 53 -25 87t-76 34q-53 0 -53 -20q0 -1 16 -23t16 -39q0 -24 -19 -41.5t-48 -17.5q-28 0 -47 14.5t-19 39.5q0 52 78.5 89.5 t160.5 37.5q87 0 125.5 -39t35.5 -124l-8 -176q-3 -54 35 -54q16 0 43 31l10 -11q-74 -94 -134 -94zM220 73q29 0 56 31l6 141q-66 -18 -93 -43.5t-27 -63.5q0 -30 15.5 -47.5t42.5 -17.5zM182 499l106 184h143l-225 -184h-24z" />
<glyph unicode="&#xe2;" horiz-adv-x="499" d="M373 -13q-37 0 -62 24.5t-30 70.5l-3 1q-41 -48 -73.5 -71.5t-71.5 -23.5q-45 0 -77 29.5t-32 72.5q0 58 58.5 97.5t198.5 77.5l1 28q2 53 -25 87t-76 34q-53 0 -53 -20q0 -1 16 -23t16 -39q0 -24 -19 -41.5t-48 -17.5q-28 0 -47 14.5t-19 39.5q0 52 78.5 89.5 t160.5 37.5q87 0 125.5 -39t35.5 -124l-8 -176q-3 -54 35 -54q16 0 43 31l10 -11q-74 -94 -134 -94zM220 73q29 0 56 31l6 141q-66 -18 -93 -43.5t-27 -63.5q0 -30 15.5 -47.5t42.5 -17.5zM88 492l139 200h23l139 -200h-18l-131 88h-2l-132 -88h-18z" />
<glyph unicode="&#xe3;" horiz-adv-x="499" d="M373 -13q-37 0 -62 24.5t-30 70.5l-3 1q-41 -48 -73.5 -71.5t-71.5 -23.5q-45 0 -77 29.5t-32 72.5q0 58 58.5 97.5t198.5 77.5l1 28q2 53 -25 87t-76 34q-53 0 -53 -20q0 -1 16 -23t16 -39q0 -24 -19 -41.5t-48 -17.5q-28 0 -47 14.5t-19 39.5q0 52 78.5 89.5 t160.5 37.5q87 0 125.5 -39t35.5 -124l-8 -176q-3 -54 35 -54q16 0 43 31l10 -11q-74 -94 -134 -94zM220 73q29 0 56 31l6 141q-66 -18 -93 -43.5t-27 -63.5q0 -30 15.5 -47.5t42.5 -17.5zM318 506q-33 0 -101 32.5t-88 32.5q-15 0 -25 -11.5t-14 -44.5h-22q6 81 26.5 112 t66.5 31q33 0 100 -32.5t87 -32.5q16 0 26.5 11t15.5 44h20q-5 -81 -25.5 -111.5t-66.5 -30.5z" />
<glyph unicode="&#xe4;" horiz-adv-x="499" d="M373 -13q-37 0 -62 24.5t-30 70.5l-3 1q-41 -48 -73.5 -71.5t-71.5 -23.5q-45 0 -77 29.5t-32 72.5q0 58 58.5 97.5t198.5 77.5l1 28q2 53 -25 87t-76 34q-53 0 -53 -20q0 -1 16 -23t16 -39q0 -24 -19 -41.5t-48 -17.5q-28 0 -47 14.5t-19 39.5q0 52 78.5 89.5 t160.5 37.5q87 0 125.5 -39t35.5 -124l-8 -176q-3 -54 35 -54q16 0 43 31l10 -11q-74 -94 -134 -94zM220 73q29 0 56 31l6 141q-66 -18 -93 -43.5t-27 -63.5q0 -30 15.5 -47.5t42.5 -17.5zM346 509q-30 0 -48.5 20t-18.5 47q0 28 18.5 48.5t48.5 20.5q31 0 49.5 -20.5 t18.5 -48.5q0 -27 -18.5 -47t-49.5 -20zM132 509q-30 0 -49.5 20t-19.5 47q0 28 19.5 48.5t49.5 20.5q31 0 49.5 -20.5t18.5 -48.5q0 -27 -18.5 -47t-49.5 -20z" />
<glyph unicode="&#xe5;" horiz-adv-x="499" d="M225 502q-43 0 -69 27.5t-26 67.5t26 68t69 28q42 0 68 -28t26 -68t-26 -67.5t-68 -27.5zM373 -13q-37 0 -62 24.5t-30 70.5l-3 1q-41 -48 -73.5 -71.5t-71.5 -23.5q-45 0 -77 29.5t-32 72.5q0 58 58.5 97.5t198.5 77.5l1 28q2 53 -25 87t-76 34q-53 0 -53 -20 q0 -1 16 -23t16 -39q0 -24 -19 -41.5t-48 -17.5q-28 0 -47 14.5t-19 39.5q0 52 78.5 89.5t160.5 37.5q87 0 125.5 -39t35.5 -124l-8 -176q-3 -54 35 -54q16 0 43 31l10 -11q-74 -94 -134 -94zM225 519q34 0 55 22.5t21 55.5t-21 56t-55 23q-35 0 -55.5 -23t-20.5 -56 t20.5 -55.5t55.5 -22.5zM220 73q29 0 56 31l6 141q-66 -18 -93 -43.5t-27 -63.5q0 -30 15.5 -47.5t42.5 -17.5z" />
<glyph unicode="&#xe6;" horiz-adv-x="728" d="M132 -12q-44 0 -76 30t-32 72q0 59 58 97.5t199 78.5l1 27q2 53 -25 87t-76 34q-53 0 -53 -20q0 -1 16 -23t16 -39q0 -24 -19 -41.5t-48 -17.5q-28 0 -47 14.5t-19 39.5q0 52 76.5 89.5t159.5 37.5q78 0 112 -44q65 46 146 46q85 0 133 -44.5t48 -105.5q0 -12 -4 -30 q-231 3 -271 5q-1 -4 -1 -10t0.5 -13.5t0.5 -10.5q1 -79 39 -126.5t104 -47.5q83 0 124 76l11 -6q-26 -75 -82.5 -115t-134.5 -40q-66 0 -115 30t-72 83q-35 -52 -80.5 -82.5t-88.5 -30.5zM428 299l139 1q2 131 -60 131q-30 0 -52 -35t-27 -97zM215 73q41 0 78 42 q-13 32 -13 116q0 11 1 13q-64 -17 -91.5 -43.5t-27.5 -64.5q0 -28 16 -45.5t37 -17.5z" />
<glyph unicode="&#xe7;" horiz-adv-x="465" d="M237 -16q-92 2 -152.5 63.5t-60.5 157.5q0 108 71 178.5t181 70.5q74 0 121 -29.5t47 -75.5q0 -31 -19.5 -50.5t-49.5 -19.5q-33 0 -53 24.5t-17 57.5q0 12 10.5 28.5t10.5 17.5q-1 9 -14 15.5t-30 6.5q-46 0 -73.5 -45.5t-27.5 -129.5q0 -88 35.5 -136.5t101.5 -48.5 q80 0 122 77l11 -6q-51 -144 -190 -155l-45 -47q67 9 114.5 -16.5t47.5 -68.5q0 -108 -233 -130l-5 12q157 21 157 86q0 26 -24.5 39.5t-61.5 13.5q-43 0 -79 -12v12z" />
<glyph unicode="&#xe8;" horiz-adv-x="478" d="M240 -16q-92 0 -154 63.5t-62 161.5q0 105 71.5 176t176.5 71q84 0 131.5 -44.5t47.5 -105.5q0 -16 -3 -30q-231 3 -270 5q-1 -9 -1 -34q1 -80 39.5 -129t103.5 -49q81 0 123 77l12 -6q-55 -156 -215 -156zM178 299l139 1q1 56 -13 93.5t-46 37.5q-30 0 -52.5 -35 t-27.5 -97zM290 499l-226 184h144l106 -184h-24z" />
<glyph unicode="&#xe9;" horiz-adv-x="478" d="M240 -16q-92 0 -154 63.5t-62 161.5q0 105 71.5 176t176.5 71q84 0 131.5 -44.5t47.5 -105.5q0 -16 -3 -30q-231 3 -270 5q-1 -9 -1 -34q1 -80 39.5 -129t103.5 -49q81 0 123 77l12 -6q-55 -156 -215 -156zM178 299l139 1q1 56 -13 93.5t-46 37.5q-30 0 -52.5 -35 t-27.5 -97zM197 499l106 184h143l-225 -184h-24z" />
<glyph unicode="&#xea;" horiz-adv-x="478" d="M240 -16q-92 0 -154 63.5t-62 161.5q0 105 71.5 176t176.5 71q84 0 131.5 -44.5t47.5 -105.5q0 -16 -3 -30q-231 3 -270 5q-1 -9 -1 -34q1 -80 39.5 -129t103.5 -49q81 0 123 77l12 -6q-55 -156 -215 -156zM178 299l139 1q1 56 -13 93.5t-46 37.5q-30 0 -52.5 -35 t-27.5 -97zM102 492l139 200h23l139 -200h-18l-131 88h-2l-132 -88h-18z" />
<glyph unicode="&#xeb;" horiz-adv-x="478" d="M240 -16q-92 0 -154 63.5t-62 161.5q0 105 71.5 176t176.5 71q84 0 131.5 -44.5t47.5 -105.5q0 -16 -3 -30q-231 3 -270 5q-1 -9 -1 -34q1 -80 39.5 -129t103.5 -49q81 0 123 77l12 -6q-55 -156 -215 -156zM178 299l139 1q1 56 -13 93.5t-46 37.5q-30 0 -52.5 -35 t-27.5 -97zM360 509q-30 0 -48.5 20t-18.5 47q0 28 18.5 48.5t48.5 20.5q31 0 49.5 -20.5t18.5 -48.5q0 -27 -18.5 -47t-49.5 -20zM146 509q-30 0 -49.5 20t-19.5 47q0 28 19.5 48.5t49.5 20.5q31 0 49.5 -20.5t18.5 -48.5q0 -27 -18.5 -47t-49.5 -20z" />
<glyph unicode="&#xec;" horiz-adv-x="302" d="M22 0l3 17l14 1q23 2 31.5 5t8.5 12v262q0 45 -7.5 58.5t-34.5 21.5l-20 5l1 13l206 58v-419q0 -7 8 -9.5t40 -6.5l9 -1l3 -17h-262zM202 499l-226 184h144l106 -184h-24z" />
<glyph unicode="&#xed;" horiz-adv-x="302" d="M22 0l3 17l14 1q23 2 31.5 5t8.5 12v262q0 45 -7.5 58.5t-34.5 21.5l-20 5l1 13l206 58v-419q0 -7 8 -9.5t40 -6.5l9 -1l3 -17h-262zM77 499l106 184h143l-225 -184h-24z" />
<glyph unicode="&#xee;" horiz-adv-x="302" d="M0 492l139 200h22l140 -200h-19l-131 87h-2l-131 -87h-18zM22 0l3 17l14 1q23 2 31.5 5t8.5 12v262q0 45 -7.5 58.5t-34.5 21.5l-20 5l1 13l206 58v-419q0 -7 8 -9.5t40 -6.5l9 -1l3 -17h-262z" />
<glyph unicode="&#xef;" horiz-adv-x="302" d="M22 0l3 17l14 1q23 2 31.5 5t8.5 12v262q0 45 -7.5 58.5t-34.5 21.5l-20 5l1 13l206 58v-419q0 -7 8 -9.5t40 -6.5l9 -1l3 -17h-262zM258 509q-30 0 -48.5 20t-18.5 47q0 28 18.5 48.5t48.5 20.5q31 0 49.5 -20.5t18.5 -48.5q0 -27 -18.5 -47t-49.5 -20zM44 509 q-30 0 -49.5 20t-19.5 47q0 28 19.5 48.5t49.5 20.5q31 0 49.5 -20.5t18.5 -48.5q0 -27 -18.5 -47t-49.5 -20z" />
<glyph unicode="&#xf0;" horiz-adv-x="543" d="M234 550l-32 -10l-64 -22l-33 -10l2 25l104 34q-52 35 -124 50l7 17q98 -9 182 -45l113 37l2 -25q-83 -27 -84 -27q100 -52 154.5 -136t54.5 -183q0 -121 -69.5 -194t-177.5 -73q-113 0 -179 67t-66 166q0 100 67 168.5t171 68.5q28 0 53 -6q-33 59 -81 98zM273 10 q91 0 91 204q0 103 -26 163t-72 60q-42 0 -64.5 -56.5t-22.5 -147.5q0 -118 22 -170.5t72 -52.5z" />
<glyph unicode="&#xf1;" horiz-adv-x="579" d="M20 0l3 17l14 1q23 2 31.5 5t8.5 12v262q0 45 -7.5 58.5t-34.5 21.5l-20 5l1 13l208 58l-2 -86h2q106 87 174 87q46 0 82 -36q34 -34 34 -119v-264q0 -10 49 -17l11 -1l3 -17h-260l3 17l16 1q23 1 28.5 5t5.5 12v233q0 54 -20 74.5t-59 20.5q-37 0 -69 -20v-309 q0 -13 39 -16l16 -1l2 -17h-259zM368 506q-33 0 -101 32.5t-88 32.5q-15 0 -25 -11.5t-14 -44.5h-22q6 81 26.5 112t66.5 31q33 0 100 -32.5t87 -32.5q16 0 26.5 11t15.5 44h20q-5 -81 -25.5 -111.5t-66.5 -30.5z" />
<glyph unicode="&#xf2;" horiz-adv-x="548" d="M268 -14q-112 0 -178 67t-66 166t72 167t184 68t178 -66.5t66 -164.5q0 -101 -71.5 -169t-184.5 -68zM272 7q45 0 69.5 55.5t24.5 148.5q0 157 -46 203q-17 17 -45 17q-46 0 -70.5 -53.5t-24.5 -147.5q0 -158 45 -206q17 -17 47 -17zM299 499l-226 184h144l106 -184h-24z " />
<glyph unicode="&#xf3;" horiz-adv-x="548" d="M268 -14q-112 0 -178 67t-66 166t72 167t184 68t178 -66.5t66 -164.5q0 -101 -71.5 -169t-184.5 -68zM272 7q45 0 69.5 55.5t24.5 148.5q0 157 -46 203q-17 17 -45 17q-46 0 -70.5 -53.5t-24.5 -147.5q0 -158 45 -206q17 -17 47 -17zM219 499l106 184h143l-225 -184h-24z " />
<glyph unicode="&#xf4;" horiz-adv-x="548" d="M268 -14q-112 0 -178 67t-66 166t72 167t184 68t178 -66.5t66 -164.5q0 -101 -71.5 -169t-184.5 -68zM272 7q45 0 69.5 55.5t24.5 148.5q0 157 -46 203q-17 17 -45 17q-46 0 -70.5 -53.5t-24.5 -147.5q0 -158 45 -206q17 -17 47 -17zM122 492l139 200h23l139 -200h-18 l-131 88h-2l-132 -88h-18z" />
<glyph unicode="&#xf5;" horiz-adv-x="548" d="M268 -14q-112 0 -178 67t-66 166t72 167t184 68t178 -66.5t66 -164.5q0 -101 -71.5 -169t-184.5 -68zM272 7q45 0 69.5 55.5t24.5 148.5q0 157 -46 203q-17 17 -45 17q-46 0 -70.5 -53.5t-24.5 -147.5q0 -158 45 -206q17 -17 47 -17zM352 506q-33 0 -101 32.5t-88 32.5 q-15 0 -25 -11.5t-14 -44.5h-22q6 81 26.5 112t66.5 31q33 0 100 -32.5t87 -32.5q16 0 26.5 11t15.5 44h20q-5 -81 -25.5 -111.5t-66.5 -30.5z" />
<glyph unicode="&#xf6;" horiz-adv-x="548" d="M268 -14q-112 0 -178 67t-66 166t72 167t184 68t178 -66.5t66 -164.5q0 -101 -71.5 -169t-184.5 -68zM272 7q45 0 69.5 55.5t24.5 148.5q0 157 -46 203q-17 17 -45 17q-46 0 -70.5 -53.5t-24.5 -147.5q0 -158 45 -206q17 -17 47 -17zM379 509q-30 0 -48.5 20t-18.5 47 q0 28 18.5 48.5t48.5 20.5q31 0 49.5 -20.5t18.5 -48.5q0 -27 -18.5 -47t-49.5 -20zM165 509q-30 0 -49.5 20t-19.5 47q0 28 19.5 48.5t49.5 20.5q31 0 49.5 -20.5t18.5 -48.5q0 -27 -18.5 -47t-49.5 -20z" />
<glyph unicode="&#xf7;" d="M275 377q0 -21 -15 -36.5t-37 -15.5q-21 0 -36 15.5t-15 36.5q0 20 15 35t36 15q22 0 37 -15t15 -35zM426 223h-404l3 26h398zM275 98q0 -21 -15 -36.5t-36 -15.5q-22 0 -37 15.5t-15 36.5q0 20 15 34.5t37 14.5q21 0 36 -14.5t15 -34.5z" />
<glyph unicode="&#xf8;" horiz-adv-x="548" d="M137 17q-54 30 -83.5 83.5t-29.5 118.5q0 99 72 167t184 68q54 0 99 -17l82 141h24q-86 -149 -87 -149q60 -29 93 -84.5t33 -121.5q0 -101 -71.5 -169t-184.5 -68q-62 0 -112 22l-79 -137h-24zM189 107l155 268q-10 25 -24 39q-19 19 -45 19q-46 0 -70.5 -54.5 t-24.5 -148.5q0 -75 9 -123zM352 348l-156 -270q11 -34 29 -54q16 -16 47 -16q45 0 69.5 55t24.5 148q0 86 -14 137z" />
<glyph unicode="&#xf9;" horiz-adv-x="561" d="M353 -16l2 90h-3q-101 -88 -174 -88q-40 0 -79 37q-36 38 -33 120l2 264q0 9 -50 14l-15 1l-3 17h214l-3 -268q-1 -52 19 -73t60 -21q28 0 64 20v308q0 8 -9 11t-39 5l-15 1l-4 17h211v-318q0 -36 6.5 -49t28.5 -19l28 -7l-2 -12zM301 499l-226 184h144l106 -184h-24z " />
<glyph unicode="&#xfa;" horiz-adv-x="561" d="M353 -16l2 90h-3q-101 -88 -174 -88q-40 0 -79 37q-36 38 -33 120l2 264q0 9 -50 14l-15 1l-3 17h214l-3 -268q-1 -52 19 -73t60 -21q28 0 64 20v308q0 8 -9 11t-39 5l-15 1l-4 17h211v-318q0 -36 6.5 -49t28.5 -19l28 -7l-2 -12zM227 499l106 184h143l-225 -184h-24z " />
<glyph unicode="&#xfb;" horiz-adv-x="561" d="M353 -16l2 90h-3q-101 -88 -174 -88q-40 0 -79 37q-36 38 -33 120l2 264q0 9 -50 14l-15 1l-3 17h214l-3 -268q-1 -52 19 -73t60 -21q28 0 64 20v308q0 8 -9 11t-39 5l-15 1l-4 17h211v-318q0 -36 6.5 -49t28.5 -19l28 -7l-2 -12zM125 492l139 200h23l139 -200h-18 l-131 88h-2l-132 -88h-18z" />
<glyph unicode="&#xfc;" horiz-adv-x="561" d="M353 -16l2 90h-3q-101 -88 -174 -88q-40 0 -79 37q-36 38 -33 120l2 264q0 9 -50 14l-15 1l-3 17h214l-3 -268q-1 -52 19 -73t60 -21q28 0 64 20v308q0 8 -9 11t-39 5l-15 1l-4 17h211v-318q0 -36 6.5 -49t28.5 -19l28 -7l-2 -12zM181 509q-30 0 -49.5 20t-19.5 47 q0 28 19.5 48.5t49.5 20.5q31 0 49.5 -20.5t18.5 -48.5q0 -27 -18.5 -47t-49.5 -20zM395 509q-30 0 -48.5 20t-18.5 47q0 28 18.5 48.5t48.5 20.5q31 0 49.5 -20.5t18.5 -48.5q0 -27 -18.5 -47t-49.5 -20z" />
<glyph unicode="&#xfd;" horiz-adv-x="499" d="M107 -258q-31 0 -54.5 18.5t-23.5 51.5q0 26 18 45.5t47 19.5q30 0 49 -18.5t22 -43.5q18 4 29.5 20.5t25.5 55.5l32 87h-17l-175 393q-12 26 -22 34.5t-32 12.5l-17 4l-3 17h281l-3 -17l-22 -4q-26 -4 -32 -13t4 -29l98 -236l61 169q22 62 16 81t-47 26l-21 6l-3 17h185 l-3 -17l-22 -4q-28 -3 -40.5 -21t-39.5 -90l-110 -293l-49 -141q-44 -131 -132 -131zM208 499l106 184h143l-225 -184h-24z" />
<glyph unicode="&#xfe;" horiz-adv-x="559" d="M-11 -251l3 20l21 1q16 1 23.5 2.5t12 5t4.5 9.5v747q0 36 -6.5 48t-29.5 19l-26 10l1 12l205 56v-315l5 -2q29 39 68.5 64t83.5 25q76 0 129 -63t53 -155q0 -112 -76 -179.5t-175 -67.5q-53 0 -84 14h-4v-217q0 -12 47 -13l34 -1l3 -20h-292zM296 7q38 0 60.5 52.5 t22.5 134.5q0 78 -30 126t-80 48q-35 0 -72 -27v-253q52 -81 99 -81z" />
<glyph unicode="&#xff;" horiz-adv-x="499" d="M107 -258q-31 0 -54.5 18.5t-23.5 51.5q0 26 18 45.5t47 19.5q30 0 49 -18.5t22 -43.5q18 4 29.5 20.5t25.5 55.5l32 87h-17l-175 393q-12 26 -22 34.5t-32 12.5l-17 4l-3 17h281l-3 -17l-22 -4q-26 -4 -32 -13t4 -29l98 -236l61 169q22 62 16 81t-47 26l-21 6l-3 17h185 l-3 -17l-22 -4q-28 -3 -40.5 -21t-39.5 -90l-110 -293l-49 -141q-44 -131 -132 -131zM359 509q-30 0 -48.5 20t-18.5 47q0 28 18.5 48.5t48.5 20.5q31 0 49.5 -20.5t18.5 -48.5q0 -27 -18.5 -47t-49.5 -20zM145 509q-30 0 -49.5 20t-19.5 47q0 28 19.5 48.5t49.5 20.5 q31 0 49.5 -20.5t18.5 -48.5q0 -27 -18.5 -47t-49.5 -20z" />
<glyph unicode="&#x100;" horiz-adv-x="680" d="M349 242h-173l-23 -66q-33 -99 -31 -120q3 -24 38 -31q9 -2 24 -4l21 -3l3 -18h-225l3 18l18 3q47 7 66 33.5t63 142.5l117 322l-9 37q32 8 66.5 33t47.5 54h24l183 -513q23 -62 42.5 -83.5t49.5 -24.5l26 -4l2 -18h-340l3 18l23 3q35 3 39.5 21.5t-13.5 67.5zM185 266 h156l-75 219h-4zM199 715l16 65h272l-11 -65h-277z" />
<glyph unicode="&#x101;" horiz-adv-x="499" d="M373 -13q-37 0 -62 24.5t-30 70.5l-3 1q-41 -48 -73.5 -71.5t-71.5 -23.5q-45 0 -77 29.5t-32 72.5q0 58 58.5 97.5t198.5 77.5l1 28q2 53 -25 87t-76 34q-53 0 -53 -20q0 -1 16 -23t16 -39q0 -24 -19 -41.5t-48 -17.5q-28 0 -47 14.5t-19 39.5q0 52 78.5 89.5 t160.5 37.5q87 0 125.5 -39t35.5 -124l-8 -176q-3 -54 35 -54q16 0 43 31l10 -11q-74 -94 -134 -94zM220 73q29 0 56 31l6 141q-66 -18 -93 -43.5t-27 -63.5q0 -30 15.5 -47.5t42.5 -17.5zM95 530l16 65h272l-11 -65h-277z" />
<glyph unicode="&#x102;" horiz-adv-x="680" d="M349 242h-173l-23 -66q-33 -99 -31 -120q3 -24 38 -31q9 -2 24 -4l21 -3l3 -18h-225l3 18l18 3q47 7 66 33.5t63 142.5l117 322l-9 37q32 8 66.5 33t47.5 54h24l183 -513q23 -62 42.5 -83.5t49.5 -24.5l26 -4l2 -18h-340l3 18l23 3q35 3 39.5 21.5t-13.5 67.5zM334 679 q-118 0 -152 182h24q16 -47 51 -70t79 -23t79.5 23.5t51.5 69.5h22q-31 -182 -155 -182zM185 266h156l-75 219h-4z" />
<glyph unicode="&#x103;" horiz-adv-x="499" d="M373 -13q-37 0 -62 24.5t-30 70.5l-3 1q-41 -48 -73.5 -71.5t-71.5 -23.5q-45 0 -77 29.5t-32 72.5q0 58 58.5 97.5t198.5 77.5l1 28q2 53 -25 87t-76 34q-53 0 -53 -20q0 -1 16 -23t16 -39q0 -24 -19 -41.5t-48 -17.5q-28 0 -47 14.5t-19 39.5q0 52 78.5 89.5 t160.5 37.5q87 0 125.5 -39t35.5 -124l-8 -176q-3 -54 35 -54q16 0 43 31l10 -11q-74 -94 -134 -94zM238 494q-118 0 -152 182h24q16 -47 51 -70t79 -23t79.5 23.5t51.5 69.5h22q-31 -182 -155 -182zM220 73q29 0 56 31l6 141q-66 -18 -93 -43.5t-27 -63.5q0 -30 15.5 -47.5 t42.5 -17.5z" />
<glyph unicode="&#x104;" horiz-adv-x="680" d="M560 -241q-48 0 -79 24t-31 69q0 54 49 93.5t114 54.5h-271l3 18l23 3q35 3 39.5 21.5t-13.5 67.5l-46 132h-172l-23 -66q-33 -99 -31 -120q3 -24 38 -31q9 -2 24 -4l21 -3l3 -18h-225l3 18l19 3q33 5 49.5 17.5t32 44t46.5 114.5l117 322l-9 37q34 9 71 33t49 54h18 l183 -513q23 -62 42.5 -83.5t49.5 -24.5l27 -4l1 -18q-64 -8 -106 -37t-42 -74q0 -68 71 -68q33 0 73 34l5 -5q-14 -36 -45.5 -63.5t-77.5 -27.5zM184 266h157l-75 219h-4z" />
<glyph unicode="&#x105;" horiz-adv-x="499" d="M354 -241q-46 0 -77 26.5t-31 70.5q0 73 119 131h-3q-33 4 -55 28.5t-26 66.5l-3 1q-41 -48 -73.5 -71.5t-71.5 -23.5q-45 0 -77 29.5t-32 72.5q0 58 58.5 97.5t198.5 77.5l1 28q2 53 -25 87t-76 34q-53 0 -53 -20q0 -1 16 -23t16 -39q0 -24 -19 -41.5t-48 -17.5 q-28 0 -47 14.5t-19 39.5q0 52 78.5 89.5t160.5 37.5q87 0 125.5 -39t35.5 -124l-8 -176q-3 -54 35 -54q16 0 43 31l10 -11q-51 -69 -107 -94q-34 -15 -52 -41.5t-18 -52.5q0 -34 18.5 -53t51.5 -19q32 0 72 34l5 -5q-13 -35 -45 -63t-78 -28zM220 73q29 0 56 31l6 141 q-66 -18 -93 -43.5t-27 -63.5q0 -30 15.5 -47.5t42.5 -17.5z" />
<glyph unicode="&#x106;" horiz-adv-x="702" d="M305 684l106 184h143l-225 -184h-24zM396 -12q-167 0 -266 88.5t-99 227.5q0 143 100 238.5t274 95.5q92 0 154 -32l79 19l7 -217h-32l-93 181q-44 24 -109 24q-96 0 -149.5 -82.5t-53.5 -218.5q0 -138 54 -219t141 -81q122 0 181 109l44 102h34l-28 -201l-47 1 q-33 -13 -88 -24t-103 -11z" />
<glyph unicode="&#x107;" horiz-adv-x="465" d="M183 499l106 184h143l-225 -184h-24zM240 -16q-93 0 -154.5 62t-61.5 159q0 108 71 178.5t181 70.5q74 0 121 -29.5t47 -75.5q0 -31 -19.5 -50.5t-49.5 -19.5q-33 0 -53 24.5t-17 57.5q0 12 10.5 28.5t10.5 17.5q-1 9 -14 15.5t-30 6.5q-46 0 -73.5 -45.5t-27.5 -129.5 q0 -88 35.5 -136.5t101.5 -48.5q80 0 122 77l11 -6q-27 -76 -81 -116t-130 -40z" />
<glyph unicode="&#x108;" horiz-adv-x="702" d="M247 677l139 200h23l139 -200h-18l-131 88h-2l-132 -88h-18zM396 -12q-167 0 -266 88.5t-99 227.5q0 143 100 238.5t274 95.5q92 0 154 -32l79 19l7 -217h-32l-93 181q-44 24 -109 24q-96 0 -149.5 -82.5t-53.5 -218.5q0 -138 54 -219t141 -81q122 0 181 109l44 102h34 l-28 -201l-47 1q-33 -13 -88 -24t-103 -11z" />
<glyph unicode="&#x109;" horiz-adv-x="465" d="M111 492l139 200h23l139 -200h-18l-131 88h-2l-132 -88h-18zM240 -16q-93 0 -154.5 62t-61.5 159q0 108 71 178.5t181 70.5q74 0 121 -29.5t47 -75.5q0 -31 -19.5 -50.5t-49.5 -19.5q-33 0 -53 24.5t-17 57.5q0 12 10.5 28.5t10.5 17.5q-1 9 -14 15.5t-30 6.5 q-46 0 -73.5 -45.5t-27.5 -129.5q0 -88 35.5 -136.5t101.5 -48.5q80 0 122 77l11 -6q-27 -76 -81 -116t-130 -40z" />
<glyph unicode="&#x10a;" horiz-adv-x="702" d="M396 -12q-167 0 -266 88.5t-99 227.5q0 143 100 238.5t274 95.5q92 0 154 -32l79 19l7 -217h-32l-93 181q-44 24 -109 24q-96 0 -149.5 -82.5t-53.5 -218.5q0 -138 54 -219t141 -81q122 0 181 109l44 102h34l-28 -201l-47 1q-33 -13 -88 -24t-103 -11zM393 702 q-35 0 -57 24t-22 56t22 56t57 24q36 0 57.5 -23.5t21.5 -56.5t-21.5 -56.5t-57.5 -23.5z" />
<glyph unicode="&#x10b;" horiz-adv-x="465" d="M240 -16q-93 0 -154.5 62t-61.5 159q0 108 71 178.5t181 70.5q74 0 121 -29.5t47 -75.5q0 -31 -19.5 -50.5t-49.5 -19.5q-33 0 -53 24.5t-17 57.5q0 12 10.5 28.5t10.5 17.5q-1 9 -14 15.5t-30 6.5q-46 0 -73.5 -45.5t-27.5 -129.5q0 -88 35.5 -136.5t101.5 -48.5 q80 0 122 77l11 -6q-27 -76 -81 -116t-130 -40zM262 517q-35 0 -57 24t-22 56t22 56t57 24q36 0 57.5 -23.5t21.5 -56.5t-21.5 -56.5t-57.5 -23.5z" />
<glyph unicode="&#x10c;" horiz-adv-x="702" d="M365 677l-139 200h18l132 -88h2l131 88h18l-139 -200h-23zM396 -12q-167 0 -266 88.5t-99 227.5q0 143 100 238.5t274 95.5q92 0 154 -32l79 19l7 -217h-32l-93 181q-44 24 -109 24q-96 0 -149.5 -82.5t-53.5 -218.5q0 -138 54 -219t141 -81q122 0 181 109l44 102h34 l-28 -201l-47 1q-33 -13 -88 -24t-103 -11z" />
<glyph unicode="&#x10d;" horiz-adv-x="465" d="M246 492l-139 200h18l132 -88h2l131 88h18l-139 -200h-23zM240 -16q-93 0 -154.5 62t-61.5 159q0 108 71 178.5t181 70.5q74 0 121 -29.5t47 -75.5q0 -31 -19.5 -50.5t-49.5 -19.5q-33 0 -53 24.5t-17 57.5q0 12 10.5 28.5t10.5 17.5q-1 9 -14 15.5t-30 6.5 q-46 0 -73.5 -45.5t-27.5 -129.5q0 -88 35.5 -136.5t101.5 -48.5q80 0 122 77l11 -6q-27 -76 -81 -116t-130 -40z" />
<glyph unicode="&#x10e;" horiz-adv-x="721" d="M316 677l-139 200h18l132 -88h2l131 88h18l-139 -200h-23zM16 0l3 17l36 4q43 7 43 18v549q0 6 -9.5 9t-42.5 7l-26 4l-3 17h55.5t106.5 0.5t118 0.5t42 0q169 0 261 -81t92 -228q0 -130 -103.5 -223.5t-253.5 -93.5h-319zM330 20q85 1 134 80t49 198q0 304 -206 304h-45 v-567z" />
<glyph unicode="&#x10f;" horiz-adv-x="784" d="M589 375l-13 14q93 53 93 124q0 34 -23.5 54.5t-47.5 26.5l-24 7q0 28 21.5 54t57.5 26q50 0 78 -32.5t28 -75.5q0 -56 -45.5 -109.5t-124.5 -88.5zM361 -15v89l-2 2q-29 -39 -70.5 -64.5t-83.5 -25.5q-77 0 -129 63t-52 155q0 113 76 179.5t179 66.5q48 0 81 -12 q1 -2 1 0v106q0 37 -6.5 50t-27.5 18l-38 11l2 12l215 42v-570q0 -37 6.5 -49.5t28.5 -18.5l28 -7l-2 -13zM288 66q34 0 73 33v248q-22 36 -48 58.5t-46 22.5q-40 0 -63 -51.5t-23 -134.5q0 -78 29.5 -127t77.5 -49z" />
<glyph unicode="&#x110;" horiz-adv-x="719" d="M98 301h-78l3 25h75v258q0 7 -9 10.5t-37 7.5l-32 6l-3 17h55.5t106.5 0.5t118 0.5t42 0q169 0 261 -81t92 -228q0 -130 -103.5 -223.5t-253.5 -93.5h-319l3 17l40 7q39 5 39 19v258zM262 326h105l3 -25h-108v-263l68 -15q85 -1 134 77.5t49 197.5q0 303 -206 303h-45 v-275z" />
<glyph unicode="&#x111;" horiz-adv-x="570" d="M361 -15v89l-2 2q-29 -39 -70.5 -64.5t-83.5 -25.5q-77 0 -129 63t-52 155q0 113 76 179.5t179 66.5q48 0 81 -12q1 -2 1 0v58h-113l-12 54h125q-1 33 -7.5 45t-26.5 17l-38 11l2 12l215 42v-127h52l14 -54h-66v-389q0 -37 6.5 -49.5t28.5 -18.5l28 -7l-2 -13zM288 66 q34 0 73 33v248q-22 36 -48 58.5t-46 22.5q-40 0 -63 -51.5t-23 -134.5q0 -78 29.5 -127t77.5 -49z" />
<glyph unicode="&#x112;" horiz-adv-x="645" d="M16 0l3 17l36 4q43 7 43 18v549q0 6 -9.5 9t-42.5 7l-26 4l-3 17h557l4 -217h-32l-8 28q-25 99 -78 133.5t-144 32.5l-54 -2v-271h35q95 6 119 83l12 35h25l-29 -266l-24 1l-4 34q-6 46 -28 66t-80 23l-26 2v-282l72 -3q178 1 234 168l8 23h32l-20 -213h-572zM173 715 l16 65h272l-11 -65h-277z" />
<glyph unicode="&#x113;" horiz-adv-x="478" d="M240 -16q-92 0 -154 63.5t-62 161.5q0 105 71.5 176t176.5 71q84 0 131.5 -44.5t47.5 -105.5q0 -16 -3 -30q-231 3 -270 5q-1 -9 -1 -34q1 -80 39.5 -129t103.5 -49q81 0 123 77l12 -6q-55 -156 -215 -156zM178 299l139 1q1 56 -13 93.5t-46 37.5q-30 0 -52.5 -35 t-27.5 -97zM113 530l16 65h272l-11 -65h-277z" />
<glyph unicode="&#x114;" horiz-adv-x="645" d="M16 0l3 17l36 4q43 7 43 18v549q0 6 -9.5 9t-42.5 7l-26 4l-3 17h557l4 -217h-32l-8 28q-25 99 -78 133.5t-144 32.5l-54 -2v-271h35q95 6 119 83l12 35h25l-29 -266l-24 1l-4 34q-6 46 -28 66t-80 23l-26 2v-282l72 -3q178 1 234 168l8 23h32l-20 -213h-572zM331 679 q-118 0 -152 182h24q16 -47 51 -70t79 -23t79.5 23.5t51.5 69.5h22q-31 -182 -155 -182z" />
<glyph unicode="&#x115;" horiz-adv-x="478" d="M240 -16q-92 0 -154 63.5t-62 161.5q0 105 71.5 176t176.5 71q84 0 131.5 -44.5t47.5 -105.5q0 -16 -3 -30q-231 3 -270 5q-1 -9 -1 -34q1 -80 39.5 -129t103.5 -49q81 0 123 77l12 -6q-55 -156 -215 -156zM178 299l139 1q1 56 -13 93.5t-46 37.5q-30 0 -52.5 -35 t-27.5 -97zM251 494q-118 0 -152 182h24q16 -47 51 -70t79 -23t79.5 23.5t51.5 69.5h22q-31 -182 -155 -182z" />
<glyph unicode="&#x116;" horiz-adv-x="645" d="M16 0l3 17l36 4q43 7 43 18v549q0 6 -9.5 9t-42.5 7l-26 4l-3 17h557l4 -217h-32l-8 28q-25 99 -78 133.5t-144 32.5l-54 -2v-271h35q95 6 119 83l12 35h25l-29 -266l-24 1l-4 34q-6 46 -28 66t-80 23l-26 2v-282l72 -3q178 1 234 168l8 23h32l-20 -213h-572zM320 702 q-35 0 -57 24t-22 56t22 56t57 24q36 0 57.5 -23.5t21.5 -56.5t-21.5 -56.5t-57.5 -23.5z" />
<glyph unicode="&#x117;" horiz-adv-x="478" d="M240 -16q-92 0 -154 63.5t-62 161.5q0 105 71.5 176t176.5 71q84 0 131.5 -44.5t47.5 -105.5q0 -16 -3 -30q-231 3 -270 5q-1 -9 -1 -34q1 -80 39.5 -129t103.5 -49q81 0 123 77l12 -6q-55 -156 -215 -156zM178 299l139 1q1 56 -13 93.5t-46 37.5q-30 0 -52.5 -35 t-27.5 -97zM261 517q-35 0 -57 24t-22 56t22 56t57 24q36 0 57.5 -23.5t21.5 -56.5t-21.5 -56.5t-57.5 -23.5z" />
<glyph unicode="&#x118;" horiz-adv-x="645" d="M467 -241q-45 0 -76 27.5t-31 70.5q0 83 124 143h-468l3 17l36 4q43 7 43 18v549q0 6 -9.5 9t-42.5 7l-26 4l-3 17h557l4 -217h-32l-8 28q-25 99 -78 133.5t-144 32.5l-54 -2v-271h35q95 6 119 83l12 35h25l-29 -266l-24 1l-4 34q-6 46 -28 66t-80 24l-26 1v-282l72 -3 q178 1 234 168l9 23h31l-20 -213h-69q-74 -47 -74 -106q0 -34 18 -53.5t50 -19.5q33 0 73 34l5 -5q-14 -35 -46 -63t-78 -28z" />
<glyph unicode="&#x119;" horiz-adv-x="478" d="M275 -241q-46 0 -77 26.5t-31 70.5q0 41 33.5 74.5t82.5 55.5q-14 -2 -43 -2q-92 0 -154 63.5t-62 161.5q0 105 71.5 176t176.5 71q84 0 131.5 -44.5t47.5 -105.5q0 -15 -3 -30q-231 3 -270 5q-1 -9 -1 -34q1 -80 39.5 -129t103.5 -49q81 0 123 77l12 -6q-19 -54 -48 -87 t-75 -56q-37 -19 -58.5 -48t-21.5 -56q0 -35 18 -53.5t51 -18.5q32 0 72 34l6 -5q-14 -35 -46 -63t-78 -28zM178 299l139 1q1 56 -13 93.5t-46 37.5q-31 0 -53 -34.5t-27 -97.5z" />
<glyph unicode="&#x11a;" horiz-adv-x="645" d="M308 677l-139 200h18l132 -88h2l131 88h18l-139 -200h-23zM16 0l3 17l36 4q43 7 43 18v549q0 6 -9.5 9t-42.5 7l-26 4l-3 17h557l4 -217h-32l-8 28q-25 99 -78 133.5t-144 32.5l-54 -2v-271h35q95 6 119 83l12 35h25l-29 -266l-24 1l-4 34q-6 46 -28 66t-80 23l-26 2 v-282l72 -3q178 1 234 168l8 23h32l-20 -213h-572z" />
<glyph unicode="&#x11b;" horiz-adv-x="478" d="M244 492l-139 200h18l132 -88h2l131 88h18l-139 -200h-23zM240 -16q-92 0 -154 63.5t-62 161.5q0 105 71.5 176t176.5 71q84 0 131.5 -44.5t47.5 -105.5q0 -16 -3 -30q-231 3 -270 5q-1 -9 -1 -34q1 -80 39.5 -129t103.5 -49q81 0 123 77l12 -6q-55 -156 -215 -156z M178 299l139 1q1 56 -13 93.5t-46 37.5q-30 0 -52.5 -35t-27.5 -97z" />
<glyph unicode="&#x11c;" horiz-adv-x="737" d="M389 -17q-168 0 -263 92.5t-95 229.5q0 145 98.5 239t273.5 94q100 0 162 -32l80 19l2 -215h-34l-91 177q-40 27 -118 27q-93 0 -144 -83t-51 -218q0 -151 55 -228.5t132 -77.5q25 0 51 8t36 15v210q0 12 -64 16l-30 3l-3 18h333l-3 -18l-43 -4q-34 -2 -34 -14v-177 l66 10l2 -12q-58 -34 -148.5 -56.5t-169.5 -22.5zM229 677l139 200h23l139 -200h-18l-131 88h-2l-132 -88h-18z" />
<glyph unicode="&#x11d;" horiz-adv-x="507" d="M132 -38q-44 5 -75.5 33.5t-31.5 64.5q0 38 32.5 67.5t80.5 43.5v1q-96 34 -96 127q0 62 56 108.5t142 46.5q74 0 124 -29l146 16l-8 -64l-100 15l-1 -3q35 -30 35 -78q0 -67 -56.5 -109.5t-146.5 -42.5q-37 0 -69 6q-19 -5 -31.5 -18t-12.5 -27q0 -35 76 -35 q15 0 68.5 1.5t73.5 1.5q67 0 109 -35.5t42 -94.5q0 -82 -80.5 -140.5t-201.5 -58.5q-194 0 -194 100q0 36 31 58.5t88 44.5zM259 -211q60 0 98 28.5t38 71.5q0 37 -24.5 52.5t-80.5 19.5q-23 3 -133 -2q-37 -17 -37 -75q0 -41 37.5 -68t101.5 -27zM239 179q32 0 46.5 28.5 t14.5 95.5q0 129 -61 129q-31 0 -44.5 -29t-13.5 -99q0 -125 58 -125zM91 492l139 200h23l139 -200h-18l-131 88h-2l-132 -88h-18z" />
<glyph unicode="&#x11e;" horiz-adv-x="737" d="M389 -17q-168 0 -263 92.5t-95 229.5q0 145 98.5 239t273.5 94q100 0 162 -32l80 19l2 -215h-34l-91 177q-40 27 -118 27q-93 0 -144 -83t-51 -218q0 -151 55 -228.5t132 -77.5q25 0 51 8t36 15v210q0 12 -64 16l-30 3l-3 18h333l-3 -18l-43 -4q-34 -2 -34 -14v-177 l66 10l2 -12q-58 -34 -148.5 -56.5t-169.5 -22.5zM387 679q-118 0 -152 182h24q16 -47 51 -70t79 -23t79.5 23.5t51.5 69.5h22q-31 -182 -155 -182z" />
<glyph unicode="&#x11f;" horiz-adv-x="507" d="M132 -38q-44 5 -75.5 33.5t-31.5 64.5q0 38 32.5 67.5t80.5 43.5v1q-96 34 -96 127q0 62 56 108.5t142 46.5q74 0 124 -29l146 16l-8 -64l-100 15l-1 -3q35 -30 35 -78q0 -67 -56.5 -109.5t-146.5 -42.5q-37 0 -69 6q-19 -5 -31.5 -18t-12.5 -27q0 -35 76 -35 q15 0 68.5 1.5t73.5 1.5q67 0 109 -35.5t42 -94.5q0 -82 -80.5 -140.5t-201.5 -58.5q-194 0 -194 100q0 36 31 58.5t88 44.5zM259 -211q60 0 98 28.5t38 71.5q0 37 -24.5 52.5t-80.5 19.5q-23 3 -133 -2q-37 -17 -37 -75q0 -41 37.5 -68t101.5 -27zM239 179q32 0 46.5 28.5 t14.5 95.5q0 129 -61 129q-31 0 -44.5 -29t-13.5 -99q0 -125 58 -125zM238 494q-118 0 -152 182h24q16 -47 51 -70t79 -23t79.5 23.5t51.5 69.5h22q-31 -182 -155 -182z" />
<glyph unicode="&#x120;" horiz-adv-x="737" d="M389 -17q-168 0 -263 92.5t-95 229.5q0 145 98.5 239t273.5 94q100 0 162 -32l80 19l2 -215h-34l-91 177q-40 27 -118 27q-93 0 -144 -83t-51 -218q0 -151 55 -228.5t132 -77.5q25 0 51 8t36 15v210q0 12 -64 16l-30 3l-3 18h333l-3 -18l-43 -4q-34 -2 -34 -14v-177 l66 10l2 -12q-58 -34 -148.5 -56.5t-169.5 -22.5zM388 702q-35 0 -57 24t-22 56t22 56t57 24q36 0 57.5 -23.5t21.5 -56.5t-21.5 -56.5t-57.5 -23.5z" />
<glyph unicode="&#x121;" horiz-adv-x="507" d="M132 -38q-44 5 -75.5 33.5t-31.5 64.5q0 38 32.5 67.5t80.5 43.5v1q-96 34 -96 127q0 62 56 108.5t142 46.5q74 0 124 -29l146 16l-8 -64l-100 15l-1 -3q35 -30 35 -78q0 -67 -56.5 -109.5t-146.5 -42.5q-37 0 -69 6q-19 -5 -31.5 -18t-12.5 -27q0 -35 76 -35 q15 0 68.5 1.5t73.5 1.5q67 0 109 -35.5t42 -94.5q0 -82 -80.5 -140.5t-201.5 -58.5q-194 0 -194 100q0 36 31 58.5t88 44.5zM259 -211q60 0 98 28.5t38 71.5q0 37 -24.5 52.5t-80.5 19.5q-23 3 -133 -2q-37 -17 -37 -75q0 -41 37.5 -68t101.5 -27zM239 179q32 0 46.5 28.5 t14.5 95.5q0 129 -61 129q-31 0 -44.5 -29t-13.5 -99q0 -125 58 -125zM241 517q-35 0 -57 24t-22 56t22 56t57 24q36 0 57.5 -23.5t21.5 -56.5t-21.5 -56.5t-57.5 -23.5z" />
<glyph unicode="&#x122;" horiz-adv-x="737" d="M345 -287l-10 11q85 24 85 83q0 33 -34.5 47.5t-60.5 1.5q-8 35 14.5 62.5t64.5 27.5q44 0 69.5 -27.5t25.5 -66.5q0 -46 -39.5 -84.5t-114.5 -54.5zM389 -17q-168 0 -263 92.5t-95 229.5q0 145 98.5 239t273.5 94q100 0 162 -32l80 19l2 -215h-34l-91 177 q-40 27 -118 27q-93 0 -144 -83t-51 -218q0 -151 55 -228.5t132 -77.5q25 0 51 8t36 15v210q0 12 -64 16l-30 3l-3 18h333l-3 -18l-43 -4q-34 -2 -34 -14v-177l66 10l2 -12q-58 -34 -148.5 -56.5t-169.5 -22.5z" />
<glyph unicode="&#x123;" horiz-adv-x="507" d="M132 -38q-44 5 -75.5 33.5t-31.5 64.5q0 38 32.5 67.5t80.5 43.5v1q-96 34 -96 127q0 62 56 108.5t142 46.5q74 0 124 -29l146 16l-8 -64l-100 15l-1 -3q35 -30 35 -78q0 -67 -56.5 -109.5t-146.5 -42.5q-37 0 -69 6q-19 -5 -31.5 -18t-12.5 -27q0 -35 76 -35 q15 0 68.5 1.5t73.5 1.5q67 0 109 -35.5t42 -94.5q0 -82 -80.5 -140.5t-201.5 -58.5q-194 0 -194 100q0 36 31 58.5t88 44.5zM259 -211q60 0 98 28.5t38 71.5q0 37 -24.5 52.5t-80.5 19.5q-23 3 -133 -2q-37 -17 -37 -75q0 -41 37.5 -68t101.5 -27zM239 179q32 0 46.5 28.5 t14.5 95.5q0 129 -61 129q-31 0 -44.5 -29t-13.5 -99q0 -125 58 -125zM311 724l10 -11q-85 -24 -85 -83q0 -33 34.5 -47.5t60.5 -1.5q8 -35 -14.5 -62.5t-64.5 -27.5q-44 0 -69.5 27.5t-25.5 66.5q0 46 39.5 84.5t114.5 54.5z" />
<glyph unicode="&#x124;" horiz-adv-x="765" d="M232 677l139 200h23l139 -200h-18l-131 88h-2l-132 -88h-18zM16 0l3 17l36 4q43 7 43 18v549q0 6 -9.5 9t-42.5 7l-26 4l-3 17h325l-3 -17l-35 -4q-43 -7 -43 -18v-256h243v258q0 6 -9 9t-42 7l-25 4l-3 17h324l-3 -17l-36 -4q-42 -7 -42 -18v-549q0 -6 9 -9t42 -7l27 -4 l3 -17h-325l3 17l35 4q42 5 42 18v267h-243v-269q0 -6 9 -9t42 -7l26 -4l3 -17h-325z" />
<glyph unicode="&#x125;" horiz-adv-x="571" d="M11 0l3 17l14 1q23 2 31.5 5t8.5 12v498q0 36 -6.5 48t-27.5 19l-28 11l2 12l207 56v-312h1q106 87 173 87q47 0 83 -36q33 -34 33 -119v-264q0 -10 49 -17l11 -1l3 -17h-259l3 17l17 1q15 1 22.5 4t8.5 5.5t1 7.5v235q0 52 -20 72.5t-58 20.5q-36 0 -70 -20v-309 q0 -13 39 -16l16 -1l3 -17h-260zM28 689l139 200h23l139 -200h-18l-131 88h-2l-132 -88h-18z" />
<glyph unicode="&#x126;" horiz-adv-x="765" d="M-1 425l16 52h83v111q0 6 -9.5 9t-42.5 7l-26 4l-3 17h325l-3 -17l-35 -4q-43 -5 -43 -18v-109h243v111q0 6 -9.5 9.5t-41.5 6.5l-25 4l-3 17h324l-3 -17l-36 -4q-42 -6 -42 -18v-109h100l-11 -52h-89v-388q0 -6 9 -9t42 -7l27 -4l3 -17h-325l3 17l35 4q42 5 42 18v267 h-243v-269q0 -6 9 -9t42 -7l26 -4l3 -17h-325l3 17l36 4q43 7 43 18v386h-99zM261 330h243v95h-243v-95z" />
<glyph unicode="&#x127;" horiz-adv-x="571" d="M2 496l14 54h50v4q-1 21 -8 31t-24 16l-28 10l2 12l207 56v-129h123l-12 -54h-111v-129h1q106 87 173 87q47 0 83 -36q33 -34 33 -119v-264q0 -10 49 -17l11 -1l3 -17h-259l3 17l17 1q15 1 22.5 4t8.5 5.5t1 7.5v235q0 52 -20 72.5t-58 20.5q-36 0 -70 -20v-309 q0 -13 39 -16l16 -1l3 -17h-260l3 17l14 1q23 2 31.5 5t8.5 12v461h-66z" />
<glyph unicode="&#x12a;" horiz-adv-x="385" d="M26 0l3 17l39 4q43 4 43 18v549q0 6 -9.5 9t-42.5 7l-31 4l-3 17h334l-3 -17l-39 -4q-43 -4 -43 -18v-549q0 -6 9.5 -9t41.5 -7l31 -4l3 -17h-333zM47 715l16 65h272l-11 -65h-277z" />
<glyph unicode="&#x12b;" horiz-adv-x="302" d="M22 0l3 17l14 1q23 2 31.5 5t8.5 12v262q0 45 -7.5 58.5t-34.5 21.5l-20 5l1 13l206 58v-419q0 -7 8 -9.5t40 -6.5l9 -1l3 -17h-262zM1 530l16 65h272l-11 -65h-277z" />
<glyph unicode="&#x12c;" horiz-adv-x="385" d="M26 0l3 17l39 4q43 4 43 18v549q0 6 -9.5 9t-42.5 7l-31 4l-3 17h334l-3 -17l-39 -4q-43 -4 -43 -18v-549q0 -6 9.5 -9t41.5 -7l31 -4l3 -17h-333zM192 679q-118 0 -152 182h24q16 -47 51 -70t79 -23t79.5 23.5t51.5 69.5h22q-31 -182 -155 -182z" />
<glyph unicode="&#x12d;" horiz-adv-x="302" d="M22 0l3 17l14 1q23 2 31.5 5t8.5 12v262q0 45 -7.5 58.5t-34.5 21.5l-20 5l1 13l206 58v-419q0 -7 8 -9.5t40 -6.5l9 -1l3 -17h-262zM145 494q-118 0 -152 182h24q16 -47 51 -70t79 -23t79.5 23.5t51.5 69.5h22q-31 -182 -155 -182z" />
<glyph unicode="&#x12e;" horiz-adv-x="385" d="M236 -241q-48 0 -79.5 23.5t-31.5 69.5q0 49 45 89t116 59h-260l3 17l39 4q43 4 43 18v549q0 6 -9.5 9t-42.5 7l-31 4l-3 17h335l-3 -17l-40 -4q-43 -4 -43 -18v-549q0 -6 9.5 -9t42.5 -7l30 -4l3 -17q-67 -8 -108.5 -37.5t-41.5 -73.5q0 -68 72 -68q33 0 73 34l5 -5 q-14 -36 -45.5 -63.5t-77.5 -27.5z" />
<glyph unicode="&#x12f;" horiz-adv-x="302" d="M162 -241q-49 0 -80 23t-31 70q0 51 49 91.5t113 56.5h-191l3 17l14 1q23 2 31.5 5t8.5 12v262q0 45 -8 59t-34 21l-20 5l1 13l206 58v-419q0 -7 8 -9.5t40 -6.5l9 -1l3 -17q-62 -8 -105 -38.5t-43 -73.5q0 -67 71 -67q33 0 73 34l5 -5q-14 -36 -45.5 -63.5t-77.5 -27.5z M146 505q-38 0 -62 25.5t-24 59.5t24 59t62 25q39 0 63 -25t24 -59t-24 -59.5t-63 -25.5z" />
<glyph unicode="&#x130;" horiz-adv-x="385" d="M26 0l3 17l39 4q43 4 43 18v549q0 6 -9.5 9t-42.5 7l-31 4l-3 17h334l-3 -17l-39 -4q-43 -4 -43 -18v-549q0 -6 9.5 -9t41.5 -7l31 -4l3 -17h-333zM194 702q-35 0 -57 24t-22 56t22 56t57 24q36 0 57.5 -23.5t21.5 -56.5t-21.5 -56.5t-57.5 -23.5z" />
<glyph unicode="&#x131;" horiz-adv-x="302" d="M22 0l3 17l14 1q23 2 31.5 5t8.5 12v262q0 45 -7.5 58.5t-34.5 21.5l-20 5l1 13l206 58v-419q0 -7 8 -9.5t40 -6.5l9 -1l3 -17h-262z" />
<glyph unicode="&#x134;" horiz-adv-x="411" d="M76 677l139 200h23l139 -200h-18l-131 88h-2l-132 -88h-18zM5 -177q-53 0 -86 24t-33 62q0 30 21.5 51t53.5 21q48 0 68.5 -43.5t-6.5 -89.5q87 9 87 213v527q0 6 -9.5 9.5t-40.5 6.5l-33 4l-3 17h332l-3 -17l-35 -4q-43 -7 -43 -18v-486q0 -92 -87.5 -184.5 t-182.5 -92.5z" />
<glyph unicode="&#x135;" horiz-adv-x="290" d="M-12 -257q-43 0 -68.5 20t-25.5 53q0 26 19 44.5t46 18.5q42 0 58 -36.5t-8 -68.5q37 -1 51.5 49t14.5 143v331q0 45 -8 59t-34 21l-21 5l1 13l207 58v-469q-2 -73 -78.5 -157t-153.5 -84zM-14 492l139 200h23l139 -200h-18l-131 88h-2l-132 -88h-18z" />
<glyph unicode="&#x136;" horiz-adv-x="720" d="M309 -287l-10 11q85 24 85 83q0 33 -34.5 47.5t-60.5 1.5q-8 35 14.5 62.5t64.5 27.5q44 0 69.5 -27.5t25.5 -66.5q0 -46 -39.5 -84.5t-114.5 -54.5zM16 0l3 17l36 4q43 7 43 18v549q0 6 -9.5 9t-42.5 7l-26 4l-3 17h327l-3 -17l-37 -4q-43 -4 -43 -18v-290l149 157 q95 98 77 128q-10 16 -56 22l-23 5l-3 17h285l-3 -17l-36 -6q-46 -6 -80.5 -32.5t-117.5 -110.5l-28 -27l192 -321q31 -55 50 -71.5t50 -19.5l13 -3l3 -17h-324l3 17l10 4q19 2 26.5 6.5t7.5 17t-9 32t-29 55.5l-105 186l-52 -52v-229q0 -6 9.5 -9t42.5 -7l27 -4l3 -17h-327 z" />
<glyph unicode="&#x137;" horiz-adv-x="556" d="M227 -287l-10 11q85 24 85 83q0 33 -34.5 47.5t-60.5 1.5q-8 35 14.5 62.5t64.5 27.5q44 0 69.5 -27.5t25.5 -66.5q0 -46 -39.5 -84.5t-114.5 -54.5zM14 0l3 17l13 1q24 3 31 6t7 11v498q0 36 -6.5 48t-27.5 19l-28 11l2 12l206 56v-461l45 38q59 54 82 82t23 46 q0 17 -12.5 25.5t-49.5 11.5l-11 1l-3 18h252l-3 -18l-18 -3q-40 -7 -73.5 -26.5t-89.5 -73.5l-5 -7l125 -230q20 -36 32 -48t34 -15l13 -2l3 -17h-206l-19 40l-89 178l-30 -26v-158q0 -7 8 -10t36 -6l16 -1l1 -17h-261z" />
<glyph unicode="&#x139;" horiz-adv-x="592" d="M137 684l106 184h143l-225 -184h-24zM16 0l3 17l36 5q43 5 43 18v547q0 6 -9.5 9.5t-42.5 7.5l-26 4l-3 17h332l-3 -17l-42 -5q-43 -3 -43 -18v-559l35 -5q77 0 128.5 40.5t100.5 147.5l11 24h31l-28 -233h-523z" />
<glyph unicode="&#x13a;" horiz-adv-x="293" d="M74 694l106 184h143l-225 -184h-24zM20 0l4 17l14 1q22 1 28.5 4.5t6.5 12.5v498q0 36 -6.5 48t-28.5 19l-26 11l2 12l205 56v-645q0 -12 41 -16l12 -1l3 -17h-255z" />
<glyph unicode="&#x13b;" horiz-adv-x="592" d="M230 -287l-10 11q85 24 85 83q0 33 -34.5 47.5t-60.5 1.5q-8 35 14.5 62.5t64.5 27.5q44 0 69.5 -27.5t25.5 -66.5q0 -46 -39.5 -84.5t-114.5 -54.5zM16 0l3 17l36 5q43 5 43 18v547q0 6 -9.5 9.5t-42.5 7.5l-26 4l-3 17h332l-3 -17l-42 -5q-43 -3 -43 -18v-559l35 -5 q77 0 128.5 40.5t100.5 147.5l11 24h31l-28 -233h-523z" />
<glyph unicode="&#x13c;" horiz-adv-x="293" d="M84 -287l-10 11q85 24 85 83q0 33 -34.5 47.5t-60.5 1.5q-8 35 14.5 62.5t64.5 27.5q44 0 69.5 -27.5t25.5 -66.5q0 -46 -39.5 -84.5t-114.5 -54.5zM20 0l4 17l14 1q22 1 28.5 4.5t6.5 12.5v498q0 36 -6.5 48t-28.5 19l-26 11l2 12l205 56v-645q0 -12 41 -16l12 -1l3 -17 h-255z" />
<glyph unicode="&#x13d;" horiz-adv-x="741" d="M579 339l-13 14q93 53 93 124q0 34 -23.5 54.5t-47.5 26.5l-24 7q0 28 21.5 54t57.5 26q50 0 78 -32.5t28 -75.5q0 -56 -45.5 -109.5t-124.5 -88.5zM16 0l3 17l36 5q43 5 43 18v547q0 6 -9.5 9.5t-42.5 7.5l-26 4l-3 17h332l-3 -17l-42 -5q-43 -3 -43 -18v-559l35 -5 q77 0 128.5 40.5t100.5 147.5l11 24h31l-28 -233h-523z" />
<glyph unicode="&#x13e;" horiz-adv-x="496" d="M301 378l-13 14q93 53 93 124q0 34 -23.5 54.5t-47.5 27.5l-24 6q0 28 21.5 54t57.5 26q50 0 78 -32.5t28 -75.5q0 -56 -45.5 -109.5t-124.5 -88.5zM20 0l4 17l14 1q22 1 28.5 4.5t6.5 12.5v498q0 36 -6.5 48t-28.5 19l-26 11l2 12l205 56v-645q0 -12 41 -16l12 -1l3 -17 h-255z" />
<glyph unicode="&#x13f;" horiz-adv-x="688" d="M681 228q-33 0 -56 23t-23 56q0 32 23 54.5t56 22.5q31 0 54.5 -23.5t23.5 -53.5q0 -33 -23 -56t-55 -23zM16 0l3 17l36 5q43 5 43 18v547q0 6 -9.5 9.5t-42.5 7.5l-26 4l-3 17h332l-3 -17l-42 -5q-43 -3 -43 -18v-559l35 -5q77 0 128.5 40.5t100.5 147.5l11 24h31 l-28 -233h-523z" />
<glyph unicode="&#x140;" horiz-adv-x="487" d="M393 234q-33 0 -56 23t-23 56q0 32 23 54.5t56 22.5q31 0 54.5 -23.5t23.5 -53.5q0 -33 -23 -56t-55 -23zM20 0l4 17l14 1q22 1 28.5 4.5t6.5 12.5v498q0 36 -6.5 48t-28.5 19l-26 11l2 12l205 56v-645q0 -12 41 -16l12 -1l3 -17h-255z" />
<glyph unicode="&#x141;" horiz-adv-x="596" d="M101 251l-90 -28l1 25l89 28v307q0 7 -8 9.5t-38 7.5l-30 5l-3 20h330l-3 -20l-47 -6q-39 -6 -39 -18v-255l99 31l1 -25l-100 -31v-276l37 -4q77 0 127.5 40t101.5 146l10 26h31l-28 -233h-521l3 20l38 6q39 4 39 18v207z" />
<glyph unicode="&#x142;" horiz-adv-x="293" d="M73 235l-72 -22l1 25l71 22v272q0 37 -6.5 49.5t-28.5 19.5l-26 10l2 12l206 57v-374l72 22l1 -24l-73 -23v-240q0 -6 6.5 -9t35.5 -9l11 -4l3 -19h-256l4 19l13 4q22 4 29 7.5t7 11.5v193z" />
<glyph unicode="&#x143;" horiz-adv-x="720" d="M304 684l106 184h143l-225 -184h-24zM565 -6l-420 504h-3v-392q0 -49 16 -65.5t62 -19.5l31 -4l3 -17h-235l3 17l28 4q39 3 51.5 22.5t12.5 71.5l3 415q-41 61 -96 70l-19 8l-3 17h266l321 -392h4l-1 284q0 49 -16 66.5t-61 20.5l-30 4l-3 17h233l-3 -17l-28 -4 q-38 -3 -51 -23.5t-13 -72.5l-3 -514h-49z" />
<glyph unicode="&#x144;" horiz-adv-x="579" d="M20 0l3 17l14 1q23 2 31.5 5t8.5 12v262q0 45 -7.5 58.5t-34.5 21.5l-20 5l1 13l208 58l-2 -86h2q106 87 174 87q46 0 82 -36q34 -34 34 -119v-264q0 -10 49 -17l11 -1l3 -17h-260l3 17l16 1q23 1 28.5 5t5.5 12v233q0 54 -20 74.5t-59 20.5q-37 0 -69 -20v-309 q0 -13 39 -16l16 -1l2 -17h-259zM229 499l106 184h143l-225 -184h-24z" />
<glyph unicode="&#x145;" horiz-adv-x="720" d="M293 -287l-10 11q85 24 85 83q0 33 -34.5 47.5t-60.5 1.5q-8 35 14.5 62.5t64.5 27.5q44 0 69.5 -27.5t25.5 -66.5q0 -46 -39.5 -84.5t-114.5 -54.5zM565 -6l-420 504h-3v-392q0 -49 16 -65.5t62 -19.5l31 -4l3 -17h-235l3 17l28 4q39 3 51.5 22.5t12.5 71.5l3 415 q-41 61 -96 70l-19 8l-3 17h266l321 -392h4l-1 284q0 49 -16 66.5t-61 20.5l-30 4l-3 17h233l-3 -17l-28 -4q-38 -3 -51 -23.5t-13 -72.5l-3 -514h-49z" />
<glyph unicode="&#x146;" horiz-adv-x="579" d="M20 0l3 17l14 1q23 2 31.5 5t8.5 12v262q0 45 -7.5 58.5t-34.5 21.5l-20 5l1 13l208 58l-2 -86h2q106 87 174 87q46 0 82 -36q34 -34 34 -119v-264q0 -10 49 -17l11 -1l3 -17h-260l3 17l16 1q23 1 28.5 5t5.5 12v233q0 54 -20 74.5t-59 20.5q-37 0 -69 -20v-309 q0 -13 39 -16l16 -1l2 -17h-259zM229 -287l-10 11q85 24 85 83q0 33 -34.5 47.5t-60.5 1.5q-8 35 14.5 62.5t64.5 27.5q44 0 69.5 -27.5t25.5 -66.5q0 -46 -39.5 -84.5t-114.5 -54.5z" />
<glyph unicode="&#x147;" horiz-adv-x="720" d="M365 677l-139 200h18l132 -88h2l131 88h18l-139 -200h-23zM565 -6l-420 504h-3v-392q0 -49 16 -65.5t62 -19.5l31 -4l3 -17h-235l3 17l28 4q39 3 51.5 22.5t12.5 71.5l3 415q-41 61 -96 70l-19 8l-3 17h266l321 -392h4l-1 284q0 49 -16 66.5t-61 20.5l-30 4l-3 17h233 l-3 -17l-28 -4q-38 -3 -51 -23.5t-13 -72.5l-3 -514h-49z" />
<glyph unicode="&#x148;" horiz-adv-x="579" d="M275 492l-139 200h18l132 -88h2l131 88h18l-139 -200h-23zM20 0l3 17l14 1q23 2 31.5 5t8.5 12v262q0 45 -7.5 58.5t-34.5 21.5l-20 5l1 13l208 58l-2 -86h2q106 87 174 87q46 0 82 -36q34 -34 34 -119v-264q0 -10 49 -17l11 -1l3 -17h-260l3 17l16 1q23 1 28.5 5t5.5 12 v233q0 54 -20 74.5t-59 20.5q-37 0 -69 -20v-309q0 -13 39 -16l16 -1l2 -17h-259z" />
<glyph unicode="&#x14c;" horiz-adv-x="756" d="M250 715l16 65h272l-11 -65h-277zM373 -13q-153 0 -247.5 89t-94.5 235q0 137 105 232t248 95q153 0 247.5 -90t94.5 -236q0 -138 -104 -231.5t-249 -93.5zM383 12q84 0 124 70t40 227q0 151 -44 227t-127 76q-86 0 -127 -70.5t-41 -226.5q0 -303 175 -303z" />
<glyph unicode="&#x14d;" horiz-adv-x="548" d="M130 530l16 65h272l-11 -65h-277zM268 -14q-112 0 -178 67t-66 166t72 167t184 68t178 -66.5t66 -164.5q0 -101 -71.5 -169t-184.5 -68zM272 7q45 0 69.5 55.5t24.5 148.5q0 157 -46 203q-17 17 -45 17q-46 0 -70.5 -53.5t-24.5 -147.5q0 -158 45 -206q17 -17 47 -17z " />
<glyph unicode="&#x14e;" horiz-adv-x="756" d="M373 -13q-153 0 -247.5 89t-94.5 235q0 137 105 232t248 95q153 0 247.5 -90t94.5 -236q0 -138 -104 -231.5t-249 -93.5zM383 12q84 0 124 70t40 227q0 151 -44 227t-127 76q-86 0 -127 -70.5t-41 -226.5q0 -303 175 -303zM385 679q-118 0 -152 182h24q16 -47 51 -70 t79 -23t79.5 23.5t51.5 69.5h22q-31 -182 -155 -182z" />
<glyph unicode="&#x14f;" horiz-adv-x="548" d="M268 -14q-112 0 -178 67t-66 166t72 167t184 68t178 -66.5t66 -164.5q0 -101 -71.5 -169t-184.5 -68zM272 7q45 0 69.5 55.5t24.5 148.5q0 157 -46 203q-17 17 -45 17q-46 0 -70.5 -53.5t-24.5 -147.5q0 -158 45 -206q17 -17 47 -17zM268 494q-118 0 -152 182h24 q16 -47 51 -70t79 -23t79.5 23.5t51.5 69.5h22q-31 -182 -155 -182z" />
<glyph unicode="&#x150;" horiz-adv-x="756" d="M431 684l108 184h139l-226 -184h-21zM232 684l108 184h138l-225 -184h-21zM373 -13q-153 0 -247.5 89t-94.5 235q0 137 105 232t248 95q153 0 247.5 -90t94.5 -236q0 -138 -104 -231.5t-249 -93.5zM383 12q84 0 124 70t40 227q0 151 -44 227t-127 76q-86 0 -127 -70.5 t-41 -226.5q0 -303 175 -303z" />
<glyph unicode="&#x151;" horiz-adv-x="548" d="M310 499l108 184h139l-226 -184h-21zM111 499l108 184h138l-225 -184h-21zM268 -14q-112 0 -178 67t-66 166t72 167t184 68t178 -66.5t66 -164.5q0 -101 -71.5 -169t-184.5 -68zM272 7q45 0 69.5 55.5t24.5 148.5q0 157 -46 203q-17 17 -45 17q-46 0 -70.5 -53.5 t-24.5 -147.5q0 -158 45 -206q17 -17 47 -17z" />
<glyph unicode="&#x152;" horiz-adv-x="996" d="M375 0q-164 1 -254 81t-90 226q0 130 103.5 224t253.5 94h536l4 -215h-29l-9 29q-24 97 -80 131t-149 32l-39 -2v-271h28q95 6 119 82l12 35h24l-29 -263h-23l-4 34q-5 46 -27 66t-81 23l-19 1v-282l63 -3q92 1 149.5 40.5t85.5 124.5l9 25h30l-20 -212h-564zM416 23h44 v567l-68 13q-86 0 -136 -79t-50 -198q0 -303 210 -303z" />
<glyph unicode="&#x153;" horiz-adv-x="818" d="M268 -17q-113 0 -178.5 67t-65.5 166q0 100 72 170t185 70q99 0 167 -61q69 61 165 61q84 0 132 -44.5t48 -105.5q0 -12 -4 -30q-234 3 -273 5q-1 -9 -1 -34q1 -79 41 -128.5t105 -49.5q81 0 124 77l11 -6q-55 -156 -215 -156q-84 0 -146 56q-70 -57 -167 -57zM516 299 l142 1q1 56 -13 93.5t-46 37.5q-31 0 -54.5 -35t-28.5 -97zM271 4q45 0 69 56t24 151q0 160 -45 205q-17 17 -45 17q-45 0 -69 -55.5t-24 -150.5q0 -162 43 -205q18 -18 47 -18z" />
<glyph unicode="&#x154;" horiz-adv-x="701" d="M260 684l106 184h143l-225 -184h-24zM16 0l3 17l36 4q43 6 43 18v549q0 6 -9.5 9t-42.5 7l-26 4l-3 17l328 1q264 0 264 -154q0 -58 -39.5 -100t-110.5 -58l124 -203q32 -54 48.5 -70.5t47.5 -20.5l14 -3l4 -17h-239l-20 40l-135 260q-3 1 -12.5 2t-17 2.5t-11.5 3.5 v-271q0 -13 49 -16l31 -4l3 -17h-329zM291 326q69 2 106.5 38t37.5 102q0 64 -38.5 100.5t-103.5 37.5h-31v-275q2 0 13.5 -1.5t15.5 -1.5z" />
<glyph unicode="&#x155;" horiz-adv-x="441" d="M21 0l3 17l13 1q23 2 31.5 5t8.5 12v262q0 45 -7.5 58.5t-34.5 21.5l-20 5l1 13l208 58l-2 -148h3q51 149 135 149q36 0 58 -21t22 -59q0 -26 -19.5 -48t-47.5 -22q-56 0 -77 62q-43 -11 -74 -113v-218q0 -13 50 -17l18 -1l3 -17h-272zM169 499l106 184h143l-225 -184 h-24z" />
<glyph unicode="&#x156;" horiz-adv-x="701" d="M311 -287l-10 11q85 24 85 83q0 33 -34.5 47.5t-60.5 1.5q-8 35 14.5 62.5t64.5 27.5q44 0 69.5 -27.5t25.5 -66.5q0 -46 -39.5 -84.5t-114.5 -54.5zM16 0l3 17l36 4q43 6 43 18v549q0 6 -9.5 9t-42.5 7l-26 4l-3 17l328 1q264 0 264 -154q0 -58 -39.5 -100t-110.5 -58 l124 -203q32 -54 48.5 -70.5t47.5 -20.5l14 -3l4 -17h-239l-20 40l-135 260q-3 1 -12.5 2t-17 2.5t-11.5 3.5v-271q0 -13 49 -16l31 -4l3 -17h-329zM291 326q69 2 106.5 38t37.5 102q0 64 -38.5 100.5t-103.5 37.5h-31v-275q2 0 13.5 -1.5t15.5 -1.5z" />
<glyph unicode="&#x157;" horiz-adv-x="441" d="M96 -287l-10 11q85 24 85 83q0 33 -34.5 47.5t-60.5 1.5q-8 35 14.5 62.5t64.5 27.5q44 0 69.5 -27.5t25.5 -66.5q0 -46 -39.5 -84.5t-114.5 -54.5zM21 0l3 17l13 1q23 2 31.5 5t8.5 12v262q0 45 -7.5 58.5t-34.5 21.5l-20 5l1 13l208 58l-2 -148h3q51 149 135 149 q36 0 58 -21t22 -59q0 -26 -19.5 -48t-47.5 -22q-56 0 -77 62q-43 -11 -74 -113v-218q0 -13 50 -17l18 -1l3 -17h-272z" />
<glyph unicode="&#x158;" horiz-adv-x="701" d="M310 677l-139 200h18l132 -88h2l131 88h18l-139 -200h-23zM16 0l3 17l36 4q43 6 43 18v549q0 6 -9.5 9t-42.5 7l-26 4l-3 17l328 1q264 0 264 -154q0 -58 -39.5 -100t-110.5 -58l124 -203q32 -54 48.5 -70.5t47.5 -20.5l14 -3l4 -17h-239l-20 40l-135 260q-3 1 -12.5 2 t-17 2.5t-11.5 3.5v-271q0 -13 49 -16l31 -4l3 -17h-329zM291 326q69 2 106.5 38t37.5 102q0 64 -38.5 100.5t-103.5 37.5h-31v-275q2 0 13.5 -1.5t15.5 -1.5z" />
<glyph unicode="&#x159;" horiz-adv-x="441" d="M21 0l3 17l13 1q23 2 31.5 5t8.5 12v262q0 45 -7.5 58.5t-34.5 21.5l-20 5l1 13l208 58l-2 -148h3q51 149 135 149q36 0 58 -21t22 -59q0 -26 -19.5 -48t-47.5 -22q-56 0 -77 62q-43 -11 -74 -113v-218q0 -13 50 -17l18 -1l3 -17h-272zM224 492l-139 200h18l132 -88h2 l131 88h18l-139 -200h-23z" />
<glyph unicode="&#x15a;" horiz-adv-x="548" d="M189 684l106 184h143l-225 -184h-24zM261 -13q-119 0 -206 33l-15 183h31l51 -116q60 -74 145 -74q61 0 92.5 28.5t31.5 78.5q0 24 -9.5 43.5t-21.5 32t-37 25.5t-41.5 19.5t-50.5 18.5q-89 31 -134.5 69t-45.5 111q0 87 64.5 143t163.5 56q59 0 145 -24l47 15l3 -195 h-28l-88 162q-36 17 -83 17q-49 0 -79.5 -25.5t-30.5 -63.5q0 -24 10 -42t35 -32.5t43.5 -22t58.5 -21.5q45 -15 76 -29.5t59.5 -38t42.5 -57t14 -77.5q0 -91 -68.5 -154t-174.5 -63z" />
<glyph unicode="&#x15b;" horiz-adv-x="414" d="M138 499l106 184h143l-225 -184h-24zM192 -14q-96 0 -162 27l-3 128l28 -2l27 -56q28 -41 52 -58.5t61 -17.5t58 19t21 52q0 11 -3 20.5t-13 18.5t-15.5 13.5t-23.5 12.5t-23.5 10.5t-28.5 11.5q-69 26 -103.5 56t-34.5 86q0 67 49.5 106.5t130.5 39.5q56 0 104 -16l49 9 l5 -142l-26 -1l-76 112q-28 16 -57 16q-32 0 -51 -17.5t-19 -48.5q0 -16 7 -28.5t25 -23t31 -16.5t43 -17q36 -14 53.5 -23t42.5 -26.5t36 -41t11 -54.5q0 -63 -50 -106t-145 -43z" />
<glyph unicode="&#x15c;" horiz-adv-x="548" d="M116 677l139 200h23l139 -200h-18l-131 88h-2l-132 -88h-18zM261 -13q-119 0 -206 33l-15 183h31l51 -116q60 -74 145 -74q61 0 92.5 28.5t31.5 78.5q0 24 -9.5 43.5t-21.5 32t-37 25.5t-41.5 19.5t-50.5 18.5q-89 31 -134.5 69t-45.5 111q0 87 64.5 143t163.5 56 q59 0 145 -24l47 15l3 -195h-28l-88 162q-36 17 -83 17q-49 0 -79.5 -25.5t-30.5 -63.5q0 -24 10 -42t35 -32.5t43.5 -22t58.5 -21.5q45 -15 76 -29.5t59.5 -38t42.5 -57t14 -77.5q0 -91 -68.5 -154t-174.5 -63z" />
<glyph unicode="&#x15d;" horiz-adv-x="414" d="M63 492l139 200h23l139 -200h-18l-131 88h-2l-132 -88h-18zM192 -14q-96 0 -162 27l-3 128l28 -2l27 -56q28 -41 52 -58.5t61 -17.5t58 19t21 52q0 11 -3 20.5t-13 18.5t-15.5 13.5t-23.5 12.5t-23.5 10.5t-28.5 11.5q-69 26 -103.5 56t-34.5 86q0 67 49.5 106.5 t130.5 39.5q56 0 104 -16l49 9l5 -142l-26 -1l-76 112q-28 16 -57 16q-32 0 -51 -17.5t-19 -48.5q0 -16 7 -28.5t25 -23t31 -16.5t43 -17q36 -14 53.5 -23t42.5 -26.5t36 -41t11 -54.5q0 -63 -50 -106t-145 -43z" />
<glyph unicode="&#x15e;" horiz-adv-x="548" d="M261 -13q-119 0 -206 33l-15 183h31l51 -116q60 -74 145 -74q61 0 92.5 28.5t31.5 78.5q0 24 -9.5 43.5t-21.5 32t-37 25.5t-41.5 19.5t-50.5 18.5q-89 31 -134.5 69t-45.5 111q0 87 64.5 143t163.5 56q59 0 145 -24l47 15l3 -195h-28l-88 162q-36 17 -83 17 q-49 0 -79.5 -25.5t-30.5 -63.5q0 -24 10 -42t35 -32.5t43.5 -22t58.5 -21.5q45 -15 76 -29.5t59.5 -38t42.5 -57t14 -77.5q0 -84 -60 -145.5t-155 -70.5l-48 -50q67 9 114.5 -16.5t47.5 -68.5q0 -108 -233 -130l-5 12q157 21 157 86q0 26 -24.5 39.5t-61.5 13.5 q-43 0 -79 -12v12l107 113h-3z" />
<glyph unicode="&#x15f;" horiz-adv-x="414" d="M88 -277l-5 12q157 21 157 86q0 26 -24.5 39.5t-61.5 13.5q-43 0 -79 -12v12l107 112q-89 2 -152 27l-3 128l28 -2l27 -56q28 -41 52 -58.5t61 -17.5t58 19t21 52q0 11 -3 20.5t-13 18.5t-15.5 13.5t-23.5 12.5t-23.5 10.5t-28.5 11.5q-69 26 -103.5 56t-34.5 86 q0 67 49.5 106.5t130.5 39.5q56 0 104 -16l49 9l5 -142l-26 -1l-76 112q-28 16 -57 16q-32 0 -51 -17.5t-19 -48.5q0 -16 7 -28.5t25 -23t31 -16.5t43 -17q36 -14 53.5 -23t42.5 -26.5t36 -41t11 -54.5q0 -61 -46.5 -103t-135.5 -46l-46 -48q67 9 114.5 -16.5t47.5 -68.5 q0 -108 -233 -130z" />
<glyph unicode="&#x160;" horiz-adv-x="548" d="M261 -13q-119 0 -206 33l-15 183h31l51 -116q60 -74 145 -74q61 0 92.5 28.5t31.5 78.5q0 24 -9.5 43.5t-21.5 32t-37 25.5t-41.5 19.5t-50.5 18.5q-89 31 -134.5 69t-45.5 111q0 87 64.5 143t163.5 56q59 0 145 -24l47 15l3 -195h-28l-88 162q-36 17 -83 17 q-49 0 -79.5 -25.5t-30.5 -63.5q0 -24 10 -42t35 -32.5t43.5 -22t58.5 -21.5q45 -15 76 -29.5t59.5 -38t42.5 -57t14 -77.5q0 -91 -68.5 -154t-174.5 -63zM265 666l-139 200h18l132 -88h2l131 88h18l-139 -200h-23z" />
<glyph unicode="&#x161;" horiz-adv-x="414" d="M192 -14q-96 0 -162 27l-3 128l28 -2l27 -56q28 -41 52 -58.5t61 -17.5t58 19t21 52q0 11 -3 20.5t-13 18.5t-15.5 13.5t-23.5 12.5t-23.5 10.5t-28.5 11.5q-69 26 -103.5 56t-34.5 86q0 67 49.5 106.5t130.5 39.5q56 0 104 -16l49 9l5 -142l-26 -1l-76 112 q-28 16 -57 16q-32 0 -51 -17.5t-19 -48.5q0 -16 7 -28.5t25 -23t31 -16.5t43 -17q36 -14 53.5 -23t42.5 -26.5t36 -41t11 -54.5q0 -63 -50 -106t-145 -43zM191 485l-139 200h18l132 -88h2l131 88h18l-139 -200h-23z" />
<glyph unicode="&#x162;" horiz-adv-x="681" d="M280 -287l-10 11q85 24 85 83q0 33 -34.5 47.5t-60.5 1.5q-8 35 14.5 62.5t64.5 27.5q44 0 69.5 -27.5t25.5 -66.5q0 -46 -39.5 -84.5t-114.5 -54.5zM174 0l3 17l40 4q43 4 43 18v565h-18q-60 -3 -106 -47.5t-68 -102.5l-10 -31h-33l21 202h598l8 -200h-29l-11 31 q-21 56 -67.5 102t-100.5 46h-20v-567q0 -6 9 -9t42 -7l31 -4l3 -17h-335z" />
<glyph unicode="&#x163;" horiz-adv-x="380" d="M136 -288l-10 11q85 24 85 83q0 33 -34.5 47.5t-60.5 1.5q-8 35 14.5 62.5t64.5 27.5q44 0 69.5 -27.5t25.5 -66.5q0 -46 -39.5 -84.5t-114.5 -54.5zM211 -12q-136 0 -133 147l4 236l-81 3l26 50l89 67l82 63l22 -1l-1 -117h153l-13 -62h-141l-3 -210q-1 -57 18 -80.5 t60 -23.5q46 0 81 27l4 -13q-79 -86 -167 -86z" />
<glyph unicode="&#x164;" horiz-adv-x="681" d="M328 677l-139 200h18l132 -88h2l131 88h18l-139 -200h-23zM174 0l3 17l40 4q43 4 43 18v565h-18q-60 -3 -106 -47.5t-68 -102.5l-10 -31h-33l21 202h598l8 -200h-29l-11 31q-21 56 -67.5 102t-100.5 46h-20v-567q0 -6 9 -9t42 -7l31 -4l3 -17h-335z" />
<glyph unicode="&#x165;" horiz-adv-x="417" d="M279 466l-11 11q75 42 75 99q0 27 -19 43.5t-38 22.5l-19 5q0 22 17 43t46 21q40 0 62.5 -26t22.5 -61q0 -45 -36.5 -87.5t-99.5 -70.5zM211 -12q-136 0 -133 147l4 236l-81 3l26 50l89 67l82 63l22 -1l-1 -117h153l-13 -62h-141l-3 -210q-1 -57 18 -80.5t60 -23.5 q46 0 81 27l4 -13q-79 -86 -167 -86z" />
<glyph unicode="&#x16a;" horiz-adv-x="708" d="M364 -20q-270 0 -270 203v406q0 12 -50 15l-28 4l-3 17h326l-3 -17l-36 -4q-42 -4 -42 -17v-365q0 -86 40.5 -131t118.5 -45q87 0 128 46t41 148l-1 277q0 49 -16 66.5t-61 20.5l-31 4l-3 17h234l-3 -17l-27 -4q-38 -3 -51.5 -23t-13.5 -73l-1 -276q-2 -252 -248 -252z M262 715l16 65h272l-11 -65h-277z" />
<glyph unicode="&#x16b;" horiz-adv-x="561" d="M353 -16l2 90h-3q-101 -88 -174 -88q-40 0 -79 37q-36 38 -33 120l2 264q0 9 -50 14l-15 1l-3 17h214l-3 -268q-1 -52 19 -73t60 -21q28 0 64 20v308q0 8 -9 11t-39 5l-15 1l-4 17h211v-318q0 -36 6.5 -49t28.5 -19l28 -7l-2 -12zM125 530l16 65h272l-11 -65h-277z" />
<glyph unicode="&#x16c;" horiz-adv-x="708" d="M364 -20q-270 0 -270 203v406q0 12 -50 15l-28 4l-3 17h326l-3 -17l-36 -4q-42 -4 -42 -17v-365q0 -86 40.5 -131t118.5 -45q87 0 128 46t41 148l-1 277q0 49 -16 66.5t-61 20.5l-31 4l-3 17h234l-3 -17l-27 -4q-38 -3 -51.5 -23t-13.5 -73l-1 -276q-2 -252 -248 -252z M400 679q-118 0 -152 182h24q16 -47 51 -70t79 -23t79.5 23.5t51.5 69.5h22q-31 -182 -155 -182z" />
<glyph unicode="&#x16d;" horiz-adv-x="561" d="M353 -16l2 90h-3q-101 -88 -174 -88q-40 0 -79 37q-36 38 -33 120l2 264q0 9 -50 14l-15 1l-3 17h214l-3 -268q-1 -52 19 -73t60 -21q28 0 64 20v308q0 8 -9 11t-39 5l-15 1l-4 17h211v-318q0 -36 6.5 -49t28.5 -19l28 -7l-2 -12zM269 494q-118 0 -152 182h24 q16 -47 51 -70t79 -23t79.5 23.5t51.5 69.5h22q-31 -182 -155 -182z" />
<glyph unicode="&#x16e;" horiz-adv-x="708" d="M364 -20q-270 0 -270 203v406q0 12 -50 15l-28 4l-3 17h326l-3 -17l-36 -4q-42 -4 -42 -17v-365q0 -86 40.5 -131t118.5 -45q87 0 128 46t41 148l-1 277q0 49 -16 66.5t-61 20.5l-31 4l-3 17h234l-3 -17l-27 -4q-38 -3 -51.5 -23t-13.5 -73l-1 -276q-2 -252 -248 -252z M400 687q-43 0 -69 27.5t-26 67.5t26 68t69 28q42 0 68 -28t26 -68t-26 -67.5t-68 -27.5zM400 704q34 0 55 22.5t21 55.5t-21 56t-55 23q-35 0 -55.5 -23t-20.5 -56t20.5 -55.5t55.5 -22.5z" />
<glyph unicode="&#x16f;" horiz-adv-x="561" d="M353 -16l2 90h-3q-101 -88 -174 -88q-40 0 -79 37q-36 38 -33 120l2 264q0 9 -50 14l-15 1l-3 17h214l-3 -268q-1 -52 19 -73t60 -21q28 0 64 20v308q0 8 -9 11t-39 5l-15 1l-4 17h211v-318q0 -36 6.5 -49t28.5 -19l28 -7l-2 -12zM268 502q-43 0 -69 27.5t-26 67.5t26 68 t69 28q42 0 68 -28t26 -68t-26 -67.5t-68 -27.5zM268 519q34 0 55 22.5t21 55.5t-21 56t-55 23q-35 0 -55.5 -23t-20.5 -56t20.5 -55.5t55.5 -22.5z" />
<glyph unicode="&#x170;" horiz-adv-x="708" d="M364 -20q-270 0 -270 203v406q0 12 -50 15l-28 4l-3 17h326l-3 -17l-36 -4q-42 -4 -42 -17v-365q0 -86 40.5 -131t118.5 -45q87 0 128 46t41 148l-1 277q0 49 -16 66.5t-61 20.5l-31 4l-3 17h234l-3 -17l-27 -4q-38 -3 -51.5 -23t-13.5 -73l-1 -276q-2 -252 -248 -252z M435 684l108 184h139l-226 -184h-21zM236 684l108 184h138l-225 -184h-21z" />
<glyph unicode="&#x171;" horiz-adv-x="561" d="M353 -16l2 90h-3q-101 -88 -174 -88q-40 0 -79 37q-36 38 -33 120l2 264q0 9 -50 14l-15 1l-3 17h214l-3 -268q-1 -52 19 -73t60 -21q28 0 64 20v308q0 8 -9 11t-39 5l-15 1l-4 17h211v-318q0 -36 6.5 -49t28.5 -19l28 -7l-2 -12zM308 499l108 184h139l-226 -184h-21z M109 499l108 184h138l-225 -184h-21z" />
<glyph unicode="&#x172;" horiz-adv-x="708" d="M421 -241q-47 0 -78.5 24t-31.5 68q0 78 115 133q-26 -4 -62 -4q-270 0 -270 203v407q0 11 -50 14l-28 4l-3 17h326l-3 -17l-35 -4q-43 -4 -43 -17v-365q0 -86 40.5 -131t118.5 -45q87 0 128 46t41 148v277q0 49 -16 66.5t-62 20.5l-31 4l-3 17h234l-3 -17l-27 -4 q-39 -3 -52 -23t-13 -73l-1 -275q-1 -94 -32 -149t-102 -89q-37 -17 -59.5 -45t-22.5 -62q0 -67 71 -67q33 0 73 34l5 -5q-14 -35 -46 -63t-78 -28z" />
<glyph unicode="&#x173;" horiz-adv-x="561" d="M433 -241q-47 0 -78 24.5t-31 69.5q0 52 41.5 93.5t100.5 66.5l-113 -29l2 90h-3q-101 -88 -174 -88q-40 0 -79 37q-36 38 -33 120l2 264q0 9 -50 14l-15 1l-3 17h214l-3 -268q-1 -52 19 -73t60 -21q28 0 64 20v309q0 7 -8.5 10t-39.5 5l-15 1l-4 17h211v-318 q0 -36 6.5 -49t28.5 -19l28 -7l-2 -12q-68 -23 -109 -59.5t-41 -84.5q0 -33 18 -51t51 -18t73 34l5 -5q-14 -36 -45.5 -63.5t-77.5 -27.5z" />
<glyph unicode="&#x174;" horiz-adv-x="998" d="M393 677l139 200h23l139 -200h-18l-131 88h-2l-132 -88h-18zM295 -11l-199 514q-24 60 -39.5 78.5t-43.5 21.5l-22 4l-3 18h334l-3 -18l-33 -2q-34 -2 -40 -17t7 -47l137 -366h5l102 282l-15 47q-20 54 -36.5 75.5t-41.5 23.5l-29 4l-3 18h343l-3 -18l-30 -2 q-35 -2 -43 -16t6 -55l115 -351h5l84 247q14 40 19.5 58t11 41.5t3 32.5t-9.5 20t-21 15t-37 7l-23 3l-4 18h234l-2 -18l-18 -4q-51 -8 -68 -33.5t-58 -139.5l-159 -441h-52l-151 432h-4l-161 -432h-54z" />
<glyph unicode="&#x175;" horiz-adv-x="770" d="M261 492l139 200h23l139 -200h-18l-131 88h-2l-132 -88h-18zM210 -10l-151 380q-12 28 -21 37t-30 11l-17 4l-2 17h268l-2 -17l-23 -4q-35 -4 -20 -43l88 -243l72 199l-14 40q-16 41 -50 47l-19 4l-2 17h272l-2 -17l-22 -4q-24 -4 -27.5 -13t4.5 -30l81 -235l54 164 q21 59 14.5 82t-46.5 30l-20 6l-3 17h184l-3 -17l-21 -5q-29 -4 -41 -22t-37 -89l-110 -316h-60l-119 309l-116 -309h-59z" />
<glyph unicode="&#x176;" horiz-adv-x="651" d="M158 0l3 17l40 4q42 4 42 18v239l-133 235q-32 54 -46 69.5t-43 20.5l-17 4l-3 18h331l-3 -18l-17 -3q-40 -5 -49 -19t8 -45l118 -216h5l64 118q39 71 48.5 101.5t-3.5 43t-58 16.5l-24 4l-3 18h240l-3 -18l-27 -5q-40 -6 -64 -33t-83 -137l-73 -131v-264q0 -6 9 -9 t41 -7l30 -4l3 -17h-333zM220 677l139 200h23l139 -200h-18l-131 88h-2l-132 -88h-18z" />
<glyph unicode="&#x177;" horiz-adv-x="499" d="M107 -258q-31 0 -54.5 18.5t-23.5 51.5q0 26 18 45.5t47 19.5q30 0 49 -18.5t22 -43.5q18 4 29.5 20.5t25.5 55.5l32 87h-17l-175 393q-12 26 -22 34.5t-32 12.5l-17 4l-3 17h281l-3 -17l-22 -4q-26 -4 -32 -13t4 -29l98 -236l61 169q22 62 16 81t-47 26l-21 6l-3 17h185 l-3 -17l-22 -4q-28 -3 -40.5 -21t-39.5 -90l-110 -293l-49 -141q-44 -131 -132 -131zM117 492l139 200h23l139 -200h-18l-131 88h-2l-132 -88h-18z" />
<glyph unicode="&#x178;" horiz-adv-x="651" d="M158 0l3 17l40 4q42 4 42 18v239l-133 235q-32 54 -46 69.5t-43 20.5l-17 4l-3 18h331l-3 -18l-17 -3q-40 -5 -49 -19t8 -45l118 -216h5l64 118q39 71 48.5 101.5t-3.5 43t-58 16.5l-24 4l-3 18h240l-3 -18l-27 -5q-40 -6 -64 -33t-83 -137l-73 -131v-264q0 -6 9 -9 t41 -7l30 -4l3 -17h-333zM449 676q-30 0 -48.5 20t-18.5 47q0 28 18.5 48.5t48.5 20.5q31 0 49.5 -20.5t18.5 -48.5q0 -27 -18.5 -47t-49.5 -20zM235 676q-30 0 -49.5 20t-19.5 47q0 28 19.5 48.5t49.5 20.5q31 0 49.5 -20.5t18.5 -48.5q0 -27 -18.5 -47t-49.5 -20z" />
<glyph unicode="&#x179;" horiz-adv-x="628" d="M260 684l106 184h143l-225 -184h-24zM31 0v20l363 577v3l-84 1q-76 0 -128 -37.5t-81 -125.5l-9 -29h-32l6 216h519v-20l-376 -576v-3l88 -3q99 -5 155.5 39t105.5 161l11 26h32l-30 -249h-540z" />
<glyph unicode="&#x17a;" horiz-adv-x="475" d="M189 499l106 184h143l-225 -184h-24zM21 0v15l251 402l-42 -2q-59 -3 -91.5 -24.5t-51.5 -66.5l-28 -63h-23v178h405v-15l-260 -401l48 1q128 5 181 115l22 43h23l-33 -182h-401z" />
<glyph unicode="&#x17b;" horiz-adv-x="628" d="M31 0v20l363 577v3l-84 1q-76 0 -128 -37.5t-81 -125.5l-9 -29h-32l6 216h519v-20l-376 -576v-3l88 -3q99 -5 155.5 39t105.5 161l11 26h32l-30 -249h-540zM332 702q-35 0 -57 24t-22 56t22 56t57 24q36 0 57.5 -23.5t21.5 -56.5t-21.5 -56.5t-57.5 -23.5z" />
<glyph unicode="&#x17c;" horiz-adv-x="475" d="M21 0v15l251 402l-42 -2q-59 -3 -91.5 -24.5t-51.5 -66.5l-28 -63h-23v178h405v-15l-260 -401l48 1q128 5 181 115l22 43h23l-33 -182h-401zM246 517q-35 0 -57 24t-22 56t22 56t57 24q36 0 57.5 -23.5t21.5 -56.5t-21.5 -56.5t-57.5 -23.5z" />
<glyph unicode="&#x17d;" horiz-adv-x="628" d="M31 0v20l363 577v3l-84 1q-76 0 -128 -37.5t-81 -125.5l-9 -29h-32l6 216h519v-20l-376 -576v-3l88 -3q99 -5 155.5 39t105.5 161l11 26h32l-30 -249h-540zM303 659l-139 200h18l132 -88h2l131 88h18l-139 -200h-23z" />
<glyph unicode="&#x17e;" horiz-adv-x="475" d="M21 0v15l251 402l-42 -2q-59 -3 -91.5 -24.5t-51.5 -66.5l-28 -63h-23v178h405v-15l-260 -401l48 1q128 5 181 115l22 43h23l-33 -182h-401zM231 478l-139 200h18l132 -88h2l131 88h18l-139 -200h-23z" />
<glyph unicode="&#x192;" horiz-adv-x="604" d="M124 -55q-60 0 -95.5 24.5t-35.5 64.5q0 29 19.5 49t52.5 20q43 0 62.5 -36.5t-12.5 -79.5q33 -9 42 -9q23 7 39 58.5t43 197.5l17 102l-103 5l20 52l97 12q41 136 78 175q60 58 167 58q54 0 88.5 -26.5t34.5 -66.5q0 -31 -20 -51.5t-50 -20.5q-54 0 -67 44.5t31 76.5 q-26 12 -37 12q-12 -3 -21.5 -16t-19.5 -44.5t-14 -49.5t-15 -67l-6 -27h124l-10 -60h-126l-25 -104q-37 -156 -116 -234q-59 -59 -142 -59z" />
<glyph unicode="&#x1fa;" horiz-adv-x="680" d="M257 798l106 184h143l-225 -184h-24zM349 242h-173l-23 -66q-33 -99 -31 -120q3 -24 38 -31q9 -2 24 -4l21 -3l3 -18h-225l3 18l18 3q34 5 50.5 17t33 44.5t45.5 114.5l153 421q-46 25 -46 82q0 40 26 68t69 28q42 0 68 -28t26 -68q0 -54 -41 -79l174 -491 q23 -62 42.5 -83.5t49.5 -24.5l26 -4l2 -18h-340l3 18l23 3q35 3 39.5 21.5t-13.5 67.5zM335 622q34 0 55 23t21 55q0 33 -21 56t-55 23q-35 0 -55.5 -23t-20.5 -56q0 -32 20.5 -55t55.5 -23zM185 266h156l-75 219h-4z" />
<glyph unicode="&#x1fb;" horiz-adv-x="497" d="M114 682l106 184h143l-225 -184h-24zM225 502q-43 0 -69 27.5t-26 67.5t26 68t69 28q42 0 68 -28t26 -68t-26 -67.5t-68 -27.5zM373 -13q-37 0 -62 24.5t-30 70.5l-3 1q-41 -48 -73.5 -71.5t-71.5 -23.5q-45 0 -77 29.5t-32 72.5q0 58 58.5 97.5t198.5 77.5l1 28 q2 53 -25 87t-76 34q-53 0 -53 -20q0 -1 16 -23t16 -39q0 -24 -19 -41.5t-48 -17.5q-28 0 -47 14.5t-19 39.5q0 52 78.5 89.5t160.5 37.5q87 0 125.5 -39t35.5 -124l-8 -176q-3 -54 35 -54q16 0 43 31l10 -11q-74 -94 -134 -94zM225 519q34 0 55 22.5t21 55.5t-21 56t-55 23 q-35 0 -55.5 -23t-20.5 -56t20.5 -55.5t55.5 -22.5zM220 73q29 0 56 31l6 141q-66 -18 -93 -43.5t-27 -63.5q0 -30 15.5 -47.5t42.5 -17.5z" />
<glyph unicode="&#x1fc;" horiz-adv-x="912" d="M-43 0l3 18l33 4q34 6 65 40t81 134l178 350q15 27 5.5 41t-53.5 18l-40 4l-3 16h613l5 -217h-32l-8 28q-25 98 -78 133t-144 33l-47 -2v-271h28q95 6 119 83l12 35h25l-30 -266l-23 1l-4 34q-6 46 -28 66t-80 23l-19 2v-282l65 -3q178 1 234 168l8 23h32l-20 -213h-572 l3 17l48 6q40 5 40 19v206h-180l-38 -77q-39 -80 -33.5 -112t51.5 -38l26 -3l3 -18h-245zM206 271h167v323h-3zM471 684l106 184h143l-225 -184h-24z" />
<glyph unicode="&#x1fd;" horiz-adv-x="728" d="M304 499l106 184h143l-225 -184h-24zM132 -12q-44 0 -76 30t-32 72q0 59 58 97.5t199 78.5l1 27q2 53 -25 87t-76 34q-53 0 -53 -20q0 -1 16 -23t16 -39q0 -24 -19 -41.5t-48 -17.5q-28 0 -47 14.5t-19 39.5q0 52 76.5 89.5t159.5 37.5q78 0 112 -44q65 46 146 46 q85 0 133 -44.5t48 -105.5q0 -12 -4 -30q-231 3 -271 5q-1 -4 -1 -10t0.5 -13.5t0.5 -10.5q1 -79 39 -126.5t104 -47.5q83 0 124 76l11 -6q-26 -75 -82.5 -115t-134.5 -40q-66 0 -115 30t-72 83q-35 -52 -80.5 -82.5t-88.5 -30.5zM428 299l139 1q2 131 -60 131 q-30 0 -52 -35t-27 -97zM215 73q41 0 78 42q-13 32 -13 116q0 11 1 13q-64 -17 -91.5 -43.5t-27.5 -64.5q0 -28 16 -45.5t37 -17.5z" />
<glyph unicode="&#x1fe;" horiz-adv-x="756" d="M560 599q78 -41 122 -115.5t44 -171.5q0 -138 -104 -231.5t-249 -93.5q-81 0 -151 28l-51 -89h-25l56 97q-80 39 -125.5 114t-45.5 174q0 137 105 232t248 95q84 0 157 -30l46 80h25zM246 99l255 440q-43 73 -125 73q-86 0 -127 -70.5t-41 -226.5q0 -140 38 -216z M513 517l-254 -439q43 -66 124 -66q84 0 124 70t40 227q0 131 -34 208zM332 684l106 184h143l-225 -184h-24z" />
<glyph unicode="&#x1ff;" horiz-adv-x="546" d="M137 17q-54 30 -83.5 83.5t-29.5 118.5q0 99 72 167t184 68q54 0 99 -17l82 141h24q-86 -149 -87 -149q60 -29 93 -84.5t33 -121.5q0 -101 -71.5 -169t-184.5 -68q-62 0 -112 22l-79 -137h-24zM189 107l155 268q-10 25 -24 39q-19 19 -45 19q-46 0 -70.5 -54.5 t-24.5 -148.5q0 -75 9 -123zM352 348l-156 -270q11 -34 29 -54q16 -16 47 -16q45 0 69.5 55t24.5 148q0 86 -14 137zM234 478l106 184h143l-225 -184h-24z" />
<glyph unicode="&#x218;" horiz-adv-x="548" d="M213 -287l-10 11q85 24 85 83q0 33 -34.5 47.5t-60.5 1.5q-8 35 14.5 62.5t64.5 27.5q44 0 69.5 -27.5t25.5 -66.5q0 -46 -39.5 -84.5t-114.5 -54.5zM261 -13q-119 0 -206 33l-15 183h31l51 -116q60 -74 145 -74q61 0 92.5 28.5t31.5 78.5q0 24 -9.5 43.5t-21.5 32 t-37 25.5t-41.5 19.5t-50.5 18.5q-89 31 -134.5 69t-45.5 111q0 87 64.5 143t163.5 56q59 0 145 -24l47 15l3 -195h-28l-88 162q-36 17 -83 17q-49 0 -79.5 -25.5t-30.5 -63.5q0 -24 10 -42t35 -32.5t43.5 -22t58.5 -21.5q45 -15 76 -29.5t59.5 -38t42.5 -57t14 -77.5 q0 -91 -68.5 -154t-174.5 -63z" />
<glyph unicode="&#x219;" horiz-adv-x="414" d="M143 -287l-10 11q85 24 85 83q0 33 -34.5 47.5t-60.5 1.5q-8 35 14.5 62.5t64.5 27.5q44 0 69.5 -27.5t25.5 -66.5q0 -46 -39.5 -84.5t-114.5 -54.5zM192 -14q-96 0 -162 27l-3 128l28 -2l27 -56q28 -41 52 -58.5t61 -17.5t58 19t21 52q0 11 -3 20.5t-13 18.5t-15.5 13.5 t-23.5 12.5t-23.5 10.5t-28.5 11.5q-69 26 -103.5 56t-34.5 86q0 67 49.5 106.5t130.5 39.5q56 0 104 -16l49 9l5 -142l-26 -1l-76 112q-28 16 -57 16q-32 0 -51 -17.5t-19 -48.5q0 -16 7 -28.5t25 -23t31 -16.5t43 -17q36 -14 53.5 -23t42.5 -26.5t36 -41t11 -54.5 q0 -63 -50 -106t-145 -43z" />
<glyph unicode="&#x21a;" horiz-adv-x="681" d="M280 -287l-10 11q85 24 85 83q0 33 -34.5 47.5t-60.5 1.5q-8 35 14.5 62.5t64.5 27.5q44 0 69.5 -27.5t25.5 -66.5q0 -46 -39.5 -84.5t-114.5 -54.5zM174 0l3 17l40 4q43 4 43 18v565h-18q-60 -3 -106 -47.5t-68 -102.5l-10 -31h-33l21 202h598l8 -200h-29l-11 31 q-21 56 -67.5 102t-100.5 46h-20v-567q0 -6 9 -9t42 -7l31 -4l3 -17h-335z" />
<glyph unicode="&#x21b;" horiz-adv-x="380" d="M136 -288l-10 11q85 24 85 83q0 33 -34.5 47.5t-60.5 1.5q-8 35 14.5 62.5t64.5 27.5q44 0 69.5 -27.5t25.5 -66.5q0 -46 -39.5 -84.5t-114.5 -54.5zM211 -12q-136 0 -133 147l4 236l-81 3l26 50l89 67l82 63l22 -1l-1 -117h153l-13 -62h-141l-3 -210q-1 -57 18 -80.5 t60 -23.5q46 0 81 27l4 -13q-79 -86 -167 -86z" />
<glyph unicode="&#x237;" horiz-adv-x="290" d="M-12 -257q-43 0 -68.5 20t-25.5 53q0 26 19 44.5t46 18.5q42 0 58 -36.5t-8 -68.5q37 -1 51.5 49t14.5 143v331q0 45 -8 59t-34 21l-21 5l1 13l207 58v-469q-2 -73 -78.5 -157t-153.5 -84z" />
<glyph unicode="&#x2c6;" horiz-adv-x="379" d="M39 492l139 200h23l139 -200h-18l-131 88h-2l-132 -88h-18z" />
<glyph unicode="&#x2c7;" horiz-adv-x="379" d="M178 492l-139 200h18l132 -88h2l131 88h18l-139 -200h-23z" />
<glyph unicode="&#x2d8;" horiz-adv-x="407" d="M203 494q-118 0 -152 182h24q16 -47 51 -70t79 -23t79.5 23.5t51.5 69.5h22q-31 -182 -155 -182z" />
<glyph unicode="&#x2d9;" horiz-adv-x="418" d="M209 517q-35 0 -57 24t-22 56t22 56t57 24q36 0 57.5 -23.5t21.5 -56.5t-21.5 -56.5t-57.5 -23.5z" />
<glyph unicode="&#x2da;" horiz-adv-x="379" d="M190 502q-43 0 -69 27.5t-26 67.5t26 68t69 28q42 0 68 -28t26 -68t-26 -67.5t-68 -27.5zM190 519q34 0 55 22.5t21 55.5t-21 56t-55 23q-35 0 -55.5 -23t-20.5 -56t20.5 -55.5t55.5 -22.5z" />
<glyph unicode="&#x2db;" horiz-adv-x="415" d="M211 -245q-47 0 -80.5 29t-33.5 74q0 99 173 165h33q-63 -25 -95 -62.5t-32 -71.5q0 -35 19.5 -54t55.5 -19t82 34l6 -11q-57 -84 -128 -84z" />
<glyph unicode="&#x2dc;" horiz-adv-x="407" d="M282 506q-33 0 -101 32.5t-88 32.5q-15 0 -25 -11.5t-14 -44.5h-22q6 81 26.5 112t66.5 31q33 0 100 -32.5t87 -32.5q16 0 26.5 11t15.5 44h20q-5 -81 -25.5 -111.5t-66.5 -30.5z" />
<glyph unicode="&#x2dd;" horiz-adv-x="460" d="M262 499l108 184h139l-226 -184h-21zM63 499l108 184h138l-225 -184h-21z" />
<glyph unicode="&#x1e80;" horiz-adv-x="998" d="M295 -11l-199 514q-24 60 -39.5 78.5t-43.5 21.5l-22 4l-3 18h334l-3 -18l-33 -2q-34 -2 -40 -17t7 -47l137 -366h5l102 282l-15 47q-20 54 -36.5 75.5t-41.5 23.5l-29 4l-3 18h343l-3 -18l-30 -2q-35 -2 -43 -16t6 -55l115 -351h5l84 247q14 40 19.5 58t11 41.5t3 32.5 t-9.5 20t-21 15t-37 7l-23 3l-4 18h234l-2 -18l-18 -4q-51 -8 -68 -33.5t-58 -139.5l-159 -441h-52l-151 432h-4l-161 -432h-54zM580 684l-226 184h144l106 -184h-24z" />
<glyph unicode="&#x1e81;" horiz-adv-x="770" d="M210 -10l-151 380q-12 28 -21 37t-30 11l-17 4l-2 17h268l-2 -17l-23 -4q-35 -4 -20 -43l88 -243l72 199l-14 40q-16 41 -50 47l-19 4l-2 17h272l-2 -17l-22 -4q-24 -4 -27.5 -13t4.5 -30l81 -235l54 164q21 59 14.5 82t-46.5 30l-20 6l-3 17h184l-3 -17l-21 -5 q-29 -4 -41 -22t-37 -89l-110 -316h-60l-119 309l-116 -309h-59zM450 499l-226 184h144l106 -184h-24z" />
<glyph unicode="&#x1e82;" horiz-adv-x="998" d="M493 684l106 184h143l-225 -184h-24zM295 -11l-199 514q-24 60 -39.5 78.5t-43.5 21.5l-22 4l-3 18h334l-3 -18l-33 -2q-34 -2 -40 -17t7 -47l137 -366h5l102 282l-15 47q-20 54 -36.5 75.5t-41.5 23.5l-29 4l-3 18h343l-3 -18l-30 -2q-35 -2 -43 -16t6 -55l115 -351h5 l84 247q14 40 19.5 58t11 41.5t3 32.5t-9.5 20t-21 15t-37 7l-23 3l-4 18h234l-2 -18l-18 -4q-51 -8 -68 -33.5t-58 -139.5l-159 -441h-52l-151 432h-4l-161 -432h-54z" />
<glyph unicode="&#x1e83;" horiz-adv-x="770" d="M348 499l106 184h143l-225 -184h-24zM210 -10l-151 380q-12 28 -21 37t-30 11l-17 4l-2 17h268l-2 -17l-23 -4q-35 -4 -20 -43l88 -243l72 199l-14 40q-16 41 -50 47l-19 4l-2 17h272l-2 -17l-22 -4q-24 -4 -27.5 -13t4.5 -30l81 -235l54 164q21 59 14.5 82t-46.5 30 l-20 6l-3 17h184l-3 -17l-21 -5q-29 -4 -41 -22t-37 -89l-110 -316h-60l-119 309l-116 -309h-59z" />
<glyph unicode="&#x1e84;" horiz-adv-x="998" d="M652 694q-30 0 -48.5 20t-18.5 47q0 28 18.5 48.5t48.5 20.5q31 0 49.5 -20.5t18.5 -48.5q0 -27 -18.5 -47t-49.5 -20zM438 694q-30 0 -49.5 20t-19.5 47q0 28 19.5 48.5t49.5 20.5q31 0 49.5 -20.5t18.5 -48.5q0 -27 -18.5 -47t-49.5 -20zM295 -11l-199 514 q-24 60 -39.5 78.5t-43.5 21.5l-22 4l-3 18h334l-3 -18l-33 -2q-34 -2 -40 -17t7 -47l137 -366h5l102 282l-15 47q-20 54 -36.5 75.5t-41.5 23.5l-29 4l-3 18h343l-3 -18l-30 -2q-35 -2 -43 -16t6 -55l115 -351h5l84 247q14 40 19.5 58t11 41.5t3 32.5t-9.5 20t-21 15t-37 7 l-23 3l-4 18h234l-2 -18l-18 -4q-51 -8 -68 -33.5t-58 -139.5l-159 -441h-52l-151 432h-4l-161 -432h-54z" />
<glyph unicode="&#x1e85;" horiz-adv-x="770" d="M524 509q-30 0 -48.5 20t-18.5 47q0 28 18.5 48.5t48.5 20.5q31 0 49.5 -20.5t18.5 -48.5q0 -27 -18.5 -47t-49.5 -20zM310 509q-30 0 -49.5 20t-19.5 47q0 28 19.5 48.5t49.5 20.5q31 0 49.5 -20.5t18.5 -48.5q0 -27 -18.5 -47t-49.5 -20zM210 -10l-151 380 q-12 28 -21 37t-30 11l-17 4l-2 17h268l-2 -17l-23 -4q-35 -4 -20 -43l88 -243l72 199l-14 40q-16 41 -50 47l-19 4l-2 17h272l-2 -17l-22 -4q-24 -4 -27.5 -13t4.5 -30l81 -235l54 164q21 59 14.5 82t-46.5 30l-20 6l-3 17h184l-3 -17l-21 -5q-29 -4 -41 -22t-37 -89 l-110 -316h-60l-119 309l-116 -309h-59z" />
<glyph unicode="&#x2009;" horiz-adv-x="60" />
<glyph unicode="&#x2013;" horiz-adv-x="440" d="M13 220l3 40h408l3 -40h-414z" />
<glyph unicode="&#x2014;" horiz-adv-x="909" d="M13 220l3 40h877l5 -40h-885z" />
<glyph unicode="&#x2018;" horiz-adv-x="222" d="M121 349q-51 0 -78.5 32.5t-27.5 75.5q0 55 45.5 108.5t124.5 89.5l13 -14q-93 -53 -93 -124q0 -35 23.5 -55t47.5 -26l24 -7q0 -28 -21.5 -54t-57.5 -26z" />
<glyph unicode="&#x2019;" horiz-adv-x="222" d="M37 346l-13 14q93 53 93 124q0 34 -23.5 54.5t-47.5 27.5l-24 6q0 28 21.5 54t57.5 26q50 0 78 -32.5t28 -75.5q0 -56 -45.5 -109.5t-124.5 -88.5z" />
<glyph unicode="&#x201a;" horiz-adv-x="222" d="M37 -153l-13 14q93 53 93 124q0 34 -23.5 54.5t-47.5 26.5l-24 7q0 28 21.5 54t57.5 26q50 0 78 -32.5t28 -75.5q0 -56 -45.5 -109.5t-124.5 -88.5z" />
<glyph unicode="&#x201c;" horiz-adv-x="430" d="M329 349q-49 0 -77 32.5t-28 75.5q0 55 45.5 108.5t124.5 89.5l12 -14q-93 -53 -93 -124q0 -35 24 -55t48 -26l24 -7q0 -28 -22 -54t-58 -26zM121 349q-51 0 -78.5 32.5t-27.5 75.5q0 55 45.5 108.5t124.5 89.5l13 -14q-93 -53 -93 -124q0 -35 23.5 -55t47.5 -26l24 -7 q0 -28 -21.5 -54t-57.5 -26z" />
<glyph unicode="&#x201d;" horiz-adv-x="430" d="M245 346l-13 14q93 53 93 124q0 34 -23.5 54.5t-47.5 27.5l-24 6q0 28 21.5 54t57.5 26q51 0 78.5 -32.5t27.5 -75.5q0 -56 -45.5 -109.5t-124.5 -88.5zM37 346l-13 14q93 53 93 124q0 34 -23.5 54.5t-47.5 27.5l-24 6q0 28 21.5 54t57.5 26q50 0 78 -32.5t28 -75.5 q0 -56 -45.5 -109.5t-124.5 -88.5z" />
<glyph unicode="&#x201e;" horiz-adv-x="427" d="M245 -153l-13 14q93 53 93 124q0 34 -23.5 54.5t-47.5 26.5l-24 7q0 28 21.5 54t57.5 26q51 0 78.5 -32.5t27.5 -75.5q0 -56 -45.5 -109.5t-124.5 -88.5zM37 -153l-13 14q93 53 93 124q0 34 -23.5 54.5t-47.5 26.5l-24 7q0 28 21.5 54t57.5 26q50 0 78 -32.5t28 -75.5 q0 -56 -45.5 -109.5t-124.5 -88.5z" />
<glyph unicode="&#x2020;" horiz-adv-x="444" d="M211 -156v562h-195l-2 21h197v198h22v-198h198l-2 -21h-196v-562h-22z" />
<glyph unicode="&#x2021;" horiz-adv-x="444" d="M211 -156v187h-197l2 22h195v363h-195l-2 21h197v188h22v-188h198l-2 -21h-196v-363h196l2 -22h-198v-187h-22z" />
<glyph unicode="&#x2022;" horiz-adv-x="434" d="M217 39q-21 0 -71 20.5t-64 35.5q-15 16 -36 66t-21 71q0 22 21 71.5t36 64.5t65 35.5t71 20.5q22 0 71.5 -20.5t64.5 -35.5t35.5 -64.5t20.5 -71.5t-20 -71.5t-36 -65.5q-15 -15 -65 -35.5t-72 -20.5z" />
<glyph unicode="&#x2026;" horiz-adv-x="684" d="M570 -13q-32 0 -54.5 23.5t-22.5 56.5q0 31 22.5 54t54.5 23t55 -23t23 -54q0 -33 -22.5 -56.5t-55.5 -23.5zM343 -13q-32 0 -55.5 23.5t-23.5 56.5q0 31 23.5 54t55.5 23q31 0 54.5 -23.5t23.5 -53.5q0 -33 -23 -56.5t-55 -23.5zM116 -13q-33 0 -56 23.5t-23 56.5 q0 32 23 54.5t55 22.5t55 -23.5t23 -53.5q0 -33 -22.5 -56.5t-54.5 -23.5z" />
<glyph unicode="&#x2030;" horiz-adv-x="910" d="M147 365q-61 0 -98.5 40t-37.5 98t37.5 99t98.5 41q62 0 100 -41t38 -99t-38 -98t-100 -40zM58 -14l452 654h24l-451 -654h-25zM762 -17q-62 0 -99.5 40t-37.5 98t37.5 99t99.5 41t99.5 -41t37.5 -99t-37.5 -98t-99.5 -40zM446 -17q-62 0 -99 40t-37 98q0 59 37 99.5 t99 40.5t99.5 -41t37.5 -99t-37.5 -98t-99.5 -40zM147 385q52 0 83.5 34t31.5 84t-31.5 85t-83.5 35q-51 0 -82 -35t-31 -85t31 -84t82 -34zM762 3q51 0 82.5 33.5t31.5 84.5q0 50 -31.5 85t-82.5 35t-82.5 -35t-31.5 -85q0 -51 31.5 -84.5t82.5 -33.5zM446 3 q51 0 82.5 33.5t31.5 84.5q0 50 -31.5 85t-82.5 35t-82 -35t-31 -85q0 -51 31 -84.5t82 -33.5z" />
<glyph unicode="&#x2039;" horiz-adv-x="293" d="M269 31l-252 174v35l252 173l5 -8l-122 -184l123 -183z" />
<glyph unicode="&#x203a;" horiz-adv-x="294" d="M27 31l-6 8l124 182l-124 184l6 8l252 -173v-35z" />
<glyph unicode="&#x2044;" horiz-adv-x="479" d="M-10 -14l469 654h30l-469 -654h-30z" />
<glyph unicode="&#x2070;" horiz-adv-x="370" d="M181 261q-75 0 -117.5 51t-42.5 142q0 88 47.5 142.5t124.5 54.5q76 0 119 -50.5t43 -139.5q0 -86 -50 -143t-124 -57zM182 272q52 0 52 184q0 115 -8 148.5t-36 33.5q-26 0 -37.5 -42t-11.5 -137q0 -114 8 -150.5t33 -36.5z" />
<glyph unicode="&#x2074;" horiz-adv-x="361" d="M173 267v83h-161l-3 19l206 283h72v-242h70l-13 -60h-57v-83h-114zM56 410h119v159h-3z" />
<glyph unicode="&#x2075;" horiz-adv-x="307" d="M123 247q-117 0 -117 74q0 21 14.5 35t35.5 14q38 0 51 -31t-12 -66q14 -9 38 -9q28 0 51.5 19t23.5 50q0 43 -48 66t-141 22l57 223h213l-11 -96h-207l-8 -31q71 -1 118.5 -11t71 -28.5t32 -38.5t8.5 -48q0 -61 -55.5 -102.5t-114.5 -41.5z" />
<glyph unicode="&#x2076;" horiz-adv-x="367" d="M188 258q-73 0 -120.5 45.5t-47.5 122.5q0 103 87.5 172t225.5 73l4 -12q-70 -10 -121.5 -57.5t-67.5 -114.5l2 -2q46 29 89 29q52 0 85 -30.5t33 -83.5q0 -57 -45.5 -99.5t-123.5 -42.5zM192 273q20 0 34 27.5t14 79.5q0 51 -18.5 74.5t-46.5 23.5q-12 0 -28 -4 q-5 -33 -5 -62q0 -72 14.5 -105.5t35.5 -33.5z" />
<glyph unicode="&#x2077;" horiz-adv-x="327" d="M45 265l218 285v2h-109q-48 0 -71.5 -6.5t-28.5 -14t-10 -26.5l-7 -15h-14l20 155h278l2 -9l-167 -371h-111z" />
<glyph unicode="&#x2078;" horiz-adv-x="338" d="M170 258q-72 0 -112.5 23.5t-40.5 67.5q0 28 24 49t58 30v2q-39 20 -61 43.5t-22 60.5q0 53 41 86.5t115 33.5q155 0 155 -85q0 -28 -27 -48.5t-65 -26.5v-2q43 -19 68 -44.5t25 -67.5q0 -52 -43.5 -87t-114.5 -35zM214 499q12 38 12 54q0 38 -17 61.5t-44 23.5 q-24 0 -37.5 -14.5t-13.5 -39.5q0 -8 1.5 -14.5t5.5 -12.5t7.5 -10.5t11 -10t12 -8.5t15 -8t14.5 -7t16.5 -7t16.5 -7zM178 272q20 0 35.5 17t15.5 38q0 10 -3 18.5t-10.5 17t-13 13.5t-19 12.5t-19.5 11t-23 11.5t-22 10q-9 -27 -9 -58q-1 -44 16.5 -67.5t51.5 -23.5z" />
<glyph unicode="&#x2079;" horiz-adv-x="367" d="M40 241l-3 13q68 9 119.5 54.5t68.5 109.5l-2 1q-48 -29 -89 -29q-51 0 -84.5 33t-33.5 86q0 58 45.5 101.5t124.5 43.5q73 0 120.5 -46.5t47.5 -127.5q0 -98 -88 -166.5t-226 -72.5zM201 427q13 0 24 3q7 29 7 64q0 53 -8 87t-18.5 46.5t-23.5 12.5q-20 0 -35 -29.5 t-15 -81.5t20 -77t49 -25z" />
<glyph unicode="&#x207a;" horiz-adv-x="370" d="M175 282v165h-164l1 21h163v163h21v-163h162l1 -21h-163v-165h-21z" />
<glyph unicode="&#x207b;" horiz-adv-x="370" d="M339 447h-308l3 19h303z" />
<glyph unicode="&#x2080;" horiz-adv-x="370" d="M175 -143q-75 0 -117.5 51t-42.5 142q0 88 47.5 142.5t124.5 54.5q76 0 119 -50.5t43 -139.5q0 -86 -50 -143t-124 -57zM176 -132q52 0 52 184q0 115 -8 148.5t-36 33.5q-26 0 -37.5 -42t-11.5 -137q0 -114 8 -150.5t33 -36.5z" />
<glyph unicode="&#x2081;" horiz-adv-x="266" d="M23 -137l2 14l18 2q34 2 34 11v305l-58 4l1 11l175 40v-360q0 -9 32 -11l14 -2l3 -14h-221z" />
<glyph unicode="&#x2082;" horiz-adv-x="344" d="M19 -137l-5 39q17 15 52.5 47t47.5 44t30.5 34t24.5 39.5t6 37.5q0 29 -17.5 49t-53.5 20q-61 0 -84 -54l-7 5q17 60 57 93t99 33q60 0 94 -29t34 -76q0 -25 -11 -47t-36.5 -43t-45.5 -35t-59.5 -38.5t-58.5 -36.5v-2h144q27 0 42 14t32 50l8 16l11 -1l-37 -159h-267z " />
<glyph unicode="&#x2083;" horiz-adv-x="325" d="M120 -156q-52 0 -83.5 19t-31.5 52q0 20 13.5 33t35.5 13q34 0 47 -30.5t-1 -67.5q9 -4 20 -4q27 0 44.5 26t17.5 64q0 36 -20 61.5t-54 25.5q-32 0 -54 -12l-6 13q60 22 87 41.5t27 45.5q0 53 -60 53q-30 0 -52.5 -17t-31.5 -38l-9 7q17 52 58.5 86.5t101.5 34.5 q50 0 81.5 -22.5t31.5 -57.5q0 -69 -108 -87v-2q59 6 94.5 -20.5t35.5 -73.5q0 -57 -54 -100t-130 -43z" />
<glyph unicode="&#x2084;" horiz-adv-x="361" d="M167 -137v83h-161l-3 19l206 283h72v-242h70l-13 -60h-57v-83h-114zM50 6h119v159h-3z" />
<glyph unicode="&#x2085;" horiz-adv-x="307" d="M117 -157q-117 0 -117 74q0 21 14.5 35t35.5 14q38 0 51 -31t-12 -66q14 -9 38 -9q28 0 51.5 19t23.5 50q0 43 -48 66t-141 22l57 223h213l-11 -96h-207l-8 -31q71 -1 118.5 -11t71 -28.5t32 -38.5t8.5 -48q0 -61 -55.5 -102.5t-114.5 -41.5z" />
<glyph unicode="&#x2086;" horiz-adv-x="367" d="M182 -146q-73 0 -120.5 45.5t-47.5 122.5q0 103 87.5 172t225.5 73l4 -12q-70 -10 -121.5 -57.5t-67.5 -114.5l2 -2q46 29 89 29q52 0 85 -30.5t33 -83.5q0 -57 -45.5 -99.5t-123.5 -42.5zM186 -131q20 0 34 27.5t14 79.5q0 51 -18.5 74.5t-46.5 23.5q-12 0 -28 -4 q-5 -33 -5 -62q0 -72 14.5 -105.5t35.5 -33.5z" />
<glyph unicode="&#x2087;" horiz-adv-x="327" d="M39 -139l218 285v2h-109q-48 0 -71.5 -6.5t-28.5 -14t-10 -26.5l-7 -15h-14l20 155h278l2 -9l-167 -371h-111z" />
<glyph unicode="&#x2088;" horiz-adv-x="338" d="M164 -146q-72 0 -112.5 23.5t-40.5 67.5q0 28 24 49t58 30v2q-39 20 -61 43.5t-22 60.5q0 53 41 86.5t115 33.5q155 0 155 -85q0 -28 -27 -48.5t-65 -26.5v-2q43 -19 68 -44.5t25 -67.5q0 -52 -43.5 -87t-114.5 -35zM208 95q12 38 12 54q0 38 -17 61.5t-44 23.5 q-24 0 -37.5 -14.5t-13.5 -39.5q0 -8 1.5 -14.5t5.5 -12.5t7.5 -10.5t11 -10t12 -8.5t15 -8t14.5 -7t16.5 -7t16.5 -7zM172 -132q20 0 35.5 17t15.5 38q0 10 -3 18.5t-10.5 17t-13 13.5t-19 12.5t-19.5 11t-23 11.5t-22 10q-9 -27 -9 -58q-1 -44 16.5 -67.5t51.5 -23.5z" />
<glyph unicode="&#x2089;" horiz-adv-x="367" d="M34 -163l-3 13q68 9 119.5 54.5t68.5 109.5l-2 1q-48 -29 -89 -29q-51 0 -84.5 33t-33.5 86q0 58 45.5 101.5t124.5 43.5q73 0 120.5 -46.5t47.5 -127.5q0 -98 -88 -166.5t-226 -72.5zM195 23q13 0 24 3q7 29 7 64q0 53 -8 87t-18.5 46.5t-23.5 12.5q-20 0 -35 -29.5 t-15 -81.5t20 -77t49 -25z" />
<glyph unicode="&#x208a;" horiz-adv-x="370" d="M175 -122v165h-164l1 21h163v163h21v-163h162l1 -21h-163v-165h-21z" />
<glyph unicode="&#x20ac;" horiz-adv-x="531" d="M315 -13q-97 0 -163 64.5t-85 177.5h-64l3 23h58q-2 14 -2 45q0 37 5 61h-64l3 23h65q25 111 103 179.5t178 68.5q75 0 118 -26t43 -73q0 -27 -21.5 -47.5t-51.5 -20.5q-48 0 -66 46t14 88q-20 10 -40 10q-56 0 -89.5 -62t-42.5 -163h184l3 -23h-189q-1 -10 -1 -32 q0 -40 6 -74h181l3 -23h-178q42 -156 164 -156q85 0 130 76l10 -6q-27 -73 -83 -114.5t-131 -41.5z" />
<glyph unicode="&#x2122;" horiz-adv-x="579" d="M259 403l1 12l13 2q13 1 16 7t4 37l4 134q-7 13 -19 16l-16 2l-1 12h106l38 -148h4l47 148h105l-1 -12l-18 -2q-13 -3 -13 -8l5 -166q0 -11 2.5 -14t12.5 -5l15 -3l2 -12h-124v12l19 3q7 1 9 4.5t1 15.5l-3 165h-3l-65 -196h-29l-55 187h-3l-4 -135q-1 -28 3 -35t17 -7 l13 -2l1 -12h-84zM72 403v12l18 3q11 1 11 7v188h-3q-37 0 -58 -64l-3 -8h-17l6 84h215l3 -85h-17l-3 8q-10 33 -21.5 49t-34.5 16h-6v-189q0 -4 14 -6l14 -3l1 -12h-119z" />
<glyph unicode="&#x2212;" d="M412 223h-376l3 26h370z" />
<glyph unicode="&#x2215;" horiz-adv-x="479" d="M-10 -14l469 654h30l-469 -654h-30z" />
<glyph unicode="&#x2248;" d="M409 205h26q-19 -98 -108 -98q-34 0 -106 34q-68 33 -100 33q-34 0 -53.5 -15t-28.5 -57h-26q19 98 108 98q34 0 106 -34q68 -33 100 -33q35 0 54 15t28 57zM409 369h26q-19 -98 -108 -98q-34 0 -106 34q-68 33 -100 33q-34 0 -53.5 -15t-28.5 -57h-26q19 98 108 98 q34 0 106 -34q68 -33 100 -33q35 0 54 15t28 57z" />
<glyph unicode="&#x2260;" d="M27 309l-3 26h215l43 150h28l-43 -150h157l-3 -26h-161l-42 -147h203l3 -26h-213l-45 -160h-28l45 160h-159l3 26h163l42 147h-205z" />
<glyph unicode="&#x2264;" horiz-adv-x="438" d="M420 25h-409l3 26h403zM410 84l-399 174v18l399 174l10 -24l-368 -157l1 -1q58 -25 183.5 -80t183.5 -80z" />
<glyph unicode="&#x2265;" horiz-adv-x="438" d="M427 25h-409l3 26h403zM427 258l-399 -174l-10 24l367 159v1q-345 149 -367 158l10 24l399 -174v-18z" />
<glyph unicode="&#x24df;" horiz-adv-x="733" d="M367 -28q-142 0 -241 99.5t-99 240.5q0 142 99 242t241 100q141 0 240.5 -100t99.5 -242q0 -141 -99.5 -240.5t-240.5 -99.5zM367 -9q132 0 225.5 94.5t93.5 226.5q0 133 -93.5 228t-225.5 95t-226 -95t-94 -228q0 -132 94 -226.5t226 -94.5zM207 119l2 15l25 3 q23 3 23 12v320q0 6 -27 10l-21 3l-2 15h176q174 0 174 -103q0 -51 -46.5 -82.5t-126.5 -31.5q-14 0 -30 2v-135q0 -7 29 -9l25 -4l2 -15h-203zM379 295q34 0 55 26t21 68q0 43 -21 68t-57 26l-23 -1v-184q21 -3 25 -3z" />
<glyph unicode="&#x25fc;" horiz-adv-x="440" d="M0 440h440v-440h-440v440z" />
<glyph unicode="&#xf6c3;" horiz-adv-x="404" d="M136 -287l-10 11q85 24 85 83q0 33 -34.5 47.5t-60.5 1.5q-8 35 14.5 62.5t64.5 27.5q44 0 69.5 -27.5t25.5 -66.5q0 -46 -39.5 -84.5t-114.5 -54.5z" />
<glyph horiz-adv-x="553" d="M211 -13q-86 0 -138 33.5t-52 91.5q0 38 24.5 61t59.5 23t58.5 -20.5t23.5 -54.5q0 -46 -39 -77q10 -13 29.5 -23.5t37.5 -10.5q43 0 62 31t19 110v435q0 13 -47 16l-47 6l-3 17h343l-3 -17l-39 -7q-39 -4 -39 -17v-407q0 -69 -77.5 -129.5t-172.5 -60.5z" />
<glyph horiz-adv-x="553" d="M220 677l139 200h23l139 -200h-18l-131 88h-2l-132 -88h-18zM211 -13q-86 0 -138 33.5t-52 91.5q0 38 24.5 61t59.5 23t58.5 -20.5t23.5 -54.5q0 -46 -39 -77q10 -13 29.5 -23.5t37.5 -10.5q43 0 62 31t19 110v435q0 13 -47 16l-47 6l-3 17h343l-3 -17l-39 -6 q-39 -5 -39 -18v-407q0 -69 -77.5 -129.5t-172.5 -60.5z" />
<glyph horiz-adv-x="574" d="M286 -13q-111 0 -181 70t-70 185q0 114 71 186t182 72q112 0 182.5 -70t70.5 -185t-71.5 -186.5t-183.5 -71.5zM287 24q95 0 155.5 61t60.5 160q0 98 -60.5 158t-155.5 60q-94 0 -154 -61.5t-60 -159.5t59.5 -158t154.5 -60z" />
<glyph horiz-adv-x="370" d="M39 0l3 19l30 4q41 3 41 17v404q0 13 -46 16l-28 4l-3 19h303l-3 -19l-30 -4q-41 -5 -41 -17v-404q0 -13 46 -16l28 -4l3 -19h-303z" />
<glyph horiz-adv-x="231" d="M115 166q-33 0 -56 23t-23 56q0 32 23 54.5t56 22.5q31 0 54.5 -23.5t23.5 -53.5q0 -33 -23 -56t-55 -23z" />
<glyph horiz-adv-x="659" d="M568 352q77 -36 77 -110q0 -107 -98.5 -181t-232.5 -74q-137 0 -210 56.5t-73 155.5q0 47 33 87.5t89 63.5q-14 25 -14 51q0 62 39 98.5t106 36.5q62 0 97 -41.5t26 -96.5l-18 4q2 28 -14.5 48t-49.5 20q-32 0 -51 -22.5t-19 -55.5q0 -12 1 -18q9 1 29 1q37 0 60 -15 t23 -37q0 -23 -21 -37.5t-53 -14.5q-77 0 -125 56q-24 -24 -24 -60q0 -82 69 -134.5t184 -52.5q96 0 161 47t65 115q0 38 -26 64.5t-66 26.5q-18 0 -41.5 -26.5t-23.5 -49.5q0 -29 16.5 -45.5t41.5 -16.5q-22 12 -28 36t7.5 43.5t41.5 19.5q23 0 36.5 -14.5t13.5 -38.5 q0 -27 -20.5 -44t-54.5 -17q-49 0 -83 33.5t-34 81.5q0 37 20.5 64.5t50 44t58.5 31.5t49.5 35t20.5 45q0 20 -18.5 37t-47.5 17q24 -6 33.5 -32t-5 -50t-49.5 -24q-26 0 -42.5 15.5t-16.5 40.5q0 30 23.5 48t60.5 18q52 0 89.5 -35t37.5 -85q0 -34 -23.5 -60.5t-76.5 -52.5 zM258 358q9 -46 55 -46q11 0 20 6t9 14q0 12 -16.5 19.5t-40.5 7.5q-18 0 -27 -1z" />
<glyph horiz-adv-x="687" d="M344 -104q-138 0 -228.5 86t-90.5 219q0 144 99 246t242 102q129 0 212.5 -75.5t83.5 -196.5q0 -96 -59 -167t-144 -71q-40 0 -69 21t-29 55q0 18 25 87h-4q-49 -86 -80 -121t-74 -35q-38 0 -65 25.5t-28 66.5q0 101 97 200q60 63 122 63q33 0 49 -24.5t11 -63.5h4l40 99 l109 -2l-57 -148l-40 -115q-6 -21 8 -37.5t45 -16.5q44 0 81.5 52.5t37.5 129.5q0 114 -78 185t-200 71q-131 0 -224.5 -97t-93.5 -231q0 -128 84 -208t217 -80q66 0 123 30t89 77l10 -13q-34 -50 -94.5 -81.5t-130.5 -31.5zM278 116q41 0 95 101q6 10 15.5 35.5t9.5 31.5 q-5 28 -23.5 53.5t-30.5 25.5t-21 -9q-22 -23 -49 -88t-27 -108q0 -19 8.5 -30.5t22.5 -11.5z" />
<glyph horiz-adv-x="556" d="M279 173h-141l-14 -38q-14 -41 -19.5 -59t-3 -31.5t12 -17t31.5 -7.5l14 -3l3 -17h-172l3 17l15 3q37 6 51 23.5t43 95.5l91 251l-6 28q30 7 61.5 28t43.5 48h22l144 -389q18 -48 34.5 -65t40.5 -21l17 -2l3 -17h-279l3 17l15 2q26 4 30 14.5t-9 45.5zM145 194h126 l-62 169h-3z" />
<glyph horiz-adv-x="531" d="M15 0l3 17l29 5q30 4 30 14v409q0 5 -6.5 7.5t-28.5 5.5l-24 4l-3 17h258q116 0 167 -25t51 -88q0 -77 -127 -101v-4q66 -5 105.5 -35.5t39.5 -84.5q0 -141 -220 -141h-274zM257 19h10q40 7 68.5 38t28.5 80q0 50 -36.5 79.5t-88.5 29.5h-16v-214zM223 262h11q50 0 83 24 t33 75q0 48 -31 73t-76 25l-20 -2v-195z" />
<glyph horiz-adv-x="554" d="M312 -10q-132 0 -208.5 69t-76.5 174q0 109 76.5 182.5t212.5 73.5q74 0 120 -23l64 13l6 -171h-30l-74 143q-25 16 -75 16q-67 0 -104.5 -62t-37.5 -167t36.5 -166.5t95.5 -61.5q95 0 136 83l37 86l30 -1l-20 -161h-39q-74 -27 -149 -27z" />
<glyph horiz-adv-x="590" d="M15 0l3 17l29 5q30 4 30 14v409q0 8 -35 13l-24 4l-3 17h271q132 0 203.5 -61t71.5 -179q0 -98 -83 -168.5t-190 -70.5h-273zM276 20q55 1 90.5 59.5t35.5 146.5q0 117 -38 174.5t-107 57.5h-34v-427z" />
<glyph horiz-adv-x="528" d="M15 0l3 17l30 5q29 4 29 14v409q0 5 -6.5 7.5t-28.5 5.5l-24 4l-3 17h457l3 -170l-30 1l-5 21q-9 42 -27 70t-43.5 40t-50 16t-55.5 2l-41 -2v-204h33q27 1 50.5 18.5t32.5 45.5l11 31h20l-23 -216h-21l-4 28q-7 37 -21.5 53t-53.5 20l-24 2v-214l53 -2q145 2 182 129 l6 21h31l-11 -169h-469z" />
<glyph horiz-adv-x="498" d="M15 0l3 17l28 5q31 4 31 14v409q0 8 -36 13l-23 4l-3 17h454l-1 -170l-30 1l-5 21q-11 54 -39 84t-57 37t-72 7l-42 -3v-210l33 1q28 1 50.5 18t32.5 46l11 31h21l-24 -216h-21l-4 27q-7 38 -22 56.5t-52 17.5h-25v-193q0 -9 34 -13l32 -4l2 -17h-276z" />
<glyph horiz-adv-x="586" d="M306 -13q-134 0 -206.5 71t-72.5 175q0 111 74.5 184t216.5 73q71 0 127 -25l64 13l2 -169h-32l-73 140q-32 20 -85 20q-66 0 -101 -62t-35 -169q0 -117 37.5 -174t86.5 -57q22 0 58 12v167q0 9 -51 12l-22 5l-1 17h273l-2 -17l-37 -5q-11 -1 -16 -3.5t-5 -3.5v-6v-132 l55 11l2 -13q-45 -28 -118.5 -46t-138.5 -18z" />
<glyph horiz-adv-x="614" d="M15 0l3 17l29 5q30 4 30 14v409q0 5 -6.5 7.5t-28.5 5.5l-24 4l-3 17h267l-2 -17l-27 -5q-30 -4 -30 -13v-189h166v190q0 5 -6 7.5t-28 5.5l-22 4l-2 17h267l-2 -17l-31 -5q-29 -4 -29 -13v-410q0 -5 5.5 -7t29.5 -6l24 -4l2 -17h-267l3 17l27 5q29 5 29 14v196h-166 v-198q0 -5 6.5 -7.5t28.5 -5.5l22 -4l3 -17h-268z" />
<glyph horiz-adv-x="323" d="M25 0l3 17l31 5q29 4 29 14v409q0 5 -6 7.5t-29 5.5l-26 4l-2 17h272l-2 -17l-31 -5q-29 -4 -29 -13v-410q0 -5 6 -7.5t28 -5.5l26 -4l2 -17h-272z" />
<glyph horiz-adv-x="323" d="M3 -139q-46 0 -73.5 20t-27.5 51q0 26 17.5 43.5t44.5 17.5q41 0 58 -35.5t-6 -77.5q74 3 74 178v387q0 10 -36 13l-27 4l-2 17h273l-3 -17l-29 -5q-29 -4 -29 -13v-352q0 -74 -77.5 -152.5t-156.5 -78.5z" />
<glyph horiz-adv-x="451" d="M172 -11q-68 0 -112.5 28t-44.5 78q0 33 20 52t50 19t50.5 -17.5t20.5 -46.5q0 -38 -31 -64q8 -12 22.5 -20.5t27.5 -8.5q31 0 44.5 22.5t13.5 81.5v332q0 9 -38 13l-35 4l-3 17h281l-3 -17l-27 -5q-30 -4 -30 -13v-305q0 -53 -65 -101.5t-141 -48.5z" />
<glyph horiz-adv-x="586" d="M15 0l3 17l28 5q31 4 31 14v409q0 8 -36 13l-23 4l-3 17h268l-3 -17l-27 -5q-30 -4 -30 -13v-210l116 117q55 59 54.5 79.5t-50.5 29.5l-15 3l-4 16h235l-2 -17l-34 -4q-23 -2 -50.5 -18t-40.5 -28t-53 -51q-4 -3 -5.5 -4.5l-4.5 -4.5l-5 -5l-9 -9l152 -248 q25 -43 41 -55t39 -15l9 -3l3 -17h-267l3 17l6 2q16 3 22.5 6.5t6 14t-8.5 25.5t-26 45l-77 130l-35 -33v-173q0 -5 6.5 -7.5t28.5 -5.5l22 -4l2 -17h-267z" />
<glyph horiz-adv-x="486" d="M15 0l3 17l28 5q31 4 31 14v409q0 8 -36 13l-23 4l-3 17h277l-3 -17l-36 -5q-30 -6 -30 -13v-423l19 -2q50 0 94 33t90 119l7 21h28l-22 -192h-424z" />
<glyph horiz-adv-x="706" d="M13 0l3 17l19 4q30 3 40.5 20t11.5 52l9 332q-22 30 -52 33l-29 4l-2 17h239l94 -295h5l99 295h229l-2 -17l-36 -5q-29 -4 -29 -13l12 -410q0 -5 5.5 -7t29.5 -6l24 -4l4 -17h-273l2 17l34 5q27 4 27 14l-11 401h-5l-154 -432h-46l-141 416q0 -1 -1 -2t-1 -2l-6 -333 q-1 -34 9.5 -46.5t46.5 -16.5l21 -4l3 -17h-179z" />
<glyph horiz-adv-x="584" d="M442 -5l-320 376h-5v-289q0 -32 13 -45.5t50 -15.5l22 -4l2 -17h-182l1 17l19 4q34 3 42.5 17.5t8.5 52.5l2 311q-17 27 -39.5 40.5t-37.5 14.5l-15 3l-2 19h232l235 -279h5v197q0 32 -12.5 45.5t-50.5 16.5l-21 3l-4 17h184l-2 -17l-19 -3q-34 -3 -42.5 -18t-8.5 -53 l-4 -393h-51z" />
<glyph horiz-adv-x="594" d="M293 -10q-121 0 -193.5 68t-72.5 181q0 107 81.5 178.5t193.5 71.5q120 0 192 -69t72 -181q0 -107 -80.5 -178t-192.5 -71zM302 12q55 0 81 52t26 171q0 232 -114 232q-58 0 -84 -52.5t-26 -172.5q0 -230 117 -230z" />
<glyph horiz-adv-x="524" d="M19 0l2 17l26 5q31 4 31 14v409q0 5 -6.5 7.5t-29.5 5.5l-20 4l-4 17h247q120 0 178 -31t58 -98q0 -69 -65 -105.5t-181 -36.5q-3 0 -16 1t-16 1v-176q0 -9 34 -13l32 -4l2 -17h-272zM252 226q39 0 66.5 33.5t27.5 82.5q0 55 -25.5 86t-71.5 33l-26 -3v-229q15 -3 29 -3z " />
<glyph horiz-adv-x="592" d="M442 -139q-77 0 -119.5 29t-85.5 103q-99 16 -154.5 84.5t-55.5 161.5q0 104 82 176t193 72q123 0 193.5 -71.5t70.5 -177.5q0 -72 -44.5 -131t-116.5 -90q34 -80 74 -105.5t125 -13.5l2 -16q-79 -21 -164 -21zM302 9q55 0 81 53t26 172q0 233 -114 233q-57 0 -83.5 -53 t-26.5 -174q0 -231 117 -231z" />
<glyph horiz-adv-x="588" d="M18 0l3 17l26 5q30 5 30 14v409q0 5 -6.5 7.5t-28.5 5.5l-21 4l-2 17l282 1q211 2 211 -116q0 -46 -30 -78t-86 -45l86 -144q27 -46 40 -59t37 -18l13 -3l2 -17h-203l-11 24l-100 205q-2 0 -17.5 1.5t-19.5 2.5v-199v-3.5t1.5 -2.5t5 -3t10 -2t17.5 -2l30 -4l2 -17h-271z M249 251q49 2 78.5 31t29.5 77q0 46 -28.5 73t-75.5 29h-30v-207q20 -3 26 -3z" />
<glyph d="M220 -9q-111 0 -170 24l-13 142h28l45 -93q43 -53 116 -53q46 0 73.5 20.5t27.5 54.5q0 19 -8.5 35t-19.5 26t-31.5 19.5t-35 14.5t-39.5 12q-148 43 -148 140q0 69 54.5 112.5t129.5 43.5q69 0 126 -20l40 12l2 -155h-26l-77 132q-20 11 -68 11q-37 0 -62 -18.5 t-25 -44.5q0 -36 26.5 -53.5t95.5 -38.5q158 -46 158 -156q0 -70 -58 -118.5t-141 -48.5z" />
<glyph horiz-adv-x="556" d="M145 0l2 17l31 5q29 3 29 14v425h-13q-73 -4 -130 -130l-10 -26h-28l17 174h479l6 -173h-26l-10 27q-62 126 -124 128h-15v-427q0 -10 35 -13l25 -4l2 -17h-270z" />
<glyph horiz-adv-x="570" d="M288 -15q-102 0 -157 39.5t-55 116.5v304q0 5 -5.5 7.5t-28.5 5.5l-22 4l-2 17h264l-2 -17l-28 -5q-29 -4 -29 -13v-273q0 -129 119 -129q66 0 95.5 33t29.5 109v213q0 32 -12.5 45.5t-50.5 16.5l-21 3l-3 17h185l-2 -14l-22 -4q-32 -2 -41 -17t-9 -57v-16t-0.5 -37.5 t-0.5 -52t-0.5 -49t-0.5 -39t0 -13.5q-1 -99 -49.5 -147t-151.5 -48z" />
<glyph horiz-adv-x="552" d="M253 -1l-162 383q-21 46 -35 60.5t-36 17.5l-18 2l-2 17h272l-2 -17l-16 -1q-32 -3 -35 -15t16 -51l98 -246h7l74 195q30 77 30 90q-1 16 -26 22q-7 2 -20 4l-15 2l-3 17h172l-2 -17l-15 -2q-36 -6 -51 -26t-51 -107l-131 -328h-49z" />
<glyph horiz-adv-x="794" d="M227 -8l-149 390q-19 44 -32.5 58.5t-35.5 19.5l-11 2l-2 17h271l-2 -17l-21 -1q-30 -3 -35.5 -11.5t4.5 -27.5l98 -264h6l71 199l-8 25q-25 71 -63 78l-18 2l-3 17h277l-2 -17l-20 -1q-28 -3 -35 -13.5t1 -33.5l85 -248h6l65 178q2 4 5 13q23 64 19 79q-8 18 -52 24 l-17 2l-1 17h174l-2 -17l-12 -2q-40 -8 -51.5 -24.5t-44.5 -105.5l-127 -338h-47l-115 326h-5l-123 -326h-48z" />
<glyph horiz-adv-x="550" d="M3 0l2 17l30 3q25 3 47.5 26t74.5 93q12 15 18 24l39 48l-126 183q-3 6 -10.5 17.5t-9.5 15t-7.5 11t-8 9.5t-8 5.5t-10.5 5t-12 2.5l-22 2l-3 17h291l-3 -17l-16 -1q-27 -3 -33.5 -12t5.5 -25l73 -116h1l23 28q57 80 61 94q5 18 -19 24q-10 2 -30 5l-19 3l-2 17h195 l-2 -17l-23 -3q-37 -5 -66 -31t-83 -111l-22 -26l34 -49q33 -50 66 -99l34 -49q20 -33 28 -44t18.5 -20.5t23.5 -10.5l13 -2l2 -17h-280l2 17l16 2q29 3 34 12t-10 33l-81 130h-2q1 0 -8.5 -12t-19.5 -24l-9 -13q-30 -39 -43 -60t-14.5 -35.5t9 -19.5t36.5 -9l18 -4l3 -17 h-195z" />
<glyph horiz-adv-x="538" d="M135 0l3 17l30 5q30 4 30 14v174l-108 178q-22 41 -33.5 53.5t-37.5 18.5l-7 2l-4 17h276l-2 -17l-9 -1q-61 -9 -41 -42l92 -170h7l46 80q33 61 40.5 83.5t-2.5 32.5t-48 14l-19 3l-2 17h197l-3 -17l-20 -3q-37 -6 -57 -29.5t-74 -119.5l-45 -79v-197q0 -5 6 -7.5 t28 -5.5l24 -4l1 -17h-268z" />
<glyph horiz-adv-x="512" d="M31 0v16l271 438v2l-58 3q-45 0 -88 -31.5t-66 -100.5l-7 -22h-29l3 174h414v-17l-285 -436v-3l40 -3q77 -5 128.5 30.5t89.5 134.5l8 24h29l-23 -209h-427z" />
<glyph horiz-adv-x="821" d="M523 0l3 17l31 5q29 4 29 14v409q0 5 -6 7.5t-29 5.5l-26 4l-2 17h272l-2 -17l-31 -5q-29 -4 -29 -13v-410q0 -5 6 -7.5t28 -5.5l26 -4l2 -17h-272zM15 0l3 17l28 5q31 4 31 14v409q0 8 -36 13l-23 4l-3 17h454l-1 -170l-30 1l-5 21q-11 54 -39 84t-57 37t-72 7l-42 -3 v-210l33 1q28 1 50.5 18t32.5 46l11 31h21l-24 -216h-21l-4 27q-7 38 -22 56.5t-52 17.5h-25v-193q0 -9 34 -13l32 -4l2 -17h-276z" />
<glyph horiz-adv-x="984" d="M513 0l3 17l28 5q31 4 31 14v409q0 8 -36 13l-23 4l-3 17h277l-3 -17l-36 -5q-30 -6 -30 -13v-423l19 -2q50 0 94 33t90 119l7 21h28l-22 -192h-424zM15 0l3 17l28 5q31 4 31 14v409q0 8 -36 13l-23 4l-3 17h454l-1 -170l-30 1l-5 21q-11 54 -39 84t-57 37t-72 7l-42 -3 v-210l33 1q28 1 50.5 18t32.5 46l11 31h21l-24 -216h-21l-4 27q-7 38 -22 56.5t-52 17.5h-25v-193q0 -9 34 -13l32 -4l2 -17h-276z" />
<glyph horiz-adv-x="996" d="M513 0l3 17l28 5q31 4 31 14v409q0 8 -36 13l-23 4l-3 17h454l-1 -170l-30 1l-5 21q-11 54 -39 84t-57 37t-72 7l-42 -3v-210l33 1q28 1 50.5 18t32.5 46l11 31h21l-24 -216h-21l-4 27q-6 37 -21 56t-53 18h-25v-193q0 -9 34 -13l32 -4l2 -17h-276zM15 0l3 17l28 5 q31 4 31 14v409q0 8 -36 13l-23 4l-3 17h454l-1 -170l-30 1l-5 21q-11 54 -39 84t-57 37t-72 7l-42 -3v-210l33 1q28 1 50.5 18t32.5 46l11 31h21l-24 -216h-21l-4 27q-7 38 -22 56.5t-52 17.5h-25v-193q0 -9 34 -13l32 -4l2 -17h-276z" />
<glyph horiz-adv-x="1319" d="M1021 0l3 17l31 5q29 4 29 14v409q0 5 -6 7.5t-29 5.5l-26 4l-2 17h272l-2 -17l-31 -5q-29 -4 -29 -13v-410q0 -5 6 -7.5t28 -5.5l26 -4l2 -17h-272zM513 0l3 17l28 5q31 4 31 14v409q0 8 -36 13l-23 4l-3 17h454l-1 -170l-30 1l-5 21q-11 54 -39 84t-57 37t-72 7l-42 -3 v-210l33 1q28 1 50.5 18t32.5 46l11 31h21l-24 -216h-21l-4 27q-6 37 -21 56t-53 18h-25v-193q0 -9 34 -13l32 -4l2 -17h-276zM15 0l3 17l28 5q31 4 31 14v409q0 8 -36 13l-23 4l-3 17h454l-1 -170l-30 1l-5 21q-11 54 -39 84t-57 37t-72 7l-42 -3v-210l33 1q28 1 50.5 18 t32.5 46l11 31h21l-24 -216h-21l-4 27q-7 38 -22 56.5t-52 17.5h-25v-193q0 -9 34 -13l32 -4l2 -17h-276z" />
<glyph horiz-adv-x="1482" d="M1011 0l3 17l28 5q31 4 31 14v409q0 8 -36 13l-23 4l-3 17h277l-3 -17l-36 -5q-30 -6 -30 -13v-423l19 -2q50 0 94 33t90 119l7 21h28l-22 -192h-424zM513 0l3 17l28 5q31 4 31 14v409q0 8 -36 13l-23 4l-3 17h454l-1 -170l-30 1l-5 21q-11 54 -39 84t-57 37t-72 7 l-42 -3v-210l33 1q28 1 50.5 18t32.5 46l11 31h21l-24 -216h-21l-4 27q-6 37 -21 56t-53 18h-25v-193q0 -9 34 -13l32 -4l2 -17h-276zM15 0l3 17l28 5q31 4 31 14v409q0 8 -36 13l-23 4l-3 17h454l-1 -170l-30 1l-5 21q-11 54 -39 84t-57 37t-72 7l-42 -3v-210l33 1 q28 1 50.5 18t32.5 46l11 31h21l-24 -216h-21l-4 27q-7 38 -22 56.5t-52 17.5h-25v-193q0 -9 34 -13l32 -4l2 -17h-276z" />
<glyph horiz-adv-x="896" d="M668 -9q-111 0 -170 24l-13 142h28l45 -93q43 -53 116 -53q46 0 73.5 20.5t27.5 54.5q0 19 -8.5 35t-19.5 26t-31.5 19.5t-35 14.5t-39.5 12q-148 43 -148 140q0 69 54.5 112.5t129.5 43.5q69 0 126 -20l40 12l2 -155h-26l-77 132q-20 11 -68 11q-37 0 -62 -18.5 t-25 -44.5q0 -36 26.5 -53.5t95.5 -38.5q158 -46 158 -156q0 -70 -58 -118.5t-141 -48.5zM220 -9q-111 0 -170 24l-13 142h28l45 -93q43 -53 116 -53q46 0 73.5 20.5t27.5 54.5q0 19 -8.5 35t-19.5 26t-31.5 19.5t-35 14.5t-39.5 12q-148 43 -148 140q0 69 54.5 112.5 t129.5 43.5q69 0 126 -20l40 12l2 -155h-26l-77 132q-20 11 -68 11q-37 0 -62 -18.5t-25 -44.5q0 -36 26.5 -53.5t95.5 -38.5q158 -46 158 -156q0 -70 -58 -118.5t-141 -48.5z" />
<glyph horiz-adv-x="556" d="M279 173h-141l-14 -38q-14 -41 -19.5 -59t-3 -31.5t12 -17t31.5 -7.5l14 -3l3 -17h-172l3 17l15 3q37 6 51 23.5t43 95.5l91 251l-6 28q30 7 61.5 28t43.5 48h22l144 -389q18 -48 34.5 -65t40.5 -21l17 -2l3 -17h-279l3 17l15 2q26 4 30 14.5t-9 45.5zM145 194h126 l-62 169h-3zM294 534l-226 184h144l106 -184h-24z" />
<glyph horiz-adv-x="556" d="M279 173h-141l-14 -38q-14 -41 -19.5 -59t-3 -31.5t12 -17t31.5 -7.5l14 -3l3 -17h-172l3 17l15 3q37 6 51 23.5t43 95.5l91 251l-6 28q30 7 61.5 28t43.5 48h22l144 -389q18 -48 34.5 -65t40.5 -21l17 -2l3 -17h-279l3 17l15 2q26 4 30 14.5t-9 45.5zM145 194h126 l-62 169h-3zM210 534l106 184h143l-225 -184h-24z" />
<glyph horiz-adv-x="556" d="M279 173h-141l-14 -38q-14 -41 -19.5 -59t-3 -31.5t12 -17t31.5 -7.5l14 -3l3 -17h-172l3 17l15 3q37 6 51 23.5t43 95.5l91 251l-6 28q30 7 61.5 28t43.5 48h22l144 -389q18 -48 34.5 -65t40.5 -21l17 -2l3 -17h-279l3 17l15 2q26 4 30 14.5t-9 45.5zM145 194h126 l-62 169h-3zM129 527l139 200h23l139 -200h-18l-131 88h-2l-132 -88h-18z" />
<glyph horiz-adv-x="556" d="M279 173h-141l-14 -38q-14 -41 -19.5 -59t-3 -31.5t12 -17t31.5 -7.5l14 -3l3 -17h-172l3 17l15 3q37 6 51 23.5t43 95.5l91 251l-6 28q30 7 61.5 28t43.5 48h22l144 -389q18 -48 34.5 -65t40.5 -21l17 -2l3 -17h-279l3 17l15 2q26 4 30 14.5t-9 45.5zM145 194h126 l-62 169h-3zM357 541q-33 0 -101 32.5t-88 32.5q-15 0 -25 -11.5t-14 -44.5h-22q6 81 26.5 112t66.5 31q33 0 100 -32.5t87 -32.5q16 0 26.5 11t15.5 44h20q-5 -81 -25.5 -111.5t-66.5 -30.5z" />
<glyph horiz-adv-x="556" d="M279 173h-141l-14 -38q-14 -41 -19.5 -59t-3 -31.5t12 -17t31.5 -7.5l14 -3l3 -17h-172l3 17l15 3q37 6 51 23.5t43 95.5l91 251l-6 28q30 7 61.5 28t43.5 48h22l144 -389q18 -48 34.5 -65t40.5 -21l17 -2l3 -17h-279l3 17l15 2q26 4 30 14.5t-9 45.5zM145 194h126 l-62 169h-3zM384 544q-30 0 -48.5 20t-18.5 47q0 28 18.5 48.5t48.5 20.5q31 0 49.5 -20.5t18.5 -48.5q0 -27 -18.5 -47t-49.5 -20zM170 544q-30 0 -49.5 20t-19.5 47q0 28 19.5 48.5t49.5 20.5q31 0 49.5 -20.5t18.5 -48.5q0 -27 -18.5 -47t-49.5 -20z" />
<glyph horiz-adv-x="556" d="M279 173h-141l-14 -39q-19 -53 -22 -73t5.5 -28t37.5 -13l14 -3l3 -17h-172l3 17l15 3q37 6 51 23.5t43 95.5l112 313q-41 27 -41 80q0 40 26.5 68t68.5 28q43 0 69 -28t26 -68q0 -49 -35 -75l130 -352q18 -48 34.5 -65t40.5 -21l17 -2l3 -17h-279l3 17l15 2 q26 4 30 14.5t-9 45.5zM268 454q34 0 55 22.5t21 55.5q0 32 -21 55t-55 23t-55 -23t-21 -55q0 -33 21 -55.5t55 -22.5zM145 194h126l-61 169h-5z" />
<glyph horiz-adv-x="556" d="M189 623l106 184h143l-225 -184h-24zM279 173h-141l-14 -39q-19 -53 -22 -73t5.5 -28t37.5 -13l14 -3l3 -17h-172l3 17l15 3q37 6 51 23.5t43 95.5l112 313q-41 27 -41 80q0 40 26.5 68t68.5 28q43 0 69 -28t26 -68q0 -49 -35 -75l130 -352q18 -48 34.5 -65t40.5 -21 l17 -2l3 -17h-279l3 17l15 2q26 4 30 14.5t-9 45.5zM268 454q34 0 55 22.5t21 55.5q0 32 -21 55t-55 23t-55 -23t-21 -55q0 -33 21 -55.5t55 -22.5zM145 194h126l-61 169h-5z" />
<glyph horiz-adv-x="556" d="M279 173h-141l-14 -38q-14 -41 -19.5 -59t-3 -31.5t12 -17t31.5 -7.5l14 -3l3 -17h-172l3 17l15 3q37 6 51 23.5t43 95.5l91 251l-6 28q30 7 61.5 28t43.5 48h22l144 -389q18 -48 34.5 -65t40.5 -21l17 -2l3 -17h-279l3 17l15 2q26 4 30 14.5t-9 45.5zM145 194h126 l-62 169h-3zM115 530l16 65h272l-11 -65h-277z" />
<glyph horiz-adv-x="556" d="M279 173h-141l-14 -38q-14 -41 -19.5 -59t-3 -31.5t12 -17t31.5 -7.5l14 -3l3 -17h-172l3 17l15 3q37 6 51 23.5t43 95.5l91 251l-6 28q30 7 61.5 28t43.5 48h22l144 -389q18 -48 34.5 -65t40.5 -21l17 -2l3 -17h-279l3 17l15 2q26 4 30 14.5t-9 45.5zM272 515 q-118 0 -152 182h24q16 -47 51 -70t79 -23t79.5 23.5t51.5 69.5h22q-31 -182 -155 -182zM145 194h126l-62 169h-3z" />
<glyph horiz-adv-x="556" d="M430 -241q-48 0 -79 24t-31 69q0 52 51 91t109 57h-206l3 17l15 2q26 4 30 14.5t-9 45.5l-35 94h-140l-14 -39q-19 -53 -22 -73t5.5 -28t37.5 -13l14 -3l3 -17h-172l2 17l16 3q37 6 51 23.5t43 95.5l91 251l-6 28q31 7 65 28.5t46 48.5h16l144 -390q18 -48 34.5 -65 t40.5 -21l17 -2l3 -17q-64 -11 -106 -42t-42 -69q0 -30 19 -49t51 -19q33 0 73 34l5 -5q-14 -36 -45.5 -63.5t-77.5 -27.5zM145 194h126l-62 169h-3z" />
<glyph horiz-adv-x="724" d="M284 189h-133l-29 -59q-28 -61 -23.5 -83t40.5 -27l19 -3l2 -17h-190l2 17l25 3q28 5 49.5 29t60.5 101l132 272q10 16 4.5 24.5t-35.5 11.5l-40 5l-2 16h502l2 -170l-29 1l-5 21q-17 80 -65 106.5t-115 21.5l-27 -2v-204h18q29 1 55.5 19t33.5 46l10 30h22l-25 -216h-21 l-4 28q-6 69 -78 75h-11v-214l38 -2q150 2 188 129l6 21h31l-12 -169h-466l2 17l37 5q31 3 31 14v153zM161 210h123v240h-7z" />
<glyph horiz-adv-x="724" d="M358 513l106 184h143l-225 -184h-24zM284 189h-133l-29 -59q-28 -61 -23.5 -83t40.5 -27l19 -3l2 -17h-190l2 17l25 3q28 5 49.5 29t60.5 101l132 272q10 16 4.5 24.5t-35.5 11.5l-40 5l-2 16h502l2 -170l-29 1l-5 21q-17 80 -65 106.5t-115 21.5l-27 -2v-204h18 q29 1 55.5 19t33.5 46l10 30h22l-25 -216h-21l-4 28q-6 69 -78 75h-11v-214l38 -2q150 2 188 129l6 21h31l-12 -169h-466l2 17l37 5q31 3 31 14v153zM161 210h123v240h-7z" />
<glyph horiz-adv-x="554" d="M302 -10q-127 3 -201 72t-74 171q0 109 76.5 182.5t212.5 73.5q74 0 120 -23l64 13l6 -171h-30l-74 143q-25 16 -75 16q-67 0 -104.5 -62t-37.5 -167t36.5 -166.5t95.5 -61.5q95 0 136 83l37 86l30 -1l-20 -161h-39q-61 -23 -135 -27l-51 -52q67 9 114.5 -16.5 t47.5 -68.5q0 -108 -233 -130l-5 12q157 21 157 86q0 26 -24.5 39.5t-61.5 13.5q-43 0 -79 -12v12z" />
<glyph horiz-adv-x="554" d="M246 506l106 184h143l-225 -184h-24zM312 -10q-132 0 -208.5 69t-76.5 174q0 109 76.5 182.5t212.5 73.5q74 0 120 -23l64 13l6 -171h-30l-74 143q-25 16 -75 16q-67 0 -104.5 -62t-37.5 -167t36.5 -166.5t95.5 -61.5q95 0 136 83l37 86l30 -1l-20 -161h-39 q-74 -27 -149 -27z" />
<glyph horiz-adv-x="554" d="M156 499l139 200h23l139 -200h-18l-131 88h-2l-132 -88h-18zM312 -10q-132 0 -208.5 69t-76.5 174q0 109 76.5 182.5t212.5 73.5q74 0 120 -23l64 13l6 -171h-30l-74 143q-25 16 -75 16q-67 0 -104.5 -62t-37.5 -167t36.5 -166.5t95.5 -61.5q95 0 136 83l37 86l30 -1 l-20 -161h-39q-74 -27 -149 -27z" />
<glyph horiz-adv-x="554" d="M312 -10q-132 0 -208.5 69t-76.5 174q0 109 76.5 182.5t212.5 73.5q74 0 120 -23l64 13l6 -171h-30l-74 143q-25 16 -75 16q-67 0 -104.5 -62t-37.5 -167t36.5 -166.5t95.5 -61.5q95 0 136 83l37 86l30 -1l-20 -161h-39q-74 -27 -149 -27zM313 524q-35 0 -57 24t-22 56 t22 56t57 24q36 0 57.5 -23.5t21.5 -56.5t-21.5 -56.5t-57.5 -23.5z" />
<glyph horiz-adv-x="554" d="M296 513l-139 200h18l132 -88h2l131 88h18l-139 -200h-23zM312 -10q-132 0 -208.5 69t-76.5 174q0 109 76.5 182.5t212.5 73.5q74 0 120 -23l64 13l6 -171h-30l-74 143q-25 16 -75 16q-67 0 -104.5 -62t-37.5 -167t36.5 -166.5t95.5 -61.5q95 0 136 83l37 86l30 -1 l-20 -161h-39q-74 -27 -149 -27z" />
<glyph horiz-adv-x="590" d="M15 0l3 17l29 5q30 4 30 14v409q0 8 -35 13l-24 4l-3 17h271q132 0 203.5 -61t71.5 -179q0 -98 -83 -168.5t-190 -70.5h-273zM276 20q55 1 90.5 59.5t35.5 146.5q0 117 -38 174.5t-107 57.5h-34v-427zM269 516l-139 200h18l132 -88h2l131 88h18l-139 -200h-23z" />
<glyph horiz-adv-x="586" d="M80 230h-60l2 23h58v192q0 6 -5 8t-30 5l-21 4l-3 17h268q131 0 199.5 -60.5t68.5 -179.5q0 -98 -79.5 -168.5t-186.5 -70.5h-270l3 17l26 5q30 4 30 14v194zM226 253h71l2 -23h-73v-199l53 -11q54 1 86.5 59t32.5 147q0 232 -138 232h-34v-205z" />
<glyph horiz-adv-x="586" d="M80 230h-60l2 23h58v192q0 6 -5 8t-30 5l-21 4l-3 17h268q131 0 199.5 -60.5t68.5 -179.5q0 -98 -79.5 -168.5t-186.5 -70.5h-270l3 17l26 5q30 4 30 14v194zM226 253h71l2 -23h-73v-199l53 -11q54 1 86.5 59t32.5 147q0 232 -138 232h-34v-205z" />
<glyph horiz-adv-x="528" d="M15 0l3 17l30 5q29 4 29 14v409q0 5 -6.5 7.5t-28.5 5.5l-24 4l-3 17h457l3 -170l-30 1l-5 21q-9 42 -27 70t-43.5 40t-50 16t-55.5 2l-41 -2v-204h33q27 1 50.5 18.5t32.5 45.5l11 31h20l-23 -216h-21l-4 28q-7 37 -21.5 53t-53.5 20l-24 2v-214l53 -2q145 2 182 129 l6 21h31l-11 -169h-469zM306 534l-226 184h144l106 -184h-24z" />
<glyph horiz-adv-x="528" d="M15 0l3 17l30 5q29 4 29 14v409q0 5 -6.5 7.5t-28.5 5.5l-24 4l-3 17h457l3 -170l-30 1l-5 21q-9 42 -27 70t-43.5 40t-50 16t-55.5 2l-41 -2v-204h33q27 1 50.5 18.5t32.5 45.5l11 31h20l-23 -216h-21l-4 28q-7 37 -21.5 53t-53.5 20l-24 2v-214l53 -2q145 2 182 129 l6 21h31l-11 -169h-469zM227 520l106 184h143l-225 -184h-24z" />
<glyph horiz-adv-x="528" d="M15 0l3 17l30 5q29 4 29 14v409q0 5 -6.5 7.5t-28.5 5.5l-24 4l-3 17h457l3 -170l-30 1l-5 21q-9 42 -27 70t-43.5 40t-50 16t-55.5 2l-41 -2v-204h33q27 1 50.5 18.5t32.5 45.5l11 31h20l-23 -216h-21l-4 28q-7 37 -21.5 53t-53.5 20l-24 2v-214l53 -2q145 2 182 129 l6 21h31l-11 -169h-469zM121 527l139 200h23l139 -200h-18l-131 88h-2l-132 -88h-18z" />
<glyph horiz-adv-x="528" d="M15 0l3 17l30 5q29 4 29 14v409q0 5 -6.5 7.5t-28.5 5.5l-24 4l-3 17h457l3 -170l-30 1l-5 21q-9 42 -27 70t-43.5 40t-50 16t-55.5 2l-41 -2v-204h33q27 1 50.5 18.5t32.5 45.5l11 31h20l-23 -216h-21l-4 28q-7 37 -21.5 53t-53.5 20l-24 2v-214l53 -2q145 2 182 129 l6 21h31l-11 -169h-469zM368 544q-30 0 -48.5 20t-18.5 47q0 28 18.5 48.5t48.5 20.5q31 0 49.5 -20.5t18.5 -48.5q0 -27 -18.5 -47t-49.5 -20zM154 544q-30 0 -49.5 20t-19.5 47q0 28 19.5 48.5t49.5 20.5q31 0 49.5 -20.5t18.5 -48.5q0 -27 -18.5 -47t-49.5 -20z" />
<glyph horiz-adv-x="528" d="M15 0l3 17l30 5q29 4 29 14v409q0 5 -6.5 7.5t-28.5 5.5l-24 4l-3 17h457l3 -170l-30 1l-5 21q-9 42 -27 70t-43.5 40t-50 16t-55.5 2l-41 -2v-204h33q27 1 50.5 18.5t32.5 45.5l11 31h20l-23 -216h-21l-4 28q-7 37 -21.5 53t-53.5 20l-24 2v-214l53 -2q145 2 182 129 l6 21h31l-11 -169h-469zM119 530l16 65h272l-11 -65h-277z" />
<glyph horiz-adv-x="528" d="M15 0l3 17l30 5q29 4 29 14v409q0 5 -6.5 7.5t-28.5 5.5l-24 4l-3 17h457l3 -170l-30 1l-5 21q-9 42 -27 70t-43.5 40t-50 16t-55.5 2l-41 -2v-204h33q27 1 50.5 18.5t32.5 45.5l11 31h20l-23 -216h-21l-4 28q-7 37 -21.5 53t-53.5 20l-24 2v-214l53 -2q145 2 182 129 l6 21h31l-11 -169h-469zM257 508q-118 0 -152 182h24q16 -47 51 -70t79 -23t79.5 23.5t51.5 69.5h22q-31 -182 -155 -182z" />
<glyph horiz-adv-x="528" d="M15 0l3 17l30 5q29 4 29 14v409q0 5 -6.5 7.5t-28.5 5.5l-24 4l-3 17h457l3 -170l-30 1l-5 21q-9 42 -27 70t-43.5 40t-50 16t-55.5 2l-41 -2v-204h33q27 1 50.5 18.5t32.5 45.5l11 31h20l-23 -216h-21l-4 28q-7 37 -21.5 53t-53.5 20l-24 2v-214l53 -2q145 2 182 129 l6 21h31l-11 -169h-469zM273 510q-35 0 -57 24t-22 56t22 56t57 24q36 0 57.5 -23.5t21.5 -56.5t-21.5 -56.5t-57.5 -23.5z" />
<glyph horiz-adv-x="528" d="M361 -241q-45 0 -76 27.5t-31 70.5q0 83 124 143h-363l3 17l30 5q29 4 29 14v409q0 5 -6.5 7.5t-28.5 5.5l-24 4l-3 17h457l3 -170l-30 1l-5 21q-9 42 -27 70t-43.5 40t-50 16t-55.5 2l-41 -2v-204h33q27 1 50.5 18.5t32.5 45.5l11 31h20l-23 -216h-21l-4 28 q-7 37 -21.5 53.5t-53.5 19.5l-24 3v-215l53 -2q145 2 182 129l6 21h31l-11 -169h-71q-74 -47 -74 -106q0 -34 18 -53.5t50 -19.5t72 34l5 -5q-13 -35 -45 -63t-78 -28z" />
<glyph horiz-adv-x="528" d="M250 506l-139 200h18l132 -88h2l131 88h18l-139 -200h-23zM15 0l3 17l30 5q29 4 29 14v409q0 5 -6.5 7.5t-28.5 5.5l-24 4l-3 17h457l3 -170l-30 1l-5 21q-9 42 -27 70t-43.5 40t-50 16t-55.5 2l-41 -2v-204h33q27 1 50.5 18.5t32.5 45.5l11 31h20l-23 -216h-21l-4 28 q-7 37 -21.5 53t-53.5 20l-24 2v-214l53 -2q145 2 182 129l6 21h31l-11 -169h-469z" />
<glyph horiz-adv-x="586" d="M306 -13q-134 0 -206.5 71t-72.5 175q0 111 74.5 184t216.5 73q71 0 127 -25l64 13l2 -169h-32l-73 140q-32 20 -85 20q-66 0 -101 -62t-35 -169q0 -117 37.5 -174t86.5 -57q22 0 58 12v167q0 9 -51 12l-22 5l-1 17h273l-2 -17l-37 -5q-11 -1 -16 -3.5t-5 -3.5v-6v-132 l55 11l2 -13q-45 -28 -118.5 -46t-138.5 -18zM156 499l139 200h23l139 -200h-18l-131 88h-2l-132 -88h-18z" />
<glyph horiz-adv-x="586" d="M306 -13q-134 0 -206.5 71t-72.5 175q0 111 74.5 184t216.5 73q71 0 127 -25l64 13l2 -169h-32l-73 140q-32 20 -85 20q-66 0 -101 -62t-35 -169q0 -117 37.5 -174t86.5 -57q22 0 58 12v167q0 9 -51 12l-22 5l-1 17h273l-2 -17l-37 -5q-11 -1 -16 -3.5t-5 -3.5v-6v-132 l55 11l2 -13q-45 -28 -118.5 -46t-138.5 -18zM306 508q-118 0 -152 182h24q16 -47 51 -70t79 -23t79.5 23.5t51.5 69.5h22q-31 -182 -155 -182z" />
<glyph horiz-adv-x="586" d="M306 -13q-134 0 -206.5 71t-72.5 175q0 111 74.5 184t216.5 73q71 0 127 -25l64 13l2 -169h-32l-73 140q-32 20 -85 20q-66 0 -101 -62t-35 -169q0 -117 37.5 -174t86.5 -57q22 0 58 12v167q0 9 -51 12l-22 5l-1 17h273l-2 -17l-37 -5q-11 -1 -16 -3.5t-5 -3.5v-6v-132 l55 11l2 -13q-45 -28 -118.5 -46t-138.5 -18zM309 517q-35 0 -57 24t-22 56t22 56t57 24q36 0 57.5 -23.5t21.5 -56.5t-21.5 -56.5t-57.5 -23.5z" />
<glyph horiz-adv-x="586" d="M252 -289l-10 11q85 24 85 83q0 33 -34.5 47.5t-60.5 1.5q-8 35 14.5 62.5t64.5 27.5q44 0 69.5 -27.5t25.5 -66.5q0 -46 -39.5 -84.5t-114.5 -54.5zM306 -13q-134 0 -206.5 71t-72.5 175q0 111 74.5 184t216.5 73q71 0 127 -25l64 13l2 -169h-32l-73 140q-32 20 -85 20 q-66 0 -101 -62t-35 -169q0 -117 37.5 -174t86.5 -57q22 0 58 12v167q0 9 -51 12l-22 5l-1 17h273l-2 -17l-37 -5q-11 -1 -16 -3.5t-5 -3.5v-6v-132l55 11l2 -13q-45 -28 -118.5 -46t-138.5 -18z" />
<glyph horiz-adv-x="614" d="M155 508l139 200h23l139 -200h-18l-131 88h-2l-132 -88h-18zM15 0l3 17l29 5q30 4 30 14v409q0 5 -6.5 7.5t-28.5 5.5l-24 4l-3 17h267l-2 -17l-27 -5q-30 -4 -30 -13v-189h166v190q0 5 -6 7.5t-28 5.5l-22 4l-2 17h267l-2 -17l-31 -5q-29 -4 -29 -13v-410q0 -5 5.5 -7 t29.5 -6l24 -4l2 -17h-267l3 17l27 5q29 5 29 14v196h-166v-198q0 -5 6.5 -7.5t28.5 -5.5l22 -4l3 -17h-268z" />
<glyph horiz-adv-x="614" d="M-6 332l16 51h67v62q0 5 -6.5 7.5t-28.5 5.5l-24 4l-3 17h267l-2 -17l-27 -5q-30 -4 -30 -13v-61h166v62q0 6 -5.5 8t-28.5 5l-22 4l-2 17h267l-2 -17l-31 -5q-29 -4 -29 -13v-61h82l-11 -51h-71v-298q0 -5 5.5 -7t29.5 -6l24 -4l2 -17h-267l3 17l27 5q29 5 29 14v196 h-166v-198q0 -5 6.5 -7.5t28.5 -5.5l22 -4l3 -17h-268l3 17l29 5q30 4 30 14v296h-83zM223 255h166v77h-166v-77z" />
<glyph horiz-adv-x="323" d="M25 0l3 17l31 5q29 4 29 14v409q0 5 -6 7.5t-29 5.5l-26 4l-2 17h272l-2 -17l-31 -5q-29 -4 -29 -13v-410q0 -5 6 -7.5t28 -5.5l26 -4l2 -17h-272zM194 534l-226 184h144l106 -184h-24z" />
<glyph horiz-adv-x="323" d="M25 0l3 17l31 5q29 4 29 14v409q0 5 -6 7.5t-29 5.5l-26 4l-2 17h272l-2 -17l-31 -5q-29 -4 -29 -13v-410q0 -5 6 -7.5t28 -5.5l26 -4l2 -17h-272zM114 534l106 184h143l-225 -184h-24z" />
<glyph horiz-adv-x="323" d="M25 0l3 17l31 5q29 4 29 14v409q0 5 -6 7.5t-29 5.5l-26 4l-2 17h272l-2 -17l-31 -5q-29 -4 -29 -13v-410q0 -5 6 -7.5t28 -5.5l26 -4l2 -17h-272zM11 527l139 200h23l139 -200h-18l-131 88h-2l-132 -88h-18z" />
<glyph horiz-adv-x="323" d="M25 0l3 17l31 5q29 4 29 14v409q0 5 -6 7.5t-29 5.5l-26 4l-2 17h272l-2 -17l-31 -5q-29 -4 -29 -13v-410q0 -5 6 -7.5t28 -5.5l26 -4l2 -17h-272zM268 544q-30 0 -48.5 20t-18.5 47q0 28 18.5 48.5t48.5 20.5q31 0 49.5 -20.5t18.5 -48.5q0 -27 -18.5 -47t-49.5 -20z M54 544q-30 0 -49.5 20t-19.5 47q0 28 19.5 48.5t49.5 20.5q31 0 49.5 -20.5t18.5 -48.5q0 -27 -18.5 -47t-49.5 -20z" />
<glyph horiz-adv-x="323" d="M25 0l3 17l31 5q29 4 29 14v409q0 5 -6 7.5t-29 5.5l-26 4l-2 17h272l-2 -17l-31 -5q-29 -4 -29 -13v-410q0 -5 6 -7.5t28 -5.5l26 -4l2 -17h-272zM20 530l16 65h272l-11 -65h-277z" />
<glyph horiz-adv-x="323" d="M25 0l3 17l31 5q29 4 29 14v409q0 5 -6 7.5t-29 5.5l-26 4l-2 17h272l-2 -17l-31 -5q-29 -4 -29 -13v-410q0 -5 6 -7.5t28 -5.5l26 -4l2 -17h-272zM159 508q-118 0 -152 182h24q16 -47 51 -70t79 -23t79.5 23.5t51.5 69.5h22q-31 -182 -155 -182z" />
<glyph horiz-adv-x="323" d="M174 -241q-45 0 -76 27.5t-31 70.5q0 83 125 143h-167l3 17l31 5q29 4 29 14v409q0 5 -6 7.5t-29 5.5l-26 4l-2 17h272l-2 -17l-31 -5q-29 -4 -29 -13v-410q0 -5 6 -7.5t28 -5.5l26 -4l2 -17q-61 -11 -103 -40.5t-42 -65.5q0 -34 18 -53.5t50 -19.5q33 0 73 34l5 -5 q-14 -35 -46 -63t-78 -28z" />
<glyph horiz-adv-x="323" d="M25 0l3 17l31 5q29 4 29 14v409q0 5 -6 7.5t-29 5.5l-26 4l-2 17h272l-2 -17l-31 -5q-29 -4 -29 -13v-410q0 -5 6 -7.5t28 -5.5l26 -4l2 -17h-272zM165 517q-35 0 -57 24t-22 56t22 56t57 24q36 0 57.5 -23.5t21.5 -56.5t-21.5 -56.5t-57.5 -23.5z" />
<glyph horiz-adv-x="323" d="M25 0l3 17l31 5q29 4 29 14v409q0 5 -6 7.5t-29 5.5l-26 4l-2 17h272l-2 -17l-31 -5q-29 -4 -29 -13v-410q0 -5 6 -7.5t28 -5.5l26 -4l2 -17h-272z" />
<glyph horiz-adv-x="352" d="M32 -106q-46 0 -73.5 20.5t-27.5 51.5q0 26 17.5 43.5t44.5 17.5q43 0 59.5 -37.5t-7.5 -72.5h4q70 6 70 174v354q0 10 -36 13l-27 4l-2 17h273l-3 -17l-29 -5q-29 -4 -29 -13v-319q0 -73 -77.5 -152t-156.5 -79zM40 508l139 200h23l139 -200h-18l-131 88h-2l-132 -88 h-18z" />
<glyph horiz-adv-x="451" d="M149 508l139 200h23l139 -200h-18l-131 88h-2l-132 -88h-18zM172 -11q-68 0 -112.5 28t-44.5 78q0 33 20 52t50 19t50.5 -17.5t20.5 -46.5q0 -38 -31 -64q8 -12 22.5 -20.5t27.5 -8.5q31 0 44.5 22.5t13.5 81.5v332q0 9 -38 13l-35 4l-3 17h281l-3 -17l-27 -5 q-30 -4 -30 -13v-305q0 -53 -65 -101.5t-141 -48.5z" />
<glyph horiz-adv-x="352" d="M32 -106q-46 0 -73.5 20.5t-27.5 51.5q0 26 17.5 43.5t44.5 17.5q43 0 59.5 -37.5t-7.5 -72.5h4q70 6 70 174v354q0 10 -36 13l-27 4l-2 17h273l-3 -17l-29 -5q-29 -4 -29 -13v-319q0 -73 -77.5 -152t-156.5 -79z" />
<glyph horiz-adv-x="586" d="M231 -308l-10 11q85 24 85 83q0 33 -34.5 47.5t-60.5 1.5q-8 35 14.5 62.5t64.5 27.5q44 0 69.5 -27.5t25.5 -66.5q0 -46 -39.5 -84.5t-114.5 -54.5zM15 0l3 17l28 5q31 4 31 14v409q0 8 -36 13l-23 4l-3 17h268l-3 -17l-27 -5q-30 -4 -30 -13v-210l116 117 q55 59 54.5 79.5t-50.5 29.5l-15 3l-4 16h235l-2 -17l-34 -4q-23 -2 -50.5 -18t-40.5 -28t-53 -51q-4 -3 -5.5 -4.5l-4.5 -4.5l-5 -5l-9 -9l152 -248q25 -43 41 -55t39 -15l9 -3l3 -17h-267l3 17l6 2q16 3 22.5 6.5t6 14t-8.5 25.5t-26 45l-77 130l-35 -33v-173 q0 -5 6.5 -7.5t28.5 -5.5l22 -4l2 -17h-267z" />
<glyph horiz-adv-x="486" d="M109 504l106 184h143l-225 -184h-24zM15 0l3 17l28 5q31 4 31 14v409q0 8 -36 13l-23 4l-3 17h277l-3 -17l-36 -5q-30 -6 -30 -13v-423l19 -2q50 0 94 33t90 119l7 21h28l-22 -192h-424z" />
<glyph horiz-adv-x="486" d="M182 -314l-10 11q85 24 85 83q0 33 -34.5 47.5t-60.5 1.5q-8 35 14.5 62.5t64.5 27.5q44 0 69.5 -27.5t25.5 -66.5q0 -46 -39.5 -84.5t-114.5 -54.5zM15 0l3 17l28 5q31 4 31 14v409q0 8 -36 13l-23 4l-3 17h277l-3 -17l-36 -5q-30 -6 -30 -13v-423l19 -2q50 0 94 33 t90 119l7 21h28l-22 -192h-424z" />
<glyph horiz-adv-x="680" d="M514 181l-13 14q93 53 93 124q0 34 -24 54.5t-48 26.5l-23 7q0 28 21.5 54t57.5 26q50 0 78 -32.5t28 -75.5q0 -56 -45.5 -109.5t-124.5 -88.5zM15 0l3 17l28 5q31 4 31 14v409q0 8 -36 13l-23 4l-3 17h277l-3 -17l-36 -5q-30 -6 -30 -13v-423l19 -2q50 0 94 33t90 119 l7 21h28l-22 -192h-424z" />
<glyph horiz-adv-x="661" d="M599 176q-33 0 -56 23t-23 56q0 32 23 54.5t56 22.5q31 0 54.5 -23.5t23.5 -53.5q0 -33 -23 -56t-55 -23zM15 0l3 17l28 5q31 4 31 14v409q0 8 -36 13l-23 4l-3 17h277l-3 -17l-36 -5q-30 -6 -30 -13v-423l19 -2q50 0 94 33t90 119l7 21h28l-22 -192h-424z" />
<glyph horiz-adv-x="490" d="M81 199l-69 -21v25l69 21v219q0 5 -19 9q-2 0 -3.5 0.5t-3.5 1t-4.5 1t-4.5 0.5l-21 5l-3 19h273l-3 -19l-36 -5q-29 -6 -29 -14v-172l85 27l1 -24l-86 -27v-224l18 -2q123 0 185 152l7 21h28l-22 -192h-421l3 19l26 6q30 5 30 13v161z" />
<glyph horiz-adv-x="584" d="M442 -5l-320 376h-5v-289q0 -32 13 -45.5t50 -15.5l22 -4l2 -17h-182l1 17l19 4q34 3 42.5 17.5t8.5 52.5l2 311q-17 27 -39.5 40.5t-37.5 14.5l-15 3l-2 19h232l235 -279h5v197q0 32 -12.5 45.5t-50.5 16.5l-21 3l-4 17h184l-2 -17l-19 -3q-34 -3 -42.5 -18t-8.5 -53 l-4 -393h-51zM382 541q-33 0 -101 32.5t-88 32.5q-15 0 -25 -11.5t-14 -44.5h-22q6 81 26.5 112t66.5 31q33 0 100 -32.5t87 -32.5q16 0 26.5 11t15.5 44h20q-5 -81 -25.5 -111.5t-66.5 -30.5z" />
<glyph horiz-adv-x="584" d="M244 506l106 184h143l-225 -184h-24zM442 -5l-320 376h-5v-289q0 -32 13 -45.5t50 -15.5l22 -4l2 -17h-182l1 17l19 4q34 3 42.5 17.5t8.5 52.5l2 311q-17 27 -39.5 40.5t-37.5 14.5l-15 3l-2 19h232l235 -279h5v197q0 32 -12.5 45.5t-50.5 16.5l-21 3l-4 17h184l-2 -17 l-19 -3q-34 -3 -42.5 -18t-8.5 -53l-4 -393h-51z" />
<glyph horiz-adv-x="584" d="M232 -301l-10 11q85 24 85 83q0 33 -34.5 47.5t-60.5 1.5q-8 35 14.5 62.5t64.5 27.5q44 0 69.5 -27.5t25.5 -66.5q0 -46 -39.5 -84.5t-114.5 -54.5zM442 -5l-320 376h-5v-289q0 -32 13 -45.5t50 -15.5l22 -4l2 -17h-182l1 17l19 4q34 3 42.5 17.5t8.5 52.5l2 311 q-17 27 -39.5 40.5t-37.5 14.5l-15 3l-2 19h232l235 -279h5v197q0 32 -12.5 45.5t-50.5 16.5l-21 3l-4 17h184l-2 -17l-19 -3q-34 -3 -42.5 -18t-8.5 -53l-4 -393h-51z" />
<glyph horiz-adv-x="584" d="M288 506l-139 200h18l132 -88h2l131 88h18l-139 -200h-23zM442 -5l-320 376h-5v-289q0 -32 13 -45.5t50 -15.5l22 -4l2 -17h-182l1 17l19 4q34 3 42.5 17.5t8.5 52.5l2 311q-17 27 -39.5 40.5t-37.5 14.5l-15 3l-2 19h232l235 -279h5v197q0 32 -12.5 45.5t-50.5 16.5 l-21 3l-4 17h184l-2 -17l-19 -3q-34 -3 -42.5 -18t-8.5 -53l-4 -393h-51z" />
<glyph horiz-adv-x="594" d="M293 -10q-121 0 -193.5 68t-72.5 181q0 107 81.5 178.5t193.5 71.5q120 0 192 -69t72 -181q0 -107 -80.5 -178t-192.5 -71zM302 12q55 0 81 52t26 171q0 232 -114 232q-58 0 -84 -52.5t-26 -172.5q0 -230 117 -230zM315 534l-226 184h144l106 -184h-24z" />
<glyph horiz-adv-x="594" d="M293 -10q-121 0 -193.5 68t-72.5 181q0 107 81.5 178.5t193.5 71.5q120 0 192 -69t72 -181q0 -107 -80.5 -178t-192.5 -71zM302 12q55 0 81 52t26 171q0 232 -114 232q-58 0 -84 -52.5t-26 -172.5q0 -230 117 -230zM253 534l106 184h143l-225 -184h-24z" />
<glyph horiz-adv-x="594" d="M293 -10q-121 0 -193.5 68t-72.5 181q0 107 81.5 178.5t193.5 71.5q120 0 192 -69t72 -181q0 -107 -80.5 -178t-192.5 -71zM302 12q55 0 81 52t26 171q0 232 -114 232q-58 0 -84 -52.5t-26 -172.5q0 -230 117 -230zM146 527l139 200h23l139 -200h-18l-131 88h-2l-132 -88 h-18z" />
<glyph horiz-adv-x="594" d="M293 -10q-121 0 -193.5 68t-72.5 181q0 107 81.5 178.5t193.5 71.5q120 0 192 -69t72 -181q0 -107 -80.5 -178t-192.5 -71zM302 12q55 0 81 52t26 171q0 232 -114 232q-58 0 -84 -52.5t-26 -172.5q0 -230 117 -230zM381 541q-33 0 -101 32.5t-88 32.5q-15 0 -25 -11.5 t-14 -44.5h-22q6 81 26.5 112t66.5 31q33 0 100 -32.5t87 -32.5q16 0 26.5 11t15.5 44h20q-5 -81 -25.5 -111.5t-66.5 -30.5z" />
<glyph horiz-adv-x="594" d="M293 -10q-121 0 -193.5 68t-72.5 181q0 107 81.5 178.5t193.5 71.5q120 0 192 -69t72 -181q0 -107 -80.5 -178t-192.5 -71zM302 12q55 0 81 52t26 171q0 232 -114 232q-58 0 -84 -52.5t-26 -172.5q0 -230 117 -230zM399 544q-30 0 -48.5 20t-18.5 47q0 28 18.5 48.5 t48.5 20.5q31 0 49.5 -20.5t18.5 -48.5q0 -27 -18.5 -47t-49.5 -20zM185 544q-30 0 -49.5 20t-19.5 47q0 28 19.5 48.5t49.5 20.5q31 0 49.5 -20.5t18.5 -48.5q0 -27 -18.5 -47t-49.5 -20z" />
<glyph horiz-adv-x="594" d="M154 530l16 65h272l-11 -65h-277zM293 -10q-121 0 -193.5 68t-72.5 181q0 107 81.5 178.5t193.5 71.5q120 0 192 -69t72 -181q0 -107 -80.5 -178t-192.5 -71zM302 12q55 0 81 52t26 171q0 232 -114 232q-58 0 -84 -52.5t-26 -172.5q0 -230 117 -230z" />
<glyph horiz-adv-x="594" d="M293 -10q-121 0 -193.5 68t-72.5 181q0 107 81.5 178.5t193.5 71.5q120 0 192 -69t72 -181q0 -107 -80.5 -178t-192.5 -71zM302 12q55 0 81 52t26 171q0 232 -114 232q-58 0 -84 -52.5t-26 -172.5q0 -230 117 -230zM298 508q-118 0 -152 182h24q16 -47 51 -70t79 -23 t79.5 23.5t51.5 69.5h22q-31 -182 -155 -182z" />
<glyph horiz-adv-x="594" d="M346 513l108 184h139l-226 -184h-21zM147 513l108 184h138l-225 -184h-21zM293 -10q-121 0 -193.5 68t-72.5 181q0 107 81.5 178.5t193.5 71.5q120 0 192 -69t72 -181q0 -107 -80.5 -178t-192.5 -71zM302 12q55 0 81 52t26 171q0 232 -114 232q-58 0 -84 -52.5 t-26 -172.5q0 -230 117 -230z" />
<glyph horiz-adv-x="594" d="M438 457q59 -31 92 -87.5t33 -130.5q0 -107 -80.5 -178t-192.5 -71q-60 0 -112 19l-38 -66h-23l42 73q-64 30 -99.5 87.5t-35.5 135.5q0 107 81.5 178.5t193.5 71.5q67 0 121 -23l36 62h23q-41 -70 -41 -71zM201 88q5 9 14 24t33 56.5t45 77.5t42.5 73.5t34.5 59.5l13 22 q-28 66 -91 66q-60 0 -85 -50t-25 -175q0 -101 19 -154zM391 376l-180 -311q27 -53 88 -53q59 0 83 49.5t24 173.5q0 89 -15 141z" />
<glyph horiz-adv-x="585" d="M438 457q59 -31 92 -87.5t33 -130.5q0 -107 -80.5 -178t-192.5 -71q-60 0 -112 19l-38 -66h-23l42 73q-64 30 -99.5 87.5t-35.5 135.5q0 107 81.5 178.5t193.5 71.5q67 0 121 -23l36 62h23q-41 -70 -41 -71zM201 88q5 9 14 24t33 56.5t45 77.5t42.5 73.5t34.5 59.5l13 22 q-28 66 -91 66q-60 0 -85 -50t-25 -175q0 -101 19 -154zM391 376l-180 -311q27 -53 88 -53q59 0 83 49.5t24 173.5q0 89 -15 141zM252 513l106 184h143l-225 -184h-24z" />
<glyph horiz-adv-x="796" d="M295 0q-268 0 -268 240q0 97 79.5 167t186.5 71l448 1l1 -170l-30 1l-5 21q-11 55 -41 86t-62 38t-75 4l-25 -2v-204h17q28 1 52.5 18.5t33.5 45.5l11 31h21l-25 -216h-21l-3 28q-6 67 -77 75h-9v-214l38 -2q146 2 184 129l6 21h31l-11 -169h-457zM325 20h32v428l-52 10 q-54 -1 -86 -58.5t-32 -146.5q0 -233 138 -233z" />
<glyph horiz-adv-x="534" d="M26 0l3 19l26 6q30 5 30 13v405q0 6 -20 9q-3 1 -4.5 1t-5 0.5t-6.5 1.5l-20 5l-3 19h265l-2 -19l-28 -5q-8 -1 -15.5 -4t-11 -5.5t-3.5 -4.5v-57h41q120 0 178 -31t58 -98q0 -69 -65 -105.5t-181 -36.5q-18 0 -32 2v-79q0 -7 36 -12l31 -5l2 -19h-273zM259 131 q39 0 66.5 33.5t27.5 82.5q0 54 -25.5 85t-71.5 34l-26 -3v-229q15 -3 29 -3z" />
<glyph horiz-adv-x="588" d="M195 506l106 184h143l-225 -184h-24zM18 0l3 17l26 5q30 5 30 14v409q0 5 -6.5 7.5t-28.5 5.5l-21 4l-2 17l282 1q211 2 211 -116q0 -46 -30 -78t-86 -45l86 -144q27 -46 40 -59t37 -18l13 -3l2 -17h-203l-11 24l-100 205q-2 0 -17.5 1.5t-19.5 2.5v-199v-3.5t1.5 -2.5 t5 -3t10 -2t17.5 -2l30 -4l2 -17h-271zM249 251q49 2 78.5 31t29.5 77q0 46 -28.5 73t-75.5 29h-30v-207q20 -3 26 -3z" />
<glyph horiz-adv-x="588" d="M230 -308l-10 11q85 24 85 83q0 33 -34.5 47.5t-60.5 1.5q-8 35 14.5 62.5t64.5 27.5q44 0 69.5 -27.5t25.5 -66.5q0 -46 -39.5 -84.5t-114.5 -54.5zM18 0l3 17l26 5q30 5 30 14v409q0 5 -6.5 7.5t-28.5 5.5l-21 4l-2 17l282 1q211 2 211 -116q0 -46 -30 -78t-86 -45 l86 -144q27 -46 40 -59t37 -18l13 -3l2 -17h-203l-11 24l-100 205q-2 0 -17.5 1.5t-19.5 2.5v-199v-3.5t1.5 -2.5t5 -3t10 -2t17.5 -2l30 -4l2 -17h-271zM249 251q49 2 78.5 31t29.5 77q0 46 -28.5 73t-75.5 29h-30v-207q20 -3 26 -3z" />
<glyph horiz-adv-x="588" d="M253 506l-139 200h18l132 -88h2l131 88h18l-139 -200h-23zM18 0l3 17l26 5q30 5 30 14v409q0 5 -6.5 7.5t-28.5 5.5l-21 4l-2 17l282 1q211 2 211 -116q0 -46 -30 -78t-86 -45l86 -144q27 -46 40 -59t37 -18l13 -3l2 -17h-203l-11 24l-100 205q-2 0 -17.5 1.5t-19.5 2.5 v-199v-3.5t1.5 -2.5t5 -3t10 -2t17.5 -2l30 -4l2 -17h-271zM249 251q49 2 78.5 31t29.5 77q0 46 -28.5 73t-75.5 29h-30v-207q20 -3 26 -3z" />
<glyph d="M164 506l106 184h143l-225 -184h-24zM220 -9q-111 0 -170 24l-13 142h28l45 -93q43 -53 116 -53q46 0 73.5 20.5t27.5 54.5q0 19 -8.5 35t-19.5 26t-31.5 19.5t-35 14.5t-39.5 12q-148 43 -148 140q0 69 54.5 112.5t129.5 43.5q69 0 126 -20l40 12l2 -155h-26l-77 132 q-20 11 -68 11q-37 0 -62 -18.5t-25 -44.5q0 -36 26.5 -53.5t95.5 -38.5q158 -46 158 -156q0 -70 -58 -118.5t-141 -48.5z" />
<glyph d="M90 499l139 200h23l139 -200h-18l-131 88h-2l-132 -88h-18zM220 -9q-111 0 -170 24l-13 142h28l45 -93q43 -53 116 -53q46 0 73.5 20.5t27.5 54.5q0 19 -8.5 35t-19.5 26t-31.5 19.5t-35 14.5t-39.5 12q-148 43 -148 140q0 69 54.5 112.5t129.5 43.5q69 0 126 -20l40 12 l2 -155h-26l-77 132q-20 11 -68 11q-37 0 -62 -18.5t-25 -44.5q0 -36 26.5 -53.5t95.5 -38.5q158 -46 158 -156q0 -70 -58 -118.5t-141 -48.5z" />
<glyph d="M112 -277l-5 12q157 21 157 86q0 26 -24.5 39.5t-61.5 13.5q-43 0 -79 -12v12l111 117q-108 2 -160 24l-13 142h28l45 -93q43 -53 116 -53q46 0 73.5 20.5t27.5 54.5q0 19 -8.5 35t-19.5 26t-31.5 19.5t-35 14.5t-39.5 12q-148 43 -148 140q0 69 54.5 112.5t129.5 43.5 q69 0 126 -20l40 12l2 -155h-26l-77 132q-20 11 -68 11q-37 0 -62 -18.5t-25 -44.5q0 -36 26.5 -53.5t95.5 -38.5q158 -46 158 -156q0 -66 -53 -113.5t-131 -52.5l-52 -54q67 9 114.5 -16.5t47.5 -68.5q0 -108 -233 -130z" />
<glyph d="M159 -308l-10 11q85 24 85 83q0 33 -34.5 47.5t-60.5 1.5q-8 35 14.5 62.5t64.5 27.5q44 0 69.5 -27.5t25.5 -66.5q0 -46 -39.5 -84.5t-114.5 -54.5zM220 -9q-111 0 -170 24l-13 142h28l45 -93q43 -53 116 -53q46 0 73.5 20.5t27.5 54.5q0 19 -8.5 35t-19.5 26 t-31.5 19.5t-35 14.5t-39.5 12q-148 43 -148 140q0 69 54.5 112.5t129.5 43.5q69 0 126 -20l40 12l2 -155h-26l-77 132q-20 11 -68 11q-37 0 -62 -18.5t-25 -44.5q0 -36 26.5 -53.5t95.5 -38.5q158 -46 158 -156q0 -70 -58 -118.5t-141 -48.5z" />
<glyph d="M220 -9q-111 0 -170 24l-13 142h28l45 -93q43 -53 116 -53q46 0 73.5 20.5t27.5 54.5q0 19 -8.5 35t-19.5 26t-31.5 19.5t-35 14.5t-39.5 12q-148 43 -148 140q0 69 54.5 112.5t129.5 43.5q69 0 126 -20l40 12l2 -155h-26l-77 132q-20 11 -68 11q-37 0 -62 -18.5 t-25 -44.5q0 -36 26.5 -53.5t95.5 -38.5q158 -46 158 -156q0 -70 -58 -118.5t-141 -48.5zM225 513l-139 200h18l132 -88h2l131 88h18l-139 -200h-23z" />
<glyph horiz-adv-x="556" d="M216 -294l-10 11q85 24 85 83q0 33 -34.5 47.5t-60.5 1.5q-8 35 14.5 62.5t64.5 27.5q44 0 69.5 -27.5t25.5 -66.5q0 -46 -39.5 -84.5t-114.5 -54.5zM145 0l2 17l31 5q29 3 29 14v425h-13q-73 -4 -130 -130l-10 -26h-28l17 174h479l6 -173h-26l-10 27q-62 126 -124 128 h-15v-427q0 -10 35 -13l25 -4l2 -17h-270z" />
<glyph horiz-adv-x="556" d="M267 513l-139 200h18l132 -88h2l131 88h18l-139 -200h-23zM145 0l2 17l31 5q29 3 29 14v425h-13q-73 -4 -130 -130l-10 -26h-28l17 174h479l6 -173h-26l-10 27q-62 126 -124 128h-15v-427q0 -10 35 -13l25 -4l2 -17h-270z" />
<glyph horiz-adv-x="570" d="M288 -15q-102 0 -157 39.5t-55 116.5v304q0 5 -5.5 7.5t-28.5 5.5l-22 4l-2 17h264l-2 -17l-28 -5q-29 -4 -29 -13v-273q0 -129 119 -129q66 0 95.5 33t29.5 109v213q0 32 -12.5 45.5t-50.5 16.5l-21 3l-3 17h185l-2 -14l-22 -4q-32 -2 -41 -17t-9 -57v-16t-0.5 -37.5 t-0.5 -52t-0.5 -49t-0.5 -39t0 -13.5q-1 -99 -49.5 -147t-151.5 -48zM329 534l-226 184h144l106 -184h-24z" />
<glyph horiz-adv-x="570" d="M288 -15q-102 0 -157 39.5t-55 116.5v304q0 5 -5.5 7.5t-28.5 5.5l-22 4l-2 17h264l-2 -17l-28 -5q-29 -4 -29 -13v-273q0 -129 119 -129q66 0 95.5 33t29.5 109v213q0 32 -12.5 45.5t-50.5 16.5l-21 3l-3 17h185l-2 -14l-22 -4q-32 -2 -41 -17t-9 -57v-16t-0.5 -37.5 t-0.5 -52t-0.5 -49t-0.5 -39t0 -13.5q-1 -99 -49.5 -147t-151.5 -48zM278 534l106 184h143l-225 -184h-24z" />
<glyph horiz-adv-x="570" d="M288 -15q-102 0 -157 39.5t-55 116.5v304q0 5 -5.5 7.5t-28.5 5.5l-22 4l-2 17h264l-2 -17l-28 -5q-29 -4 -29 -13v-273q0 -129 119 -129q66 0 95.5 33t29.5 109v213q0 32 -12.5 45.5t-50.5 16.5l-21 3l-3 17h185l-2 -14l-22 -4q-32 -2 -41 -17t-9 -57v-16t-0.5 -37.5 t-0.5 -52t-0.5 -49t-0.5 -39t0 -13.5q-1 -99 -49.5 -147t-151.5 -48zM151 527l139 200h23l139 -200h-18l-131 88h-2l-132 -88h-18z" />
<glyph horiz-adv-x="570" d="M288 -15q-102 0 -157 39.5t-55 116.5v304q0 5 -5.5 7.5t-28.5 5.5l-22 4l-2 17h264l-2 -17l-28 -5q-29 -4 -29 -13v-273q0 -129 119 -129q66 0 95.5 33t29.5 109v213q0 32 -12.5 45.5t-50.5 16.5l-21 3l-3 17h185l-2 -14l-22 -4q-32 -2 -41 -17t-9 -57v-16t-0.5 -37.5 t-0.5 -52t-0.5 -49t-0.5 -39t0 -13.5q-1 -99 -49.5 -147t-151.5 -48zM195 544q-30 0 -49.5 20t-19.5 47q0 28 19.5 48.5t49.5 20.5q31 0 49.5 -20.5t18.5 -48.5q0 -27 -18.5 -47t-49.5 -20zM409 544q-30 0 -48.5 20t-18.5 47q0 28 18.5 48.5t48.5 20.5q31 0 49.5 -20.5 t18.5 -48.5q0 -27 -18.5 -47t-49.5 -20z" />
<glyph horiz-adv-x="570" d="M288 -15q-102 0 -157 39.5t-55 116.5v304q0 5 -5.5 7.5t-28.5 5.5l-22 4l-2 17h264l-2 -17l-28 -5q-29 -4 -29 -13v-273q0 -129 119 -129q66 0 95.5 33t29.5 109v213q0 32 -12.5 45.5t-50.5 16.5l-21 3l-3 17h185l-2 -14l-22 -4q-32 -2 -41 -17t-9 -57v-16t-0.5 -37.5 t-0.5 -52t-0.5 -49t-0.5 -39t0 -13.5q-1 -99 -49.5 -147t-151.5 -48zM175 537l16 65h272l-11 -65h-277z" />
<glyph horiz-adv-x="570" d="M288 -15q-102 0 -157 39.5t-55 116.5v304q0 5 -5.5 7.5t-28.5 5.5l-22 4l-2 17h264l-2 -17l-28 -5q-29 -4 -29 -13v-273q0 -129 119 -129q66 0 95.5 33t29.5 109v213q0 32 -12.5 45.5t-50.5 16.5l-21 3l-3 17h185l-2 -14l-22 -4q-32 -2 -41 -17t-9 -57v-16t-0.5 -37.5 t-0.5 -52t-0.5 -49t-0.5 -39t0 -13.5q-1 -99 -49.5 -147t-151.5 -48zM315 508q-118 0 -152 182h24q16 -47 51 -70t79 -23t79.5 23.5t51.5 69.5h22q-31 -182 -155 -182z" />
<glyph horiz-adv-x="570" d="M288 -15q-102 0 -157 39.5t-55 116.5v304q0 5 -5.5 7.5t-28.5 5.5l-22 4l-2 17h264l-2 -17l-28 -5q-29 -4 -29 -13v-273q0 -129 119 -129q66 0 95.5 33t29.5 109v213q0 32 -12.5 45.5t-50.5 16.5l-21 3l-3 17h185l-2 -14l-22 -4q-32 -2 -41 -17t-9 -57v-16t-0.5 -37.5 t-0.5 -52t-0.5 -49t-0.5 -39t0 -13.5q-1 -99 -49.5 -147t-151.5 -48zM325 516q-43 0 -69 27.5t-26 67.5t26 68t69 28q42 0 68 -28t26 -68t-26 -67.5t-68 -27.5zM325 533q34 0 55 22.5t21 55.5t-21 56t-55 23q-35 0 -55.5 -23t-20.5 -56t20.5 -55.5t55.5 -22.5z" />
<glyph horiz-adv-x="570" d="M288 -15q-102 0 -157 39.5t-55 116.5v304q0 5 -5.5 7.5t-28.5 5.5l-22 4l-2 17h264l-2 -17l-28 -5q-29 -4 -29 -13v-273q0 -129 119 -129q66 0 95.5 33t29.5 109v213q0 32 -12.5 45.5t-50.5 16.5l-21 3l-3 17h185l-2 -14l-22 -4q-32 -2 -41 -17t-9 -57v-16t-0.5 -37.5 t-0.5 -52t-0.5 -49t-0.5 -39t0 -13.5q-1 -99 -49.5 -147t-151.5 -48zM360 513l108 184h139l-226 -184h-21zM161 513l108 184h138l-225 -184h-21z" />
<glyph horiz-adv-x="570" d="M329 -241q-47 0 -78 24.5t-31 69.5q0 82 112 134q-26 -2 -44 -2q-102 0 -157 39.5t-55 116.5v304q0 5 -5.5 7.5t-28.5 5.5l-22 4l-2 17h265l-2 -17l-29 -5q-29 -4 -29 -13v-273q0 -129 119 -129q66 0 95.5 33t29.5 109v213q0 32 -12.5 45.5t-50.5 16.5l-21 3l-3 17h185 l-2 -14l-21 -3q-33 -3 -42 -17.5t-9 -56.5l-2 -208q-1 -73 -26 -115.5t-79 -68.5q-39 -18 -59 -47t-20 -59q0 -31 19 -50t51 -19t72 34l6 -5q-14 -35 -46 -63t-78 -28z" />
<glyph horiz-adv-x="794" d="M285 513l139 200h23l139 -200h-18l-131 88h-2l-132 -88h-18zM227 -8l-149 390q-19 44 -32.5 58.5t-35.5 19.5l-11 2l-2 17h271l-2 -17l-21 -1q-30 -3 -35.5 -11.5t4.5 -27.5l98 -264h6l71 199l-8 25q-25 71 -63 78l-18 2l-3 17h277l-2 -17l-20 -1q-28 -3 -35 -13.5 t1 -33.5l85 -248h6l65 178q2 4 5 13q23 64 19 79q-8 18 -52 24l-17 2l-1 17h174l-2 -17l-12 -2q-40 -8 -51.5 -24.5t-44.5 -105.5l-127 -338h-47l-115 326h-5l-123 -326h-48z" />
<glyph horiz-adv-x="794" d="M227 -8l-149 390q-19 44 -32.5 58.5t-35.5 19.5l-11 2l-2 17h271l-2 -17l-21 -1q-30 -3 -35.5 -11.5t4.5 -27.5l98 -264h6l71 199l-8 25q-25 71 -63 78l-18 2l-3 17h277l-2 -17l-20 -1q-28 -3 -35 -13.5t1 -33.5l85 -248h6l65 178q2 4 5 13q23 64 19 79q-8 18 -52 24 l-17 2l-1 17h174l-2 -17l-12 -2q-40 -8 -51.5 -24.5t-44.5 -105.5l-127 -338h-47l-115 326h-5l-123 -326h-48zM449 513l-226 184h144l106 -184h-24z" />
<glyph horiz-adv-x="794" d="M362 513l106 184h143l-225 -184h-24zM227 -8l-149 390q-19 44 -32.5 58.5t-35.5 19.5l-11 2l-2 17h271l-2 -17l-21 -1q-30 -3 -35.5 -11.5t4.5 -27.5l98 -264h6l71 199l-8 25q-25 71 -63 78l-18 2l-3 17h277l-2 -17l-20 -1q-28 -3 -35 -13.5t1 -33.5l85 -248h6l65 178 q2 4 5 13q23 64 19 79q-8 18 -52 24l-17 2l-1 17h174l-2 -17l-12 -2q-40 -8 -51.5 -24.5t-44.5 -105.5l-127 -338h-47l-115 326h-5l-123 -326h-48z" />
<glyph horiz-adv-x="794" d="M537 523q-30 0 -48.5 20t-18.5 47q0 28 18.5 48.5t48.5 20.5q31 0 49.5 -20.5t18.5 -48.5q0 -27 -18.5 -47t-49.5 -20zM323 523q-30 0 -49.5 20t-19.5 47q0 28 19.5 48.5t49.5 20.5q31 0 49.5 -20.5t18.5 -48.5q0 -27 -18.5 -47t-49.5 -20zM227 -8l-149 390 q-19 44 -32.5 58.5t-35.5 19.5l-11 2l-2 17h271l-2 -17l-21 -1q-30 -3 -35.5 -11.5t4.5 -27.5l98 -264h6l71 199l-8 25q-25 71 -63 78l-18 2l-3 17h277l-2 -17l-20 -1q-28 -3 -35 -13.5t1 -33.5l85 -248h6l65 178q2 4 5 13q23 64 19 79q-8 18 -52 24l-17 2l-1 17h174l-2 -17 l-12 -2q-40 -8 -51.5 -24.5t-44.5 -105.5l-127 -338h-47l-115 326h-5l-123 -326h-48z" />
<glyph horiz-adv-x="538" d="M135 0l3 17l30 5q30 4 30 14v174l-108 178q-22 41 -33.5 53.5t-37.5 18.5l-7 2l-4 17h276l-2 -17l-9 -1q-61 -9 -41 -42l92 -170h7l46 80q33 61 40.5 83.5t-2.5 32.5t-48 14l-19 3l-2 17h197l-3 -17l-20 -3q-37 -6 -57 -29.5t-74 -119.5l-45 -79v-197q0 -5 6 -7.5 t28 -5.5l24 -4l1 -17h-268zM273 513l106 184h143l-225 -184h-24z" />
<glyph horiz-adv-x="538" d="M135 0l3 17l30 5q30 4 30 14v174l-108 178q-22 41 -33.5 53.5t-37.5 18.5l-7 2l-4 17h276l-2 -17l-9 -1q-61 -9 -41 -42l92 -170h7l46 80q33 61 40.5 83.5t-2.5 32.5t-48 14l-19 3l-2 17h197l-3 -17l-20 -3q-37 -6 -57 -29.5t-74 -119.5l-45 -79v-197q0 -5 6 -7.5 t28 -5.5l24 -4l1 -17h-268zM133 513l139 200h23l139 -200h-18l-131 88h-2l-132 -88h-18z" />
<glyph horiz-adv-x="538" d="M135 0l3 17l30 5q30 4 30 14v174l-108 178q-22 41 -33.5 53.5t-37.5 18.5l-7 2l-4 17h276l-2 -17l-9 -1q-61 -9 -41 -42l92 -170h7l46 80q33 61 40.5 83.5t-2.5 32.5t-48 14l-19 3l-2 17h197l-3 -17l-20 -3q-37 -6 -57 -29.5t-74 -119.5l-45 -79v-197q0 -5 6 -7.5 t28 -5.5l24 -4l1 -17h-268zM396 544q-30 0 -48.5 20t-18.5 47q0 28 18.5 48.5t48.5 20.5q31 0 49.5 -20.5t18.5 -48.5q0 -27 -18.5 -47t-49.5 -20zM182 544q-30 0 -49.5 20t-19.5 47q0 28 19.5 48.5t49.5 20.5q31 0 49.5 -20.5t18.5 -48.5q0 -27 -18.5 -47t-49.5 -20z" />
<glyph horiz-adv-x="512" d="M217 513l106 184h143l-225 -184h-24zM31 0v16l271 438v2l-58 3q-45 0 -88 -31.5t-66 -100.5l-7 -22h-29l3 174h414v-17l-285 -436v-3l40 -3q77 -5 128.5 30.5t89.5 134.5l8 24h29l-23 -209h-427z" />
<glyph horiz-adv-x="512" d="M31 0v16l271 438v2l-58 3q-45 0 -88 -31.5t-66 -100.5l-7 -22h-29l3 174h414v-17l-285 -436v-3l40 -3q77 -5 128.5 30.5t89.5 134.5l8 24h29l-23 -209h-427zM272 524q-35 0 -57 24t-22 56t22 56t57 24q36 0 57.5 -23.5t21.5 -56.5t-21.5 -56.5t-57.5 -23.5z" />
<glyph horiz-adv-x="512" d="M31 0v16l271 438v2l-58 3q-45 0 -88 -31.5t-66 -100.5l-7 -22h-29l3 174h414v-17l-285 -436v-3l40 -3q77 -5 128.5 30.5t89.5 134.5l8 24h29l-23 -209h-427zM268 506l-139 200h18l132 -88h2l131 88h18l-139 -200h-23z" />
<glyph horiz-adv-x="203" d="M-203 -121l580 751h29l-580 -751h-29z" />
<glyph horiz-adv-x="370" d="M339 43h-308l3 19h303z" />
<glyph horiz-adv-x="543" d="M267 -12q-108 0 -172.5 84.5t-64.5 235.5q0 148 68.5 237t177.5 89q108 0 172.5 -84.5t64.5 -233.5q0 -147 -68 -237.5t-178 -90.5zM270 7q96 0 96 297q0 120 -9.5 187.5t-29.5 95.5t-55 28q-48 0 -72 -68.5t-24 -222.5q0 -179 21 -248t73 -69z" />
<glyph horiz-adv-x="413" d="M58 0l3 20l38 5q17 2 24.5 3.5t13 5t5.5 9.5l-1 518l-94 11l3 15l239 50v-596q0 -13 47 -16l31 -5l2 -20h-311z" />
<glyph horiz-adv-x="498" d="M27 0l-8 49q145 136 186 184q80 97 81 185q0 58 -31.5 92t-83.5 34q-83 0 -136 -83l-8 9q74 169 222 169q79 0 128.5 -46.5t49.5 -118.5q0 -39 -18.5 -77.5t-57.5 -79t-71.5 -69.5t-88 -73.5t-80.5 -66.5l1 -6h217q45 0 67 20t51 81l10 21l17 -1l-49 -223h-398z" />
<glyph horiz-adv-x="473" d="M176 -31q-71 0 -115 26t-44 68q0 27 17.5 44.5t43.5 17.5q43 0 65.5 -40.5t19.5 -88.5q6 -4 23 -4q53 0 85.5 42t32.5 110q0 64 -36 99t-95 35q-35 0 -80 -20l-8 17q100 53 141 88.5t41 85.5q0 46 -29.5 71t-77.5 25q-81 0 -126 -80l-8 10q32 73 91 119t132 46 q70 0 113.5 -37.5t43.5 -91.5q0 -30 -12.5 -54.5t-40 -45t-47 -31.5t-57.5 -30v-3q86 2 140 -39.5t54 -116.5q0 -90 -77.5 -156t-189.5 -66z" />
<glyph horiz-adv-x="529" d="M279 0l-1 158h-255l-4 23l315 456h77v-400h109l-20 -79h-90v-158h-131zM84 237h194v280h-1z" />
<glyph horiz-adv-x="451" d="M160 -30q-155 0 -155 95q0 27 18 46t45 19q45 0 66 -39.5t4 -84.5q20 -13 53 -13q47 0 81 37.5t34 97.5q0 79 -69.5 124t-200.5 53l79 320h301l-17 -122h-289l-20 -79q168 -10 248 -69t80 -152t-81 -163t-177 -70z" />
<glyph horiz-adv-x="540" d="M271 -14q-107 0 -175 75.5t-68 195.5q0 163 133.5 275.5t331.5 126.5l5 -17q-83 -12 -150.5 -61.5t-104 -110t-50.5 -123.5l2 -1q70 54 143 54q80 0 129 -51t49 -139q0 -93 -70.5 -158.5t-174.5 -65.5zM281 5q42 0 64.5 46.5t22.5 131.5q0 166 -110 166q-35 0 -64 -24 q-9 -31 -9 -91q0 -107 25 -168t71 -61z" />
<glyph horiz-adv-x="469" d="M67 -2l320 509l-1 2h-151q-73 0 -109.5 -7t-50.5 -21t-21 -44l-11 -25l-17 1l26 212h406l2 -18l-272 -609h-121z" />
<glyph horiz-adv-x="515" d="M260 -15q-104 0 -169 45.5t-65 119.5q0 46 40.5 82.5t100.5 51.5v1q-134 59 -134 163q0 81 58.5 136.5t159.5 55.5q102 0 164.5 -40.5t62.5 -110.5q0 -46 -39 -79t-100 -49v-1q150 -60 150 -175q0 -83 -63.5 -141.5t-165.5 -58.5zM313 367q36 27 36 105q0 63 -28 106 t-73 43q-43 0 -68.5 -30.5t-25.5 -73.5q-1 -49 36.5 -82.5t122.5 -67.5zM267 8q43 0 73 31.5t30 74.5q0 52 -44.5 89.5t-132.5 72.5q-36 -28 -36 -113q0 -60 31 -107.5t79 -47.5z" />
<glyph horiz-adv-x="540" d="M46 -33l-5 15q83 12 150.5 61.5t104 109.5t51.5 124l-3 3q-69 -55 -143 -55q-78 0 -128 50.5t-50 138.5q0 96 72 161t174 65q109 0 175.5 -72.5t66.5 -192.5q0 -163 -134 -279t-331 -129zM281 276q34 0 63 24q10 30 10 91q0 59 -8.5 108.5t-30.5 85t-56 35.5 q-37 0 -62.5 -46t-25.5 -131q0 -80 29 -123.5t81 -43.5z" />
<glyph horiz-adv-x="529" d="M172 -8q-61 7 -117 28l-14 181h32l52 -113q26 -32 58 -51l3 12q4 12 9 31.5t11 43l12 47t11 42.5t8 31l3 12l-8 3q-44 15 -72 28t-57.5 33.5t-43.5 50t-14 68.5q0 86 67.5 142t167.5 56q18 0 58 -4l27 105h25l-28 -109q40 -9 62 -16l48 15l3 -194h-29l-89 161l-3 2 l-49 -188l7 -3q37 -12 62.5 -22.5t53.5 -28t45 -37.5t28 -49.5t11 -65.5q0 -89 -71.5 -152.5t-178.5 -63.5q-35 0 -65 3l-38 -147h-26zM206 25q30 -12 61 -12q61 0 93 29t32 79q0 49 -32.5 76.5t-95.5 50.5zM331 605q-27 6 -57 6q-49 0 -79.5 -24.5t-30.5 -62.5 q0 -40 30 -63.5t88 -43.5z" />
<glyph horiz-adv-x="459" d="M168 -159l37 146q-80 12 -130.5 73t-50.5 148q0 107 71.5 177.5t180.5 70.5q10 0 50 -5l42 162h24l-45 -166q44 -11 70.5 -37.5t26.5 -60.5q0 -29 -19 -49t-47 -20q-45 0 -62 43l-62 -236q29 -18 65 -18q80 0 122 76l13 -4q-27 -73 -82.5 -115t-130.5 -42q-8 0 -13 1 l-37 -144h-23zM234 100l84 318q-20 12 -36 12q-46 0 -73.5 -46t-27.5 -130q0 -107 53 -154z" />
<glyph horiz-adv-x="583" d="M187 290h-119l3 23h105q-33 78 -33 113q0 94 75.5 149t187.5 55q144 0 144 -101q0 -28 -20.5 -49t-50.5 -21q-49 0 -66.5 46.5t11.5 87.5q-13 16 -45 16q-38 0 -60 -30t-22 -93q0 -17 9 -76t11 -97h129l3 -23h-131v-10q0 -63 -36 -140q113 -41 164 -41q48 0 71 24t33 89 l15 -3q2 -91 -44 -158t-121 -67q-82 0 -180 65q-62 -65 -133 -65q-38 0 -62.5 23t-24.5 60q0 48 38.5 78t98.5 30q38 0 94 -17q-1 36 -44 132zM198 63q-29 20 -42 27.5t-34 16.5t-37 9q-63 0 -63 -54q0 -26 18.5 -42t47.5 -16q62 0 110 59z" />
<glyph horiz-adv-x="635" d="M151 0l3 18l44 6q40 4 40 18v108h-183l3 22h181v107h-182l-1 23h171q1 0 -30.5 53.5t-62.5 106.5l-32 54q-30 50 -47.5 66.5t-48.5 19.5l-21 5l-4 18h347l-3 -18l-25 -3q-67 -3 -27 -78l113 -218h2l32 61q25 50 40 82.5t24.5 60t10 42.5t-7 26.5t-22 16.5t-39.5 8l-21 3 l-4 17h252l-3 -17l-19 -4q-35 -7 -67 -39t-69 -101q-86 -162 -87 -162h182l-1 -23h-186v-107h185l3 -22h-187v-110q0 -7 9 -10.5t38 -6.5l37 -5l3 -18h-340z" />
<glyph horiz-adv-x="531" d="M315 -13q-97 0 -163 64.5t-85 177.5h-64l3 23h58q-2 14 -2 45q0 37 5 61h-64l3 23h65q25 111 103 179.5t178 68.5q75 0 118 -26t43 -73q0 -27 -21.5 -47.5t-51.5 -20.5q-48 0 -66 46t14 88q-20 10 -40 10q-56 0 -89.5 -62t-42.5 -163h184l3 -23h-189q-1 -10 -1 -32 q0 -40 6 -74h181l3 -23h-178q42 -156 164 -156q85 0 130 76l10 -6q-27 -73 -83 -114.5t-131 -41.5z" />
<glyph horiz-adv-x="322" d="M161 366q-61 0 -99 40t-38 98t37.5 98.5t99.5 40.5t99.5 -40.5t37.5 -98.5t-37.5 -98t-99.5 -40zM161 386q51 0 83 34t32 84t-32 84.5t-83 34.5t-82.5 -34.5t-31.5 -84.5t31.5 -84t82.5 -34z" />
<glyph d="M211 102v198h-198l3 26h195v198h26v-198h195l3 -26h-198v-198h-26z" />
<glyph d="M412 300h-376l3 26h370z" />
<glyph d="M211 159v162h-198l3 26h195v168h26v-168h195l3 -26h-198v-162h-26zM422 102h-396l3 26h390z" />
<glyph d="M420 391v-184h-26v158h-382l3 26h405z" />
<glyph d="M27 386l-3 26h400l-3 -26h-394zM24 213l3 26h394l3 -26h-400z" />
<glyph d="M27 386l-3 26h215l43 150h28l-43 -150h157l-3 -26h-161l-42 -147h203l3 -26h-213l-45 -160h-28l45 160h-159l3 26h163l42 147h-205z" />
<glyph d="M409 282h26q-19 -98 -108 -98q-34 0 -106 34q-68 33 -100 33q-34 0 -53.5 -15t-28.5 -57h-26q19 98 108 98q34 0 106 -34q68 -33 100 -33q35 0 54 15t28 57zM409 446h26q-19 -98 -108 -98q-34 0 -106 34q-68 33 -100 33q-34 0 -53.5 -15t-28.5 -57h-26q19 98 108 98 q34 0 106 -34q68 -33 100 -33q35 0 54 15t28 57z" />
<glyph d="M31 138l175 175q-13 13 -49 48.5t-78 78t-48 48.5l18 18l175 -175l175 175l18 -18l-175 -175q13 -13 48.5 -49t78 -78t48.5 -48l-18 -18l-175 175l-175 -175z" />
<glyph d="M275 454q0 -21 -15 -36.5t-37 -15.5q-21 0 -36 15.5t-15 36.5q0 20 15 35t36 15q22 0 37 -15t15 -35zM426 300h-404l3 26h398zM275 175q0 -21 -15 -36.5t-36 -15.5q-22 0 -37 15.5t-15 36.5q0 20 15 34.5t37 14.5q21 0 36 -14.5t15 -34.5z" />
<glyph horiz-adv-x="438" d="M411 109l-400 194v18l400 194l10 -24l-370 -177l1 -1q66 -32 191.5 -93.5t177.5 -86.5z" />
<glyph horiz-adv-x="438" d="M427 303l-400 -194l-10 24l369 179v1q-60 29 -185 89t-184 89l10 24l400 -194v-18z" />
<glyph horiz-adv-x="438" d="M420 102h-409l3 26h403zM410 161l-399 174v18l399 174l10 -24l-368 -157l1 -1q58 -25 183.5 -80t183.5 -80z" />
<glyph horiz-adv-x="438" d="M427 102h-409l3 26h403zM427 335l-399 -174l-10 24l367 159v1q-345 149 -367 158l10 24l399 -174v-18z" />
<glyph horiz-adv-x="190" d="M84 -130v877h22v-877h-22z" />
<glyph horiz-adv-x="190" d="M84 369v335h22v-335h-22zM84 -77v335h22v-335h-22z" />
<glyph horiz-adv-x="434" d="M217 120q-21 0 -71 20.5t-64 35.5q-15 16 -36 66t-21 71q0 22 21 71.5t36 64.5t65 35.5t71 20.5q22 0 71.5 -20.5t64.5 -35.5t35.5 -64.5t20.5 -71.5t-20 -71.5t-36 -65.5q-15 -15 -65 -35.5t-72 -20.5z" />
<glyph horiz-adv-x="407" d="M282 236q-33 0 -101 32.5t-88 32.5q-15 0 -25 -11.5t-14 -44.5h-22q6 81 26.5 112t66.5 31q33 0 100 -32.5t87 -32.5q16 0 26.5 11t15.5 44h20q-5 -81 -25.5 -111.5t-66.5 -30.5z" />
<glyph horiz-adv-x="195" d="M-1 403l107 241h2l87 -34l-177 -207h-19z" />
<glyph horiz-adv-x="374" d="M180 403l107 241h1l87 -34l-175 -207h-20zM-1 403l107 241h2l87 -34l-177 -207h-19z" />
<glyph horiz-adv-x="340" d="M326 -151q-43 24 -86.5 64t-84.5 97.5t-66.5 136.5t-25.5 165t25.5 165.5t66.5 137t84.5 97.5t86.5 63l12 -18q-93 -51 -171 -171t-78 -274q0 -81 24 -156.5t62 -130.5t79.5 -94.5t83.5 -62.5z" />
<glyph horiz-adv-x="340" d="M14 -151l-12 18q42 23 83.5 62.5t79.5 95t62 131t24 156.5q0 154 -78 274t-171 171l12 18q43 -23 86.5 -63t84.5 -97.5t66.5 -137t25.5 -165.5t-25.5 -165t-66.5 -136.5t-84.5 -97.5t-86.5 -64z" />
<glyph horiz-adv-x="325" d="M64 -124v872h250v-22h-224v-827h224v-23h-250z" />
<glyph horiz-adv-x="325" d="M11 -124v23h224v827h-224v22h250v-872h-250z" />
<glyph horiz-adv-x="332" d="M215 304l-61 22l7 136q-1 4 -8 4l-63 -118l-65 11q-5 0 -9 7l1 67l131 36q1 1 1 6t-1 6l-131 36l-1 68q2 5 9 5l65 12l62 -116q1 -2 4.5 -1t3.5 2l-8 137l64 22q2 1 6 -2l2 -1l33 -53l-90 -104q-1 -1 0 -3t2.5 -3.5t2.5 -1.5l124 53l43 -51q1 -2 1 -6t-1 -5l-43 -49 l-124 53q-2 0 -4 -4t-1 -6l90 -102l-33 -53q-1 -1 -3 -2l-4 -2h-2z" />
<glyph horiz-adv-x="346" d="M331 -143q-106 8 -174 58t-68 115q0 34 29.5 103t29.5 87q0 37 -26.5 54t-98.5 24l-5 14l5 15q71 8 98 24.5t27 53.5q0 18 -29.5 87t-29.5 103q0 65 68 115t174 58l2 -16q-58 -7 -90.5 -32t-32.5 -57q0 -28 29.5 -101.5t29.5 -108.5q0 -61 -47 -94.5t-163 -43.5v-5 q116 -11 163 -44t47 -94q0 -35 -29.5 -109t-29.5 -102q0 -32 32.5 -56.5t90.5 -31.5z" />
<glyph horiz-adv-x="346" d="M16 -143l-3 16q59 7 91.5 31.5t32.5 56.5q0 28 -29.5 102t-29.5 109q0 61 46.5 94t162.5 44v5q-115 10 -162 43.5t-47 94.5q0 35 29.5 108.5t29.5 101.5q0 33 -33 57.5t-91 31.5l3 16q106 -8 174 -58t68 -115q0 -34 -30 -103t-30 -87q0 -37 27.5 -53.5t98.5 -24.5l4 -15 l-4 -14q-72 -7 -99 -24t-27 -54q0 -18 30 -87t30 -103q0 -65 -68 -115t-174 -58z" />
<glyph horiz-adv-x="450" d="M205 -50q-67 0 -107 22.5t-40 63.5q0 25 17 43.5t42 18.5q44 0 63.5 -33t1.5 -83q28 -10 46 -10q28 0 49 19t21 43q0 14 -8 27t-17 21.5t-30 20t-33 16.5t-39 17q-38 16 -58 26.5t-48 29t-40.5 41.5t-12.5 52q0 70 91 123q-39 34 -39 84q0 64 56.5 105.5t121.5 41.5 q67 0 105.5 -22t38.5 -63q0 -26 -17 -44t-43 -18q-42 0 -59.5 33.5t-6.5 82.5q-26 10 -41 10q-28 0 -46.5 -18.5t-18.5 -42.5q0 -23 20 -43t42 -31t64 -28q40 -17 59 -26.5t47.5 -29t41 -42.5t12.5 -52q0 -70 -92 -122q40 -35 40 -84q0 -63 -59.5 -106t-123.5 -43zM336 192 q26 19 26 44q0 35 -31 57t-100 49q-91 40 -115 57q-26 -21 -26 -43q0 -19 8.5 -34.5t29.5 -29t38 -21.5t53 -23q84 -33 117 -56z" />
<glyph horiz-adv-x="446" d="M363 -32v273q-30 -5 -72 -5q-121 0 -194 50.5t-73 138.5q0 100 69.5 150t223.5 50h76v-657h-30z" />
<glyph horiz-adv-x="229" d="M115 -13q-33 0 -56 23.5t-23 56.5q0 32 23 54.5t56 22.5q31 0 54.5 -23.5t23.5 -53.5q0 -33 -23 -56.5t-55 -23.5z" />
<glyph horiz-adv-x="223" d="M43 -153l-12 14q92 51 92 125q0 44 -36.5 63t-64.5 8q-10 30 14.5 63t66.5 33q47 0 75 -31.5t28 -74.5q0 -56 -43 -111t-120 -89z" />
<glyph horiz-adv-x="227" d="M115 280q-33 0 -56 23t-23 56q0 32 23 54.5t56 22.5q32 0 55 -23t23 -54q0 -32 -23.5 -55.5t-54.5 -23.5zM115 -12q-33 0 -56 23t-23 55t23 54.5t56 22.5q32 0 55 -23t23 -54q0 -32 -23.5 -55t-54.5 -23z" />
<glyph horiz-adv-x="223" d="M109 280q-32 0 -54.5 23t-22.5 56q0 31 23 54t54 23q33 0 56 -23t23 -54q0 -33 -23 -56t-56 -23zM43 -151l-12 13q92 51 92 124q0 43 -36 61.5t-65 9.5q-10 30 14.5 63t66.5 33q46 0 74.5 -31.5t28.5 -73.5q0 -57 -42.5 -111t-120.5 -88z" />
<glyph horiz-adv-x="231" d="M115 165q-33 0 -56 23.5t-23 56.5q0 32 23 54.5t56 22.5q31 0 54.5 -23.5t23.5 -53.5q0 -33 -23 -56.5t-55 -23.5z" />
<glyph horiz-adv-x="297" d="M23 288l3 48h249l-2 -48h-250z" />
<glyph horiz-adv-x="440" d="M13 292l3 40h408l3 -40h-414z" />
<glyph horiz-adv-x="909" d="M13 292l3 40h877l5 -40h-885z" />
<glyph horiz-adv-x="750" d="M88 45l288 539l286 -539h-574zM502 137l-127 261l-127 -261h254z" />
<glyph horiz-adv-x="750" d="M145 600l539 -288l-539 -286v574zM237 186l261 127l-261 127v-254z" />
<glyph horiz-adv-x="750" d="M88 584h574l-286 -539zM502 492h-254l127 -261z" />
<glyph horiz-adv-x="750" d="M604 600v-574l-539 286zM512 186v254l-261 -127z" />
<glyph horiz-adv-x="750" d="M88 45l288 539l286 -539h-574z" />
<glyph horiz-adv-x="750" d="M145 600l539 -288l-539 -286v574z" />
<glyph horiz-adv-x="750" d="M88 584h574l-286 -539z" />
<glyph horiz-adv-x="750" d="M604 600v-574l-539 286z" />
<glyph horiz-adv-x="750" d="M240 -10l121 434l-62 -20l-124 -42l-62 -21l-4 4l262 305h7l262 -305l-4 -4l-248 83l122 -434h-270z" />
<glyph horiz-adv-x="750" d="M410 46l-4 4l83 248l-434 -122v270q434 -121 434 -122l-21 62q-20 62 -41 124l-21 63l4 4l305 -262v-7z" />
<glyph horiz-adv-x="750" d="M371 -35l-262 305l4 4l248 -83l-121 434h270l-122 -434l248 83l4 -4l-262 -305h-7z" />
<glyph horiz-adv-x="750" d="M340 46l-305 262v7l305 262l4 -4l-83 -248l434 121v-270l-434 122l83 -248z" />
<glyph horiz-adv-x="500" d="M41 417h418v-417h-418v417zM406 53v313h-313v-313h313z" />
<glyph horiz-adv-x="500" d="M41 417h418v-417h-418v417zM368 91v236h-236v-236h236z" />
<glyph horiz-adv-x="500" d="M41 417h418v-417h-418v417zM414 373h-37l37 -37v37zM414 307l-65 66h-65l130 -130v64zM414 215l-158 158h-64l222 -222v64zM414 123l-250 250h-64l314 -314v64zM400 46l-314 313v-65l250 -248h64zM307 46l-221 220v-64l157 -156h64zM214 46l-128 127v-64l64 -63h64z M122 46l-36 36v-36h36z" />
<glyph horiz-adv-x="500" d="M41 0v417h418v-417h-418z" />
<glyph horiz-adv-x="750" d="M688 626v-626h-626v626h626zM633 55v516h-516v-516h516z" />
<glyph horiz-adv-x="750" d="M688 626v-626h-626v626h626zM177 511v-396h396v396h-396z" />
<glyph horiz-adv-x="750" d="M688 626v-626h-626v626h626zM633 493v78h-78zM633 351v116l-104 104h-116zM633 209v116l-246 246h-116zM633 68v116l-387 387h-116zM505 55h116l-504 504v-116zM117 417v-116l246 -246h116zM221 55h116l-220 220v-116zM117 135v-80h80z" />
<glyph horiz-adv-x="750" d="M688 626v-626h-626v626h626z" />
<glyph horiz-adv-x="500" d="M250 -10q-92 0 -155.5 63.5t-63.5 155.5t63.5 155t155.5 63t155.5 -63t63.5 -155t-63.5 -155.5t-155.5 -63.5zM416 209q0 70 -48 119t-118 49t-118 -49t-48 -119t48 -119t118 -49t118 49t48 119z" />
<glyph horiz-adv-x="500" d="M250 -10q-92 0 -155.5 63.5t-63.5 155.5t63.5 155t155.5 63t155.5 -63t63.5 -155t-63.5 -155.5t-155.5 -63.5zM376 209q0 53 -36.5 90.5t-89.5 37.5t-89.5 -37.5t-36.5 -90.5q0 -54 36 -91t90 -37t90 37t36 91z" />
<glyph horiz-adv-x="500" d="M250 -10q-92 0 -155.5 63.5t-63.5 155.5t63.5 155t155.5 63t155.5 -63t63.5 -155t-63.5 -155.5t-155.5 -63.5zM376 337q-45 43 -101 50l151 -151q-7 58 -50 101zM428 205l-184 184q-32 -2 -55 -11l228 -229q9 24 11 56zM410 128l-241 242q-18 -7 -38 -27l253 -254 q17 17 26 39zM370 75l-254 254q-17 -17 -26 -40l242 -241q19 8 38 27zM311 39l-229 229q-8 -24 -10 -55l184 -184q31 0 55 10zM74 182q7 -60 53 -104q42 -41 98 -48z" />
<glyph horiz-adv-x="500" d="M250 -10q-92 0 -155.5 63.5t-63.5 155.5t63.5 155t155.5 63t155.5 -63t63.5 -155t-63.5 -155.5t-155.5 -63.5z" />
<glyph horiz-adv-x="750" d="M703 313q0 -138 -95 -233t-233 -95t-233 95t-95 233t95 233t233 95t233 -95t95 -233zM375 37q116 0 194.5 80.5t78.5 195.5t-78.5 195.5t-194.5 80.5t-194.5 -80.5t-78.5 -195.5t78.5 -195.5t194.5 -80.5z" />
<glyph horiz-adv-x="750" d="M703 313q0 -138 -95 -233t-233 -95t-233 95t-95 233t95 233t233 95t233 -95t95 -233zM375 529q-90 0 -151.5 -63t-61.5 -153t61.5 -153t151.5 -63t151.5 63t61.5 153t-61.5 153t-151.5 63z" />
<glyph horiz-adv-x="750" d="M703 313q0 -138 -95 -233t-233 -95t-233 95t-95 233t95 234t233 96t233 -96t95 -234zM647 337q-8 102 -78.5 173t-172.5 78zM629 212q17 45 19 98l-279 279q-53 -2 -97 -19l60 -60t115 -115.5t130 -130.5zM576 125q28 29 46 69l-92 92q-91 92 -183 184l-92 92 q-38 -18 -68 -48zM496 64q38 18 68 48l-390 390q-27 -28 -46 -70zM120 414q-16 -45 -18 -98l279 -279q49 0 97 19zM103 289q8 -102 78.5 -173t172.5 -78z" />
<glyph horiz-adv-x="750" d="M703 313q0 -138 -95 -233t-233 -95t-233 95t-95 233t95 233t233 95t233 -95t95 -233z" />
<glyph horiz-adv-x="758" d="M378 -65l-84 180l-187 -68l68 187l-181 86l181 83l-68 189l187 -69l86 181l83 -181l189 69l-69 -189l180 -82l-180 -85l69 -189l-189 69zM378 -17l64 186l176 -88l-87 177l184 63l-184 61l87 176l-176 -87l-62 185l-64 -185l-175 87l87 -176l-186 -62l186 -64l-87 -175 l175 88z" />
</font>
</defs>
</svg>
