<svg xmlns="http://www.w3.org/2000/svg" xmlns:xlink="http://www.w3.org/1999/xlink" width="16" height="16.477" viewBox="0 0 16 16.477"><defs><clipPath id="a"><path d="M0,5.868H16V-10.609H0Z" transform="translate(0 10.609)" fill="none"/></clipPath></defs><g transform="translate(0 10.609)"><g transform="translate(0 -10.609)" clip-path="url(#a)"><g transform="translate(0.565 0.427)"><path d="M4.7,2.219,6.372,1.043,5.04-1.255,3.175-.409A5.773,5.773,0,0,0,.453-1.981L.27-4.012H-2.395l-.183,2.031A5.773,5.773,0,0,0-5.3-.409l-1.865-.846L-8.5,1.043l1.673,1.176a5.9,5.9,0,0,0,0,3.143L-8.5,6.557l1.333,2.3L-5.3,8A6.013,6.013,0,0,0-2.578,9.562l.183,2.049H.27L.453,9.562A6.013,6.013,0,0,0,3.175,8l1.865.854,1.333-2.3L4.7,5.362A5.883,5.883,0,0,0,4.7,2.219ZM-1.062,6.1a2.3,2.3,0,0,1-2.3-2.3,2.3,2.3,0,0,1,2.3-2.3,2.3,2.3,0,0,1,2.3,2.3A2.3,2.3,0,0,1-1.062,6.1Z" transform="translate(8.497 4.012)" fill="none" stroke="#000" stroke-width="0.75"/></g></g></g></svg>