<svg id="whitecase_logo" xmlns="http://www.w3.org/2000/svg" viewBox="0 0 161.97 12.41"><defs><style>.cls-1{fill:#fff;}</style></defs><title>WhiteCase logo</title><path class="cls-1" d="M87.83,2.21V3.88L89.76,6.2a5.5,5.5,0,0,0-2.73,3,3.41,3.41,0,0,0-.18,1.14,3.73,3.73,0,0,0,.71,2.2A5.13,5.13,0,0,0,93.46,14a6.14,6.14,0,0,0,1.84-1.25l1.1,1.31h2.9L91,4.21h5.91v-2h-9.1Zm1.52,9.25A2,2,0,0,1,89,10.27a1.89,1.89,0,0,1,.1-0.63A3.5,3.5,0,0,1,91,7.74l3,3.55a3.4,3.4,0,0,1-1.41,1,2.78,2.78,0,0,1-3.28-.81h0Zm3.33,0.94h0" transform="translate(-3 -2)"/><polyline class="cls-1" points="75.28 2.13 66.81 2.13 66.81 4.82 72.52 4.82 72.52 6.88 66.81 6.88 66.81 9.88 75.42 9.88 75.42 11.93 64.28 11.93 64.28 0.21 75.28 0.21 75.28 2.13"/><polyline class="cls-1" points="161.84 2.13 153.36 2.13 153.36 4.82 159.07 4.82 159.07 6.88 153.36 6.88 153.36 9.88 161.97 9.88 161.97 11.93 150.83 11.93 150.83 0.21 161.84 0.21 161.84 2.13"/><path class="cls-1" d="M10.82,2.34L8.15,10.21,5.41,2.36H3L7.16,13.89h1.9l2.82-8.52,2.92,8.52h1.8l4-11.53H18.32L15.71,10.2,13,2.34H10.82" transform="translate(-3 -2)"/><polyline class="cls-1" points="32.3 4.76 32.3 0.21 34.86 0.21 34.86 11.93 32.3 11.93 32.3 6.95 25.13 6.95 25.13 11.93 22.57 11.93 22.57 0.21 25.13 0.21 25.13 4.76 32.3 4.76"/><polyline class="cls-1" points="40.76 11.93 40.76 0.21 43.28 0.21 43.28 11.93 40.76 11.93"/><polyline class="cls-1" points="55.12 11.93 52.58 11.93 52.58 2.29 47.92 2.29 47.92 0.21 59.77 0.21 59.77 2.29 55.12 2.29 55.12 11.93"/><path class="cls-1" d="M107.38,3.84a5.87,5.87,0,0,0-1.65,4.25c0,4.16,3.26,6,6.5,6a9.31,9.31,0,0,0,4.69-1.51l0,0-1-1.74,0,0A6.29,6.29,0,0,1,112.23,12,3.91,3.91,0,0,1,108,8a4,4,0,0,1,4.19-4,8.72,8.72,0,0,1,3.71,1l0,0,0.94-1.89A10.2,10.2,0,0,0,112.23,2a6.75,6.75,0,0,0-4.84,1.84" transform="translate(-3 -2)"/><path class="cls-1" d="M127.18,5.24l1.7,4.15h-3.43l1.73-4.15h0Zm-3.81,8.69,1.16-2.51h5.3l1.22,2.51h3.18L128,2.21h-1.88l-5.82,11.72h3" transform="translate(-3 -2)"/><path class="cls-1" d="M138,12.8l0.82-1.89a9,9,0,0,0,4.25,1.24c1,0,3.59-.21,3.61-1.57,0-2.72-9.06.59-9-4.86,0-1.86,1.77-3.68,5.46-3.64a11.6,11.6,0,0,1,5.2,1.23L147.41,5.1A9.74,9.74,0,0,0,143.19,4c-1.32,0-2.95.34-3,1.32,0,2.83,9.05-.37,9,5,0,3.07-3.71,3.77-6.13,3.76C139.6,14,138,12.8,138,12.8" transform="translate(-3 -2)"/></svg>