<svg xmlns="http://www.w3.org/2000/svg" xmlns:xlink="http://www.w3.org/1999/xlink" width="16" height="14.025" viewBox="0 0 16 14.025"><defs><clipPath id="a"><path d="M0,4.225H16V-9.8H0Z" transform="translate(0 9.8)" fill="none"/></clipPath><clipPath id="b"><rect width="93788.906" height="93788.906" fill="none"/></clipPath></defs><g transform="translate(0 9.8)"><g transform="translate(0 -9.8)" clip-path="url(#a)"><g transform="translate(-46895.168 -46879.711)"><g clip-path="url(#b)"><g transform="translate(46902.855 46891.063)"><path d="M.095,0A.314.314,0,0,0-.22.315V.329A.314.314,0,0,0,.095.644.314.314,0,0,0,.41.329.315.315,0,0,0,.109,0H.095" transform="translate(0.22)" fill="#221f1f"/></g><g transform="translate(46895.168 46879.711)"><path d="M4.346,3.277a6.547,6.547,0,0,1-2.361.472V2.418a7.133,7.133,0,0,0,2.59-.5A3.368,3.368,0,0,0,5.29,1.5v.916c0,.286-.358.615-.945.859m-3.893,2a6.669,6.669,0,0,1-2.533.458,6.669,6.669,0,0,1-2.533-.458c-.572-.258-.9-.587-.9-.873V3.52l.229.157a5.392,5.392,0,0,0,1.918.644.329.329,0,0,0,.329-.329.329.329,0,0,0-.329-.329C-4.8,3.435-5.6,2.848-5.6,2.418V1.5a5.724,5.724,0,0,0,3.521.916A5.721,5.721,0,0,0,1.369,1.5v.916c0,.429-.787,1.016-2.233,1.245a.328.328,0,0,0-.272.372.331.331,0,0,0,.315.286,5.321,5.321,0,0,0,1.9-.644l.286-.157v.9c0,.286-.343.615-.9.873M-8.506,3.277c-.587-.243-.945-.572-.945-.859v-.93a3.081,3.081,0,0,0,.716.415,7.178,7.178,0,0,0,2.59.515V3.764a6.467,6.467,0,0,1-2.361-.487m0-9.746A6.743,6.743,0,0,1-5.93-6.927a6.765,6.765,0,0,1,2.59.458c.587.258.945.587.945.873s-.358.615-.945.873a7.054,7.054,0,0,1-2.59.458,7.017,7.017,0,0,1-2.576-.472C-9.093-4.98-9.45-5.31-9.45-5.6s.358-.572.945-.873m7.685,0a6.743,6.743,0,0,1,2.576-.458,6.765,6.765,0,0,1,2.59.458c.587.258.945.587.945.873s-.358.615-.945.873a7.054,7.054,0,0,1-2.59.458A7.017,7.017,0,0,1-.821-4.737c-.587-.258-.945-.587-.945-.873s.358-.558.945-.859M5.29-3.607c0,.286-.358.615-.945.873a7.054,7.054,0,0,1-2.59.458A7.009,7.009,0,0,1-.821-2.734c-.587-.258-.945-.587-.945-.873v-.916a2.612,2.612,0,0,0,.716.415,7.283,7.283,0,0,0,2.862.515,7.414,7.414,0,0,0,2.862-.515,2.883,2.883,0,0,0,.716-.415Zm0,2c0,.286-.358.615-.945.873A7.009,7.009,0,0,1,1.77-.272,2.619,2.619,0,0,0,.439-1.188a6.934,6.934,0,0,0-2.2-.4v-.93A2.612,2.612,0,0,0-1.05-2.1a7.283,7.283,0,0,0,2.862.515A7.414,7.414,0,0,0,4.675-2.1a2.883,2.883,0,0,0,.716-.415ZM-5.486.243C-5.257-.329-3.912-.93-2.08-.93s3.163.6,3.449,1.174a.69.69,0,0,1,0,.172c0,.286-.343.615-.9.873a6.416,6.416,0,0,1-2.533.458A6.416,6.416,0,0,1-4.6,1.288C-5.171,1.03-5.5.7-5.5.415a.349.349,0,0,1,0-.172M-9.45-.444a3.031,3.031,0,0,0,.716.415,7.436,7.436,0,0,0,2.59.515V1.817a6.8,6.8,0,0,1-2.361-.53C-9.093.987-9.45.7-9.45.415Zm.716-1.589a7.283,7.283,0,0,0,2.862.515A7.414,7.414,0,0,0-3.01-2.032a2.883,2.883,0,0,0,.716-.415v.859a6.819,6.819,0,0,0-2.2.415A2.619,2.619,0,0,0-5.83-.258,6.974,6.974,0,0,1-8.406-.716C-9.093-.973-9.45-1.3-9.45-1.589v-.93a2.612,2.612,0,0,0,.716.415m6.34-1.431c0,.286-.358.615-.945.873A7.054,7.054,0,0,1-5.93-2.2a7.009,7.009,0,0,1-2.576-.458c-.587-.315-.945-.644-.945-.93v-.93a2.612,2.612,0,0,0,.716.415,7.283,7.283,0,0,0,2.862.515A7.414,7.414,0,0,0-3.01-4.107a2.883,2.883,0,0,0,.716-.415ZM5.29.472c0,.286-.358.615-.945.873A6.87,6.87,0,0,1,1.984,1.8V.415A7.436,7.436,0,0,0,4.575-.1,3.368,3.368,0,0,0,5.29-.515ZM4.575-7.084A7.414,7.414,0,0,0,1.712-7.6a7.283,7.283,0,0,0-2.862.515,2.765,2.765,0,0,0-1.03.7,2.747,2.747,0,0,0-.93-.7A7.393,7.393,0,0,0-5.93-7.6a7.283,7.283,0,0,0-2.862.515c-.816.372-1.288.916-1.288,1.488V2.418c0,.587.472,1.116,1.345,1.431a7.133,7.133,0,0,0,2.59.5c0,1.131,1.746,2,4.064,2s4.064-.873,4.064-2a7.133,7.133,0,0,0,2.59-.5c.859-.372,1.345-.9,1.345-1.431V-5.6c0-.587-.487-1.116-1.345-1.431" transform="translate(10.08 7.601)" fill="#221f1f"/></g></g></g></g></g></svg>